<?xml version="1.0" encoding="utf-8"?>
<!-- Generator: Adobe Illustrator 19.0.0, SVG Export Plug-In . SVG Version: 6.00 Build 0)  -->
<svg version="1.1" id="Layer_1" xmlns="http://www.w3.org/2000/svg" xmlns:xlink="http://www.w3.org/1999/xlink" x="0px" y="0px"
	 width="300px" height="300px" viewBox="-155 247 300 300" style="enable-background:new -155 247 300 300;" xml:space="preserve">
<style type="text/css">
	.st0{fill:none;stroke:#016ECF;stroke-width:8;stroke-linecap:round;stroke-linejoin:round;stroke-miterlimit:10;}
</style>
<g>
	<g>
		<line class="st0" x1="127" y1="364.5732117" x2="42.0918922" y2="429.5029297"/>
		<line class="st0" x1="-137" y1="364.5732117" x2="-52.0918922" y2="429.5029297"/>
		<path class="st0" d="M80.4629517,376.5245361v-79.6245422c0-7.0064087-5.6798401-12.6862488-12.6862717-12.6862488H-77.77668
			c-7.0064316,0-12.6862717,5.6798401-12.6862717,12.6862488v79.6245422"/>
		<path class="st0" d="M80.4629517,328.8994751v-31.9995422c0-7.0064087-5.6798019-12.6861877-12.686203-12.6861877H22.1695404"/>
		<path class="st0" d="M2.8599932,269.4116821c-4.6370974-3.5546875-11.0827579-3.5546875-15.7198553,0l-19.3095474,14.802063
			h54.3389511L2.8599932,269.4116821z"/>
		<path class="st0" d="M-90.4629517,328.8995972v47.624939V328.8995972l-46.5370331,35.673645v153.3899536
			c0,5.1313477,4.1597748,9.2911377,9.2911148,9.2911377h245.4177399c5.13134,0,9.2911072-4.15979,9.2911072-9.2911377V364.5732422
			l-46.5370255-35.6737671v47.625061v-47.625061"/>
		<path class="st0" d="M124.351738,524.4445801L0.6525608,429.6210327c-3.334796-2.5563965-7.9701948-2.5563965-11.3051224,0
			l-123.6990509,94.8234253"/>
		<path class="st0" d="M22.1695404,284.2137451"/>
	</g>
	<path class="st0" d="M-4.9998693,403.281311H-5c-27.9291954,0-50.5702705-22.6410828-50.5702705-50.570282
		S-32.9291954,302.1407776-5,302.1407776h0.0001307c27.9290619,0,50.5701408,22.6410522,50.5701408,50.5702515v17.6594849
		c0,7.8319702-6.3490791,14.1810608-14.1810665,14.1810608h-0.0000286c-7.8319874,0-14.1810665-6.3490906-14.1810665-14.1810608
		v-17.6594849c0,12.2651978-9.9429073,22.2080994-22.2080517,22.2080994H-5
		c-12.2652016,0-22.2081089-9.9429016-22.2081089-22.2080994S-17.2652016,330.5029297-5,330.5029297h0.0000572"/>
</g>
</svg>
