<?xml version="1.0" encoding="utf-8"?>
<!-- Generator: Adobe Illustrator 25.4.1, SVG Export Plug-In . SVG Version: 6.00 Build 0)  -->
<svg version="1.1" id="Layer_1" xmlns="http://www.w3.org/2000/svg" xmlns:xlink="http://www.w3.org/1999/xlink" x="0px" y="0px"
	 width="300px" height="300px" viewBox="0 0 300 300" style="enable-background:new 0 0 300 300;" xml:space="preserve">
<style type="text/css">
	.st0{fill:none;stroke:#008CFF;stroke-width:8;stroke-linecap:round;stroke-linejoin:round;stroke-miterlimit:10;}
	.st1{fill:#008CFF;stroke:#008CFF;stroke-width:8;stroke-linecap:round;stroke-linejoin:round;stroke-miterlimit:10;}
	.st2{fill:#008CFF;}
</style>
<g>
	<circle class="st0" cx="62.51194" cy="217.1217651" r="31.8457909"/>
	<circle class="st1" cx="62.51194" cy="217.1217651" r="13.1083679"/>
	<circle class="st0" cx="232.1063843" cy="217.1217651" r="31.8457947"/>
	<circle class="st1" cx="232.1063843" cy="217.1217651" r="13.1083679"/>
	<g>
		<path class="st0" d="M20,124.0158691h70.5533371H20z"/>
		<polygon class="st1" points="37.0005913,141.0164642 20,124.0158691 37.0005913,107.0152817 		"/>
	</g>
	<g>
		<path class="st0" d="M128.4324951,87.2556992H57.8791542H128.4324951z"/>
		<polygon class="st1" points="111.4319,70.2551117 128.4324951,87.2556992 111.4319,104.2562943 		"/>
	</g>
	<path class="st2" d="M276.9090576,190.6772766v-0.9020386c0-9.534317-2.5041199-18.901413-7.2617798-27.1638641
		l-30.3912048-52.7794342h-22.573349l-27.0640564,88.5361938c-1.3510742,4.4198914,1.9550781,8.8877106,6.5768738,8.8877106
		h5.6307526c4.1540985-12.7571106,16.1369476-21.9799042,30.2801208-21.9799042
		c15.6582489,0,28.66745,11.3042145,31.3357544,26.194809h1.9460754c4.6556702,0,8.4298401-3.7742157,8.4298401-8.4298706h3.0909729
		c1.7070923,0,3.0909424-1.3838654,3.0909424-3.0909424v-6.1817322
		C280,192.0611267,278.6161499,190.6772766,276.9090576,190.6772766z M251.927002,158.0751343
		c-0.7357483,1.2724762-2.0936737,2.0564728-3.5641632,2.0564728h-30.4661865c-1.3056488,0-2.5328979-0.6191559-3.3098602-1.6685028
		c-0.7759552-1.0483398-1.00914-2.4042358-0.6271973-3.6515961l8.8621368-28.9891739
		c0.5287018-1.7308197,2.1268463-2.9133377,3.9370575-2.9133377h4.9120331c1.4724884,0,2.8334198,0.786499,3.5681763,2.0625
		l16.6920166,28.988678C252.6637573,155.2346649,252.6627502,156.8026581,251.927002,158.0751343z"/>
	<path class="st0" d="M46.7416687,68.8729095c3.2403412-10.6002884,13.0244446-17.8404617,24.1089401-17.8404617h129.7380981
		c16.9421997,0,29.061676,16.3778,24.1089478,32.5799103l-32.3423004,105.8029861
		c-3.2403412,10.6002808-13.0244446,17.8404694-24.1089478,17.8404694H92.7920151"/>
	<path class="st0" d="M62.51194,185.2759705H45.2271996c-16.9421978,0-29.0616722-16.3778076-24.108942-32.5799103"/>
</g>
</svg>
