<?xml version="1.0" encoding="utf-8"?>
<!-- Generator: Adobe Illustrator 19.0.0, SVG Export Plug-In . SVG Version: 6.00 Build 0)  -->
<svg version="1.1" id="Layer_1" xmlns="http://www.w3.org/2000/svg" xmlns:xlink="http://www.w3.org/1999/xlink" x="0px" y="0px"
	 width="300px" height="300px" viewBox="-155 247 300 300" style="enable-background:new -155 247 300 300;" xml:space="preserve">
<style type="text/css">
	.st0{fill:none;stroke:#016ECF;stroke-width:8;stroke-linecap:round;stroke-linejoin:round;stroke-miterlimit:10;}
</style>
<g>
	<path class="st0" d="M18.0949326,310.4762573h0.0000362c6.688982-1.5436096,13.0750866,3.5366211,13.0750866,10.4013977v0.0000305
		c0,4.9707642-3.4309692,9.2836609-8.2744427,10.4013977l-4.8006802,1.1078491
		c-15.1968651,3.506958-30.9928322,3.506958-46.1897011,0.0000305l-4.8008347-1.1078796
		c-4.8434753-1.1177368-8.2744522-5.4306335-8.2744522-10.4014282l0,0c0-6.8647766,6.386097-11.9450073,13.0750751-10.4013977
		l0.0002117,0.0000305C-12.8978996,313.9832458,2.8980675,313.9832458,18.0949326,310.4762573z"/>
	<g>
		<path class="st0" d="M-83.2523193,380.8359375c-11.1895218,16.5720825-20.0558319,34.5367126-20.0558319,49.8559875
			C-103.3081512,484.9859314-59.2940979,529-5.0000849,529c54.2941818,0,98.3082352-44.0140686,98.3082352-98.308075
			c0-41.5172119-65.1211243-102.4640198-65.1211243-102.4640198"/>
		<path class="st0" d="M-38.1868553,328.2277222c0,0-16.9217224,15.8370361-33.5133324,36.8644714"/>
		<path class="st0" d="M-37.4597778,312.8068848c-4.3719749-6.5393066-9.1107597-9.7852173-13.796051-11.0285034
			c-7.3193436-1.9422607-11.7958412,1.7225647-20.4036026,0.6955872c-6.5200882-0.7779236-12.146347-3.8583374-16.9257126-7.8832092
			"/>
		<path class="st0" d="M-41.1700554,320.877655c-7.351017-0.4953613-13.2252045,0.5552979-17.0415344,1.5361633
			c-3.4478264,0.8861694-7.5301781,1.9707947-12.0566826,4.8690491c-5.9573212,3.8143616-9.3819656,8.6558838-11.1292267,11.5929565
			"/>
	</g>
	<g>
		<path class="st0" d="M-4.70259,372.787323v102.9453125V372.787323z"/>
		<path class="st0" d="M-26.6132259,457.647644c2.8375816,2.2052002,7.3494034,5.0106812,13.4217701,6.2744141
			c2.5706272,0.5349731,11.281889,1.9322815,18.9593811-2.1260681c3.3674998-1.7800903,6.0865474-4.6242065,7.8125825-8.0197754
			c0.5086908-1.0007324,5.1156101-9.2433472,1.9026461-18.5299072c-2.8709507-8.2980347-10.8508043-14.2419434-20.3017101-15.15979
			c-10.2686672-0.5624695-18.1355896-9.2961121-17.7344799-19.091156
			c0.4512939-11.0210876,11.1302414-17.6957397,18.253191-17.5380859c2.1985545,0.0486755,4.2261868,0.5823059,4.906055,0.7981262
			c5.900002,1.8728027,9.0768814,6.4075012,10.1520863,8.1173401"/>
	</g>
	<path class="st0" d="M16.9232731,310.4762573c3.4817867-4.3444519,8.4129753-11.2959595,12.4952412-20.7545166
		c0.6566868-1.5215759,8.252327-19.3684692,4.1734581-22.0845642c-2.4914074-1.6589355-6.2671509,4.3719788-13.2159519,3.6517944
		c-6.1489553-0.6373291-7.5781469-5.8140869-13.0420551-6.2601929c-2.8954048-0.2363892-7.0177474,0.8944397-12.3339138,6.73703
		c-5.3161664-5.8425903-9.438509-6.9734192-12.3339138-6.73703c-5.4639091,0.446106-6.8931007,5.6228638-13.042057,6.2601929
		c-6.9487991,0.7201843-10.7245445-5.31073-13.21595-3.6517944c-4.0788689,2.716095,3.5167694,20.5629883,4.1734581,22.0845642
		c4.0822639,9.4585571,9.0134525,16.4100647,12.4952412,20.7545166"/>
</g>
</svg>
