<?xml version="1.0" encoding="utf-8"?>
<!-- Generator: Adobe Illustrator 25.4.1, SVG Export Plug-In . SVG Version: 6.00 Build 0)  -->
<svg version="1.1" id="Layer_1" xmlns="http://www.w3.org/2000/svg" xmlns:xlink="http://www.w3.org/1999/xlink" x="0px" y="0px"
	 width="300px" height="300px" viewBox="0 0 300 300" style="enable-background:new 0 0 300 300;" xml:space="preserve">
<style type="text/css">
	.st0{fill:none;stroke:#008CFF;stroke-width:8;stroke-linecap:round;stroke-linejoin:round;stroke-miterlimit:10;}
	.st1{fill:#008CFF;stroke:#008CFF;stroke-width:8;stroke-linecap:round;stroke-linejoin:round;stroke-miterlimit:10;}
</style>
<g>
	<path class="st0" d="M150,225.6725769"/>
	<path class="st0" d="M150,45.6129379"/>
	<line class="st0" x1="150" y1="252.4369812" x2="150" y2="280"/>
	<line class="st0" x1="150" y1="111.4285736" x2="150" y2="157.6586456"/>
	<path class="st0" d="M228.9814758,280H98.3686218c-15.1050491,0-27.3501053-12.2450562-27.3501053-27.3500977V106.2451859
		l-10.5200386,3.5066757c-15.7106743,5.2368927-32.4341812-4.5798645-35.5199661-20.8503418l-0.0000095-0.0000534
		c-2.6548138-13.9981079,5.881403-27.6895103,19.6190491-31.4673615L96.8670044,43.060009l29.1001511,33.6882896
		c3.8499374,4.456955,10.9379501,3.8196793,13.9311447-1.2525253L150,58.3776131"/>
	<path class="st0" d="M150,58.3776131l10.1016998,17.1181602c2.9931946,5.0722046,10.0812073,5.7094803,13.9311523,1.2525253
		l29.1001434-33.6882896l52.269455,14.3740959c13.7376556,3.7778511,22.2738495,17.4692535,19.6190338,31.4673615v0.0000534
		c-3.0857849,16.2704773-19.8092804,26.0872345-35.5199585,20.8503418l-10.52005-3.5066757v22.337532"/>
	<polyline class="st0" points="150,45.6129379 186.1400146,20 203.1329956,43.060009 	"/>
	<polyline class="st0" points="96.8670044,43.060009 113.859993,20 150,45.6129379 	"/>
	<path class="st0" d="M171.0736389,26.2117958"/>
	<path class="st0" d="M128.9263611,26.2117958"/>
	<path class="st1" d="M112.896698,147.7304077h-0.0000381c-8.8529358,0-16.0296555-7.176712-16.0296555-16.0296478V109.436348
		h32.0593414v22.2644119C128.9263611,140.5536957,121.7496338,147.7304077,112.896698,147.7304077z"/>
	<line class="st0" x1="113.859993" y1="20" x2="186.1400146" y2="20"/>
	<path class="st0" d="M211.2704773,168.4290314c0-7.5344086,6.1078491-13.6422577,13.6422577-13.6422577
		s13.6422577,6.1078491,13.6422577,13.6422577c0,7.5344238-6.1078491,13.6422729-13.6422577,13.6422729H124.630188"/>
	<path class="st0" d="M233.2945862,222.1578827c0,9.449646,7.6604767,17.1101074,17.1101379,17.1101074
		c9.4496765,0,17.1101379-7.6604614,17.1101379-17.1101074c0-9.4496918-7.6604614-17.1101532-17.1101379-17.1101532H124.630188"/>
	<path class="st0" d="M183.3269958,237.2664795c0,5.1043854,4.1379242,9.2422943,9.2423248,9.2422943
		c5.1043854,0,9.2423096-4.1379089,9.2423096-9.2422943s-4.1379242-9.2423248-9.2423096-9.2423248H124.630188"/>
	<circle class="st1" cx="224.912735" cy="168.4290314" r="13.6422606"/>
	<circle class="st1" cx="250.4047241" cy="222.1578827" r="17.1101475"/>
	<circle class="st1" cx="192.5693207" cy="237.2664795" r="9.242322"/>
</g>
</svg>
