<?xml version="1.0" encoding="utf-8"?>
<!-- Generator: Adobe Illustrator 19.0.0, SVG Export Plug-In . SVG Version: 6.00 Build 0)  -->
<svg version="1.1" id="Layer_1" xmlns="http://www.w3.org/2000/svg" xmlns:xlink="http://www.w3.org/1999/xlink" x="0px" y="0px"
	 width="300px" height="300px" viewBox="-155 247 300 300" style="enable-background:new -155 247 300 300;" xml:space="preserve">
<style type="text/css">
	.st0{fill:none;stroke:#016ECF;stroke-width:8;stroke-linecap:round;stroke-linejoin:round;stroke-miterlimit:10;}
</style>
<g>
	<line class="st0" x1="77.2281113" y1="266.82724" x2="127" y2="316.5991211"/>
	<circle class="st0" cx="72.8991699" cy="476.74823" r="36.0237427"/>
	<path class="st0" d="M44.6849632,398.7402954c0,50.170929-40.671566,90.8424988-90.8424835,90.8424988
		S-137,448.9112244-137,398.7402954s40.6715622-90.8424683,90.8424835-90.8424683v90.8424683H44.6849632z"/>
	<path class="st0" d="M77.2281113,305.9834595V266.82724H-35.0197868c-5.8628616,0-10.6156502,4.7527771-10.6156502,10.6156311
		v121.2974243h90.3204041c0,49.9957275-40.3909645,90.5466309-90.3204041,90.8292236v26.9876099
		c0,5.862854,4.7527885,10.6156616,10.6156502,10.6156616h151.4041443c5.8628616,0,10.6156464-4.7528076,10.6156464-10.6156616
		V316.5991211H87.8437576C81.980896,316.5991211,77.2281113,311.846344,77.2281113,305.9834595z"/>
	<path class="st0" d="M63.4799576,379.9453125c0-50.170929-40.6715622-90.8424988-90.8424835-90.8424988v90.8424988H63.4799576z"/>
	<line class="st0" x1="-110.3928528" y1="462.975647" x2="-46.1575203" y2="398.7402954"/>
	<polyline class="st0" points="53.3645477,475.2689819 67.3738022,489.2782288 92.4337997,464.2182617 	"/>
</g>
</svg>
