<?xml version="1.0" encoding="utf-8"?>
<!-- Generator: Adobe Illustrator 19.0.0, SVG Export Plug-In . SVG Version: 6.00 Build 0)  -->
<svg version="1.1" id="Layer_1" xmlns="http://www.w3.org/2000/svg" xmlns:xlink="http://www.w3.org/1999/xlink" x="0px" y="0px"
	 width="300px" height="300px" viewBox="-155 247 300 300" style="enable-background:new -155 247 300 300;" xml:space="preserve">
<style type="text/css">
	.st0{fill:none;stroke:#016ecf;stroke-width:8;stroke-linecap:round;stroke-linejoin:round;stroke-miterlimit:10;}
	.st1{fill:#016ecf;}
</style>
<g>
	<polygon class="st0" points="81.5537567,296.1996155 -6.5096583,296.1996155 8.5869265,265 66.4571686,265 	"/>
	<path class="st1" d="M3.5764635,336.3313599h-14.1336098c-1.8639612,0-3.375-1.5110474-3.375-3.375v-14.133606
		c0-1.8639526,1.5110388-3.375,3.375-3.375H3.5764635c1.863961,0,3.3749998,1.5110474,3.3749998,3.375v14.133606
		C6.9514632,334.8203125,5.4404244,336.3313599,3.5764635,336.3313599z"/>
	<path class="st0" d="M31.3995438,325.8895569h54.6831894H31.3995438z"/>
	<path class="st1" d="M3.5764635,374.0728149h-14.1336098c-1.8639612,0-3.375-1.5110168-3.375-3.375v-14.133606
		c0-1.8639526,1.5110388-3.375,3.375-3.375H3.5764635c1.863961,0,3.3749998,1.5110474,3.3749998,3.375v14.133606
		C6.9514632,372.5617981,5.4404244,374.0728149,3.5764635,374.0728149z"/>
	<path class="st0" d="M31.3995438,363.631012h54.6831894H31.3995438z"/>
	<path class="st0" d="M51.5283241,401.3724976h34.554409H51.5283241z"/>
	<polyline class="st0" points="-0.1788106,283.1159058 -39.2189255,283.1159058 -39.2189255,353.259491 	"/>
	<polyline class="st0" points="114.2630234,420.9984436 114.2630234,283.1159058 75.222908,283.1159058 	"/>
	<polyline class="st0" points="49.081295,461.7588196 114.2630234,461.7588196 114.2630234,445.9770203 	"/>
	<path class="st0" d="M-85.5040359,368.2198181c-23.3839722,15.793396-38.7589874,42.5423889-38.7589874,72.8845215
		C-124.2630234,489.6477661-84.9107895,529-36.3673706,529c41.4287491,0,76.1570435-28.6647034,85.4486694-67.2411804H18.5029564"/>
	<path class="st0" d="M-39.2189255,401.0721741V353.259491c-7.675724,0.244751-15.1030464,1.4735107-22.159935,3.56427"/>
	<g>
		<path class="st0" d="M18.5029564,395.0645752c-5.3553705,1.4606934-10.7107239,2.9213867-16.0660934,4.3821106
			c-1.3995236,0.0384827-3.6170821-0.0533752-6.095593-0.9143372c-4.9940591-1.7348328-6.2649293-4.9309998-9.6513615-6.1971741
			c-2.3811092-0.8903198-6.3071384-1.013031-12.800745,3.2509766c-13.5457668,6.7728577-27.0915127,13.5457458-40.6372757,20.318634
			c0.5531006,1.1818848,3.6292458,7.4503784,10.972065,9.9561462c5.5714912,1.9012756,10.3763657,0.5363159,11.9879913,0
			c5.6892281-2.3027954,11.378437-4.6055603,17.0676613-6.9083557
			c10.3625088,10.3625183,20.7250175,20.7250061,31.0875244,31.0875244c1.4094009,2.9923401,1.0837684,6.4047852-0.8127334,8.533844
			c-2.5936966,2.9117126-7.9298334,3.2033081-11.5816269-0.203186c3.1393752,3.5354614,2.9240541,8.6585388,0.2031741,11.378418
			c-3.1288838,3.1277466-9.3381004,2.8446045-12.5975533-1.6254883c2.4694328,3.5260315,1.9942188,8.1185303-0.60956,10.5657043
			c-3.1401005,2.9512329-9.0992088,2.5221558-12.1911869-1.8286743c2.9509354,4.342926,2.8982544,9.4469604,0.6095619,11.7848206
			c-2.8488655,2.9100647-10.1834602,2.5773315-14.629425-3.4541931"/>
		<polyline class="st0" points="20.2156754,444.9872437 9.0404205,446.7891235 4.9051332,451.4813843 		"/>
		<polyline class="st0" points="-88.966156,395.1797791 -73.923111,401.0721741 -37.0829086,401.0721741 		"/>
		<path class="st0" d="M-83.3095245,458.5272522l-0.7541962-0.7541809c-2.2118835-2.2118835-2.2118835-5.7980652,0-8.0099487
			l3.8117142-3.8117065c2.2118912-2.2118835,5.7980652-2.2118835,8.0099487,0l0.7541962,0.7541809
			c2.2118912,2.2118835,2.2118912,5.7980652,0,8.0099487l-3.8117142,3.8117065
			C-77.5114594,460.7391663-81.097641,460.7391663-83.3095245,458.5272522z"/>
		<path class="st0" d="M-74.617218,467.219574l-0.7541962-0.7541809c-2.2118835-2.2119141-2.2118835-5.7980652,0-8.0099792
			l3.8117142-3.8117065c2.2118912-2.2118835,5.7980652-2.2118835,8.0099525,0l0.7541962,0.7542114
			c2.2118835,2.2118835,2.2118835,5.7980652,0,8.0099487l-3.811718,3.8117065
			C-68.8191528,469.4314575-72.4053345,469.4314575-74.617218,467.219574z"/>
		<path class="st0" d="M-65.9249115,475.9118958l-0.7541962-0.7542114c-2.2118835-2.2118835-2.2118835-5.7980652,0-8.0099487
			l3.811718-3.8117065c2.2118874-2.2118835,5.7980614-2.2118835,8.0099487,0l0.7541962,0.7541809
			c2.2118874,2.2118835,2.2118874,5.7980652,0,8.0099487l-3.811718,3.8117371
			C-60.1268463,478.1237793-63.7130241,478.1237793-65.9249115,475.9118958z"/>
		<path class="st0" d="M-57.232605,484.604187l-0.7541924-0.7541809c-2.2118874-2.2119141-2.2118874-5.7980652,0-8.0099487
			l3.8117142-3.8117371c2.2118874-2.2118835,5.7980614-2.2118835,8.0099487,0l0.7541962,0.7542114
			c2.2118874,2.2118835,2.2118874,5.7980652,0,8.0099487l-3.8117142,3.8117065
			C-51.4345398,486.8160706-55.0207176,486.8160706-57.232605,484.604187z"/>
		<line class="st0" x1="-82.5349045" y1="448.234314" x2="-95.3974075" y2="445.9763794"/>
	</g>
</g>
</svg>
