<?xml version="1.0" encoding="utf-8"?>
<!-- Generator: Adobe Illustrator 19.0.0, SVG Export Plug-In . SVG Version: 6.00 Build 0)  -->
<svg version="1.1" id="Layer_1" xmlns="http://www.w3.org/2000/svg" xmlns:xlink="http://www.w3.org/1999/xlink" x="0px" y="0px"
	 width="771.2214966px" height="563.1865845px" viewBox="0 0 771.2214966 563.1865845"
	 style="enable-background:new 0 0 771.2214966 563.1865845;" xml:space="preserve">
<style type="text/css">
	.st0{fill:#B7E3ED;}
	.st1{fill:#8DCCDC;}
	.st2{opacity:0.25;fill:#164666;}
	.st3{fill:none;stroke:#BAC8E7;stroke-miterlimit:10;}
	.st4{fill:#5A605A;}
	.st5{fill:#4A4F4A;}
	.st6{opacity:0.2;fill:#F5F6F6;}
	.st7{fill:#59595C;}
	.st8{fill:#474747;}
	.st9{fill:#6B6C6C;}
	.st10{fill:none;stroke:#4C2B1D;stroke-width:3;stroke-linecap:round;stroke-linejoin:round;stroke-miterlimit:10;}
	.st11{fill:#818285;}
	.st12{fill:none;stroke:#818285;stroke-miterlimit:10;}
	.st13{fill:#58BE8B;}
	.st14{fill:#33B779;}
	.st15{fill:none;stroke:#33B779;stroke-miterlimit:10;}
	.st16{fill:#FDE243;}
	.st17{fill:#FFD219;}
	.st18{fill:none;stroke:#FFD219;stroke-miterlimit:10;}
	.st19{fill:#28478E;}
	.st20{fill:#304BA0;}
	.st21{fill:#2F6EB6;}
	.st22{fill:#47A5DC;}
	.st23{fill:#4C2B1D;}
	.st24{fill:#C63759;}
	.st25{fill:#DB3F60;}
	.st26{fill:#F15D74;}
	.st27{fill:#ECB986;}
	.st28{fill:#FBD2AD;}
	.st29{fill:#FFFFFF;}
</style>
<g id="XMLID_2_">
	<path id="XMLID_3_" class="st0" d="M51.4526978,149.0311432c9.9247055-23.5990753,24.7677231-37.7884064,29.474472-42.1952896
		c16.120224-15.0931931,32.2330322-20.159874,49.923111-26.0127335
		c33.0870056-10.9470215,66.8621216-15.4651566,101.0610504-16.2388458
		c38.2968597-0.8663979,76.2985382,2.4234085,114.2429047,8.9872284
		c19.3123169,3.3407288,38.7896423,0.4200592,57.9870911-4.1009521
		c37.4143066-8.8110428,73.6467285-23.0836601,110.0985413-36.3407974
		c36.4175415-13.2446995,57.2377319-20.7035885,87.6451416-27.2304287
		c12.9677734-2.7834897,23.7750244-4.5570912,31.1548462-5.6498718c9.4254761-0.5188256,22.5578613-0.4365277,38.0083008,2.3080049
		c15.333374,2.7237539,32.661377,5.8018117,51.914978,18.8597031c10.9368286,7.4173565,28.137146,19.0827217,39.0753784,44.2962265
		c7.6547852,17.6448212,9.0246582,34.5070114,9.1829834,44.364006
		c-2.1445313,23.6808777-7.9725952,59.3981171-26.2370605,95.2202759
		c-17.4141846,34.1545258-30.8966064,38.5196533-35.4199219,64.9229126
		c-5.7926025,33.8122559,9.2565308,67.8728638,24.9251099,103.3356323
		c11.5751953,26.197998,23.9326782,44.870575,24.0506592,76.2844238c0.0155029,4.112854,0.0561523,14.9360046-2.6236572,25.4281311
		c-2.4655151,9.6529846-13.607605,43.9812927-94.890625,69.7921448
		c-44.9351196,14.2687988-78.3338013,15.4644165-137.5256348,17.583313
		c-62.192688,2.2263184-92.9837036-2.8711548-111.2887268-6.7628174
		c-28.1066589-5.9754028-35.0822144-10.8738403-59.47052-17.8538208
		c-58.7086487-16.8024292-109.3399048-14.4767456-200.7131958-10.27948
		c-45.7483826,2.1015015-73.8517532,5.5220947-104.9480667-15.6896362
		c-9.5938835-6.5443115-29.0699806-20.2713318-39.7928047-49.2332458
		c-9.8383865-26.5730591-9.4479599-58.2468262-0.4372835-82.2356873
		c4.0565553-10.7996521,6.0046477-9.7771606,14.4303589-27.5922241c0,0,11.7040043-24.746582,19.2404766-54.6434937
		C57.095459,232.6019287,30.1767578,199.6213226,51.4526978,149.0311432z"/>
	<ellipse id="XMLID_392_" class="st1" cx="371.1193237" cy="513.1190186" rx="315.1021423" ry="10.3834944"/>
	<g id="XMLID_4_">
		<path id="XMLID_20_" class="st2" d="M77.5320282,513.2231445c4.0709457,0,8.1418762,0,12.212822,0
			c5.5734253-7.6632385,9.9794769-13.5741272,12.7085419-17.2118835c6.0519485-8.0670166,9.4017487-12.3462524,10.3988419-19.184082
			c0.3326492-2.281189,1.1474075-7.8686218-1.9721909-10.3988342c-2.2083054-1.7910767-5.5352325-1.3584595-7.7094879-1.0757446
			c-5.5686493,0.7240906-7.0692368,3.430603-9.1438141,2.8686523c-3.8188934-1.0344238-4.3352356-11.7227783-4.1236725-22.2320251
			c0.3059387-15.1973572,2.0723419-26.953064,3.5858078-38.009552c2.1018753-15.3551025,3.1528091-23.0326843,3.2272263-25.6385193
			c0.5836563-20.4397583-6.5819321-35.5597229-16.4947205-56.4764709
			c-9.8373184-20.7575073-15.1970978-31.6473083-27.7900085-37.651001
			c-3.1478729-1.5007629-13.5207596-6.4460449-22.4112968-1.972168
			c-10.677578,5.3731079-12.0725422,20.7372742-12.3710365,24.0249023
			c-2.3216543,25.5707703,18.6467285,51.0427246,19.9012337,52.532074
			c3.2529793,3.861969,11.6802406,13.1593933,12.7296143,24.8018188c0.2660522,2.9517822,0.0361137,5.8129883-1.7929039,7.470459
			c-2.5657082,2.3250732-6.7366524,0.8846436-13.0881958-0.5378723c-10.7281456-2.4026794-23.8192978-5.3345947-29.1048069,0
			c-1.9072189,1.9249268-2.2788944,4.4021606-2.5100653,6.0958862c-1.2211998,8.9472656,4.7311707,19.1323547,28.7462234,41.5953674
			c19.378334,18.1259155,23.7991333,19.2544556,31.3758202,30.6586304
			c7.9086075,11.9037781,10.7287064,22.1687317,11.833168,27.072876
			C76.9413223,505.2937927,77.3740082,509.8893738,77.5320282,513.2231445z"/>
		<path id="XMLID_39_" class="st3" d="M73.5029831,410.6485596c0.255806,6.5316467,0.3937759,11.4034119,1.8775635,19.861908
			c0.2025757,1.1547852,0.4068146,2.2408752,0.6122818,3.2706604"/>
		<path id="XMLID_41_" class="st3" d="M63.4278793,346.3634949c-3.9592705-12.5838623-13.1946487-34.3893433-37.3163834-57.359375"
			/>
		<path id="XMLID_42_" class="st3" d="M73.5029831,410.6485596c-0.1102142-2.8131409-0.2417984-5.9291077-0.5130081-9.7807922
			c-1.4706497-20.8883667-5.5090637-41.6221619-9.5620956-54.5042725"/>
		<path id="XMLID_44_" class="st3" d="M75.9928284,433.7811279c3.0013657,15.044281,6.2642212,17.6495972,8.4717331,34.021759
			c1.6300735,12.0887756,1.5146027,23.0065918,1.4343262,30.5988464
			c-0.0590057,5.5857544-0.2856598,10.5664063-0.5636978,14.8214111"/>
		<path id="XMLID_46_" class="st3" d="M78.4255066,467.4128723c0.7323074,2.403595,1.4041214,4.9128723,1.9751663,7.561615
			c2.7679749,12.8387756,2.522583,24.6975098,2.3905716,31.0770264c-0.0546265,2.6367493-0.1703644,5.0393982-0.3100815,7.1716309"
			/>
		<path id="XMLID_47_" class="st3" d="M76.9889069,463.0447693c-3.8929138-10.8500671-9.0427856-18.9811401-12.8438644-24.884613
			c-2.2821007-3.5444031-5.0221443-7.754303-8.595871-12.247406"/>
		<path id="XMLID_49_" class="st3" d="M78.4255066,467.4128723c-0.456543-1.49823-0.9321747-2.9623413-1.4365997-4.368103"/>
		<path id="XMLID_50_" class="st3" d="M44.6914215,414.3504333c-0.7451744-0.6703186-1.5070724-1.3401184-2.3003082-2.0080872
			C30.4733791,402.3071594,17.858532,396.7500305,7.4245853,393.598114"/>
		<path id="XMLID_51_" class="st3" d="M55.5491714,425.9127502c-2.9675713-3.7308655-6.5154724-7.6565247-10.8577499-11.5623169"/>
		<path id="XMLID_52_" class="st3" d="M44.6914215,414.3504333c-3.9414101-0.4232788-9.731144-0.5543213-16.4044571,1.0996399
			c-6.3244495,1.5674744-11.3795986,4.2289124-15.1566029,6.7923889"/>
		<line id="XMLID_54_" class="st3" x1="44.6914215" y1="414.3504333" x2="44.6945724" y2="414.350708"/>
		<line id="XMLID_55_" class="st3" x1="55.5491714" y1="425.9127502" x2="55.550045" y2="425.9124756"/>
		<path id="XMLID_56_" class="st3" d="M55.5491714,425.9127502c-3.7864571,1.2496033-8.3396301,3.1340637-13.1580582,6.0320435
			c-4.6584854,2.8017578-8.4435463,5.8792114-11.4634666,8.7705383"/>
		<path id="XMLID_58_" class="st3" d="M51.8117371,459.340332c4.0188904-0.1231689,8.4865303,0.0688171,13.2894592,0.8128357
			c4.4938202,0.6960754,8.4768982,1.7494202,11.8877106,2.8916016"/>
		<line id="XMLID_59_" class="st3" x1="76.9889069" y1="463.0447693" x2="76.9896088" y2="463.0450134"/>
		<path id="XMLID_62_" class="st3" d="M78.4255066,467.4128723c-3.817276-0.9247437-8.0315628-1.7169189-12.6071472-2.239563
			c-2.9162674-0.3330994-5.7405281-0.5279846-8.4636765-0.613678"/>
		<line id="XMLID_63_" class="st3" x1="78.4255066" y1="467.4128723" x2="78.4333801" y2="467.4146118"/>
		<path id="XMLID_64_" class="st3" d="M92.3635788,416.2210693c-3.6912994,2.7038879-7.4704895,6.055603-11.0066605,10.2255249
			c-2.1107788,2.4890442-3.8793411,4.9662781-5.36409,7.3345337"/>
		<line id="XMLID_65_" class="st3" x1="75.9928284" y1="433.7811279" x2="75.9927368" y2="433.781311"/>
		<line id="XMLID_67_" class="st3" x1="73.5029831" y1="410.6485596" x2="73.5031586" y2="410.6487122"/>
		<path id="XMLID_69_" class="st3" d="M73.5029831,410.6485596c-2.688652-3.0863037-6.0874634-6.4797668-10.3141861-9.7807922
			c-4.5472183-3.5513306-9.0602913-6.2084656-13.2275658-8.2389526"/>
		<path id="XMLID_70_" class="st3" d="M100.9592743,477.1259766c1.1754608-3.3107605,3.8053741-7.1734619,9.7494431-10.8095093"/>
		<path id="XMLID_71_" class="st3" d="M95.4610672,493.3815918c3.7873306-7.7805481,4.2981567-12.8755493,5.4982071-16.2556152"/>
		<path id="XMLID_74_" class="st3" d="M95.4610672,493.3815918c-1.4768677,3.0340271-1.96064,3.4128418-3.1077271,5.7373047
			c-1.583847,3.2097168-3.2618103,7.8232117-3.9629517,14.104248"/>
		<path id="XMLID_75_" class="st3" d="M94.1084213,468.2357788c-0.8865585,3.5103455-1.4469299,7.5440369-1.2769165,11.9979248
			c0.2057266,5.3903503,1.4191742,9.8726196,2.6295624,13.1478882"/>
		<path id="XMLID_78_" class="st3" d="M100.9592743,477.1259766c2.3915329-0.1016541,4.947998-0.1149597,7.6497803,0
			c1.423645,0.0605774,2.7994003,0.1592407,4.1442566,0.2789917"/>
		<path id="XMLID_79_" class="st3" d="M71.2115173,383.5741272c3.7224655,0.6767273,8.893959,1.1639709,14.9264526,0.3208313
			c3.9662704-0.5543213,7.5033188-1.5742188,10.58461-2.7829285"/>
		<path id="XMLID_82_" class="st3" d="M70.2086105,376.7095337c3.1593781-0.0088501,7.1744156-0.3666382,11.6263885-1.6595764
			c5.8854141-1.7092285,10.5172043-4.4707031,13.9590836-7.1052551"/>
		<path id="XMLID_84_" class="st3" d="M63.4278793,346.3634949c-4.5410881,1.3264771-11.0274086,2.5327454-18.6461983,1.6734009
			c-8.5521011-0.9645691-15.6190987-4.2102661-21.1511879-7.8985901"/>
		<path id="XMLID_85_" class="st3" d="M56.8713493,330.0079651c2.9126816-1.8912048,6.3204231-4.6200562,9.4251747-8.5060425
			c2.924675-3.6607361,4.9122772-7.5140076,6.2564316-11.2243042"/>
	</g>
	<g id="XMLID_13_">
		<g id="XMLID_401_">
			<rect id="XMLID_408_" x="209.1244659" y="86.2553329" class="st4" width="37.9166679" height="256.3058777"/>
			<rect id="XMLID_405_" x="233.8744659" y="86.2553329" class="st5" width="13.166667" height="256.3058777"/>
			<path id="XMLID_402_" class="st4" d="M672.7078247,95.0886688h-463.583374v-8.8333359h463.583374
				c2.439209,0,4.416626,1.9774094,4.416626,4.4166641v0.0000076
				C677.1244507,93.1112595,675.1470337,95.0886688,672.7078247,95.0886688z"/>
		</g>
		<g id="XMLID_391_">
			<rect id="XMLID_398_" x="152.6244659" y="151.7553406" class="st4" width="37.9166679" height="188.8058929"/>
			<rect id="XMLID_395_" x="177.3744659" y="151.7553406" class="st5" width="13.166667" height="188.8058929"/>
			<path id="XMLID_12_" class="st4" d="M616.2078247,160.5886688h-463.583374v-8.8333282h463.583374
				c2.439209,0,4.416626,1.9774017,4.416626,4.4166565v0.0000153
				C620.6244507,158.6112671,618.6470337,160.5886688,616.2078247,160.5886688z"/>
		</g>
		<g id="XMLID_301_">
			<path id="XMLID_357_" class="st6" d="M526.7614136,334.9219666H383.0350952
				c-0.1275635-18.885437-0.6430664-108.9528046-2.0230713-134.279953
				c-1.6547852-30.3706055-3.2006836-40.477417,2.4000244-52.6676636
				c4.3018799-9.3632202,16.6086426-28.2014771,57.9892578-39.3816528
				c8.8277588-2.3851318,18.1660767-2.3851318,26.9938965-0.000061
				c41.3806152,11.1802368,53.6873779,30.0184937,57.9893188,39.3817139
				c5.600647,12.1902466,4.0548096,22.2970581,2.3999634,52.6676636
				C527.40448,225.969162,526.8890381,316.0365295,526.7614136,334.9219666z"/>
			<path id="XMLID_354_" class="st7" d="M497.5649414,241.8386688c0.399292,31.1399384,5.0750122,38.7398529,4.25,72.7499847
				c-0.1902466,7.8417358-0.6161499,14.7320557-1.0704956,20.333313H409.052063
				c-0.4543457-5.6012573-0.880249-12.4915771-1.0704956-20.333313c-0.8250122-34.0101318,3.850708-41.6100464,4.25-72.7499847
				c0.1717529-13.3986816-0.7144165-10.3875732-3.75-62.25c-1.0470581-17.8881226-0.9057617-33.7568359-1.3731689-43.6421509
				c9.5855713-3.7909546,18.4348755-6.6178589,28.2897949-10.7745361h39.0001221
				c9.8549194,4.1566772,18.7042236,6.9835815,28.2897949,10.7745361
				c-0.4674072,9.8853149-0.3261108,25.7540283-1.3731689,43.6421509
				C498.2793579,231.4510345,497.3931885,228.4399261,497.5649414,241.8386688z"/>
			<g id="XMLID_344_">
				<circle id="XMLID_351_" class="st8" cx="464.8982849" cy="198.1511688" r="3.9375"/>
				<circle id="XMLID_348_" class="st8" cx="464.8982849" cy="214.1511688" r="3.9375"/>
				<circle id="XMLID_345_" class="st8" cx="464.8982849" cy="230.1511688" r="3.9375"/>
			</g>
			<g id="XMLID_328_">
				<polygon id="XMLID_341_" class="st9" points="450.8982849,117.4219818 458.8982849,117.4219818 476.3982849,117.4219818 
					476.3982849,125.1719818 458.8982849,125.1719818 450.8982849,125.1719818 433.3982849,125.1719818 433.3982849,117.4219818 
									"/>
				<path id="XMLID_338_" class="st8" d="M473.2316589,136.9219818
					c-1.0722046,17.1838379-9.8922729,30.6001587-18.333374,39.6825562
					c-8.4411011-9.0823975-17.2611694-22.4987183-18.333374-39.6825562c-0.2611084-4.1852417-0.0223389-8.1136475,0.5114136-11.75
					h13.8219604h8h13.8219604C473.2539978,128.8083344,473.4927673,132.7367401,473.2316589,136.9219818z"/>
				<path id="XMLID_335_" class="st10" d="M463.8982849,91.0886688c0-4.9705658-4.0294495-9-9-9c-4.9372559,0-9,4.0627441-9,9
					s4.0627441,9,9,9c0,4.9723053,0,9.9445953,0,14.9169006l-20.25,9.6664276l20.25-9.6664276l20.25,9.6664276"/>
				<path id="XMLID_332_" class="st11" d="M471.0649719,117.4219971c1.5717163,5.5315094,2.6262207,12.1348572,2.1666565,19.5
					c-1.9251404,30.8534393-28.8288269,49.5803223-33.6666565,52.8333435c7.372345-1.1324005,24.5550232-4.899826,37.8333435-19.5
					c10.490448-11.5347595,19.8129272-31.2262878,13.833313-43.8333435
					c-0.8789368-1.8530731-3.1156311-6.5687866-8.333313-8.8333282
					C477.7176208,115.3401947,472.6967773,116.8531494,471.0649719,117.4219971z"/>
				<path id="XMLID_329_" class="st11" d="M418.5649109,126.4219818c0.8789673-1.8530884,3.1156616-6.5687866,8.333313-8.833313
					c5.1807251-2.2484741,10.2015381-0.7355347,11.833374-0.166687c-1.5717163,5.5314941-2.6262207,12.1348877-2.166687,19.5
					c1.0722046,17.1838379,9.8922729,30.6001587,18.333374,39.6825562c-2.1668701,2.331543-4.3035278,4.3728027-6.2828979,6.1225586
					c-5.4647217-2.8748169-11.1273804-6.8752441-16.2171631-12.4717407
					C421.9078064,158.7205658,412.5852966,139.0290375,418.5649109,126.4219818z"/>
			</g>
			<g id="XMLID_318_">
				<circle id="XMLID_325_" class="st8" cx="444.8982849" cy="198.1511688" r="3.9375"/>
				<circle id="XMLID_322_" class="st8" cx="444.8982849" cy="214.1511688" r="3.9375"/>
				<circle id="XMLID_319_" class="st8" cx="444.8982849" cy="230.1511688" r="3.9375"/>
			</g>
			<g id="XMLID_303_">
				<g id="XMLID_311_">
					<path id="XMLID_315_" class="st8" d="M395.9815979,150.8386688c0.6806641-3.585022,2.0078735-9.9080811,7.25-13.25
						c1.2676392-0.8081665,2.5872803-1.3165894,3.8768311-1.6421509c1.1610718,4.6357422,2.5117798,10.5083618,3.7897949,17.3088379
						c2.2060547,11.7385254,5.5609131,28.8942261,5.333374,71.833313c-0.0662842,12.5013428-0.2030029,40.0390472-0.25,49.4999847
						c-2.022583-0.8983765-5.4088135-2.0986938-9.75-2.25c-4.9747925-0.1734619-8.8618774,1.1123047-11,2
						c-0.2533569-8.8948364-0.6998901-22.3913422-1.5-38.9166718c-0.588562-12.1550293-0.947937-21.5477905-1.666687-40.333313
						C392.0649109,195.0886688,391.3127136,175.4287567,395.9815979,150.8386688z"/>
					<path id="XMLID_312_" class="st11" d="M394.7878723,260.5261536c2.7061768-1.230835,6.6514282-2.4539795,11.4437256-2.1875
						c3.9217529,0.2180786,7.2108765,1.3711548,9.8172607,2.7354736
						c-0.0280762,5.6276855-0.0522461,10.4941406-0.0672607,13.5145264c-2.022583-0.8983765-5.4088135-2.0986938-9.75-2.25
						c-4.9747925-0.1734619-8.8618774,1.1123047-11,2c-1.7788696-4.9401245-2.9807739-9.1016846-3.75-12
						C392.144928,261.9045715,393.275238,261.2141418,394.7878723,260.5261536z"/>
				</g>
				<g id="XMLID_304_">
					<path id="XMLID_308_" class="st8" d="M513.8149414,150.8386688c-0.6806641-3.585022-2.007843-9.9080811-7.2499695-13.25
						c-1.2676392-0.8081665-2.5872803-1.3165894-3.8768311-1.6421509
						c-1.1610718,4.6357422-2.5117798,10.5083618-3.7897949,17.3088379
						c-2.2060547,11.7385254-5.5609131,28.8942261-5.333374,71.833313c0.0662842,12.5013428,0.2030029,40.0390472,0.25,49.4999847
						c2.022583-0.8983765,5.4088135-2.0986938,9.75-2.25c4.9747925-0.1734619,8.8618469,1.1123047,10.9999695,2
						c0.2533569-8.8948364,0.6998901-22.3913422,1.5-38.9166718c0.588562-12.1550293,0.947937-21.5477905,1.666687-40.333313
						C517.7316284,195.0886688,518.4838257,175.4287567,513.8149414,150.8386688z"/>
					<path id="XMLID_305_" class="st11" d="M515.008667,260.5261536c-2.7061768-1.230835-6.6513977-2.4539795-11.4436951-2.1875
						c-3.9217529,0.2180786-7.2108765,1.3711548-9.8172607,2.7354736
						c0.0280762,5.6276855,0.0522461,10.4941406,0.0672607,13.5145264c2.022583-0.8983765,5.4088135-2.0986938,9.75-2.25
						c4.9747925-0.1734619,8.8618469,1.1123047,10.9999695,2c1.7788696-4.9401245,2.9807739-9.1016846,3.75-12
						C517.6516113,261.9045715,516.5213013,261.2141418,515.008667,260.5261536z"/>
				</g>
			</g>
			<path id="XMLID_302_" class="st12" d="M454.8982849,176.604538c-0.0238342,52.4841309-0.0238342,105.4841156,0,157.6483307"/>
		</g>
		<g id="XMLID_271_">
			<path id="XMLID_298_" class="st6" d="M671.907959,334.9219666H532.1742554
				c-0.1241455-18.4448242-0.625061-41.0299683-1.9664917-66.833313c-1.6088257-30.946701-3.1117554-41.245224,2.333313-53.6666718
				c4.182373-9.5408325,16.1472168-28.7364502,56.3780518-40.1286621c8.5825195-2.4303589,17.661377-2.4303589,26.2438965-0.000061
				c40.230896,11.3922729,52.1957397,30.5878906,56.3781128,40.1287231
				c5.4450684,12.4214478,3.9421387,22.7199707,2.333313,53.6666718
				C672.53302,293.8919983,672.0321045,316.4771423,671.907959,334.9219666z"/>
			<g id="XMLID_275_">
				<path id="XMLID_295_" class="st10" d="M611.0411377,156.7553406c0-4.9705658-4.0294189-9-9-9c-4.9372559,0-9,4.0627441-9,9
					s4.0627441,9,9,9c0,4.9723053,0,9.9445953,0,14.9169006l-20.25,9.6664276l20.25-9.6664276l20.25,9.6664276"/>
				<g id="XMLID_276_">
					<path id="XMLID_292_" class="st13" d="M659.9995728,334.9219666H544.0827026
						c0.2549438-16.7631226-0.565979-30.4159546-1.374939-39.833313c-1.3809204-16.0751343-4.2603149-37.8401489-3-64.6666718
						c0.4252319-9.0515137,1.5636597-23.828064,10.333374-27.958313c1.1801758-0.5558472,2.2664795-0.8091431,3.1102295-0.9398804
						c0.1309814-0.0203247,0.2719116-0.0455322,0.3897705-0.0601196c8.333313-4.25,16.666626-8.5,25-12.75
						c0.979126,0.0557251,1.958313,0.1998901,2.9375,0.4104614c13.5847168,2.9212036,27.5402222,2.9212036,41.125,0
						c0.979126-0.2105713,1.958313-0.3547363,2.9375-0.4104614c8.333374,4.25,16.666687,8.5,25,12.75
						c0.1178589,0.0145874,0.2587891,0.0397949,0.3897705,0.0601196c0.84375,0.1307373,1.9300537,0.3840332,3.1102295,0.9398804
						c8.7697144,4.130249,9.9081421,18.9067993,10.333374,27.958313c1.2603149,26.8265228-1.6190796,48.5915375-3,64.6666718
						C660.5655518,304.506012,659.7446289,318.158844,659.9995728,334.9219666z"/>
					<path id="XMLID_289_" class="st14" d="M564.0411377,290.4219666c-0.2252808,10.9758911-0.161499,26.1027222,1.0655518,44.5
						h-21.0239868c0.2549438-16.7631226-0.565979-30.4159546-1.374939-39.833313
						c-1.3809204-16.0751343-4.2603149-37.8401489-3-64.6666718c0.4252319-9.0515137,1.5636597-23.828064,10.333374-27.958313
						c1.1801758-0.5558472,2.2664795-0.8091431,3.1102295-0.9398804c2.7210693,3.7003174,5.4725952,8.3171997,7.5563965,13.8981934
						c3.838562,10.2807007,3.532959,18.7797852,3.333374,28.333313
						C563.7162476,259.3074646,564.3602295,274.8697205,564.0411377,290.4219666z"/>
					<path id="XMLID_286_" class="st14" d="M578.5411377,188.7136688c1.5-1.7638855,3-3.5277863,4.5-5.2916718
						c6.333374,4.1666718,12.666687,8.3333282,19,12.5c-2.388855,5.5555573-4.777771,11.1111145-7.166626,16.6666718
						C589.4300537,204.6303406,583.9855957,196.6719971,578.5411377,188.7136688z"/>
					<path id="XMLID_283_" class="st14" d="M659.9995728,334.9219666h-21.0239868
						c1.2270508-18.3972778,1.2908325-33.5241089,1.0655518-44.5c-0.3190918-15.5522461,0.3248901-31.114502,0-46.6666718
						c-0.199585-9.5535278-0.505188-18.0526123,3.333374-28.333313c2.0838013-5.5809937,4.8353271-10.197876,7.5563965-13.8981934
						c0.84375,0.1307373,1.9300537,0.3840332,3.1102295,0.9398804c8.7697144,4.130249,9.9081421,18.9067993,10.333374,27.958313
						c1.2603149,26.8265228-1.6190796,48.5915375-3,64.6666718
						C660.5655518,304.506012,659.7446289,318.158844,659.9995728,334.9219666z"/>
					<path id="XMLID_280_" class="st14" d="M625.5411377,188.7136688c-1.5-1.7638855-3-3.5277863-4.5-5.2916718
						c-6.333313,4.1666718-12.666626,8.3333282-19,12.5c2.388916,5.5555573,4.777771,11.1111145,7.166687,16.6666718
						C614.6522827,204.6303406,620.0966797,196.6719971,625.5411377,188.7136688z"/>
					<rect id="XMLID_277_" x="613.5411377" y="229.0886688" class="st14" width="20.5" height="4.3333335"/>
				</g>
			</g>
			<path id="XMLID_272_" class="st15" d="M602.0411377,195.9219971c-0.166687,46.1666718-0.166687,92.1666565,0,138.3164673"/>
		</g>
		<g id="XMLID_191_">
			<path id="XMLID_268_" class="st6" d="M597.907959,334.9219666H458.1742554
				c-0.1241455-18.4448242-0.625061-41.0299683-1.9664917-66.833313c-1.6088257-30.946701-3.1117554-41.245224,2.333313-53.6666718
				c4.182373-9.5408325,16.1472168-28.7364502,56.3780518-40.1286621c8.5825195-2.4303589,17.661377-2.4303589,26.2438965-0.000061
				c40.230896,11.3922729,52.1957397,30.5878906,56.3781128,40.1287231
				c5.4450684,12.4214478,3.9421387,22.7199707,2.333313,53.6666718
				C598.53302,293.8919983,598.0321045,316.4771423,597.907959,334.9219666z"/>
			<g id="XMLID_243_">
				<path id="XMLID_265_" class="st10" d="M537.0411377,156.7553406c0-4.9705658-4.0294189-9-9-9c-4.9372559,0-9,4.0627441-9,9
					s4.0627441,9,9,9c0,4.9723053,0,9.9445953,0,14.9169006l-20.25,9.6664276l20.25-9.6664276l20.25,9.6664276"/>
				<g id="XMLID_244_">
					<path id="XMLID_262_" class="st16" d="M585.9995728,334.9219666H470.0827026
						c0.2549438-16.7631226-0.565979-30.4159546-1.374939-39.833313c-1.3809204-16.0751343-4.2603149-37.8401489-3-64.6666718
						c0.4252319-9.0515137,1.5636597-23.828064,10.333374-27.958313c1.1801758-0.5558472,2.2664795-0.8091431,3.1102295-0.9398804
						c0.1309814-0.0203247,0.2719116-0.0455322,0.3897705-0.0601196c8.333313-4.25,16.666626-8.5,25-12.75
						c0.979126,0.0557251,1.958313,0.1998901,2.9375,0.4104614c13.5847168,2.9212036,27.5402222,2.9212036,41.125,0
						c0.979126-0.2105713,1.958313-0.3547363,2.9375-0.4104614c8.333374,4.25,16.666687,8.5,25,12.75
						c0.1178589,0.0145874,0.2587891,0.0397949,0.3897705,0.0601196c0.84375,0.1307373,1.9300537,0.3840332,3.1102295,0.9398804
						c8.7697144,4.130249,9.9081421,18.9067993,10.333374,27.958313c1.2603149,26.8265228-1.6190796,48.5915375-3,64.6666718
						C586.5655518,304.506012,585.7446289,318.158844,585.9995728,334.9219666z"/>
					<path id="XMLID_259_" class="st17" d="M490.0411377,290.4219666c-0.2252808,10.9758911-0.161499,26.1027222,1.0655518,44.5
						h-21.0239868c0.2549438-16.7631226-0.565979-30.4159546-1.374939-39.833313
						c-1.3809204-16.0751343-4.2603149-37.8401489-3-64.6666718c0.4252319-9.0515137,1.5636597-23.828064,10.333374-27.958313
						c1.1801758-0.5558472,2.2664795-0.8091431,3.1102295-0.9398804c2.7210693,3.7003174,5.4725952,8.3171997,7.5563965,13.8981934
						c3.838562,10.2807007,3.532959,18.7797852,3.333374,28.333313
						C489.7162476,259.3074646,490.3602295,274.8697205,490.0411377,290.4219666z"/>
					<path id="XMLID_255_" class="st17" d="M504.5411377,188.7136688c1.5-1.7638855,3-3.5277863,4.5-5.2916718
						c6.333374,4.1666718,12.666687,8.3333282,19,12.5c-2.388855,5.5555573-4.777771,11.1111145-7.166626,16.6666718
						C515.4300537,204.6303406,509.9855957,196.6719971,504.5411377,188.7136688z"/>
					<path id="XMLID_252_" class="st17" d="M585.9995728,334.9219666h-21.0239868
						c1.2270508-18.3972778,1.2908325-33.5241089,1.0655518-44.5c-0.3190918-15.5522461,0.3248901-31.114502,0-46.6666718
						c-0.199585-9.5535278-0.505188-18.0526123,3.333374-28.333313c2.0838013-5.5809937,4.8353271-10.197876,7.5563965-13.8981934
						c0.84375,0.1307373,1.9300537,0.3840332,3.1102295,0.9398804c8.7697144,4.130249,9.9081421,18.9067993,10.333374,27.958313
						c1.2603149,26.8265228-1.6190796,48.5915375-3,64.6666718
						C586.5655518,304.506012,585.7446289,318.158844,585.9995728,334.9219666z"/>
					<path id="XMLID_249_" class="st17" d="M551.5411377,188.7136688c-1.5-1.7638855-3-3.5277863-4.5-5.2916718
						c-6.333313,4.1666718-12.666626,8.3333282-19,12.5c2.388916,5.5555573,4.777771,11.1111145,7.166687,16.6666718
						C540.6522827,204.6303406,546.0966797,196.6719971,551.5411377,188.7136688z"/>
					<rect id="XMLID_245_" x="539.5411377" y="229.0886688" class="st17" width="20.5" height="4.3333335"/>
				</g>
			</g>
			<path id="XMLID_195_" class="st18" d="M528.0411377,195.9219971c-0.166687,46.1666718-0.166687,92.1666565,0,138.3164673"/>
		</g>
		<g id="XMLID_40_">
			<path id="XMLID_175_" class="st19" d="M173.8744354,518.4219971h60.0000305V345.7553406h-85.3333435v147.3333435
				C148.5411224,507.079895,159.8832397,518.4219971,173.8744354,518.4219971z"/>
			<path id="XMLID_90_" class="st20" d="M199.2077637,518.4219971h444.000061
				c13.9912109,0,25.333313-11.3421021,25.333313-25.333313V345.7553406h-494.666687v147.3333435
				C173.8744659,507.079895,185.216568,518.4219971,199.2077637,518.4219971z"/>
			<path id="XMLID_10_" class="st19" d="M150.0410919,376.4219971h517.000061
				c16.9367676,0,30.666687-13.7299194,30.666687-30.666626v-0.0000305h-578.333374v0.0000305
				C119.3744507,362.6920776,133.1043701,376.4219971,150.0410919,376.4219971z"/>
			<path id="XMLID_8_" class="st21" d="M119.3744507,332.5886536h578.333374c3.6358643,0,6.583313,2.9474792,6.583313,6.5833435l0,0
				c0,3.6358948-2.9474487,6.5833435-6.583313,6.5833435h-578.333374c-3.6358719,0-6.5833206-2.9474487-6.5833206-6.5833435l0,0
				C112.7911301,335.5361328,115.7385788,332.5886536,119.3744507,332.5886536z"/>
			<circle id="XMLID_7_" class="st21" cx="254.2077942" cy="464.7553406" r="33.6666679"/>
			<circle id="XMLID_5_" class="st22" cx="237.2911224" cy="426.5886536" r="16.75"/>
		</g>
		<g id="XMLID_19_">
			<path id="XMLID_388_" class="st23" d="M259.3744507,306.8386536c-6.0545807,0.1844482-11.1665497-1.833313-11.1665497-1.833313
				c-3.1957092-1.2613831-5.559845-2.9223328-7.0834351-4.166687c0.5078735-2.1186218,0.9651489-4.8651123,1-8.0833435
				c0.0330811-3.0559387-0.3239441-5.6875916-0.75-7.75c-0.3447266,2.332428-0.6784363,4.6936951-1,7.0833435
				c-0.3248291,2.4137878-0.6300354,4.8029175-0.9166565,7.1666565c-1.1891479-1.5130615-2.8239441-3.8383789-4.25-6.9166565
				c-4.377533-9.4491882-3.0569153-17.9381104-1.666687-29c0,0,1.7238159-13.7162933,4-40.9999847
				c0.9337769-11.1928101,1.3943176-16.8917694,1.0833435-21.9166718
				c-0.9782104-15.8062592-5.0232544-17.9962463-4.4166565-28.6666565
				c0.232605-4.0917206,1.1464844-20.1675873,13.7916565-28.6666718c8.3769379-5.6303253,20.1927948-6.7865601,29.2499847-2.375
				c16.3977966,7.9870148,18.0823364,31.4620819,19,44.25c1.1332397,15.7921906-2.181366,28.6588593-4.875,36.5
				c4.2104797,6.3701935,10.8781128,18.7635803,10,34.5C299.6442871,286.9694824,269.9839172,306.5154419,259.3744507,306.8386536z"
				/>
			<path id="XMLID_385_" class="st24" d="M230.6660919,333.8386536c4.039917-5.6681519,8.8141479-13.951416,11.708374-24.75
				c1.0537109-3.9313965,3.1261597-11.9223633,2.5-22.25c-1.0029907-16.5424194-8.3053589-28.7808228-12.75-34.9999847
				c0.9257813-1.2200317,3.7944946-4.9528198,7.4299927-8.8597412c7.3852539,18.2344818,12.8130493,32.569809,12.8200073,49.609726
				c0.0033569,8.1514893-1.1699829,23.2877808-10.1263428,41.25H230.6660919z"/>
			<path id="XMLID_382_" class="st25" d="M299.2368164,215.2308807c0.5999756,0.2543945,1.1976929,0.5302734,1.8042603,0.8577881
				c1.7003174,0.9181519,7.3519287,4.2560425,12.333374,14.833313c3.5671997,7.5744629,2.9567261,10.7203979,5.5,21.666687
				c2.8751831,12.3749847,6.8612061,21.4166107,14.833313,39.4999847c2.5240479,5.7253418,3.8125,8.249939,6,11.166626
				c3.6518555,4.8692017,6.7650146,6.7723389,14.333313,14.166687c3.0307007,2.9609985,5.3924561,5.4510498,6.833374,7
				c-2.444458,2.166687-4.888916,4.333374-7.333374,6.5c-2.49646-2.1546631-6.2060547-5.3771362-10.666626-9.333313
				c-2.963623-2.62854-14.6335449-12.9789429-18.5-16.833374c-5.3825073-5.3656616-12.7073975-15.1610107-17.3355713-33.5445557
				c-4.6798096-10.9156799-9.3596191-21.8313751-14.0394287-32.7470551
				C295.0785828,230.7194061,297.1576843,222.9751434,299.2368164,215.2308807z"/>
			<path id="XMLID_379_" class="st25" d="M241.0410919,254.0886688c-2.9512329,9.8236542-7.8674927,14.9763641-14.416626,24.9166107
				c-2.1940308,3.3300781-5.1523438,8.0793457-8.3432617,14.1156006c-0.8881226,1.6801147-0.8894043,3.6912231-0.0089111,5.3753662
				c2.8209229,5.3955688,5.6386108,10.9822388,8.4354858,16.7590332c3.0620728,6.3244019,5.9224854,12.5213013,8.609436,18.583374
				h-11.741272c-3.1118164-2.8479004-6.9273682-6.7740479-10.7014771-11.916687
				c-5.883728-8.0171509-12.4545288-16.970459-12.166687-28.333313c0.1221313-4.8199463,2.0814209-9.6021729,6-19.166687
				c3.8445435-9.383728,4.8820801-9.0794678,8.666687-18c5.2467651-12.3669281,4.1151123-14.9846039,9.333313-23.8332977
				c2.4674683-4.1842041,4.65802-6.8795166,6.5760498-8.6707764c5.1135254,3.5152588,10.2270508,7.0305176,15.3406372,10.5457764
				c-1.4830933,5.0189209-2.9661255,10.0378418-4.4491577,15.0567627
				C241.8984528,250.9104462,241.5355988,252.4426727,241.0410919,254.0886688z"/>
			<path id="XMLID_376_" class="st26" d="M305.378418,278.7553406c-2.6146851,3.4203186-3.1611328,7.2246399-4.2539673,14.833313
				c-2.3931885,16.6619873,2.6040649,29.8136902,4.75,34.75c0.895752,2.0604858,1.8304138,3.8932495,2.7292786,5.5h-66.3556213
				c8.9563599-17.9622192,10.1296997-33.0985107,10.1263428-41.25
				c-0.0061035-14.9520264-4.1859131-27.8204956-10.1991577-43.0682373
				c-1.3505249-3.4244385-2.791626-6.9663696-4.3008423-10.6817627c-2.2789917-5.6104736-4.526001-10.5977173-6.5906372-14.9207611
				c2.0743408-1.9372559,3.8294067-2.8154907,5.2572632-3.3292236c2.6172485-0.9416504,4.0060425-0.6421509,7.666687-1.666687
				c5.4125366-1.5147705,9.4223022-4.1414185,12-6.166626c6.5-0.388916,13-0.777832,19.5-1.166687
				c3.5713501-0.0625,8.739624,0.1193237,14.833313,1.333313c3.5994263,0.7171021,6.1756592,1.2404785,8.6957397,2.3088989
				c-0.7289429,6.2352753-0.4559326,11.4167023,0.3487549,15.7120819c0.2692871,1.4373169,1.1486816,5.5535583,3.5388794,10.3956909
				c5.6424866,11.4307861,13.1691284,13.5957642,13.1706543,21.8333435c0.0002441,1.2982788-0.1865234,2.2726746-0.25,2.5833435
				C314.7331848,272.1760864,308.8996582,274.1491394,305.378418,278.7553406z"/>
			<path id="XMLID_373_" class="st27" d="M275.3744507,200.3386688c0.0416565,5.5,0.0833435,11,0.125,16.5
				c-6.4583435-0.7083282-12.9166565-1.4166718-19.375-2.125c0.5833435-7.9166718,1.1666565-15.8333282,1.75-23.75
				C263.7077942,194.0886688,269.5411072,197.2136688,275.3744507,200.3386688z"/>
			<path id="XMLID_370_" class="st28" d="M287.8744507,181.5886688c-0.873291,9.9637146-2.1442566,12.6908417-2.75,13.875
				c-1.3038635,2.5489044-5.0225525,9.8185425-12.375,11c-8.6148376,1.3843079-15.1231384-6.7298431-16.0416565-7.875
				c-4.5211639-5.6367493-4.8295746-11.9345398-4.8333282-14.1666718c-0.8335571-0.375885-4.2394714-2.0241547-5.3333435-5.6666565
				c-0.1133423-0.3773956-1.125-3.746109,0.4583435-5.1666718c1.2559509-1.1268311,3.3251343-0.2925415,6.625,0.4375
				c4.1581573,0.9199219,7.999527,1.7697601,11.4166412,1.0625c5.0632935-1.0479736,9.4730835-5.5721436,11.666687-9.1666718
				c1.1987305-1.9642792,2.04422-4.1566162,4.6666565-6.1666565c1.5162354-1.1621704,3.2355652-2.4799805,4.625-2.0416718
				C289.86026,158.9315948,288.6352844,172.9077911,287.8744507,181.5886688z"/>
			<path id="XMLID_367_" class="st28" d="M385.6934814,333.8386536h-23.3912354
				c-2.4806519-0.6121826-5.4542847-1.5198364-8.7611694-2.916687c2.444458-2.166626,4.888916-4.333313,7.333374-6.5
				c3.6655884,0.7819214,7.0172729,1.4598999,10,2.041687c10.3444824,2.0175781,15.8352661,2.7966919,16.125,5.041626
				c0.0567017,0.4393311-0.1057739,0.7804565-0.25,1.083374
				C386.5192871,333.071991,386.1556396,333.4836731,385.6934814,333.8386536z"/>
			<path id="XMLID_364_" class="st29" d="M255.7494659,208.8386688c4.7916107,2.166687,9.5832977,4.333313,14.3749847,6.5
				c2.208313-2.083313,4.416626-4.166687,6.625-6.25c0.802063,0.708313,1.604126,1.416687,2.40625,2.125
				c-1.395874,4.1875-2.791687,8.375-4.1875,12.5625c-0.7812195-1.28125-1.5625-2.5625-2.34375-3.84375
				c3.125,16.09375,6.25,32.1875,9.375,48.2812347c-1.166687,1.541626-2.333374,3.083313-3.5,4.625
				c-1.625-1.625-3.25-3.25-4.875-4.875c-1.541687-16.3611298-3.083374-32.7222137-4.625-49.0832977
				c-0.583374,2.277771-1.166687,4.555542-1.75,6.833313c-5.25-4.291687-10.5-8.583313-15.7499847-12.875
				C252.9160919,211.5053558,254.3327789,210.1719818,255.7494659,208.8386688z"/>
			<rect id="XMLID_361_" x="247.2049103" y="242.9789276" class="st29" width="19.0028687" height="3.4512939"/>
			<path id="XMLID_1_" class="st24" d="M250.128418,273.2553406c0.7075806,0.7320557,1.7457275,1.5871887,3.166687,2.1666565
				c4.5592651,1.8592529,9.015625-0.7688599,9.666687-1.1666565c-0.5903931,0.6773376-3.2817383,3.6147156-7.791687,4.0416565
				c-3.5540771,0.3364563-6.2067261-1.0783691-7.125-1.625"/>
		</g>
	</g>
</g>
</svg>
