<?xml version="1.0" encoding="utf-8"?>
<!-- Generator: Adobe Illustrator 25.4.1, SVG Export Plug-In . SVG Version: 6.00 Build 0)  -->
<svg version="1.1" id="Layer_1" xmlns="http://www.w3.org/2000/svg" xmlns:xlink="http://www.w3.org/1999/xlink" x="0px" y="0px"
	 width="300px" height="300px" viewBox="0 0 300 300" style="enable-background:new 0 0 300 300;" xml:space="preserve">
<style type="text/css">
	.st0{fill:none;stroke:#008CFF;stroke-width:8;stroke-linecap:round;stroke-linejoin:round;stroke-miterlimit:10;}
	.st1{fill:#008CFF;stroke:#008CFF;stroke-width:8;stroke-linecap:round;stroke-linejoin:round;stroke-miterlimit:10;}
</style>
<g>
	<path id="XMLID_21_" class="st0" d="M279.5622864,157.6374359c2.4682922-9.9730835-5.884613-19.3007202-16.0760498-18.0009003
		c-20.8211823,2.6555481-47.9049683,4.9779663-79.6818695,4.9779663c-31.7769775,0-58.8607712-2.322403-79.6818848-4.977951
		c-10.1914291-1.2998199-18.5443268,8.027771-16.0760574,18.0008392
		c3.2722473,13.2216187,5.3519516,27.7741394,5.3519516,43.4833221c0,15.7092743-2.0797195,30.2619324-5.3519897,43.4836426
		c-2.4682693,9.9730682,5.8846283,19.3006439,16.0760498,18.0008392c20.821106-2.6555176,47.9048615-4.9779968,79.6817169-4.9779968
		c31.7770081,0,58.8609161,2.3224792,79.6821136,4.9779968c10.1914368,1.2998047,18.5443115-8.027832,16.0760193-18.0009308
		c-3.2723389-13.2216187-5.3521423-27.7741089-5.3521423-43.4833221
		C274.2101746,185.4116821,276.2899475,170.8591156,279.5622864,157.6374359z"/>
	<path class="st0" d="M183.8043823,144.614502c10.6609497,0,20.7925568-0.2615967,30.3366699-0.7094727
		c11.00383-0.5163879,17.5232544-12.585495,11.9058838-22.0615768c-5.1943054-8.7624512-9.9212646-18.4036026-13.8493652-28.9811554
		c-5.4688263-14.7266083-8.5852966-29.0928841-10.1204987-42.6266899
		c-1.1580353-10.2085381-12.2356567-16.0447998-21.3370819-11.2783432
		c-18.5942841,9.7378922-43.1753845,21.3436737-72.9645233,32.4061394
		C77.9862366,82.4258957,51.7881203,89.6774139,31.3449593,94.4364319
		c-10.0064297,2.3294144-14.5896187,13.9814072-8.803833,22.4713745
		c7.6703777,11.2553711,14.6861458,24.173584,20.154995,38.9001465
		c5.4689331,14.7268524,8.5855446,29.0934753,10.1207962,42.6275024
		c1.1569672,10.199234,12.2285919,16.0488129,21.3219376,11.2870636c3.3967743-1.778717,6.993248-3.619812,10.7844238-5.5084839
		c5.2911911-2.6359711,8.4899063-8.1793518,8.125412-14.0795288c-0.7132874-11.5462952-2.5102615-22.3978424-5.0007477-32.4761353
		c-2.467041-9.9834442,5.8688736-19.3235016,16.0699692-18.0223694
		C124.9396439,142.2917633,152.0250854,144.614502,183.8043823,144.614502z"/>
	<path id="XMLID_19_" class="st1" d="M274.2101746,201.1209412c0-15.7108765,2.0802002-30.2648163,5.3531189-43.4875946
		c2.4701538-9.9797058-5.8955688-19.2968597-16.0941772-17.9989929c-10.1951447,1.2974243-21.8908386,2.514679-34.8969727,3.420517
		c-6.2403107,0.4346161-11.5390015,4.7501831-13.1680603,10.7897644
		c-3.8341064,14.2146301-6.3390503,30.0472565-6.3390503,47.2763062s2.5049438,33.0615234,6.3390503,47.2760925
		c1.6290588,6.039566,6.9277496,10.3551331,13.168045,10.7897339c13.006134,0.9058533,24.7018433,2.1231079,34.8969574,3.4205017
		c10.1986389,1.2978516,18.5643616-8.0193024,16.0941772-17.9990082
		C276.2903748,231.3855743,274.2101746,216.8317566,274.2101746,201.1209412z"/>
</g>
</svg>
