<?xml version="1.0" encoding="utf-8"?>
<!-- Generator: Adobe Illustrator 19.0.0, SVG Export Plug-In . SVG Version: 6.00 Build 0)  -->
<svg version="1.1" id="Layer_1" xmlns="http://www.w3.org/2000/svg" xmlns:xlink="http://www.w3.org/1999/xlink" x="0px" y="0px"
	 width="300px" height="300px" viewBox="-155 247 300 300" style="enable-background:new -155 247 300 300;" xml:space="preserve">
<style type="text/css">
	.st0{fill:none;stroke:#016ecf;stroke-width:8;stroke-linecap:round;stroke-linejoin:round;stroke-miterlimit:10;}
</style>
<g>
	<path class="st0" d="M-52.75,433.1614685c8.8707962,21.9137573,26.9154854,36.927063,47.75,36.927063
		s38.8792038-15.0133057,47.75-36.927063"/>
	<g>
		<path class="st0" d="M-94.2415085,299.7366943C-70.7450562,278.166626-39.4101448,265-5,265c72.9015884,0,132,59.0984192,132,132
			S67.9015884,529-5,529s-132-59.0984192-132-132c0-26.3297119,7.7089233-50.8589172,20.9928589-71.4536743"/>
		<path class="st0" d="M-26.9729881,394.4671631c-3.72505-7.4857788-10.6292839-14.3056641-19.4903412-14.3056641
			c-8.861042,0-15.765316,6.8199158-19.490345,14.3056641"/>
		<path class="st0" d="M56.0270119,394.4671631c-3.7250481-7.4857788-10.6292839-14.3056641-19.4903412-14.3056641
			c-8.8610439,0-15.765316,6.8199158-19.4903431,14.3056641"/>
	</g>
</g>
</svg>
