<?xml version="1.0" encoding="utf-8"?>
<!-- Generator: Adobe Illustrator 19.0.0, SVG Export Plug-In . SVG Version: 6.00 Build 0)  -->
<svg version="1.1" id="Layer_1" xmlns="http://www.w3.org/2000/svg" xmlns:xlink="http://www.w3.org/1999/xlink" x="0px" y="0px"
	 width="704.0476074px" height="438.7396545px" viewBox="0 0 704.0476074 438.7396545"
	 style="enable-background:new 0 0 704.0476074 438.7396545;" xml:space="preserve">
<style type="text/css">
	.st0{display:none;}
	.st1{display:inline;opacity:0.2;fill:#F5F5F5;}
	.st2{display:inline;}
	.st3{fill:#D2D3D3;}
	.st4{fill:#BCBDC0;}
	.st5{fill:#E7E7E7;}
	.st6{fill:#4B2A1C;}
	.st7{fill:#2D81BA;}
	.st8{fill:#408FDD;}
	.st9{fill:#3586C9;}
	.st10{fill:#EDB987;}
	.st11{fill:#FBD2AC;}
	.st12{fill:#FFFFFF;}
	.st13{opacity:0.2;fill:#F5F5F5;}
	.st14{fill:#58585B;}
	.st15{fill:#464646;}
	.st16{fill:#6A6B6B;}
	.st17{fill:none;stroke:#4B2A1C;stroke-width:3;stroke-linecap:round;stroke-linejoin:round;stroke-miterlimit:10;}
	.st18{fill:#808285;}
	.st19{fill:none;stroke:#808285;stroke-miterlimit:10;}
	.st20{fill:#F05C74;}
	.st21{fill:#DB3F60;}
	.st22{fill:none;stroke:#DB3F60;stroke-miterlimit:10;}
	.st23{fill:#FEE241;}
	.st24{fill:#FFD219;}
	.st25{fill:none;stroke:#FFD219;stroke-miterlimit:10;}
	.st26{fill:#F1F1F1;}
	.st27{fill:#282460;}
	.st28{fill:#A0DBE8;}
	.st29{fill:#8AD5EF;}
	.st30{opacity:0.2;}
	.st31{fill:#F5F5F5;}
	.st32{fill:#3BD190;}
	.st33{fill:#30B779;}
	.st34{fill:#39A7EA;}
	.st35{fill:#016ECF;}
	.st36{fill:#C63658;}
</style>
<image style="display:none;overflow:visible;" width="498" height="439" id="XMLID_73_" xlink:href="D2EDEFA5.jpg"  transform="matrix(1.1957748 0 0 1.1957748 19.014595 -14.166667)">
</image>
<g id="XMLID_16_" class="st0">
	<path id="XMLID_17_" class="st1" d="M441.6686401,426.1666565c-116.7361145,0-233.4722443,0-350.208374,0
		c-75.4386826,7.6101685-143.6039124-33.4444275-165.6666412-95.333313
		c-22.7247162-63.7458801,5.7385406-143.2068329,53-163.0000153c45.7677612-19.1676331,71.4867096,33.3999634,136,30
		c95.9445648-5.056427,106.6186676-124.8848648,235-174c15.9000854-6.0829315,122.6654968-45.1530075,197,10.9999981
		c47.2913208,35.7243538,78.0630493,107.4264832,55,143c-28.8117065,44.4404907-119.9873352-0.9015503-166,45
		C399.7338257,258.8060608,408.5231018,333.7484741,441.6686401,426.1666565z"/>
	<g id="XMLID_10_" class="st2">
		<rect id="XMLID_82_" x="487.6269836" y="-6" class="st3" width="37.9166679" height="256.3058777"/>
		<rect id="XMLID_18_" x="487.6269836" y="-6" class="st4" width="13.166667" height="256.3058777"/>
		<path id="XMLID_12_" class="st5" d="M61.9603004,2.8333333h463.5833435V-6H61.9603004
			c-2.4392548,0-4.4166603,1.977407-4.4166603,4.4166622v0.0000088C57.5436401,0.8559263,59.5210457,2.8333333,61.9603004,2.8333333
			z"/>
	</g>
	<g id="XMLID_6_" class="st2">
		<rect id="XMLID_3_" x="544.1269531" y="59.5" class="st3" width="37.9166679" height="188.8058929"/>
		<rect id="XMLID_5_" x="544.1269531" y="59.5" class="st4" width="13.166667" height="188.8058929"/>
		<path id="XMLID_4_" class="st5" d="M118.4603043,68.3333359h463.5833435V59.5H118.4603043
			c-2.4392548,0-4.4166641,1.9774055-4.4166641,4.4166641v0.0000076
			C114.0436401,66.3559265,116.0210495,68.3333359,118.4603043,68.3333359z"/>
	</g>
	<g id="XMLID_2_" class="st2">
		<path id="XMLID_85_" class="st6" d="M475.2936401,214.5833282c6.0545959,0.1844482,11.1665649-1.833313,11.1665649-1.833313
			c3.1957092-1.2613831,5.559845-2.9223328,7.0834351-4.166687c-0.5078735-2.1186218-0.9651489-4.8651123-1-8.0833435
			c-0.0330811-3.0559387,0.3239441-5.6875916,0.75-7.75c0.3447266,2.332428,0.6784363,4.6936951,1,7.0833435
			c0.3248291,2.4137878,0.6300354,4.8029175,0.9166565,7.1666565c1.1891479-1.5130615,2.8239441-3.8383789,4.25-6.9166565
			c4.377533-9.4491882,3.0569153-17.9381104,1.666687-29c0,0-1.7238159-13.7163086-4-41
			c-0.9337769-11.1928024-1.3943176-16.8917618-1.0833435-21.9166641
			c0.9782104-15.8062592,5.0232544-17.9962463,4.4166565-28.6666565
			c-0.232605-4.0917206-1.1464844-20.1675911-13.7916565-28.6666756c-8.3769531-5.6303253-20.1928101-6.7865601-29.25-2.375
			c-16.3977966,7.9870148-18.0823364,31.4620857-19,44.2500038c-1.1332397,15.7921906,2.181366,28.6588593,4.875,36.4999924
			c-4.2104797,6.3701935-10.8781128,18.7635803-10,34.5C435.0238037,194.7141571,464.6841736,214.2601166,475.2936401,214.5833282z"
			/>
		<path id="XMLID_15_" class="st7" d="M504.0020142,241.5833282c-4.039917-5.6681519-8.8141479-13.951416-11.708374-24.75
			c-1.0537109-3.9313965-3.1261597-11.9223633-2.5-22.25c1.0029907-16.5424194,8.3053589-28.7808228,12.75-35
			c-0.9257813-1.2200317-3.7944946-4.9528198-7.4299927-8.8597412
			c-7.3852539,18.2344971-12.8130493,32.5698242-12.8200073,49.6097412c-0.0033569,8.1514893,1.1699829,23.2877808,10.1263428,41.25
			H504.0020142z"/>
		<path id="XMLID_13_" class="st8" d="M435.4312744,122.9755478c-0.5999756,0.2543945-1.1976929,0.5302734-1.8042603,0.8577881
			c-1.7003174,0.9181519-7.3519287,4.2560349-12.333374,14.8333054c-3.5671997,7.5744629-2.9567261,10.7203979-5.5,21.666687
			c-2.8751831,12.375-6.8612061,21.416626-14.833313,39.5c-2.5240479,5.7253418-3.8125,8.249939-6,11.166626
			c-3.6518555,4.8692017-6.7650146,6.7723389-14.333313,14.166687c-3.0307007,2.9609985-5.3924561,5.4510498-6.833374,7
			c2.444458,2.166687,4.888916,4.333374,7.333374,6.5c2.49646-2.1546631,6.2060547-5.3771362,10.666626-9.333313
			c2.963623-2.62854,14.6335449-12.9789429,18.5-16.833374c5.3825073-5.3656616,12.7073975-15.1610107,17.3355713-33.5445557
			c4.6798096-10.9156799,9.3596191-21.8313904,14.0394287-32.7470703
			C439.5895081,138.4640656,437.5104065,130.7198029,435.4312744,122.9755478z"/>
		<path id="XMLID_14_" class="st8" d="M493.6270142,161.8333282c2.9512329,9.8236694,7.8674927,14.9763794,14.416626,24.916626
			c2.1940308,3.3300781,5.1523438,8.0793457,8.3432617,14.1156006c0.8881226,1.6801147,0.8894043,3.6912231,0.0089111,5.3753662
			c-2.8209229,5.3955688-5.6386108,10.9822388-8.4354858,16.7590332c-3.0620728,6.3244019-5.9224854,12.5213013-8.609436,18.583374
			h11.741272c3.1118164-2.8479004,6.9273682-6.7740479,10.7014771-11.916687
			c5.883728-8.0171509,12.4545288-16.970459,12.166687-28.333313c-0.1221313-4.8199463-2.0814209-9.6021729-6-19.166687
			c-3.8445435-9.383728-4.8820801-9.0794678-8.666687-18c-5.2467651-12.3669434-4.1151123-14.9846191-9.333313-23.833313
			c-2.4674683-4.1842041-4.65802-6.8795166-6.5760498-8.6707764c-5.1135254,3.5152588-10.2270508,7.0305176-15.3406372,10.5457764
			c1.4830933,5.0189209,2.9661255,10.0378418,4.4491577,15.0567627
			C492.7696533,158.6551056,493.1325073,160.1873322,493.6270142,161.8333282z"/>
		<path id="XMLID_11_" class="st9" d="M427.6292114,178.9553986c0.4620972,0.6280518,0.9345093,1.3261719,1.4144287,2.1279297
			c3.4666138,5.7910767,3.835144,10.9472656,4.5,20.25c0.5802002,8.1176147,1.3381348,20.7463379-4.75,34.75
			c-0.895752,2.0604858-1.8303833,3.8932495-2.729248,5.5h66.3555908c-8.9563599-17.9622192-10.1296997-33.0985107-10.1263428-41.25
			c0.0061035-14.9520264,4.1859131-27.8204956,10.1991577-43.0682373c1.3505249-3.4244385,2.791626-6.9663696,4.3008423-10.6817627
			c2.2789917-5.6104736,4.526001-10.5977173,6.5906372-14.9207764c-2.0743408-1.9372559-3.8294067-2.8154907-5.2572632-3.3292236
			c-2.6172485-0.9416428-4.0060425-0.6421432-7.666687-1.6666794c-5.4125366-1.5147705-9.4223022-4.1414185-12-6.166626
			c-6.5-0.388916-13-0.777832-19.5-1.166687c-3.5713501-0.0625-8.739624,0.1193237-14.833313,1.333313
			c-3.5994263,0.7171021-6.1756592,1.2404785-8.6957397,2.3088989c1.4578857,12.4705734-1.092041,20.7257004-3.8876343,26.1077805
			c-4.5597534,8.7783813-11.7471313,13.7192993-10.25,21C422.0944824,173.9777374,424.6253662,174.8725128,427.6292114,178.9553986z
			"/>
		<path id="XMLID_7_" class="st10" d="M459.2936401,108.0833359c-0.0416565,5.5-0.0833435,11-0.125,16.5
			c6.4583435-0.7083282,12.9166565-1.4166718,19.375-2.125c-0.5833435-7.9166718-1.1666565-15.8333282-1.75-23.75
			C470.9602966,101.8333359,465.1269836,104.9583359,459.2936401,108.0833359z"/>
		<path id="XMLID_86_" class="st11" d="M446.7936401,89.3333359c0.873291,9.9637146,2.1442566,12.6908417,2.75,13.875
			c1.3038635,2.5489044,5.0225525,9.8185425,12.375,11c8.6148376,1.3843079,15.1231384-6.7298431,16.0416565-7.875
			c4.5211792-5.6367493,4.8295898-11.9345398,4.8333435-14.1666718c0.8335571-0.375885,4.2394714-2.0241547,5.3333435-5.6666565
			c0.1133423-0.3773956,1.125-3.746109-0.4583435-5.1666718c-1.2559509-1.1268311-3.3251343-0.2925415-6.625,0.4375
			c-4.1581726,0.9199219-7.9995422,1.7697601-11.4166565,1.0625c-5.0632935-1.0479736-9.4730835-5.5721436-11.666687-9.1666718
			c-1.1987305-1.9642792-2.04422-4.1566162-4.6666565-6.1666565c-1.5162354-1.1621704-3.2355652-2.4799805-4.625-2.0416718
			C444.8078308,66.6762619,446.0328064,80.6524582,446.7936401,89.3333359z"/>
		<path id="XMLID_33_" class="st11" d="M348.9746094,241.5833282h23.3912354
			c2.4806519-0.6121826,5.4542847-1.5198364,8.7611694-2.916687c-2.444458-2.166626-4.888916-4.333313-7.333374-6.5
			c-3.6655884,0.7819214-7.0172729,1.4598999-10,2.041687c-10.3444824,2.0175781-15.8352661,2.7966919-16.125,5.041626
			c-0.0567017,0.4393311,0.1057739,0.7804565,0.25,1.083374
			C348.1488037,240.8166656,348.5124512,241.2283478,348.9746094,241.5833282z"/>
		<path id="XMLID_8_" class="st12" d="M478.9186401,116.5833359c-4.791626,2.166687-9.583313,4.333313-14.375,6.5
			c-2.208313-2.083313-4.416626-4.166687-6.625-6.25c-0.802063,0.708313-1.604126,1.416687-2.40625,2.125
			c1.395874,4.1875,2.791687,8.375,4.1875,12.5624924c0.78125-1.28125,1.5625-2.5625,2.34375-3.8437424
			c-3.125,16.0937424-6.25,32.1874924-9.375,48.2812424c1.166687,1.541626,2.333374,3.083313,3.5,4.625
			c1.625-1.625,3.25-3.25,4.875-4.875c1.541687-16.361145,3.083374-32.722229,4.625-49.0833054
			c0.583374,2.2777634,1.166687,4.5555344,1.75,6.8333054c5.25-4.291687,10.5-8.5833054,15.75-12.8749924
			C481.7520142,119.2500229,480.3353271,117.9166489,478.9186401,116.5833359z"/>
		<rect id="XMLID_9_" x="468.4603271" y="150.723587" class="st12" width="19.0028687" height="3.4512939"/>
	</g>
	<g id="XMLID_109_" class="st2">
		<path id="XMLID_140_" class="st13" d="M207.9066772,242.6666412h143.7263184
			c0.1275635-18.885437,0.6430664-108.9528198,2.0230713-134.2799683
			c1.6547852-30.3706055,3.2006836-40.477417-2.4000244-52.6676674
			c-4.3018799-9.3632202-16.6086426-28.2014751-57.9892578-39.3816528
			c-8.8277588-2.3851328-18.1660767-2.3851328-26.9938965-0.000061
			c-41.3806152,11.1802368-53.6873779,30.0184917-57.9893188,39.3817139
			c-5.600647,12.1902504-4.0548096,22.2970619-2.3999634,52.6676674
			C207.2636108,133.7138214,207.7790527,223.7812042,207.9066772,242.6666412z"/>
		<path id="XMLID_148_" class="st14" d="M237.1031494,149.5833282c-0.399292,31.1399536-5.0750122,38.7398682-4.25,72.75
			c0.1902466,7.8417358,0.6161499,14.7320557,1.0704956,20.333313h91.6923828
			c0.4543457-5.6012573,0.880249-12.4915771,1.0704956-20.333313c0.8250122-34.0101318-3.850708-41.6100464-4.25-72.75
			c-0.1717529-13.3986816,0.7144165-10.3875732,3.75-62.2499924c1.0470581-17.8881226,0.9057617-33.7568398,1.3731689-43.6421547
			c-9.5855713-3.7909546-18.4348755-6.6178589-28.2897949-10.7745361h-39.0001221
			c-9.8549194,4.1566772-18.7042236,6.9835815-28.2897949,10.7745361
			c0.4674072,9.8853149,0.3261108,25.7540321,1.3731689,43.6421547
			C236.3887329,139.195694,237.2749023,136.1845856,237.1031494,149.5833282z"/>
		<g id="XMLID_154_">
			<circle id="XMLID_129_" class="st15" cx="269.7698364" cy="105.8958359" r="3.9375"/>
			<circle id="XMLID_155_" class="st15" cx="269.7698364" cy="121.8958359" r="3.9375"/>
			<circle id="XMLID_179_" class="st15" cx="269.7698364" cy="137.8958282" r="3.9375"/>
		</g>
		<g id="XMLID_186_">
			<polygon id="XMLID_181_" class="st16" points="283.7698059,25.166647 275.7698059,25.166647 258.2698059,25.166647 
				258.2698059,32.9166451 275.7698059,32.9166451 283.7698059,32.9166451 301.2698059,32.9166451 301.2698059,25.166647 			"/>
			<path id="XMLID_189_" class="st15" d="M261.4364319,44.6666451c1.0722046,17.1838379,9.8922729,30.6001625,18.333374,39.68256
				c8.4411011-9.0823975,17.2611694-22.4987221,18.333374-39.68256c0.2611084-4.1852417,0.0223389-8.1136475-0.5114136-11.75
				h-13.8219604h-8h-13.8219604C261.414093,36.5529976,261.1753235,40.4814034,261.4364319,44.6666451z"/>
			<path id="XMLID_192_" class="st17" d="M270.7698059-1.1666666c0-4.9705658,4.0294495-9,9-9c4.9372559,0,9,4.0627446,9,9
				s-4.0627441,9-9,9c0,4.9723048,0,9.9445953,0,14.9169006l20.25,9.6664257l-20.25-9.6664257l-20.25,9.6664257"/>
			<path id="XMLID_220_" class="st18" d="M263.6031189,25.1666622c-1.5717163,5.5315094-2.6262207,12.1348553-2.1666565,19.4999981
				c1.9251404,30.8534431,28.8288269,49.5803261,33.6666565,52.8333473c-7.372345-1.1324005-24.5550232-4.899826-37.8333435-19.5
				c-10.490448-11.5347595-19.8129272-31.2262917-13.833313-43.8333473c0.8789368-1.8530731,3.1156311-6.5687847,8.333313-8.8333263
				C256.95047,23.0848598,261.9713135,24.5978146,263.6031189,25.1666622z"/>
			<path id="XMLID_218_" class="st18" d="M316.1031799,34.1666451c-0.8789673-1.8530884-3.1156616-6.5687847-8.333313-8.8333111
				c-5.1807251-2.2484741-10.2015381-0.7355347-11.833374-0.166687c1.5717163,5.5314941,2.6262207,12.1348858,2.166687,19.4999981
				c-1.0722046,17.1838379-9.8922729,30.6001625-18.333374,39.68256c2.1668701,2.331543,4.3035278,4.3728027,6.2828979,6.1225586
				c5.4647217-2.8748169,11.1273804-6.8752441,16.2171631-12.4717407
				C312.7602844,66.4652328,322.0827942,46.7737007,316.1031799,34.1666451z"/>
		</g>
		<g id="XMLID_184_">
			<circle id="XMLID_88_" class="st15" cx="289.7698364" cy="105.8958359" r="3.9375"/>
			<circle id="XMLID_188_" class="st15" cx="289.7698364" cy="121.8958359" r="3.9375"/>
			<circle id="XMLID_185_" class="st15" cx="289.7698364" cy="137.8958282" r="3.9375"/>
		</g>
		<g id="XMLID_187_">
			<g id="XMLID_149_">
				<path id="XMLID_157_" class="st15" d="M338.6865234,58.5833321c-0.6806641-3.585022-2.0078735-9.9080811-7.25-13.25
					c-1.2676392-0.8081665-2.5872803-1.3165894-3.8768311-1.6421509
					c-1.1610718,4.6357422-2.5117798,10.5083618-3.7897949,17.3088379
					c-2.2060547,11.7385292-5.5609131,28.8942299-5.333374,71.833313c0.0662842,12.5013428,0.2030029,40.0390625,0.25,49.5
					c2.022583-0.8983765,5.4088135-2.0986938,9.75-2.25c4.9747925-0.1734619,8.8618774,1.1123047,11,2
					c0.2533569-8.8948364,0.6998901-22.3913574,1.5-38.916687c0.588562-12.1550293,0.947937-21.5477829,1.666687-40.3333054
					C342.6032104,102.8333359,343.3554077,83.1734238,338.6865234,58.5833321z"/>
				<path id="XMLID_152_" class="st18" d="M339.880249,168.2708282c-2.7061768-1.230835-6.6514282-2.4539795-11.4437256-2.1875
					c-3.9217529,0.2180786-7.2108765,1.3711548-9.8172607,2.7354736c0.0280762,5.6276855,0.0522461,10.4941406,0.0672607,13.5145264
					c2.022583-0.8983765,5.4088135-2.0986938,9.75-2.25c4.9747925-0.1734619,8.8618774,1.1123047,11,2
					c1.7788696-4.9401245,2.9807739-9.1016846,3.75-12C342.5231934,169.6492462,341.3928833,168.9588165,339.880249,168.2708282z"/>
			</g>
			<g id="XMLID_183_">
				<path id="XMLID_217_" class="st15" d="M220.8531342,58.5833321c0.6806641-3.585022,2.0078735-9.9080811,7.25-13.25
					c1.2676392-0.8081665,2.5872803-1.3165894,3.8768311-1.6421509c1.1610718,4.6357422,2.5117798,10.5083618,3.7897949,17.3088379
					c2.2060547,11.7385292,5.5609131,28.8942299,5.333374,71.833313c-0.0662842,12.5013428-0.2030029,40.0390625-0.25,49.5
					c-2.022583-0.8983765-5.4088135-2.0986938-9.75-2.25c-4.9747925-0.1734619-8.8618774,1.1123047-11,2
					c-0.2533569-8.8948364-0.6998901-22.3913574-1.5-38.916687c-0.588562-12.1550293-0.947937-21.5477829-1.666687-40.3333054
					C216.9364471,102.8333359,216.1842499,83.1734238,220.8531342,58.5833321z"/>
				<path id="XMLID_214_" class="st18" d="M219.6594086,168.2708282c2.7061768-1.230835,6.6514282-2.4539795,11.4437256-2.1875
					c3.9217529,0.2180786,7.2108765,1.3711548,9.8172607,2.7354736c-0.0280762,5.6276855-0.0522461,10.4941406-0.0672607,13.5145264
					c-2.022583-0.8983765-5.4088135-2.0986938-9.75-2.25c-4.9747925-0.1734619-8.8618774,1.1123047-11,2
					c-1.7788696-4.9401245-2.9807739-9.1016846-3.75-12C217.0164642,169.6492462,218.1467743,168.9588165,219.6594086,168.2708282z"
					/>
			</g>
		</g>
		<path id="XMLID_121_" class="st19" d="M279.7698364,84.349205c0.0238037,52.4841232,0.0238037,105.4841232,0,157.6483154"/>
	</g>
	<g id="XMLID_131_" class="st2">
		<path id="XMLID_153_" class="st13" d="M62.7601318,242.6666412h139.7337036
			c0.1241455-18.4448242,0.625061-41.0299683,1.9664917-66.833313c1.6088257-30.9467163,3.1117554-41.2452393-2.333313-53.6666794
			c-4.182373-9.5408325-16.1472168-28.7364502-56.3780518-40.1286621c-8.5825195-2.4303589-17.661377-2.4303589-26.2438965-0.000061
			c-40.230896,11.3922729-52.1957397,30.5878906-56.3781128,40.1287231
			c-5.4450684,12.4214401-3.9421387,22.7199631-2.333313,53.6666794
			C62.1350708,201.636673,62.6359863,224.221817,62.7601318,242.6666412z"/>
		<g id="XMLID_137_">
			<path id="XMLID_256_" class="st17" d="M123.6269608,64.5000076c0-4.9705696,4.0294495-9.0000038,8.9999924-9.0000038
				c4.9372559,0,9,4.0627441,9,9.0000038s-4.0627441,9-9,9c0,4.9723053,0,9.9445953,0,14.9169006l20.25,9.6664276l-20.25-9.6664276
				l-20.2499847,9.6664276"/>
			<g id="XMLID_138_">
				<path id="XMLID_156_" class="st20" d="M74.6685181,242.6666412h115.9168701
					c-0.2549438-16.7631226,0.565979-30.4159546,1.374939-39.833313c1.3809204-16.0751343,4.2603149-37.8401489,3-64.666687
					c-0.4252319-9.0515137-1.5636597-23.8280563-10.333374-27.9583054
					c-1.1801758-0.5558472-2.2664795-0.8091431-3.1102295-0.9398804c-0.1309814-0.0203247-0.2719116-0.0455322-0.3897705-0.0601196
					c-8.333313-4.25-16.666626-8.5-25-12.75c-0.979126,0.0557251-1.958313,0.1998901-2.9375,0.4104614
					c-13.5847168,2.9212036-27.5402222,2.9212036-41.125,0c-0.979126-0.2105713-1.9583206-0.3547363-2.9375-0.4104614
					c-8.333374,4.25-16.666687,8.5-25,12.75c-0.1178589,0.0145874-0.2587891,0.0397949-0.3897705,0.0601196
					c-0.84375,0.1307373-1.9300537,0.3840332-3.1102295,0.9398804c-8.7697144,4.130249-9.9081421,18.9067917-10.333374,27.9583054
					c-1.2603149,26.8265381,1.6190796,48.5915527,3,64.666687
					C74.1025391,212.2506866,74.9234619,225.9035187,74.6685181,242.6666412z"/>
				<path id="XMLID_158_" class="st21" d="M170.6269531,198.1666412c0.2252808,10.9758911,0.161499,26.1027222-1.0655518,44.5
					h21.0239868c-0.2549438-16.7631226,0.565979-30.4159546,1.374939-39.833313
					c1.3809204-16.0751343,4.2603149-37.8401489,3-64.666687c-0.4252319-9.0515137-1.5636597-23.8280563-10.333374-27.9583054
					c-1.1801758-0.5558472-2.2664795-0.8091431-3.1102295-0.9398804c-2.7210693,3.7003174-5.4725952,8.3171997-7.5563965,13.8981934
					c-3.838562,10.2806931-3.532959,18.7797775-3.333374,28.3333054
					C170.9518433,167.0521393,170.3078613,182.6143951,170.6269531,198.1666412z"/>
				<path id="XMLID_247_" class="st21" d="M156.1269531,96.4583359c-1.5-1.7638855-3-3.5277863-4.5-5.2916718
					c-6.3333435,4.1666718-12.6666565,8.3333282-19,12.5c2.3888855,5.5555573,4.777771,11.1111145,7.1666565,16.6666718
					C145.2380676,112.3750076,150.6824951,104.4166641,156.1269531,96.4583359z"/>
				<path id="XMLID_159_" class="st21" d="M74.6685181,242.6666412h21.0239868
					c-1.2270508-18.3972778-1.2908325-33.5241089-1.0655518-44.5c0.3190918-15.5522461-0.3248901-31.114502,0-46.666687
					c0.199585-9.5535278,0.505188-18.0526123-3.333374-28.3333054c-2.0838013-5.5809937-4.8353271-10.197876-7.5563965-13.8981934
					c-0.84375,0.1307373-1.9300537,0.3840332-3.1102295,0.9398804c-8.7697144,4.130249-9.9081421,18.9067917-10.333374,27.9583054
					c-1.2603149,26.8265381,1.6190796,48.5915527,3,64.666687
					C74.1025391,212.2506866,74.9234619,225.9035187,74.6685181,242.6666412z"/>
				<path id="XMLID_241_" class="st21" d="M109.1269608,96.4583359c1.5-1.7638855,3-3.5277863,4.5-5.2916718
					c6.3333435,4.1666718,12.6666565,8.3333282,18.9999924,12.5c-2.3888855,5.5555573-4.7777634,11.1111145-7.1666489,16.6666718
					C120.0158463,112.3750076,114.5714188,104.4166641,109.1269608,96.4583359z"/>
				<rect id="XMLID_139_" x="100.6269608" y="136.8333282" class="st21" width="20.5" height="4.3333335"/>
			</g>
		</g>
		<path id="XMLID_125_" class="st22" d="M132.6269684,103.6666641c0.1666718,46.1666641,0.1666718,92.1666641,0,138.3164673"/>
	</g>
	<g id="XMLID_87_" class="st2">
		<path id="XMLID_160_" class="st13" d="M136.7601318,242.6666412h139.7337036
			c0.1241455-18.4448242,0.625061-41.0299683,1.9664917-66.833313c1.6088257-30.9467163,3.1117554-41.2452393-2.333313-53.6666794
			c-4.182373-9.5408325-16.1472168-28.7364502-56.3780518-40.1286621c-8.5825195-2.4303589-17.661377-2.4303589-26.2438965-0.000061
			c-40.230896,11.3922729-52.1957397,30.5878906-56.3781128,40.1287231
			c-5.4450684,12.4214401-3.9421387,22.7199631-2.333313,53.6666794
			C136.1350708,201.636673,136.6359863,224.221817,136.7601318,242.6666412z"/>
		<g id="XMLID_83_">
			<path id="XMLID_126_" class="st17" d="M197.6269531,64.5000076c0-4.9705696,4.0294495-9.0000038,9-9.0000038
				c4.9372559,0,9,4.0627441,9,9.0000038s-4.0627441,9-9,9c0,4.9723053,0,9.9445953,0,14.9169006l20.25,9.6664276l-20.25-9.6664276
				l-20.2499847,9.6664276"/>
			<g id="XMLID_27_">
				<path id="XMLID_147_" class="st23" d="M148.6685181,242.6666412h115.9168701
					c-0.2549438-16.7631226,0.565979-30.4159546,1.374939-39.833313c1.3809204-16.0751343,4.2603149-37.8401489,3-64.666687
					c-0.4252319-9.0515137-1.5636597-23.8280563-10.333374-27.9583054
					c-1.1801758-0.5558472-2.2664795-0.8091431-3.1102295-0.9398804c-0.1309814-0.0203247-0.2719116-0.0455322-0.3897705-0.0601196
					c-8.333313-4.25-16.666626-8.5-25-12.75c-0.979126,0.0557251-1.958313,0.1998901-2.9375,0.4104614
					c-13.5847168,2.9212036-27.5402222,2.9212036-41.125,0c-0.979126-0.2105713-1.958313-0.3547363-2.9375-0.4104614
					c-8.333374,4.25-16.666687,8.5-25,12.75c-0.1178589,0.0145874-0.2587891,0.0397949-0.3897705,0.0601196
					c-0.84375,0.1307373-1.9300537,0.3840332-3.1102295,0.9398804c-8.7697144,4.130249-9.9081421,18.9067917-10.333374,27.9583054
					c-1.2603149,26.8265381,1.6190796,48.5915527,3,64.666687
					C148.1025391,212.2506866,148.9234619,225.9035187,148.6685181,242.6666412z"/>
				<path id="XMLID_136_" class="st24" d="M244.6269531,198.1666412c0.2252808,10.9758911,0.161499,26.1027222-1.0655518,44.5
					h21.0239868c-0.2549438-16.7631226,0.565979-30.4159546,1.374939-39.833313
					c1.3809204-16.0751343,4.2603149-37.8401489,3-64.666687c-0.4252319-9.0515137-1.5636597-23.8280563-10.333374-27.9583054
					c-1.1801758-0.5558472-2.2664795-0.8091431-3.1102295-0.9398804c-2.7210693,3.7003174-5.4725952,8.3171997-7.5563965,13.8981934
					c-3.838562,10.2806931-3.532959,18.7797775-3.333374,28.3333054
					C244.9518433,167.0521393,244.3078613,182.6143951,244.6269531,198.1666412z"/>
				<path id="XMLID_84_" class="st24" d="M230.1269531,96.4583359c-1.5-1.7638855-3-3.5277863-4.5-5.2916718
					c-6.3333435,4.1666718-12.6666565,8.3333282-19,12.5c2.3888855,5.5555573,4.777771,11.1111145,7.1666565,16.6666718
					C219.2380676,112.3750076,224.6824951,104.4166641,230.1269531,96.4583359z"/>
				<path id="XMLID_135_" class="st24" d="M148.6685181,242.6666412h21.0239868
					c-1.2270508-18.3972778-1.2908325-33.5241089-1.0655518-44.5c0.3190918-15.5522461-0.3248901-31.114502,0-46.666687
					c0.199585-9.5535278,0.505188-18.0526123-3.333374-28.3333054c-2.0838013-5.5809937-4.8353271-10.197876-7.5563965-13.8981934
					c-0.84375,0.1307373-1.9300537,0.3840332-3.1102295,0.9398804c-8.7697144,4.130249-9.9081421,18.9067917-10.333374,27.9583054
					c-1.2603149,26.8265381,1.6190796,48.5915527,3,64.666687
					C148.1025391,212.2506866,148.9234619,225.9035187,148.6685181,242.6666412z"/>
				<path id="XMLID_36_" class="st24" d="M183.1269531,96.4583359c1.5-1.7638855,3-3.5277863,4.5-5.2916718
					c6.3333435,4.1666718,12.6666565,8.3333282,19,12.5c-2.3888855,5.5555573-4.777771,11.1111145-7.1666565,16.6666718
					C194.0158386,112.3750076,188.5714111,104.4166641,183.1269531,96.4583359z"/>
				<rect id="XMLID_39_" x="174.6269531" y="136.8333282" class="st24" width="20.5" height="4.3333335"/>
			</g>
		</g>
		<path id="XMLID_128_" class="st25" d="M206.6269684,103.6666641c0.1666718,46.1666641,0.1666718,92.1666641,0,138.3164673"/>
	</g>
	<g id="XMLID_81_" class="st2">
		<path id="XMLID_79_" class="st5" d="M560.7936401,426.1666565h-60V253.5h85.333313v147.3333435
			C586.1269531,414.8245544,574.7848511,426.1666565,560.7936401,426.1666565z"/>
		<path id="XMLID_25_" class="st26" d="M535.4603271,426.1666565H91.4602814
			c-13.9912033,0-25.3333054-11.3421021-25.3333054-25.333313V253.5h494.6666565v147.3333435
			C560.7936401,414.8245544,549.4515381,426.1666565,535.4603271,426.1666565z"/>
		<path id="XMLID_77_" class="st5" d="M584.6270142,284.1666565H67.6269379
			c-16.936718,0-30.6666374-13.7299194-30.6666374-30.666626V253.5h578.333313v0.0000305
			C615.2936401,270.4367371,601.5637207,284.1666565,584.6270142,284.1666565z"/>
		<path id="XMLID_78_" class="st27" d="M615.2936401,240.3333282H36.9603004c-3.6358719,0-6.5833282,2.947464-6.5833282,6.5833282
			v0.0000153c0,3.6358795,2.9474564,6.5833282,6.5833282,6.5833282h578.333313c3.6358643,0,6.583313-2.9474487,6.583313-6.5833282
			v-0.0000153C621.8769531,243.2807922,618.9295044,240.3333282,615.2936401,240.3333282z"/>
		<circle id="XMLID_76_" class="st28" cx="480.4602966" cy="372.5" r="33.6666679"/>
		<circle id="XMLID_80_" class="st29" cx="497.3769836" cy="334.3333435" r="16.75"/>
	</g>
</g>
<g id="XMLID_20_">
	<path id="XMLID_411_" class="st13" d="M523.8392944,437.8333435c-116.736145,0-233.4722595,0-350.208374,0
		C98.1922379,445.443512,30.0270023,404.3888855,7.9642773,342.5c-22.7247162-63.7458801,5.7385406-143.2068329,53-163.0000153
		c45.7677612-19.1676331,71.4867096,33.3999634,136,30c95.9445648-5.056427,106.6186676-124.8848495,234.9999847-173.9999847
		c15.9000854-6.0829296,122.6654968-45.1530151,197.0000305,11c47.2913208,35.7243538,78.0630493,107.4264679,55,142.9999847
		c-28.8117065,44.4404907-119.9873657-0.9015503-166,45C481.9044495,270.4727173,490.6937256,345.4151306,523.8392944,437.8333435z"
		/>
	<g id="XMLID_401_">
		<g id="XMLID_408_">
			<rect id="XMLID_333_" x="569.7976074" y="5.6666665" class="st3" width="37.9166679" height="256.3058777"/>
		</g>
		<g id="XMLID_405_">
			<rect id="XMLID_331_" x="569.7976074" y="5.6666665" class="st4" width="13.166667" height="256.3058777"/>
		</g>
		<g id="XMLID_402_">
			<path id="XMLID_330_" class="st5" d="M144.1309357,14.5h463.583374v-8.833334h-463.583374
				c-2.4392548,0-4.4166565,1.977407-4.4166565,4.4166627v0.0000086C139.7142792,12.5225925,141.6916809,14.5,144.1309357,14.5z"/>
		</g>
	</g>
	<g id="XMLID_391_">
		<g id="XMLID_398_">
			<rect id="XMLID_327_" x="626.2976074" y="71.1666641" class="st3" width="37.9166679" height="188.8058929"/>
		</g>
		<g id="XMLID_395_">
			<rect id="XMLID_326_" x="626.2976074" y="71.1666641" class="st4" width="13.166667" height="188.8058929"/>
		</g>
		<g id="XMLID_392_">
			<path id="XMLID_324_" class="st5" d="M200.6309357,80h463.583374v-8.8333359h-463.583374
				c-2.4392548,0-4.4166565,1.9774094-4.4166565,4.4166641v0.0000076C196.2142792,78.0225906,198.1916809,80,200.6309357,80z"/>
		</g>
	</g>
	<g id="XMLID_301_">
		<g id="XMLID_357_" class="st30">
			<g id="XMLID_55_">
				<path id="XMLID_323_" class="st31" d="M290.077301,254.333313h143.7263184
					c0.1275635-18.885437,0.6430664-108.9528198,2.0230713-134.2799683
					c1.6547852-30.3706055,3.2006836-40.477417-2.4000244-52.6676636
					c-4.3018799-9.3632202-16.6086426-28.2014771-57.9892578-39.3816528
					c-8.8277588-2.3851318-18.1660767-2.3851318-26.9938965-0.000061
					c-41.3806152,11.1802368-53.6873779,30.0184937-57.9893188,39.3817139
					c-5.600647,12.1902466-4.0548096,22.2970581-2.3999634,52.6676636
					C289.4342346,145.3804932,289.9496765,235.447876,290.077301,254.333313z"/>
			</g>
		</g>
		<g id="XMLID_354_">
			<path id="XMLID_321_" class="st14" d="M319.2737732,161.25c-0.399292,31.1399536-5.0750122,38.7398682-4.25,72.75
				c0.1902466,7.8417358,0.6161499,14.7320557,1.0704956,20.333313h91.6923828
				c0.4543457-5.6012573,0.880249-12.4915771,1.0704956-20.333313c0.8250122-34.0101318-3.850708-41.6100464-4.25-72.75
				c-0.1717529-13.3986816,0.7144165-10.3875732,3.75-62.25c1.0470581-17.8881226,0.9057617-33.7568359,1.3731689-43.6421509
				c-9.5855713-3.7909546-18.4348755-6.6178589-28.2897949-10.7745361h-39.0001221
				c-9.8549194,4.1566772-18.7042236,6.9835815-28.2897949,10.7745361
				C314.6180115,65.2431641,314.4767151,81.1118774,315.5237732,99
				C318.5593567,150.8623657,319.4455261,147.8512573,319.2737732,161.25z"/>
		</g>
		<g id="XMLID_344_">
			<g id="XMLID_351_">
				<circle id="XMLID_320_" class="st15" cx="351.9404602" cy="117.5625" r="3.9375"/>
			</g>
			<g id="XMLID_348_">
				<circle id="XMLID_317_" class="st15" cx="351.9404602" cy="133.5625" r="3.9375"/>
			</g>
			<g id="XMLID_345_">
				<circle id="XMLID_316_" class="st15" cx="351.9404602" cy="149.5625" r="3.9375"/>
			</g>
		</g>
		<g id="XMLID_328_">
			<g id="XMLID_341_">
				<polygon id="XMLID_313_" class="st16" points="365.9404602,36.833313 357.9404602,36.833313 340.4404602,36.833313 
					340.4404602,44.583313 357.9404602,44.583313 365.9404602,44.583313 383.4404602,44.583313 383.4404602,36.833313 				"/>
			</g>
			<g id="XMLID_338_">
				<path id="XMLID_310_" class="st15" d="M343.6070862,56.333313c1.0722046,17.1838379,9.8922729,30.6001587,18.333374,39.6825562
					c8.4411011-9.0823975,17.2611694-22.4987183,18.333374-39.6825562c0.2611084-4.1852417,0.0223389-8.1136475-0.5114136-11.75
					h-13.8219604h-8h-13.8219604C343.5847473,48.2196655,343.3459778,52.1480713,343.6070862,56.333313z"/>
			</g>
			<g id="XMLID_335_">
				<path id="XMLID_314_" class="st6" d="M382.1891479,45.5838203c-0.2167969,0-0.4365234-0.0473633-0.6455078-0.1469727
					l-19.6035156-9.3579102l-19.6035156,9.3579102c-0.7490234,0.3564453-1.6445313,0.0410156-2-0.7075195
					c-0.3574219-0.7475586-0.0400391-1.6425781,0.7070313-1.9995117l19.3964844-9.2592773V19.4998379
					c0-0.8286133,0.671875-1.5,1.5-1.5c4.1357422,0,7.5-3.3642588,7.5-7.500001s-3.3642578-7.5-7.5-7.5s-7.5,3.3642581-7.5,7.5
					c0,0.8286133-0.671875,1.5-1.5,1.5s-1.5-0.6713867-1.5-1.5c0-5.7895503,4.7099609-10.5,10.5-10.5s10.5,4.7104492,10.5,10.5
					c0,5.2802734-3.9179688,9.6630869-9,10.3930674v12.5776348l19.3964844,9.2592773
					c0.5380859,0.2568359,0.8535156,0.7939453,0.8535156,1.3535156c0,0.2172852-0.046875,0.4375-0.1464844,0.6459961
					C383.2868042,45.2683907,382.7487183,45.5838203,382.1891479,45.5838203z"/>
			</g>
			<g id="XMLID_332_">
				<path id="XMLID_309_" class="st18" d="M345.7737732,36.8333282c-1.5717163,5.5315094-2.6262207,12.1348572-2.1666565,19.5
					c1.9251404,30.8534393,28.8288269,49.5803223,33.6666565,52.8333435c-7.372345-1.1324005-24.5550232-4.899826-37.8333435-19.5
					c-10.490448-11.5347595-19.8129272-31.2262878-13.833313-43.8333435
					c0.8789368-1.8530731,3.1156311-6.5687866,8.333313-8.8333282
					C339.1211243,34.7515259,344.1419678,36.2644806,345.7737732,36.8333282z"/>
			</g>
			<g id="XMLID_329_">
				<path id="XMLID_307_" class="st18" d="M398.2738342,45.833313c-0.8789673-1.8530884-3.1156616-6.5687866-8.333313-8.833313
					c-5.1807251-2.2484741-10.2015381-0.7355347-11.833374-0.166687c1.5717163,5.5314941,2.6262207,12.1348877,2.166687,19.5
					c-1.0722046,17.1838379-9.8922729,30.6001587-18.333374,39.6825562c2.1668701,2.331543,4.3035278,4.3728027,6.2828979,6.1225586
					c5.4647217-2.8748169,11.1273804-6.8752441,16.2171631-12.4717407
					C394.9309387,78.131897,404.2534485,58.4403687,398.2738342,45.833313z"/>
			</g>
		</g>
		<g id="XMLID_318_">
			<g id="XMLID_325_">
				<circle id="XMLID_306_" class="st15" cx="371.9404602" cy="117.5625" r="3.9375"/>
			</g>
			<g id="XMLID_322_">
				<circle id="XMLID_300_" class="st15" cx="371.9404602" cy="133.5625" r="3.9375"/>
			</g>
			<g id="XMLID_319_">
				<circle id="XMLID_299_" class="st15" cx="371.9404602" cy="149.5625" r="3.9375"/>
			</g>
		</g>
		<g id="XMLID_303_">
			<g id="XMLID_311_">
				<g id="XMLID_315_">
					<path id="XMLID_297_" class="st15" d="M420.8571472,70.25c-0.6806641-3.585022-2.0078735-9.9080811-7.25-13.25
						c-1.2676392-0.8081665-2.5872803-1.3165894-3.8768311-1.6421509
						c-1.1610718,4.6357422-2.5117798,10.5083618-3.7897949,17.3088379
						c-2.2060547,11.7385254-5.5609131,28.8942261-5.333374,71.833313c0.0662842,12.5013428,0.2030029,40.0390625,0.25,49.5
						c2.022583-0.8983765,5.4088135-2.0986938,9.75-2.25c4.9747925-0.1734619,8.8618774,1.1123047,11,2
						c0.2533569-8.8948364,0.6998901-22.3913574,1.5-38.916687c0.588562-12.1550293,0.947937-21.5477905,1.666687-40.333313
						C424.7738342,114.5,425.5260315,94.8400879,420.8571472,70.25z"/>
				</g>
				<g id="XMLID_312_">
					<path id="XMLID_296_" class="st18" d="M422.0508728,179.9375c-2.7061768-1.230835-6.6514282-2.4539795-11.4437256-2.1875
						c-3.9217529,0.2180786-7.2108765,1.3711548-9.8172607,2.7354736
						c0.0280762,5.6276855,0.0522461,10.4941406,0.0672607,13.5145264c2.022583-0.8983765,5.4088135-2.0986938,9.75-2.25
						c4.9747925-0.1734619,8.8618774,1.1123047,11,2c1.7788696-4.9401245,2.9807739-9.1016846,3.75-12
						C424.6938171,181.315918,423.5635071,180.6254883,422.0508728,179.9375z"/>
				</g>
			</g>
			<g id="XMLID_304_">
				<g id="XMLID_308_">
					<path id="XMLID_294_" class="st15" d="M303.0237732,70.25c0.6806641-3.585022,2.0078735-9.9080811,7.25-13.25
						c1.2676392-0.8081665,2.5872803-1.3165894,3.8768311-1.6421509c1.1610718,4.6357422,2.5117798,10.5083618,3.7897949,17.3088379
						c2.2060547,11.7385254,5.5609131,28.8942261,5.333374,71.833313c-0.0662842,12.5013428-0.2030029,40.0390625-0.25,49.5
						c-2.022583-0.8983765-5.4088135-2.0986938-9.75-2.25c-4.9747925-0.1734619-8.8618774,1.1123047-11,2
						c-0.2533569-8.8948364-0.6998901-22.3913574-1.5-38.916687c-0.588562-12.1550293-0.947937-21.5477905-1.666687-40.333313
						C299.1070862,114.5,298.3548889,94.8400879,303.0237732,70.25z"/>
				</g>
				<g id="XMLID_305_">
					<path id="XMLID_290_" class="st18" d="M301.8300476,179.9375c2.7061768-1.230835,6.6514282-2.4539795,11.4437256-2.1875
						c3.9217529,0.2180786,7.2108765,1.3711548,9.8172607,2.7354736
						c-0.0280762,5.6276855-0.0522461,10.4941406-0.0672607,13.5145264c-2.022583-0.8983765-5.4088135-2.0986938-9.75-2.25
						c-4.9747925-0.1734619-8.8618774,1.1123047-11,2c-1.7788696-4.9401245-2.9807739-9.1016846-3.75-12
						C299.1871033,181.315918,300.3174133,180.6254883,301.8300476,179.9375z"/>
				</g>
			</g>
		</g>
		<g id="XMLID_302_">
			<path id="XMLID_293_" class="st18" d="M362.4401245,253.6643829h-1c0.0244141-52.1445313,0.0244141-105.1850586,0-157.6484375h1
				C362.4645386,148.4793243,362.4645386,201.52034,362.4401245,253.6643829z"/>
		</g>
	</g>
	<g id="XMLID_271_">
		<g id="XMLID_298_" class="st30">
			<g id="XMLID_53_">
				<path id="XMLID_288_" class="st31" d="M144.9307709,254.333313h139.7336884
					c0.1241455-18.4448242,0.625061-41.0299683,1.9664917-66.833313c1.6088257-30.9467163,3.1117554-41.2452393-2.333313-53.666687
					c-4.182373-9.5408325-16.1472168-28.7364502-56.3780365-40.1286621
					c-8.5825195-2.4303589-17.661377-2.4303589-26.2438965-0.000061
					c-40.230896,11.3922729-52.1957397,30.5878906-56.3781128,40.1287231
					c-5.4450684,12.4214478-3.9421387,22.7199707-2.333313,53.666687
					C144.3057098,213.3033447,144.8066254,235.8884888,144.9307709,254.333313z"/>
			</g>
		</g>
		<g id="XMLID_275_">
			<g id="XMLID_295_">
				<path id="XMLID_291_" class="st6" d="M235.0465698,111.2503281c-0.2167969,0-0.4365234-0.0473633-0.6450195-0.1469727
					l-19.6040039-9.3579102l-19.6040039,9.3579102c-0.746582,0.3564453-1.6425781,0.0405273-1.9995117-0.7075195
					c-0.3569336-0.7475586-0.0405273-1.6425781,0.7075195-1.9995117l19.3959961-9.2592773V85.166832
					c0-0.8286133,0.6713867-1.5,1.5-1.5c4.1357422,0,7.5-3.3642578,7.5-7.5s-3.3642578-7.5-7.5-7.5s-7.5,3.3642578-7.5,7.5
					c0,0.8286133-0.6713867,1.5-1.5,1.5s-1.5-0.6713867-1.5-1.5c0-5.7895508,4.7104492-10.5,10.5-10.5s10.5,4.7104492,10.5,10.5
					c0,5.2802734-3.918457,9.6630859-9,10.3930664v12.5771484l19.3959961,9.2592773
					c0.5390625,0.2568359,0.8540039,0.7939453,0.8544922,1.3535156c0,0.2172852-0.0473633,0.4375-0.1469727,0.6459961
					C236.1437378,110.9348984,235.6066284,111.2503281,235.0465698,111.2503281z"/>
			</g>
			<g id="XMLID_276_">
				<g id="XMLID_292_">
					<path id="XMLID_287_" class="st32" d="M156.8391571,254.333313H272.756012
						c-0.2549438-16.7631226,0.565979-30.4159546,1.374939-39.833313c1.3809204-16.0751343,4.2603149-37.8401489,3-64.666687
						c-0.4252319-9.0515137-1.5636597-23.828064-10.333374-27.958313c-1.1801758-0.5558472-2.2664795-0.8091431-3.1102295-0.9398804
						c-0.1309814-0.0203247-0.2719116-0.0455322-0.3897705-0.0601196c-8.3332977-4.25-16.6666107-8.5-24.9999847-12.75
						c-0.979126,0.0557251-1.958313,0.1998901-2.9375,0.4104614c-13.5847168,2.9212036-27.5402222,2.9212036-41.125,0
						c-0.979126-0.2105713-1.958313-0.3547363-2.9375-0.4104614c-8.333374,4.25-16.666687,8.5-25,12.75
						c-0.1178589,0.0145874-0.2587891,0.0397949-0.3897705,0.0601196c-0.84375,0.1307373-1.9300537,0.3840332-3.1102295,0.9398804
						c-8.7697144,4.130249-9.9081421,18.9067993-10.333374,27.958313c-1.2603149,26.8265381,1.6190796,48.5915527,3,64.666687
						C156.2731781,223.9173584,157.094101,237.5701904,156.8391571,254.333313z"/>
				</g>
				<g id="XMLID_289_">
					<path id="XMLID_285_" class="st33" d="M252.7975922,209.833313c0.2252808,10.9758911,0.161499,26.1027222-1.0655518,44.5
						h21.0239716c-0.2549438-16.7631226,0.565979-30.4159546,1.374939-39.833313
						c1.3809204-16.0751343,4.2603149-37.8401489,3-64.666687c-0.4252319-9.0515137-1.5636597-23.828064-10.333374-27.958313
						c-1.1801758-0.5558472-2.2664795-0.8091431-3.1102295-0.9398804
						c-2.7210693,3.7003174-5.4725952,8.3171997-7.5563965,13.8981934
						c-3.8385468,10.2807007-3.5329437,18.7797852-3.3333588,28.333313
						C253.1224823,178.718811,252.4785004,194.2810669,252.7975922,209.833313z"/>
				</g>
				<g id="XMLID_286_">
					<path id="XMLID_284_" class="st33" d="M238.2975922,108.125c-1.5-1.7638855-3-3.5277863-4.5-5.2916718
						c-6.3333435,4.1666718-12.6666565,8.3333282-19,12.5c2.3888855,5.5555573,4.777771,11.1111145,7.1666565,16.6666718
						C227.4087067,124.0416718,232.8531342,116.0833282,238.2975922,108.125z"/>
				</g>
				<g id="XMLID_283_">
					<path id="XMLID_282_" class="st33" d="M156.8391571,254.333313h21.0239868
						c-1.2270508-18.3972778-1.2908325-33.5241089-1.0655518-44.5c0.3190918-15.5522461-0.3248901-31.114502,0-46.666687
						c0.199585-9.5535278,0.505188-18.0526123-3.333374-28.333313c-2.0838013-5.5809937-4.8353271-10.197876-7.5563965-13.8981934
						c-0.84375,0.1307373-1.9300537,0.3840332-3.1102295,0.9398804c-8.7697144,4.130249-9.9081421,18.9067993-10.333374,27.958313
						c-1.2603149,26.8265381,1.6190796,48.5915527,3,64.666687
						C156.2731781,223.9173584,157.094101,237.5701904,156.8391571,254.333313z"/>
				</g>
				<g id="XMLID_280_">
					<path id="XMLID_279_" class="st33" d="M191.2975922,108.125c1.5-1.7638855,3-3.5277863,4.5-5.2916718
						c6.3333435,4.1666718,12.6666565,8.3333282,19,12.5c-2.3888855,5.5555573-4.777771,11.1111145-7.1666565,16.6666718
						C202.1864777,124.0416718,196.7420502,116.0833282,191.2975922,108.125z"/>
				</g>
				<g id="XMLID_277_">
					<rect id="XMLID_274_" x="182.7975922" y="148.5" class="st33" width="20.5" height="4.3333335"/>
				</g>
			</g>
		</g>
		<g id="XMLID_272_">
			<path id="XMLID_281_" class="st33" d="M215.2975464,253.6516876l-1-0.0039063
				c0.1655273-45.8803711,0.1655273-92.4155273,0-138.3125l1-0.0039063
				C215.4630737,161.2307892,215.4630737,207.7683868,215.2975464,253.6516876z"/>
		</g>
	</g>
	<g id="XMLID_191_">
		<g id="XMLID_268_" class="st30">
			<g id="XMLID_52_">
				<path id="XMLID_273_" class="st31" d="M218.9307709,254.333313h139.7336884
					c0.1241455-18.4448242,0.625061-41.0299683,1.9664917-66.833313c1.6088257-30.9467163,3.1117554-41.2452393-2.333313-53.666687
					c-4.182373-9.5408325-16.1472168-28.7364502-56.3780518-40.1286621
					c-8.5825195-2.4303589-17.661377-2.4303589-26.2438965-0.000061
					c-40.2308807,11.3922729-52.1957245,30.5878906-56.3780975,40.1287231
					c-5.4450684,12.4214478-3.9421387,22.7199707-2.333313,53.666687
					C218.3057098,213.3033447,218.8066254,235.8884888,218.9307709,254.333313z"/>
			</g>
		</g>
		<g id="XMLID_243_">
			<g id="XMLID_265_">
				<path id="XMLID_278_" class="st6" d="M309.0465698,111.2503281c-0.2167969,0-0.4365234-0.0473633-0.6455078-0.1469727
					l-19.6035156-9.3579102l-19.6040039,9.3579102c-0.7475586,0.3564453-1.6430664,0.0405273-1.9995117-0.7075195
					c-0.3569336-0.7475586-0.0405273-1.6425781,0.7075195-1.9995117l19.3959961-9.2592773V85.166832
					c0-0.8286133,0.6713867-1.5,1.5-1.5c4.1357422,0,7.5-3.3642578,7.5-7.5s-3.3642578-7.5-7.5-7.5s-7.5,3.3642578-7.5,7.5
					c0,0.8286133-0.6713867,1.5-1.5,1.5s-1.5-0.6713867-1.5-1.5c0-5.7895508,4.7104492-10.5,10.5-10.5s10.5,4.7104492,10.5,10.5
					c0,5.2802734-3.918457,9.6630859-9,10.3930664v12.5771484l19.3964844,9.2592773
					c0.5380859,0.2568359,0.8535156,0.7939453,0.8535156,1.3535156c0,0.2172852-0.046875,0.4375-0.1464844,0.6459961
					C310.1442261,110.9348984,309.6061401,111.2503281,309.0465698,111.2503281z"/>
			</g>
			<g id="XMLID_244_">
				<g id="XMLID_262_">
					<path id="XMLID_270_" class="st23" d="M230.8391571,254.333313H346.756012
						c-0.2549438-16.7631226,0.565979-30.4159546,1.374939-39.833313c1.3809204-16.0751343,4.2603149-37.8401489,3-64.666687
						c-0.4252319-9.0515137-1.5636597-23.828064-10.333374-27.958313c-1.1801758-0.5558472-2.2664795-0.8091431-3.1102295-0.9398804
						c-0.1309814-0.0203247-0.2719116-0.0455322-0.3897705-0.0601196c-8.333313-4.25-16.666626-8.5-25-12.75
						c-0.979126,0.0557251-1.958313,0.1998901-2.9375,0.4104614c-13.5847168,2.9212036-27.5402222,2.9212036-41.125,0
						c-0.979126-0.2105713-1.958313-0.3547363-2.9375-0.4104614c-8.333374,4.25-16.6666718,8.5-24.9999847,12.75
						c-0.1178589,0.0145874-0.2587891,0.0397949-0.3897705,0.0601196c-0.84375,0.1307373-1.9300537,0.3840332-3.1102295,0.9398804
						c-8.7697144,4.130249-9.9081421,18.9067993-10.333374,27.958313c-1.2603149,26.8265381,1.6190796,48.5915527,3,64.666687
						C230.2731781,223.9173584,231.094101,237.5701904,230.8391571,254.333313z"/>
				</g>
				<g id="XMLID_259_">
					<path id="XMLID_269_" class="st24" d="M326.7975769,209.833313c0.2252808,10.9758911,0.161499,26.1027222-1.0655518,44.5
						h21.0239868c-0.2549438-16.7631226,0.565979-30.4159546,1.374939-39.833313
						c1.3809204-16.0751343,4.2603149-37.8401489,3-64.666687c-0.4252319-9.0515137-1.5636597-23.828064-10.333374-27.958313
						c-1.1801758-0.5558472-2.2664795-0.8091431-3.1102295-0.9398804
						c-2.7210693,3.7003174-5.4725952,8.3171997-7.5563965,13.8981934c-3.838562,10.2807007-3.532959,18.7797852-3.333374,28.333313
						C327.122467,178.718811,326.4784851,194.2810669,326.7975769,209.833313z"/>
				</g>
				<g id="XMLID_255_">
					<path id="XMLID_267_" class="st24" d="M312.2976074,108.125c-1.5-1.7638855-3-3.5277863-4.5-5.2916718
						c-6.3333435,4.1666718-12.6666565,8.3333282-19,12.5c2.3888855,5.5555573,4.777771,11.1111145,7.1666565,16.6666718
						C301.4087219,124.0416718,306.8531494,116.0833282,312.2976074,108.125z"/>
				</g>
				<g id="XMLID_252_">
					<path id="XMLID_266_" class="st24" d="M230.8391571,254.333313h21.0239868
						c-1.2270508-18.3972778-1.2908325-33.5241089-1.0655518-44.5c0.3190918-15.5522461-0.3248901-31.114502,0-46.666687
						c0.199585-9.5535278,0.505188-18.0526123-3.333374-28.333313c-2.0838013-5.5809937-4.8353271-10.197876-7.5563965-13.8981934
						c-0.84375,0.1307373-1.9300537,0.3840332-3.1102295,0.9398804c-8.7697144,4.130249-9.9081421,18.9067993-10.333374,27.958313
						c-1.2603149,26.8265381,1.6190796,48.5915527,3,64.666687
						C230.2731781,223.9173584,231.094101,237.5701904,230.8391571,254.333313z"/>
				</g>
				<g id="XMLID_249_">
					<path id="XMLID_263_" class="st24" d="M265.2976074,108.125c1.5-1.7638855,3-3.5277863,4.5-5.2916718
						c6.3333435,4.1666718,12.6666565,8.3333282,19,12.5c-2.3888855,5.5555573-4.777771,11.1111145-7.1666565,16.6666718
						C276.1864929,124.0416718,270.7420654,116.0833282,265.2976074,108.125z"/>
				</g>
				<g id="XMLID_245_">
					<rect id="XMLID_261_" x="256.7976074" y="148.5" class="st24" width="20.5" height="4.3333335"/>
				</g>
			</g>
		</g>
		<g id="XMLID_195_">
			<path id="XMLID_264_" class="st24" d="M289.2975464,253.6516876l-1-0.0039063
				c0.1655273-45.8803711,0.1655273-92.4155273,0-138.3125l1-0.0039063
				C289.4630737,161.2307892,289.4630737,207.7683868,289.2975464,253.6516876z"/>
		</g>
	</g>
	<g id="XMLID_40_">
		<g id="XMLID_175_">
			<path id="XMLID_260_" class="st5" d="M642.9642944,437.8333435h-60v-172.666687h85.333313v147.333374
				C668.2976074,426.4912109,656.9555054,437.8333435,642.9642944,437.8333435z"/>
		</g>
		<g id="XMLID_90_">
			<path id="XMLID_258_" class="st26" d="M617.6309814,437.8333435h-444.000061
				c-13.9911957,0-25.333313-11.3421326-25.333313-25.333313v-147.333374h494.666687v147.333374
				C642.9642944,426.4912109,631.6221924,437.8333435,617.6309814,437.8333435z"/>
		</g>
		<g id="XMLID_54_">
			<path id="XMLID_257_" class="st5" d="M666.7976685,295.8333435H149.7975769
				c-16.9367218,0-30.6666412-13.7299194-30.6666412-30.6666565v-0.0000305h578.333374v0.0000305
				C697.4642944,282.1034241,683.734375,295.8333435,666.7976685,295.8333435z"/>
		</g>
		<g id="XMLID_49_">
			<path id="XMLID_254_" class="st34" d="M697.4642944,252h-578.333374c-3.6358719,0-6.5833282,2.9474487-6.5833282,6.583313
				v0.0000305c0,3.6358643,2.9474564,6.583313,6.5833282,6.583313h578.333374c3.6358643,0,6.583313-2.9474487,6.583313-6.583313
				v-0.0000305C704.0476074,254.9474487,701.1001587,252,697.4642944,252z"/>
		</g>
		<g id="XMLID_44_">
			<circle id="XMLID_253_" class="st35" cx="562.6309204" cy="384.1666565" r="33.6666679"/>
		</g>
		<g id="XMLID_41_">
			<circle id="XMLID_251_" class="st34" cx="579.5476074" cy="346" r="16.75"/>
		</g>
	</g>
	<g id="XMLID_19_">
		<g id="XMLID_388_">
			<path id="XMLID_250_" class="st6" d="M557.4642944,226.25c6.0545654,0.1844482,11.1665649-1.833313,11.1665649-1.833313
				c3.1956787-1.2613831,5.5598145-2.9223328,7.0834351-4.166687c-0.5078735-2.1186218-0.9651489-4.8651123-1-8.0833435
				c-0.0330811-3.0559387,0.3239136-5.6875916,0.75-7.75c0.3447266,2.332428,0.6784058,4.6936951,1,7.0833435
				c0.3248291,2.4137878,0.6300049,4.8029175,0.916626,7.1666565c1.1891479-1.5130615,2.8239746-3.8383789,4.25-6.9166565
				c4.3775635-9.4491882,3.0569458-17.9381104,1.666687-29c0,0-1.7238159-13.7163086-4-41
				c-0.9337769-11.1928101-1.3942871-16.8917694-1.083313-21.9166718
				c0.9782104-15.8062592,5.0232544-17.9962463,4.416626-28.6666565c-0.232605-4.0917206-1.1464844-20.1675873-13.791626-28.6666718
				c-8.3769531-5.6303253-20.1928101-6.7865601-29.25-2.375c-16.3978271,7.9870148-18.0823364,31.4620819-19,44.25
				c-1.1332397,15.7921906,2.1813354,28.6588593,4.875,36.5c-4.2105103,6.3701935-10.8781128,18.7635803-10,34.5
				C517.194458,206.3808289,546.8547974,225.9267883,557.4642944,226.25z"/>
		</g>
		<g id="XMLID_385_">
			<path id="XMLID_248_" class="st36" d="M586.1726685,253.25c-4.039917-5.6681519-8.8141479-13.951416-11.708374-24.75
				c-1.0537109-3.9313965-3.1261597-11.9223633-2.5-22.25c1.0029907-16.5424194,8.3053589-28.7808228,12.75-35
				c-0.9257813-1.2200317-3.7944946-4.9528198-7.4299927-8.8597412C569.8990479,180.6247559,564.4712524,194.960083,564.4642944,212
				c-0.0033569,8.1514893,1.1699829,23.2877808,10.1263428,41.25H586.1726685z"/>
		</g>
		<g id="XMLID_382_">
			<path id="XMLID_246_" class="st21" d="M517.6019287,134.6422119c-0.5999756,0.2543945-1.1976929,0.5302734-1.8042603,0.8577881
				c-1.7003174,0.9181519-7.3519592,4.2560425-12.3334045,14.833313c-3.5671997,7.5744629-2.9567261,10.7203979-5.5,21.666687
				c-2.8751831,12.375-6.8612061,21.416626-14.833313,39.5c-2.5240479,5.7253418-3.8125,8.249939-6,11.166626
				c-3.6518555,4.8692017-6.7650146,6.7723389-14.333313,14.166687c-3.0307007,2.9609985-5.3924561,5.4510498-6.833374,7
				c2.444458,2.166687,4.888916,4.333374,7.333374,6.5c2.49646-2.1546631,6.2060547-5.3771362,10.666626-9.333313
				c2.963623-2.62854,14.6335449-12.9789429,18.5-16.833374c5.3825073-5.3656616,12.7073975-15.1610107,17.3355713-33.5445557
				c4.6798401-10.9156799,9.3596497-21.8313904,14.0394592-32.7470703
				C521.7601318,150.1307373,519.6810303,142.3864746,517.6019287,134.6422119z"/>
		</g>
		<g id="XMLID_379_">
			<path id="XMLID_232_" class="st21" d="M575.7976685,173.5c2.9512329,9.8236694,7.8674927,14.9763794,14.416626,24.916626
				c2.1940308,3.3300781,5.1523438,8.0793457,8.3432617,14.1156006c0.8881226,1.6801147,0.8894043,3.6912231,0.0089111,5.3753662
				c-2.8209229,5.3955688-5.6386108,10.9822388-8.4354858,16.7590332c-3.0620728,6.3244019-5.9224854,12.5213013-8.609436,18.583374
				h11.741272c3.1118164-2.8479004,6.9273682-6.7740479,10.7014771-11.916687
				c5.883728-8.0171509,12.4545288-16.970459,12.166687-28.333313c-0.1221313-4.8199463-2.0814209-9.6021729-6-19.166687
				c-3.8445435-9.383728-4.8820801-9.0794678-8.666687-18c-5.2467651-12.3669434-4.1151123-14.9846191-9.333313-23.833313
				c-2.4674683-4.1842041-4.65802-6.8795166-6.5760498-8.6707764c-5.1135254,3.5152588-10.2270508,7.0305176-15.3406372,10.5457764
				c1.4830933,5.0189209,2.9661255,10.0378418,4.4491577,15.0567627
				C574.9403076,170.3217773,575.3031616,171.8540039,575.7976685,173.5z"/>
		</g>
		<g id="XMLID_376_">
			<path id="XMLID_197_" class="st20" d="M511.4603271,198.1666718c2.6146851,3.4203186,3.1611328,7.2246399,4.2539673,14.833313
				c2.3931885,16.6619873-2.6040649,29.8136902-4.75,34.75c-0.895752,2.0604858-1.8304138,3.8932495-2.7292786,5.5h66.3556213
				c-8.9563599-17.9622192-10.1296997-33.0985107-10.1263428-41.25
				c0.0061035-14.9520264,4.1859131-27.8204956,10.1991577-43.0682373c1.3505249-3.4244385,2.791626-6.9663696,4.3008423-10.6817627
				c2.2789917-5.6104736,4.526001-10.5977173,6.5906372-14.9207611c-2.0743408-1.9372559-3.8294067-2.8154907-5.2572632-3.3292236
				c-2.6172485-0.9416504-4.0060425-0.6421509-7.666687-1.666687c-5.4125366-1.5147705-9.4223022-4.1414185-12-6.166626
				c-6.5-0.388916-13-0.777832-19.5-1.166687c-3.5713501-0.0625-8.739624,0.1193237-14.833313,1.333313
				c-3.5994263,0.7171021-6.1756592,1.2404785-8.6957397,2.3088989c0.7289429,6.2352753,0.4559326,11.4167023-0.3487549,15.7120819
				c-0.2692871,1.4373169-1.1486816,5.5535583-3.5388794,10.3956909
				c-5.6424866,11.4307861-13.1691284,13.5957642-13.1706543,21.8333435c-0.0002441,1.2982788,0.1865234,2.2726746,0.25,2.5833435
				C502.1055603,191.5874176,507.9390869,193.5604706,511.4603271,198.1666718z"/>
		</g>
		<g id="XMLID_373_">
			<path id="XMLID_178_" class="st10" d="M541.4642944,119.75c-0.041687,5.5-0.083374,11-0.125,16.5
				c6.458313-0.7083282,12.916626-1.4166718,19.375-2.125c-0.583374-7.9166718-1.166687-15.8333282-1.75-23.75
				C553.1309204,113.5,547.2976074,116.625,541.4642944,119.75z"/>
		</g>
		<g id="XMLID_370_">
			<path id="XMLID_176_" class="st11" d="M528.9642944,101c0.873291,9.9637146,2.1442261,12.6908417,2.75,13.875
				c1.303833,2.5489044,5.022522,9.8185425,12.375,11c8.6148071,1.3843079,15.1231079-6.7298431,16.041626-7.875
				c4.5211792-5.6367493,4.8295898-11.9345398,4.833374-14.1666718c0.8335571-0.375885,4.2394409-2.0241547,5.333313-5.6666565
				c0.1133423-0.3773956,1.125-3.746109-0.458313-5.1666718c-1.2559814-1.1268311-3.3251343-0.2925415-6.625,0.4375
				c-4.1582031,0.9199219-7.9995728,1.7697601-11.416687,1.0625c-5.0632935-1.0479736-9.4730835-5.5721436-11.666687-9.1666718
				c-1.1987305-1.9642792-2.0441895-4.1566162-4.666626-6.1666565c-1.5162354-1.1621704-3.2355957-2.4799805-4.625-2.0416718
				C526.9784546,78.342926,528.2034302,92.3191223,528.9642944,101z"/>
		</g>
		<g id="XMLID_367_">
			<path id="XMLID_174_" class="st11" d="M431.1452332,253.25h23.3912354
				c2.4806519-0.6121826,5.4542847-1.5198364,8.7611694-2.916687c-2.444458-2.166626-4.888916-4.333313-7.333374-6.5
				c-3.6655884,0.7819214-7.0172729,1.4598999-10,2.041687c-10.3444824,2.0175781-15.8352661,2.7966919-16.125,5.041626
				c-0.0567017,0.4393311,0.1057739,0.7804565,0.25,1.083374C430.3194275,252.4833374,430.683075,252.8950195,431.1452332,253.25z"
				/>
		</g>
		<g id="XMLID_364_">
			<path id="XMLID_111_" class="st12" d="M561.0892944,128.25c-4.791626,2.166687-9.583313,4.333313-14.375,6.5
				c-2.208313-2.083313-4.416626-4.166687-6.625-6.25c-0.802063,0.708313-1.604126,1.416687-2.40625,2.125
				c1.395874,4.1875,2.791687,8.375,4.1875,12.5625c0.78125-1.28125,1.5625-2.5625,2.34375-3.84375
				c-3.125,16.09375-6.25,32.1875-9.375,48.28125c1.166687,1.541626,2.333374,3.083313,3.5,4.625c1.625-1.625,3.25-3.25,4.875-4.875
				c1.541687-16.361145,3.083374-32.722229,4.625-49.083313c0.583374,2.277771,1.166687,4.555542,1.75,6.833313
				c5.25-4.291687,10.5-8.583313,15.75-12.875C563.9226685,130.916687,562.5059814,129.583313,561.0892944,128.25z"/>
		</g>
		<g id="XMLID_361_">
			<rect id="XMLID_64_" x="550.6309814" y="162.3902588" class="st12" width="19.0028687" height="3.4512939"/>
		</g>
		<g id="XMLID_1_">
			<path id="XMLID_45_" class="st36" d="M566.7103271,192.6666718c-0.7075806,0.7320557-1.7457275,1.5871887-3.166687,2.1666565
				c-4.5592651,1.8592529-9.015625-0.7688599-9.666687-1.1666565c0.5903931,0.6773376,3.2817383,3.6147156,7.791687,4.0416565
				c3.5540771,0.3364563,6.2067261-1.0783691,7.125-1.625"/>
		</g>
	</g>
</g>
</svg>
