<?xml version="1.0" encoding="utf-8"?>
<!-- Generator: Adobe Illustrator 19.0.0, SVG Export Plug-In . SVG Version: 6.00 Build 0)  -->
<svg version="1.1" id="Layer_1" xmlns="http://www.w3.org/2000/svg" xmlns:xlink="http://www.w3.org/1999/xlink" x="0px" y="0px"
	 width="687.8759766px" height="527.7650146px" viewBox="0 0 687.8759766 527.7650146"
	 style="enable-background:new 0 0 687.8759766 527.7650146;" xml:space="preserve">
<style type="text/css">
	.st0{fill:#EBF4FB;}
	.st1{fill:#FFDC6A;}
	.st2{fill:#39CB6C;}
	.st3{fill:#64607C;}
	.st4{fill:#9D9CB5;}
	.st5{fill:none;stroke:#5E5A6B;stroke-width:3;stroke-miterlimit:10;}
	.st6{fill:#3792D5;}
	.st7{fill:#296DA0;}
	.st8{fill:#FAFDFF;}
	.st9{fill:#FFFFFF;}
	.st10{fill:#D0E3F1;}
	.st11{fill:#EFF3F7;}
	.st12{fill:#E14AE5;}
	.st13{fill:#D139D1;}
	.st14{fill:none;stroke:#2F85BA;stroke-linecap:round;stroke-linejoin:round;stroke-miterlimit:10;}
	.st15{fill:#2F85BA;}
	.st16{fill:#EAD53D;}
	.st17{fill:#CCB637;}
	.st18{fill:#FF748E;}
	.st19{fill:#E56880;}
	.st20{fill:none;stroke:#E56880;stroke-linecap:round;stroke-linejoin:round;stroke-miterlimit:10;}
	.st21{fill:#69E2A5;}
	.st22{fill:#54D18F;}
	.st23{fill:#4CC181;}
	.st24{fill:#5E5A6B;}
	.st25{fill:#464352;}
	.st26{fill:none;stroke:#464352;stroke-width:2;stroke-linecap:round;stroke-linejoin:round;stroke-miterlimit:10;}
	.st27{fill:#FCC691;}
	.st28{fill:#FAB56D;}
	.st29{fill:#34142C;}
	.st30{fill:#545160;}
	.st31{fill:none;}
	.st32{fill:#474453;}
	.st33{fill:#6E6EE5;}
</style>
<g id="XMLID_20_">
	<path id="XMLID_23_" class="st0" d="M336.0153503,83.6728516c-47.2590332-3.6026459-95.9602051-14.4329987-112-18
		c-82.7260132-18.3969574-110.4729309-36.2212067-153-22c-8.3183289,2.7816772-47.7861252,15.9798584-63.9999962,54
		c-2.502985,5.869278-11.7071075,29.3431549-3.9999998,56c10.2805281,35.5576172,44.8398285,56.678894,65,69
		c24.568634,15.0153809,40.5852051,17.7246094,51,37c3.0337296,5.6147156,9.9736481,18.4589233,7,33
		c-7.2144089,35.2782593-63.8320656,36.7878723-70,73c-0.2362671,1.3871155-1.6547318,10.349823,2,20
		c12.2336693,32.3025513,68.3482971,38.0797119,87,40c112.4552002,11.5776367,149.8525085-64.5875244,268-68
		c95.3895569-2.755127,123.2315369,45.385437,184.0000305,16c45.2348022-21.8739014,77.2711182-71.5003052,87-120
		c2.7637939-13.7777405,9.1692505-47.9284363-5-86c-25.6350708-68.8791046-97.8783569-94.8728027-107-98
		C494.1173401,42.9668732,464.6796265,93.4811554,336.0153503,83.6728516z"/>
	<g id="XMLID_165_">
		<g id="XMLID_157_">
			<g id="XMLID_95_">
				<path id="XMLID_78_" class="st1" d="M641.9297485,459.0983582c0.8707886-1.0744629,2.1697388-2.293457,4-2.833374
					c1.9921875-0.5876465,3.5320435-0.0516968,3.666626-0.5c0.1578979-0.526123-1.7290039-2.0444946-3.833313-2
					c-1.5155029,0.0320435-3.5402832,0.8829956-4.083313,2.708374
					C641.3321533,457.6416931,641.744812,458.6942444,641.9297485,459.0983582z"/>
				<path id="XMLID_89_" class="st1" d="M642.5130615,456.7649841c0.4303589-0.5945435,1.1953125-1.8403931,1.208313-3.5
					c0.0119629-1.5305786-0.6154785-3.4328613-1.333313-3.458313c-0.6812134-0.0241699-1.4439087,1.6420288-1.5,3.083313
					C640.8096924,454.903595,642.1151733,456.3536682,642.5130615,456.7649841z"/>
				<path id="XMLID_74_" class="st2" d="M621.5963745,475.4316711c0.8327026-2.8244019,2.4469604-6.8956299,5.833374-10.666687
					c3.1608887-3.5199585,5.5088501-4.1537476,7.166626-7.166626c1.3220825-2.402771,2.2648315-6.427002-0.166626-13.333374
					c3.1879883,2.3535156,7.6140137,6.5117188,9.5,12.833374c0.3493042,1.1707764,2.2821655,7.6496582-0.333374,9.666626
					c-1.5430908,1.1898804-3.364624-0.1791382-6.166626,0.166687c-2.5115967,0.3099976-5.8973389,2.008606-9.5,8.333313
					C625.8186035,475.3205261,623.7075195,475.3761292,621.5963745,475.4316711z"/>
			</g>
			<g id="XMLID_162_">
				<path id="XMLID_178_" class="st1" d="M599.2722168,459.0983582c-0.8707886-1.0744629-2.1697388-2.293457-4-2.833374
					c-1.9921875-0.5876465-3.5320435-0.0516968-3.666626-0.5c-0.1578979-0.526123,1.7290039-2.0444946,3.833313-2
					c1.5155029,0.0320435,3.5402832,0.8829956,4.083313,2.708374
					C599.869812,457.6416931,599.4571533,458.6942444,599.2722168,459.0983582z"/>
				<path id="XMLID_170_" class="st1" d="M598.6889038,456.7649841c-0.4303589-0.5945435-1.1953125-1.8403931-1.208313-3.5
					c-0.0119629-1.5305786,0.6154785-3.4328613,1.333313-3.458313c0.6812134-0.0241699,1.4439087,1.6420288,1.5,3.083313
					C600.3922729,454.903595,599.086792,456.3536682,598.6889038,456.7649841z"/>
				<path id="XMLID_163_" class="st2" d="M619.6055908,475.4316711c-0.8327026-2.8244019-2.4469604-6.8956299-5.833374-10.666687
					c-3.1608887-3.5199585-5.5088501-4.1537476-7.166626-7.166626c-1.3220825-2.402771-2.2648315-6.427002,0.166626-13.333374
					c-3.1879883,2.3535156-7.6140137,6.5117188-9.5,12.833374c-0.3493042,1.1707764-2.2821655,7.6496582,0.333374,9.666626
					c1.5430908,1.1898804,3.364624-0.1791382,6.166626,0.166687c2.5115967,0.3099976,5.8973389,2.008606,9.5,8.333313
					C615.3833618,475.3205261,617.4944458,475.3761292,619.6055908,475.4316711z"/>
			</g>
		</g>
		<g id="XMLID_164_">
			<path id="XMLID_68_" class="st3" d="M635.5188599,527.7650146h-29.8356934c-2.9173584,0-5.3919678-2.1425171-5.8093872-5.0298462
				l-6.3027344-43.593811c-0.5116577-3.5392456,2.2333374-6.7096863,5.8093872-6.7096863h42.4411011
				c3.5760498,0,6.321106,3.1704407,5.8093872,6.7096863l-6.3027344,43.593811
				C640.9107666,525.6224976,638.4361572,527.7650146,635.5188599,527.7650146z"/>
			<path id="XMLID_90_" class="st4" d="M593.5229492,478.5982971c0.0093994,0.1800537,0.0217285,0.3606567,0.0480957,0.5430298
				l0.282959,1.9569702h53.4939575l0.282959-1.9569702c0.0263672-0.182373,0.0386963-0.3629761,0.0480957-0.5430298H593.5229492z"/>
			<polygon id="XMLID_93_" class="st4" points="595.1552124,490.0982971 646.0467529,490.0982971 646.4082031,487.5982971 
				594.7937622,487.5982971 			"/>
			<polygon id="XMLID_92_" class="st4" points="594.5045776,485.5982971 646.6973877,485.5982971 647.0588379,483.0982971 
				594.1431274,483.0982971 			"/>
		</g>
	</g>
	<g id="XMLID_203_">
		<g id="XMLID_201_">
			<path id="XMLID_206_" class="st5" d="M562.2537842,186.5006714c3.6672363,34.2116089-4.3934937,54.4769897-13.041626,66.8790283
				c-7.9180908,11.3551025-16.850708,16.8671265-28.317749,34.6217651
				c-9.1822815,14.217041-14.3053284,27.4829102-17.2441711,36.7661743"/>
			<path id="XMLID_202_" class="st6" d="M563.1212769,199.5130005c2.5842896-1.6724243,22.7122803-14.9172974,21.8701782-25.1148682
				c-0.1287231-1.5584106-0.7438354-3.0057373-0.7879028-3.107605c-2.3688965-5.4744873-10.1966553-10.078125-16.8730469-7.6372681
				c-7.2318726,2.6439819-8.40802,11.8335571-8.644104,13.6779175c-0.376709,2.9438477,0.0772095,5.2670898,0.9850464,9.9136353
				C560.6957397,192.4873657,562.069458,196.6845703,563.1212769,199.5130005z"/>
			<path id="XMLID_204_" class="st6" d="M593.5928345,210.9667969c-0.5117188-5.3829956-5.5189209-9.8516846-10.7236328-10.6355591
				c-4.0095215-0.6038818-7.1922607,1.1212158-8.31604,1.7508545c-3.9333496,2.2039185-5.7102661,5.7011719-9.1036377,12.6056519
				c-1.2653198,2.5745239-2.9207764,6.2402954-4.5117188,10.8307495c2.1864014,0.4417725,5.3570557,0.9243774,9.1952515,0.9429932
				c4.5562134,0.0220337,8.84375,0.0428467,13.1087036-1.9918213
				C584.2163086,224.0047607,594.3716431,219.1600342,593.5928345,210.9667969z"/>
			<path id="XMLID_205_" class="st6" d="M546.9356689,231.1452026c2.2382202,1.786377,5.6795044,4.5284424,9.9525757,7.9142456
				c1.7260132-8.7315063,1.6155396-15.9200439,1.1863403-20.8481445
				c-0.9509277-10.9174194-3.6831665-13.2335205-4.4866333-13.8527222
				c-3.6308594-2.7980957-9.2893066-2.8585205-13.4151611-0.4155273
				c-5.4208374,3.2097778-7.0718384,10.0755615-5.7990112,14.8157959
				C535.1497803,221.6491089,536.8338623,223.0829468,546.9356689,231.1452026z"/>
			<path id="XMLID_240_" class="st6" d="M561.0297852,256.8371582c-1.9834595-0.0012817-5.1068115,0.3469238-15.690979,6.5438232
				c-4.480896,2.6234741-8.1031494,5.0095825-10.6601563,6.7650146c2.272522,1.4217529,5.6588135,3.4222412,9.9382324,5.512146
				c5.6702271,2.769104,8.5053101,4.1536255,12.3428955,4.6829834c3.8019409,0.5244141,10.3783569,1.4315796,14.5092773-2.9547119
				c3.8597412-4.0982666,4.3406372-11.4967651,0.7218628-16.085022
				C568.6738892,256.8421021,562.704834,256.8382568,561.0297852,256.8371582z"/>
			<path id="XMLID_241_" class="st6" d="M528.2337646,277.7138672c-1.6149902-6.7163086-3.3269653-12.3666992-4.7794189-16.7397461
				c-3.1159058-9.3812256-4.5075684-11.2891846-6.499939-12.6271362c-3.8129272-2.5604858-10.2236633-3.3005981-14.728241,0.3285522
				c-4.9032593,3.9503784-5.2348633,11.2138672-2.9321899,15.5817871c1.0388184,1.97052,2.7677002,3.6436768,15.2536926,8.5126953
				C520.0644531,274.9213257,524.7681885,276.5606079,528.2337646,277.7138672z"/>
			<path id="XMLID_242_" class="st6" d="M530.6112671,296.0765991c-5.8806152-0.1995239-10.215271,4.3117676-16.5443726,10.8987427
				c-3.3447571,3.4810791-5.7514343,6.6704102-7.2970886,8.8847656c2.3471069,0.8331299,5.7581482,1.9572144,9.9562683,3.03125
				c4.0410767,1.0338745,6.0615234,1.5507813,8.0753784,1.7068481c1.9459839,0.1507568,13.1376343,1.0178833,16.9384155-6.171814
				c2.1829834-4.1293335,1.2763062-9.68396-1.6744385-13.4260254
				C539.7711182,300.6270752,536.2214355,296.2669067,530.6112671,296.0765991z"/>
		</g>
		<g id="XMLID_167_">
			<path id="XMLID_94_" class="st5" d="M517.6820068,334.6728516c6.3582153-7.3748169,16.2929688-17.5498352,30.333374-27
				c17.5339966-11.8016052,27.9157104-13.3490295,39.666687-20.6666565
				c12.8344727-7.9923401,28.2267456-23.443573,38.333313-56.3333435"/>
			<path id="XMLID_99_" class="st7" d="M621.6866455,242.9746399c0.1474609-3.0140076,0.538269-7.4129944,1.6620483-12.6351318
				c0.9960327-4.6284485,1.4940186-6.9426575,3-9.5c0.9435425-1.6022339,5.6447144-9.5854187,13.333374-9.1666565
				c7.0980225,0.3865967,12.479248,7.7016296,12.5,13.6666565c0.0003662,0.1109619-0.0043945,1.6835938-0.5,3.166687
				C648.4388428,238.2108765,624.7208252,242.4555359,621.6866455,242.9746399z"/>
			<path id="XMLID_100_" class="st7" d="M609.4351807,266.0171509c3.2706299-3.5925903,6.2363281-6.3097534,8.4135132-8.1776428
				c5.8389282-5.0093994,8.8498535-7.5238342,13.333374-8c1.2809448-0.1360474,4.8858643-0.467865,8.333313,1.666687
				c4.4750366,2.7708435,7.3169556,8.850708,5.666687,14c-2.5117798,7.8375244-13.7544556,8.289917-14.833374,8.333313
				c-4.7215576,0.1899719-8.6541748-1.518158-12.833313-3.333313
				C613.994873,268.9770813,611.270752,267.2844849,609.4351807,266.0171509z"/>
			<path id="XMLID_101_" class="st7" d="M600.3787842,276.8678284c5.026123-7.34552,7.7564087-13.9962463,9.3032837-18.6949768
				c3.4267578-10.4091797,1.8278809-13.6143494,1.333313-14.5c-2.2349854-4.0021362-7.4120483-6.2867737-12.166687-5.6666565
				c-6.2469482,0.8147583-10.4691162,6.4749451-11.166626,11.333313c-0.425293,2.9622192,0.5577393,4.9435425,6.666626,16.3333435
				C595.7022095,268.1964722,597.7850342,272.0724792,600.3787842,276.8678284z"/>
			<path id="XMLID_106_" class="st7" d="M567.7189331,296.6914063c3.041748-0.6062012,7.3110962-1.372406,12.4631348-2.0185547
				c12.1694946-1.5262451,15.1774292-0.6159058,17,0.1666565c1.5391846,0.6608582,7.0240479,3.0158386,8.5,8.5
				c1.5186768,5.6428223-1.8379517,12.2536316-7,14.5c-5.5248413,2.4042358-11.2120972-1.0202332-14.5-3
				c-3.3187256-1.998291-5.3791504-4.3877563-9.5-9.1666565
				C571.5719604,302.0661316,569.2475586,298.8934326,567.7189331,296.6914063z"/>
			<path id="XMLID_107_" class="st7" d="M558.8139038,301.108429c1.161438-6.8094177,1.8137817-12.6773376,2.2014771-17.2689209
				c0.8317261-9.8500977,0.3041992-12.1520081-1-14.1666565c-2.4959106-3.8554993-8.0966797-7.0611877-13.666687-5.5
				c-6.0629883,1.6993408-9.229126,8.2448425-8.833313,13.1666565c0.1785278,2.2203979,1.1084595,4.4393616,10.666687,13.8333435
				C552.4052734,295.3234863,556.0828857,298.6831665,558.8139038,301.108429z"/>
			<path id="XMLID_115_" class="st7" d="M524.0583496,327.7145386c2.2929688-1.4264221,5.7614136-3.4097595,10.2070313-5.291687
				c8.4121704-3.5610657,14.1735229-5.9999695,19.5-3.5c5.081543,2.3850098,6.6265259,7.7909241,6.75,8.25
				c1.2379761,4.6018677-0.1168213,10.0644836-3.75,13c-6.3257446,5.1110229-16.270813-0.0948181-18-1
				c-1.7895508-0.9367676-3.4430542-2.2078247-6.75-4.75C528.579834,331.7818604,525.8874512,329.4049377,524.0583496,327.7145386z"
				/>
		</g>
	</g>
	<g id="XMLID_66_">
		<g id="XMLID_24_">
			<path id="XMLID_29_" class="st6" d="M518.164856,0H192.5046844c-9.4672852,0-17.1699219,7.7026367-17.1699219,17.1699219
				v461.3330078c0,9.4677734,7.7026367,17.1699219,17.1699219,17.1699219H518.164856
				c9.4677734,0,17.1699219-7.7021484,17.1699219-17.1699219V17.1699219C535.3347778,7.7026367,527.6326294,0,518.164856,0z"/>
			<path id="XMLID_35_" class="st8" d="M518.164856,491.6728516H192.5046844
				c-7.2617188,0-13.1699219-5.9082031-13.1699219-13.1699219V27.6728516h352v450.8300781
				C531.3347778,485.7646484,525.4265747,491.6728516,518.164856,491.6728516z"/>
			<g id="XMLID_27_">
				<g id="XMLID_98_">
					<circle id="XMLID_28_" class="st9" cx="190.6681976" cy="14.8365107" r="4.6666665"/>
				</g>
				<g id="XMLID_97_">
					<circle id="XMLID_26_" class="st9" cx="204.1681976" cy="14.8365107" r="4.6666665"/>
				</g>
				<g id="XMLID_96_">
					<circle id="XMLID_25_" class="st9" cx="217.6681976" cy="14.8365107" r="4.6666665"/>
				</g>
			</g>
		</g>
		<g id="XMLID_31_">
			<path id="XMLID_30_" class="st10" d="M462.8347778,64.6728516H247.8347626c-3.2216644,0-5.8333282-2.6116714-5.8333282-5.8333282
				v-0.0000114c0-3.2216568,2.6116638-5.8333282,5.8333282-5.8333282h215.0000153
				c3.2216492,0,5.833313,2.6116714,5.833313,5.8333282v0.0000114
				C468.6680908,62.0611801,466.056427,64.6728516,462.8347778,64.6728516z"/>
			<path id="XMLID_33_" class="st6" d="M462.8347778,64.6728516h-21.5000305V53.0061836h21.5000305
				c3.2216492,0,5.833313,2.6116714,5.833313,5.8333282v0.0000114
				C468.6680908,62.0611801,466.056427,64.6728516,462.8347778,64.6728516z"/>
		</g>
		<g id="XMLID_114_">
			<g id="XMLID_56_">
				<rect id="XMLID_36_" x="208.7097626" y="102.2773514" class="st11" width="143.5" height="102.5"/>
				<g id="XMLID_37_">
					<path id="XMLID_58_" class="st12" d="M323.8018188,150.9872894c-1.1667786-2.4627075-2.5658875-5.5906982-4.0121155-9.2522583
						c-3.1362915-7.9401855-3.417572-10.5995483-5.0342102-13.666687
						c-2.3345642-4.4290695-7.4788818-9.7561569-20.1369629-12.6666794c0.1533508,1.1836548,0.7605286,6.803772-2.8317566,12
						c-4.0914917,5.9183884-10.3793945,6.5835495-11.3270264,6.6666794
						c-0.9476013-0.0831909-7.2354431-0.748291-11.3269958-6.6666794c-3.5922852-5.196228-2.9850769-10.8163452-2.8317566-12
						c-12.6580353,2.9105225-17.8023987,8.2376099-20.1369019,12.6666794
						c-1.6167145,3.0671387-1.8979797,5.7265015-5.0342712,13.666626c-1.446228,3.6616211-2.8453522,6.7896118-4.0121155,9.2523193
						c-0.6949158,1.4667358-0.0863037,3.2375488,1.3342438,3.8920288c2.0126343,0.9272461,4.1907196,2.0810547,6.4535522,3.5223389
						c1.491684,0.9501343,2.855423,1.9202881,4.0947876,2.8777466c1.443924,1.1155396,2.3827209,2.8013916,2.6148376,4.6785889
						c0.379776,3.0715942,0.6129913,6.5805664,0.5270996,10.4436646c-0.0771484,3.4690552-0.3992004,6.6676636-0.8513336,9.5507813
						c-0.541214,3.4508057,2.4414825,6.3770752,5.652832,5.5633545c1.0940552-0.2772217,2.2206726-0.5387573,3.3790894-0.7808228
						c7.6715698-1.6027832,14.5414124-1.8908081,20.1369324-1.6656494
						c5.5955505-0.2251587,12.4653931,0.0628662,20.1369629,1.6656494c1.1584167,0.2420654,2.2850342,0.5036011,3.3790894,0.7808228
						c3.2113342,0.8137207,6.1940613-2.1125488,5.652832-5.5633545c-0.4521484-2.8831177-0.7742004-6.0817261-0.8513184-9.5507813
						c-0.085907-3.8630981,0.1473083-7.3720703,0.5270691-10.4436646c0.2321472-1.8771973,1.170929-3.5630493,2.6148682-4.6785889
						c1.2393494-0.9574585,2.6030884-1.9276123,4.0947876-2.8777466c2.2628174-1.4412842,4.440918-2.5950928,6.4535217-3.5223389
						C323.8881226,154.2248383,324.4967346,152.4540253,323.8018188,150.9872894z"/>
					<path id="XMLID_59_" class="st13" d="M269.1327209,127.4016647c4.0915527,5.9183884,10.3793945,6.5834885,11.3270264,6.6666794
						c0.9476318-0.0831299,7.2355347-0.748291,11.3270264-6.6666794c3.5922852-5.196228,2.9851074-10.8163452,2.8317261-12
						c0,0-6.3390503,6-14.1587524,6s-14.1587524-6-14.1587524-6
						C266.1476746,116.5853195,265.5404358,122.2054367,269.1327209,127.4016647z"/>
				</g>
			</g>
			<g id="XMLID_60_">
				<rect id="XMLID_80_" x="358.4597473" y="102.2773514" class="st11" width="143.5" height="102.5"/>
				<g id="XMLID_57_">
					<path id="XMLID_79_" class="st6" d="M478.0162659,165.1674194c-1.27771-6.0157471-2.8549194-12.3840332-4.8065186-19.0357666
						c-2.5427856-8.6669312-5.3657837-16.6040649-8.2545166-23.7752075
						c-0.9210815-2.2865601-3.4960327-3.3892212-5.8059082-2.5281372c-3.310791,1.2342529-7.4123535,2.409668-12.1895752,3.0533447
						c-6.8903198,0.9284058-26.6096802,0.9284058-33.5,0c-4.7771606-0.6436768-8.8787231-1.8191528-12.1895752-3.0533447
						c-2.3098145-0.861084-4.8848267,0.2415771-5.8059082,2.5281372c-2.8887329,7.1711426-5.711731,15.1082764-8.2545166,23.7752075
						c-1.9515991,6.6517334-3.5288086,13.0200195-4.8065186,19.0357666
						c-0.6644897,3.128479,1.4483643,6.1380615,4.6087036,6.6295776c4.713501,0.7330322,10.3609009,2.0853882,16.4478149,4.5846558
						c7.355957,3.0202637,13.107605,6.7932739,17.2981567,10.0839844c1.9001465,1.4921265,4.5933228,1.3876343,6.3724976-0.2468262
						c1.0264282-0.9429932,2.0528564-1.8859863,3.0793457-2.8289185c1.0264893,0.9429321,2.0529175,1.8859253,3.0793457,2.8289185
						c1.7791748,1.6344604,4.4723511,1.7389526,6.3724976,0.2468262c4.1905518-3.2907104,9.9421997-7.0637207,17.2981567-10.0839844
						c6.0869141-2.4992676,11.734314-3.8516235,16.4478149-4.5846558
						C476.5679016,171.305481,478.6807556,168.2958984,478.0162659,165.1674194z"/>
					<path id="XMLID_61_" class="st14" d="M440.3347473,127.3816528c0.0998535,2.003891,0.5670471,5.8724213,3,9.875
						c0.993103,1.6338196,3.8321838,6.3045349,9.625,8.25c7.4530029,2.5030212,13.9901428-1.4547119,14.9663086-2.0675964
						l-4.7163086-13.3074036c2.7738342,6.9853058,5.4265137,14.8765259,7.625,23.625
						c1.0539551,4.1939697,1.9178772,8.2442322,2.625,12.125c-4.9720764,1.0932007-14.4906616,3.4845581-24,8
						c-2.7345276,1.2984619-7.1746216,3.462616-12.4352112,7.2624207c-1.7498474,1.2639465-3.3370056,2.5526428-4.9519043,3.9572144
						"/>
					<path id="XMLID_70_" class="st14" d="M430.2097473,163.0066528c0.0229492-0.0041504,0.0458984-0.008316,0.0688477-0.0124664
						c3.9461365-0.7141418,6.8157654-4.1497803,6.8157654-8.1599884v-1.4505615c0-4.8857727,0-9.7715454,0-14.6573029"/>
					<path id="XMLID_82_" class="st14" d="M420.0847473,127.3816528c-0.0998535,2.003891-0.5670471,5.8724213-3,9.875
						c-0.993103,1.6338196-3.8321838,6.3045349-9.625,8.25c-7.4530029,2.5030212-13.9901428-1.4547119-14.9663086-2.0675964
						l4.7163086-13.3074036c-2.7738342,6.9853058-5.4265137,14.8765259-7.625,23.625
						c-1.0539551,4.1939697-1.9178772,8.2442322-2.625,12.125c4.9720764,1.0932007,14.4906616,3.4845581,24,8
						c2.7345276,1.2984619,7.1746216,3.462616,12.4352112,7.2624207c1.7498474,1.2639465,3.3370056,2.5526428,4.9519043,3.9572144"
						/>
					<path id="XMLID_81_" class="st14" d="M393.6836853,126.9015961c3.9095154,3.0202637,10.4213867,7.2656403,19.401062,9.8550568
						c6.8109131,1.9640198,12.8059387,2.3307343,17.125,2.25c4.3190613,0.0807343,10.3140869-0.2859802,17.125-2.25
						c8.9796753-2.5894165,15.4915466-6.8347931,19.401062-9.8550568"/>
					<path id="XMLID_65_" class="st15" d="M430.2097473,131.2566528c2.118042,0,7.0073853-0.022522,12.5-1.125
						c4.4852905-0.9003296,12.3895874-3.1265259,21.1321411-9.3745117c-1.2219238-1.1361084-3.0222778-1.5515137-4.6925659-0.928833
						c-3.310791,1.2342529-7.4123535,2.409668-12.1895752,3.0533447c-6.8903198,0.9284058-26.6096802,0.9284058-33.5,0
						c-4.7771606-0.6436768-8.8787231-1.8191528-12.1895752-3.0533447c-1.6702271-0.6226807-3.4705811-0.2072754-4.6925659,0.928833
						c8.7426147,6.2479858,16.6468506,8.4741821,21.1321411,9.3745117
						C423.2023621,131.2341309,428.0917664,131.2566528,430.2097473,131.2566528z"/>
				</g>
			</g>
			<g id="XMLID_72_">
				<rect id="XMLID_111_" x="208.7097626" y="232.1432648" class="st11" width="143.5" height="102.5"/>
				<g id="XMLID_71_">
					<path id="XMLID_69_" class="st16" d="M299.8043518,243.1974182c-0.4147034,2.7782593-1.1211243,7.5870972-2,14
						c-0.6895752,5.0315247-1.0688477,8.128418,0.75,11c1.0623474,1.6771851,2.4958191,2.6796265,3.5,3.25
						c-1.1350403,7.3289185-1.9250488,16.7593384-1.1666565,27.6666565
						c0.5280151,7.5938416,1.6994324,14.3628235,3.0756836,20.1496582c0.7684937,3.2313538-1.5395813,6.3613892-4.8538513,6.579834
						c-6.2155762,0.409668-13.232605,0.4883423-20.8884888-0.0628052
						c-6.9692078-0.5016785-13.3233032-1.4429016-18.9683838-2.5756531
						c-1.9658203-0.3944397-3.0125122-2.5568237-2.1269531-4.3556519l1.4286499-2.9020386
						c3.2792969-6.714386-1.009491-10.3065796,0-20.8333435c0.774292-8.0740662,3.8090515-11.2963562,1.666687-17.333313
						c-0.8251343-2.3250732-2.0563965-4.0481873-3-5.166687c1.3751526-0.7225037,3.511322-2.087677,5.1666565-4.5
						c3.4502258-5.0281067,2.3869019-11.0724487,1.6666565-15.1666565
						c-0.3890076-2.2112427-1.2150574-5.5405884-3.1666565-9.3333435l6.3333435-3
						c-1.3519592,12.2043762,6.0952148,20.9833069,11.833313,21.166687
						c5.732605,0.183197,13.7140808-8.0863342,13.1666565-20.3333435
						C294.7487793,242.0307617,297.2765808,242.6140747,299.8043518,243.1974182z"/>
					<path id="XMLID_76_" class="st17" d="M279.0543518,261.7807312c5.732605,0.1832275,13.7141113-8.0863037,13.166687-20.333313
						c-1.0581055,6.1879883-6.5709229,10.6936035-12.833374,10.5c-6.2850342-0.1943359-11.5206299-5.06604-12.166626-11.333374
						C265.8691101,252.8184509,273.3162537,261.5973816,279.0543518,261.7807312z"/>
				</g>
			</g>
			<g id="XMLID_110_">
				<rect id="XMLID_146_" x="358.4597473" y="232.1432648" class="st11" width="143.5" height="102.5"/>
				<g id="XMLID_109_">
					<path id="XMLID_73_" class="st18" d="M461.9597473,243.0028687c0.5701294,3.6083679,1.5522461,9.0085754,3.25,15.5
						c0.9006348,3.443634,1.6313171,5.7745056,2,7c3.0223694,10.0467224,3.7397766,19.0192566,5,29
						c0.8207397,6.5001831,2.1835632,15.8977661,4.5,27.5c-3.0055847,1.0005798-6.4345093,1.8976746-10.25,2.5
						c-11.2128906,1.7700806-20.7931213,0.2096863-27.25-1.5c-2.5833435-9.4166565-5.1666565-18.8333435-7.75-28.25
						c-2.8333435,9.5-5.6666565,19-8.5,28.5c-5.4936218,0.98349-12.8694458,1.7316589-21.5,1
						c-7.0622253-0.5986938-13.0647583-2.0271912-17.75-3.5c4.4166565-26.4166565,8.8333435-52.8333435,13.25-79.25
						c10.3530579,1.334198,21.9118042,2.2923889,34.5,2.5C442.4568787,244.1842346,452.6672363,243.7668152,461.9597473,243.0028687
						z"/>
					<path id="XMLID_85_" class="st19" d="M444.4597473,250.2528687c7.9311523-1.6100464,13.8760376-4.8709106,17.5-7.25
						c-9.2924805,0.763916-19.5028687,1.1813354-30.5,1c-12.5881958-0.2076416-24.1469116-1.1658325-34.5-2.5
						c11.1724854,5.6867065,21.0098877,7.8399658,27.5,8.75
						C430.1891785,251.0562134,436.4524841,251.8783569,444.4597473,250.2528687z"/>
					<path id="XMLID_77_" class="st20" d="M463.26828,250.1893005c-5.2735596,2.9996338-17.1074219,8.7912903-33.1835327,8.8135681
						c-16.9171448,0.0234375-29.2539978-6.3548584-34.4703674-9.4532471"/>
					<path id="XMLID_83_" class="st20" d="M393.3439636,263.1293945c6.0690308,5.0928345,13.8606567,5.8690796,18.8657837,2.3734741
						c3.4066772-2.3792419,4.5895386-6.0859375,4.9971619-7.73526"/>
					<path id="XMLID_108_" class="st20" d="M466.1217957,261.8401184
						c-4.7837219,5.7571716-12.1897583,7.2290344-17.0370483,4.2877502
						c-4.2191772-2.5601501-5.0905457-7.6087952-5.2393188-8.5755005"/>
					<circle id="XMLID_75_" class="st19" cx="433.1635742" cy="257.081665" r="1.8288044"/>
				</g>
			</g>
			<g id="XMLID_62_">
				<rect id="XMLID_154_" x="358.4597473" y="362.0091858" class="st11" width="143.5" height="102.5"/>
				<g id="XMLID_84_">
					<path id="XMLID_113_" class="st21" d="M431.6686096,370.0323792c1.1218872-0.0949097,4.4060669-0.3727417,7.25,1.5
						c2.4086609,1.5861206,2.0588379,3.1063232,4,5.25c4.5131531,4.9839478,11.8594055,2.7908325,12.75,5.75
						c0.4822693,1.602417-1.6408997,2.3484497-3.5,6.25c-1.6833496,3.5327454-3.1940918,9.744812-0.5,13
						c2.2393799,2.7058105,5.6282349,1.2471313,7.25,3.75c1.5980225,2.4662476-0.524231,5.6853638-2,10
						c-1.7658081,5.1625977-1.4272156,11.4417114-0.75,24c0.6080322,11.2756958,1.9348145,14.7850342-0.25,16.25
						c-3.2366638,2.1702271-8.1723022-4.1744995-16.25-2.25c-3.3516235,0.7985229-3.9386292,2.2330933-7.25,2.25
						c-4.5235901,0.0230713-5.4025574-2.644043-9.5-2.5c-4.1638489,0.1464233-4.6491699,2.949707-9,3.25
						c-3.0968018,0.2137451-7.0897522-0.9138794-9-3.5c-2.7989502-3.7892456,0.6399841-8.3180542,1.75-15.75
						c2.4488525-16.3959961-9.0924377-29.1472168-4.75-32.5c1.8036804-1.3926392,3.8557739,0.7601929,6.5-1
						c3.4815674-2.317627,4.3459167-8.9934082,2.75-14c-1.2775879-4.0079041-3.9119873-6.2565002-3-7.5
						c0.6296692-0.858551,2.0387878,0.0043945,4.25-0.25c4.8022766-0.5524597,5.4259033-5.4590759,12.25-9.5
						C428.3312988,370.3634949,431.0027161,370.0887146,431.6686096,370.0323792z"/>
					<path id="XMLID_119_" class="st22" d="M444.8710022,378.4246521c-0.6862183-0.4404297-1.3459473-0.9725952-1.9523926-1.6422729
						c-1.9411621-2.1436768-1.5913086-3.6638794-4-5.25c-2.8439331-1.8727417-6.1281128-1.5949097-7.25-1.5
						c-0.6658936,0.0563354-3.3372803,0.3311157-7,2.5c-3.0777588,1.8225098-4.8914795,3.8180542-6.3989258,5.513855
						c1.2699585,1.6767578,2.5500488,3.7878418,3.5239258,6.361145c1.1864624,3.1348877,1.5418091,5.9593506,1.625,8
						c1.1014404-0.7820435,2.4324341-1.8798218,3.75-3.375c1.5672607-1.7785034,2.59021-3.5230103,3.25-4.875
						c0.9909668,1.6535034,2.2235107,3.4813843,3.75,5.375c1.3232422,1.6414185,2.6413574,3.0519409,3.875,4.25
						c0.3916016-2.005188,1.152832-5.0556641,2.75-8.5C442.3074646,382.0177917,443.5192566,380.66745,444.8710022,378.4246521z"/>
					<path id="XMLID_118_" class="st23" d="M440.9830627,373.7493591c-0.432312-0.7696533-0.9554443-1.4866943-2.0644531-2.21698
						c-2.8439331-1.8727417-6.1281128-1.5949097-7.25-1.5c-0.6658936,0.0563354-3.3372803,0.3311157-7,2.5
						c-0.6870728,0.4068604-1.2967529,0.8234863-1.8687134,1.2425537c0.9655762,2.9788818,2.8952026,5.7513428,4.1187134,7.5074463
						c1.1730347,1.6836548,2.1867065,2.6078491,3.5,2.875c2.5716553,0.5230713,4.942749-1.7479248,6.25-3
						C439.0718079,378.8556213,440.3131409,376.1181335,440.9830627,373.7493591z"/>
				</g>
			</g>
			<g id="XMLID_104_">
				<rect id="XMLID_142_" x="208.7097626" y="362.0091858" class="st11" width="143.5" height="102.5"/>
				<g id="XMLID_88_">
					<path id="XMLID_91_" class="st24" d="M318.0491638,439.496521c-1.2817383-2.4067383-0.2519531-1.755188-4.25-23.75
						c-4.8536377-26.7022095-7.0817261-31.5702515-11.25-35.75c-1.5575562-1.5618286-3.104187-2.7434692-4.427063-3.625h-33.505127
						c-2.1844482,2.5949097-4.9338379,6.225647-7.5678101,10.875c-6.1986694,10.9413452-4.3557129,14.4522705-10.5,35.25
						c-3.6062012,12.2067261-6.9803467,20.2694702-3.25,24c1.6685181,1.6685791,5.4064331,3.1186523,5.75,3.25
						c3.234436,1.2365112,6.1203003,1.4835205,8,1.5c0.0587769,0.6413574,0.2466431,1.7542114,1,2.75
						c2.8265991,3.7363281,11.3427124,2.8242798,17.25,0.5c4.9559326-1.9499512,5.4653931-3.8668823,8.75-3.75
						c3.2874146,0.1170044,3.7655029,2.0723877,9,4c2.3635254,0.8703613,8.5749512,3.1577759,11.25,0.5
						c1.2489014-1.2408447,1.3421631-3.1771851,1.25-4.5c1.4810791,0.321167,4.3508301,0.7028809,7.5-0.5
						c1.0415039-0.3978271,5.0685425-1.9359741,6-5.25C319.7367859,442.5501099,318.4333801,440.2179565,318.0491638,439.496521z"/>
					<path id="XMLID_63_" class="st25" d="M264.6169739,376.371521h33.505127v-1.5885315
						c0-2.6434937-2.1429749-4.7864685-4.7864685-4.7864685h-23.9321899c-2.6434937,0-4.7864685,2.1429749-4.7864685,4.7864685
						V376.371521z"/>
					<path id="XMLID_64_" class="st26" d="M257.0491638,451.246521c1.0065308-8.7235718,1.927948-17.6422729,2.75-26.75
						c1.0319824-11.4335938,1.8568726-22.6057129,2.5-33.5"/>
					<path id="XMLID_67_" class="st26" d="M275.2991638,454.496521c-1.0006409-9.0482178-1.6332092-19.2821655-1.5-30.5
						c0.125061-10.5327759,0.9042969-20.1702881,2-28.75"/>
					<path id="XMLID_86_" class="st26" d="M293.0491638,454.746521c-3.3633728-14.0913086-3.525116-24.7420654-3-32
						c0.2684631-3.7104492,0.9630737-9.9429321,0.75-19c-0.1394958-5.9290161-0.6142578-10.7870178-1-14"/>
					<path id="XMLID_87_" class="st26" d="M305.5491638,450.746521c0.266571-8.5096436,0.0262451-18.3700562-1.25-29.25
						c-1.4023438-11.9549561-3.740448-22.4558716-6.25-31.25"/>
				</g>
			</g>
		</g>
	</g>
	<polygon id="XMLID_259_" class="st27" points="134.7599792,310.6074219 134.7602234,310.6070557 133.5153503,309.7695313 	"/>
	<polygon id="XMLID_260_" class="st27" points="153.1591492,283.3665466 151.8746033,282.5022888 153.1590271,283.3667297 	"/>
	<g id="XMLID_208_">
		<path id="XMLID_255_" class="st27" d="M79.7584839,481.8768311c-0.4688873,5.568573-1.0095444,11.236908-1.6287842,17.0004578
			c-0.8497009,7.9085083-1.8062592,15.6138-2.8503647,23.1083069c1.6980057,0,3.3960114,0,5.094017,0
			c2.068634-5.1260376,3.7798767-9.5203857,5.0858688-12.9284363c4.2060013-10.9759216,5.3231125-14.6305542,6.2097397-18.4255981
			c0.8749542-3.7450867,1.3548965-6.8969727,1.6287842-9.0601196
			C88.7846603,481.6732483,84.2715683,481.7750244,79.7584839,481.8768311z"/>
		<path id="XMLID_254_" class="st28" d="M98.9984818,483.0984192c-0.0304794,5.7454529,0.1176758,11.8320313,0.5089874,18.2220459
			c0.4960938,8.1008301,1.3216248,15.6868591,2.3413849,22.7011414c1.2234726,0,2.4469376,0,3.6704102,0
			c0.642067-2.9036865,1.3808289-6.4401855,2.1321259-10.4852905c1.1605377-6.2484436,1.8495712-11.0106812,2.0359802-12.317688
			c0.7233582-5.0718384,1.4920502-11.4988098,2.0359802-19.0364075
			C107.4817352,482.4876404,103.2401047,482.7930298,98.9984818,483.0984192z"/>
		<path id="XMLID_253_" class="st29" d="M115.7273788,527.4318237c-0.0713501-0.6220093-0.2661743-1.4302368-0.8482666-2.125
			c-0.6226501-0.7432251-1.1870651-0.7573853-3.2448425-1.6415405c-2.6241302-1.1275024-3.483284-1.8678589-3.8174591-2.1759033
			c-0.5744095-0.5296021-0.9713593-1.0480957-1.2215881-1.4124756c-1.0495758-0.1356201-1.5600128,0.1157227-1.8323746,0.3817139
			c-0.5052185,0.4934692-0.2227097,1.0684814-0.8016739,1.6796875c-0.4256592,0.4494019-1.1925812,0.7870483-1.7560272,0.5726318
			c-0.39151-0.1490479-0.4340897-0.4692993-0.9161911-0.6107788c0,0-0.4613037-0.135498-0.9161911,0.038147
			c-0.7377701,0.2816162-0.8387222,2.4653931-0.3705597,5.2935181H115.7273788z"/>
		<path id="XMLID_252_" class="st29" d="M75.3302307,518.7407837c0.4177475,0.0497437,0.3886414,0.5787964,1.1834106,1.0689087
			c0.2024384,0.1248169,1.0686417,0.6589355,1.8323822,0.3817139c0.7293549-0.2647095,0.6753998-1.0189209,1.4506378-1.3361206
			c0.6384354-0.2611694,1.2999496-0.0053101,1.4124527,0.038208c1.4314041,0.5536499,0.8480835,2.4137573,2.2904739,3.9319458
			c1.421402,1.4961548,3.1321335,0.894165,3.9424133,2.5091553c0.1082611,0.2157593,0.5158081,1.0997314,0.1422729,1.7282715
			c-0.487854,0.8208618-2.0362701,0.7489014-3.2173843,0.6304321c-3.6415863-0.3652954-7.8523712-1.5797729-10.9721756-2.6160278
			c-0.1912155-0.6208496-0.4301834-1.6987305-0.2022629-2.9771118
			C73.4889679,520.4369507,74.5378952,518.6463623,75.3302307,518.7407837z"/>
		<path id="XMLID_251_" class="st30" d="M96.5553055,486.4577942c-4.5321884-2.8084106-1.3084793-15.0010376,0.6107941-24.3299255
			c0,0,5.8295364-28.3354492,3.5629578-56.091217c-0.8953934-10.9647217-2.9929733-20.2089539-6.5151215-35.7314148
			c-2.2569733-9.9466858-4.5003281-18.2014771-6.2097397-24.1263428c8.0081863,0.6107788,16.0163727,1.2215881,24.0245514,1.8323669
			c2.7760468,12.2828369,4.3013,22.7311707,5.1917496,30.641449c1.3919144,12.3651123,1.3510742,19.579895,1.3233795,21.7850037
			c-0.0860291,6.8464661-0.5830765,8.1795349-1.2215881,17.20401c-0.9306946,13.1540833-0.0189209,12.3607483-0.7125854,37.5638123
			c-0.4319458,15.693634-0.791008,16.2027588,0,19.6471863c0.8799133,3.8314514,2.1741409,6.9023132,0.5089798,9.0601196
			c-1.0167313,1.3175354-2.5411072,1.5227356-10.8924789,2.2395325
			C97.6921768,486.8848877,97.1889496,486.8504028,96.5553055,486.4577942z"/>
		<path id="XMLID_250_" class="st24" d="M83.8304443,487.3739624c-4.8439636-0.9369202-7.7360153-1.5751343-9.060112-3.8683472
			c-1.4132843-2.4476624-0.0724411-5.6502075,0.5132217-7.098999c0,0,5.5500107-13.7293396,8.9324188-35.3284607
			c1.3974915-8.9240417,0.3894806-15.8618469-0.4494095-21.6356201
			c-1.4764175-10.1616211-4.4596405-17.8819275-9.8106155-31.7296753
			c-4.5628357-11.808136-7.1670151-16.6319275-7.2277222-24.7371521
			c-0.0760727-10.1554565,3.9221954-14.597229,5.0899429-15.7788391c0,0,1.0379639-1.050293,2.3413696-1.9341736
			c8.5929031-5.8269348,35.3154297,1.1858521,38.4800034,2.0359802c2.0195847,9.3403931,0.3173294,14.4976501-1.7305832,17.5094299
			c-1.2667236,1.862915-3.1992493,3.6896667-3.8683624,7.125885c-0.6224442,3.1965637,0.2673187,5.6347351,0.9161911,8.0421448
			c0.3500137,1.2985535,0.7084045,5.9217224,1.4251862,15.1680298c0.9691849,12.5021667,1.957489,25.0686951-0.4072037,39.8033752
			c-0.6099625,3.8008118-2.7597427,17.1963806-7.6349182,28.8091125c-2.0784073,4.9508057-4.0779572,8.2097778-4.6827393,14.1500244
			c-0.4981155,4.8925476,0.3624191,7.5523071-1.6287918,9.365509
			C92.9743118,489.1426086,89.6556091,488.5006714,83.8304443,487.3739624z"/>
		<path id="XMLID_249_" class="st31" d="M92.6530762,314.3960571c0.0147629,0.0856628,0.0292206,0.1690063,0.0426483,0.2478333
			c0.151207-0.1266174,0.283844-0.2506104,0.449295-0.3789978
			C92.9940338,314.3059692,92.8236618,314.3510132,92.6530762,314.3960571z"/>
		<path id="XMLID_257_" class="st27" d="M139.7933807,292.3257751c-1.6481628-1.1429443-3.9284058-0.5083923-4.5577698-0.3103638
			c-3.8686523,1.2172546-5.331192,5.5845032-5.5624084,6.3101807c-3.9896622,1.8792725-8.9065247,3.8098755-14.6735764,5.2982788
			c-4.1860809,1.0803833-8.0615082,1.7319641-11.494339,2.1178589c-0.1624756,5.0837402,4.3612061,8.1315918,4.5562744,13.0621338
			c2.1343231-1.0283203,5.2953949-2.5658569,9.1116486-4.4782715c9.7544403-4.8881836,11.9376297-6.286377,13.2852707-7.1981201
			c3.2025299-2.166626,10.9680023-7.6224976,10.6282349-12.3116455
			C141.0499725,294.3087463,140.8604584,293.0657654,139.7933807,292.3257751z"/>
		<path id="XMLID_247_" class="st28" d="M96.1732101,272.825592c0.0631943,0.3372192,0.8882523,5.1873779-2.6209793,8.4055481
			c-0.3931122,0.3605042-3.2505035,2.9070435-6.4133301,2.1887207c-3.9639206-0.9002686-3.4926682-5.812439-9.1110001-10.0780945
			c-3.4191284-2.5959473-4.5861664-1.5302429-6.1880264-3.5161743c-4.9081192-6.0849304,1.4267578-21.8194122,6.9006195-22.1371613
			c0.9501572-0.0551453,1.7629166,0.3511658,2.3413773,0.6616821c2.9184723,1.5666504,3.417572,4.6214905,5.0899429,8.042099
			c1.9513702,3.991272,3.088295,3.3333435,6.006134,7.9403076C94.1136475,267.3887634,95.3523254,270.3323669,96.1732101,272.825592
			z"/>
		<path id="XMLID_246_" class="st18" d="M82.3543549,322.1034241c10.3834915,8.8310547,20.766983,17.6621399,31.1504745,26.4931946
			c0,1.4251709,0,2.8503723,0,4.2755432c-5.10672,0.5949097-12.6297379,1.1003418-21.6831741,0.3053894
			c-7.9267807-0.6960144-19.5277481-1.7146606-20.6906281-6.4133301c-0.6534653-2.6403503,2.5236206-4.2830811,6.1842804-10.6888733
			C80.3080444,330.8383484,81.6723862,325.8329163,82.3543549,322.1034241z"/>
		<path id="XMLID_213_" class="st18" d="M93.1450424,314.2649231c-3.1885452,0.8675232-10.9120941,2.7179565-16.9495163,1.3742981
			c-1.2530746-0.2789001-2.4596252-0.7013245-3.3593674-1.7306213c-1.7184906-1.9659424-1.0718842-4.7199097-0.8143921-7.838501
			c0.0645523-0.7819519-0.0466614,0.2459106-1.3233871-14.0482483c-0.2720032-3.0453796-0.6042786-6.8686523-0.9670944-11.2996826
			c1.7297897,0.5896301,4.6259384,1.3272095,8.2202682,1.0688782c4.7551041-0.3417358,8.2004852-2.2445374,9.8490524-3.3084717
			c-0.0326157,0.0811157-0.3759537,0.9763184,0.1425095,1.7042542c0.2177505,0.3057251,0.5013199,0.460907,0.671875,0.5353394
			c3.3090744-1.5209656,5.3719406-3.4343567,6.5151367-4.6827698c2.197197-2.399353,2.4437103-3.204895,2.3413696-3.76651
			c-0.2607651-1.4309692-2.1441116-1.8144836-2.2650223-3.2830505c-0.0780487-0.947937,0.6257172-1.7711792,1.1452408-2.2650146
			c0.6556778,1.6672974,1.3113632,3.3346252,1.967041,5.0019531c3.3995895,4.2637939,6.9289856,9.185791,10.3506165,14.7979431
			c2.0090408,3.2951965,3.7806015,6.4997253,5.3444595,9.5690918c2.5064926,5.0235596,2.1773987,7.6404114,1.2215805,9.1109924
			c-1.1836929,1.821167-3.5213394,2.1808777-4.4282532,4.7845764c-0.4127197,1.1849365-0.2961273,2.1657104-0.1526947,3.4102478
			c0.3595428,3.1195679,0.5062027,6.2672729,1.0179825,9.3654785c0.0636902,0.3856201,0.51754,4.5665588,1.4251938,12.9284973
			c0.3781433,3.4837036,0.6776352,6.3102417,0.8652802,8.0929871c-1.7458725-1.3185425-4.275238-3.246582-7.2954865-5.6143799
			c-15.6031723-12.2324524-17.5463257-15.452301-17.2380524-18.3592529
			C89.5620422,318.5619202,90.200943,316.5493164,93.1450424,314.2649231z"/>
		<path id="XMLID_212_" class="st27" d="M85.5101013,270.7967834c-2.228447-2.9159546-6.5315857-4.9794006-10.4852676-3.9701538
			c-0.5246735,0.1339111-3.6016083,0.9193115-4.9372711,3.5120544c-0.521698,1.0127563-0.632637,2.0197449-0.7634964,3.206665
			c-0.1022949,0.9288635-0.0977478,1.7374573,0.1458435,4.566925c0.0515976,0.5993347,0.2197266,2.5483093,0.3461075,3.6371765
			c-0.0281143-0.3408813-0.0561447-0.678772-0.0847015-1.0272827c1.7297897,0.5896301,4.6259079,1.327179,8.2202148,1.0688782
			c4.6205444-0.3320618,7.9899673-2.1323242,9.6902313-3.2103882
			C87.3061676,275.1353455,87.1720352,272.9713135,85.5101013,270.7967834z"/>
		<path id="XMLID_211_" class="st27" d="M141.4104614,371.1959534c-0.3895721-0.9111938-1.1017761-1.3499756-1.9850769-1.9468994
			c-2.7485809-1.8574219-3.0585938-2.4787292-3.0921478-2.9776001c-0.0067902-0.1009521-0.0401154-0.5968018,0.2290497-0.7634888
			c0.7430573-0.4601135,2.8854675,2.1482849,3.2448425,1.8705444c0.2002563-0.1547852-0.205719-1.1650085-0.8780212-2.1759644
			c-1.4536896-2.1860962-3.2566986-3.1608887-5.3062744-4.5046082c-1.6282349-1.0674438-3.1024933-2.3544312-4.6954651-3.473877
			c-4.3652573-3.0675964-7.4594116-6.8575439-12.3303986-11.757782c-0.5527115-0.5559692-1.5190811-1.5195313-2.7455902-2.7366943
			c-5.1898804-5.150238-15.1131897-14.9145813-18.8230591-18.2974854c-0.5663528-0.5164795-1.3669739-1.2289734-1.8323746-2.4431763
			c-0.6480026-1.6905823-0.0592041-2.8222351-0.305397-5.8407288c-0.0484695-0.5941772-0.1070709-0.9878235-0.1948242-1.504303
			c-0.0134277-0.0788269-0.0278854-0.1621704-0.0426483-0.2478333c-2.8816605,0.7605591-8.4630585,2.0140686-13.5866547,1.64328
			c0.7028732,2.7721252,1.4314728,5.5201111,3.2879333,8.8508301c0.4787521,0.8588562,2.1771469,3.8102417,6.0315857,7.8258057
			c3.5848389,3.7346191,6.8576355,6.1214905,10.0017471,8.322052c18.4414597,12.907135,27.6621933,19.3607178,30.1960983,20.6906433
			c0.3509674,0.1841736,1.2424011,0.6304016,1.8959808,1.6033325c0.8048859,1.197937,0.3907013,1.9433289,0.9671173,3.359375
			c0.7346344,1.8044739,2.2334442,2.8087158,3.28302,3.5120544c1.114151,0.7464905,2.0151215,1.0444946,3.4738922,1.5269775
			c1.255661,0.4153137,2.9385376,0.9718933,3.3211823,0.4199219
			C141.7065277,371.8884888,141.5289307,371.4730225,141.4104614,371.1959534z"/>
		<path id="XMLID_210_" class="st27" d="M89.4293747,262.2965698c-3.6632004-1.1045837-5.6142197-4.2043457-6.4998779-5.6114807
			c-0.8586807-1.3642426-3.6928024-5.8670807-2.4075241-11.6434174c1.4961777-6.7241516,7.3472824-9.6761169,8.3984146-10.1799011
			c3.387825-1.6237183,10.1357651-3.3256531,14.2111511,0.4221802c4.7893906,4.4044495,2.0991135,12.8514404,1.375,15.125
			c-1.5421753,4.8421631-4.5207825,7.651535-6.4633179,9.4837189c-1.6637344,1.5692139-2.970665,2.3413391-4.4986191,2.657135
			C91.6401138,262.9434204,90.0865631,262.4947205,89.4293747,262.2965698z"/>
		<g id="XMLID_207_">
			<path id="XMLID_248_" class="st32" d="M148.1853638,273.8344116l-16.5903625,24.6528015
				c-0.4774475,0.7094727-0.2893524,1.6716614,0.4201202,2.1490784l0.8560944,0.5761108
				c0.7094574,0.4774475,1.6716156,0.2893372,2.1490631-0.420105l16.5903625-24.6528015
				c0.4774475-0.7094727,0.2893524-1.6716614-0.4201202-2.1490784l-0.8560944-0.5761108
				C149.6249695,272.9368591,148.6628113,273.1249695,148.1853638,273.8344116z"/>
			<path id="XMLID_270_" class="st33" d="M150.3343964,273.414093L150.3343964,273.414093
				c-0.7094727-0.4773254-1.6715393-0.2891846-2.148941,0.4202271l-16.5906067,24.6531372
				c-0.4773865,0.7093811-0.2893982,1.6714172,0.4198914,2.1489258l0.0003204,0.0002136l0.8561554,0.5758057l18.3193054-27.2219849
				L150.3343964,273.414093z"/>
		</g>
		<g id="XMLID_256_">
			<path id="XMLID_258_" class="st25" d="M105.462471,240.2642975c0.1013794,0.8768921,0.2949829,1.6550903,0.552002,2.3588867
				c-0.0205688-0.6581421-0.1348267-1.3108521-0.3811646-1.947876
				C105.582283,240.5433502,105.5246658,240.4054718,105.462471,240.2642975z"/>
			<path id="XMLID_261_" class="st25" d="M106.2730179,232.914444c-0.0355835-2.1270752-0.1066284-6.3743286-2.7554932-8.4595337
				c-2.8977661-2.2810669-6.3465576,0.0195923-8.4575195-2.3983765c-1.4050293-1.609375-0.2130127-3.0133057-1.5037842-4.9927979
				c-1.984436-3.0432739-6.9786377-3.0628662-10.3873901-3.0762329c-3.5842896-0.0140381-7.9282837-0.0310669-11.319458,2.8251343
				c-2.7145996,2.286438-1.4738159,3.5969238-5.0556641,7.2741089c-2.3817749,2.4450684-3.7633018,2.7207031-6.3081627,5.6970825
				c-0.7057495,0.8253784-2.2227173,2.5996094-3.0334473,4.3644409c-2.527832,5.5031128,2.5881348,9.2247314,3.4888916,19.4850464
				c0.4105835,4.6770477,0.8577881,9.7707977-2.2488403,13.7023773c-1.9082642,2.414978-4.7244873,3.8436279-4.3071899,5.4553833
				c0.40448,1.5620117,3.2564697,1.0200806,4.303894,2.7908325c1.9725342,3.3347168-5.555603,9.6291504-3.9459229,12.0645752
				c1.085022,1.6417236,5.6921997,0.5767822,8.3676758-0.5423584c0.7455444-0.3118896,7.8580284-3.4182739,9.9481773-10.7282715
				c1.7450562-6.1030884-1.4902344-9.9615479,1.0356445-12.3689575c2.2619629-2.1557617,5.3911743,0.4286499,8.8532715-1.6942139
				c4.7488403-2.9119873,3.928772-10.8821259,5.2794189-10.8514252c1.1625977,0.0264893,2.8060913,5.9557953,2.7238159,11.9459686
				c-0.0410767,2.9877319-0.4910278,4.5054932,0.4216919,6.8518066c1.1972656,3.0775757,3.9991455,5.6785889,5.1518555,5.1558838
				c1.5759277-0.7145386-0.0031128-7.2340088-0.178772-7.9431152c-0.8440552-3.4077759-1.8710938-4.7634277-2.786377-7.0346069
				c-2.8659668-7.1116791-1.3233032-14.9788055,1.4630737-19.9479828c1.034668-1.8452148,2.7254028-4.8603516,5.2164917-4.9093018
				c2.4107056-0.0473633,4.3525391,2.7064209,5.2235718,4.6843872c-0.0530396-0.4588013-0.088623-0.9361572-0.0810547-1.4586182
				C105.4209671,236.0646515,106.3258743,236.0764313,106.2730179,232.914444z"/>
			<path id="XMLID_262_" class="st25" d="M106.014473,242.6231842c0.1610718,5.1516724-5.737915,10.6571045-4.3884888,11.93573
				c0.5674438,0.5376587,1.7436523-0.1894531,2.7080078,0.6983643c1.0007935,0.9212494,0.5391846,2.4452362,0.9893799,2.5873871
				c0.6809082,0.2150269,3.3555298-2.7603607,3.6810303-6.5873871
				C109.3246536,247.4918365,107.1356277,245.6935577,106.014473,242.6231842z"/>
		</g>
	</g>
</g>
</svg>
