<?xml version="1.0" encoding="utf-8"?>
<!-- Generator: Adobe Illustrator 19.0.0, SVG Export Plug-In . SVG Version: 6.00 Build 0)  -->
<svg version="1.1" id="Layer_1" xmlns="http://www.w3.org/2000/svg" xmlns:xlink="http://www.w3.org/1999/xlink" x="0px" y="0px"
	 width="640.6239014px" height="376.7423096px" viewBox="0 0 640.6239014 376.7423096"
	 style="enable-background:new 0 0 640.6239014 376.7423096;" xml:space="preserve">
<style type="text/css">
	.st0{opacity:0.1;fill:#A1BDE3;}
	.st1{fill:#A1BDE3;}
	.st2{fill:#FDFEFF;}
	.st3{fill:#F26769;}
	.st4{fill:#F0E3DD;}
	.st5{fill:#76CEEB;}
	.st6{fill:#9DD198;}
	.st7{fill:#73B56E;}
	.st8{fill:#8DC487;}
	.st9{fill:#A1D18C;}
	.st10{fill:#78CDED;}
	.st11{fill:#A3DDEF;}
	.st12{fill:#303C5F;}
	.st13{fill:#3B90CE;}
	.st14{fill:#1975AB;}
	.st15{fill:#EF9A57;}
	.st16{fill:#89B7D3;}
	.st17{fill:#FEE600;}
	.st18{fill:#428FCD;}
	.st19{fill:#D7E6F3;}
	.st20{fill:#FFFFFF;}
</style>
<g id="XMLID_54_">
	<path id="XMLID_103_" class="st0" d="M83.8449402,366.7359009H588.211792
		c2.1256714-2.2510986,4.2293701-4.616394,6.2966309-7.1185913c6.8198853-8.2548828,42.699707-50.6236572,33.333313-96.666687
		c-5.3128662-26.1168213-22.2142944-37.9384155-87.333313-99.333313
		c-24.9286499-23.5029907-50.1202698-46.7653885-73.9999695-71.3333817c-36.6063843-37.661438-53.8388062-59.3155518-90-76.666626
		c-10.8648071-5.2132568-23.3728638-11.1046753-40.666687-14c-31.7814331-5.3208618-61.0215454,2.6083376-102,22
		c-27.3414917,12.9384136-82.1343994,41.4973755-153.333313,104.6666336
		c-70.5585327,62.6011353-78.2036743,89.0795288-80,106.666687c-2.8751831,28.1497192,7.2595215,52.8478394,10,59.333374
		c5.9013052,13.9660645,15.8989859,30.6585693,52.666626,62.666626c4.5760498,3.9836426,9.8843994,8.6029053,15.8265381,13.5925903
		C79.5399475,368.3605957,81.4961243,366.7359009,83.8449402,366.7359009z"/>
	<g id="XMLID_15_">
		<g id="XMLID_55_">
			<path id="XMLID_69_" class="st1" d="M494.8237,44.2838058h-77.2376709c-2.1956177,0-4.1483154,1.3960571-4.8585815,3.4736328
				l-10.392395,30.397583c-1.1391602,3.3319702,1.3372803,6.7957764,4.8585815,6.7957764h14.5316772
				c1.119751,1.3674927,2.2349854,3.2053223,2.6164551,5.4998169c1.248291,7.5073853-6.2922974,14.1466675-5.5,14.833313
				c0.6108398,0.5294189,5.3227539-3.2175903,9.666687-8.833313c2.7363281-3.5374146,6.4121704-8.2965088,6.5839233-11.4998169
				h49.3381958c2.1956177,0,4.1482544-1.3959961,4.8585815-3.4735718l10.3931274-30.397522
				C500.8215027,47.747673,498.3450623,44.2838058,494.8237,44.2838058z"/>
			<path id="XMLID_70_" class="st2" d="M492.1670227,47.5348434h-72.7589111c-1.3272095,0-2.5075684,0.8438721-2.9369507,2.0997314
				l-9.5582886,27.9572144c-0.6885986,2.0140991,0.8083496,4.1079712,2.9369507,4.1079712h72.7589722
				c1.3272095,0,2.5075684-0.8439331,2.9368896-2.0997314l9.5582886-27.9572144
				C495.792572,49.6286545,494.2956238,47.5348434,492.1670227,47.5348434z M433.2887268,61.1195602
				c-1.3845825,5.1520386-6.0841064,9.3286133-10.4966431,9.3286133s-6.8671875-4.1765747-5.4825439-9.3286133
				c1.3845825-5.1520386,6.0841064-9.3285522,10.4966431-9.3285522S434.6733704,55.9675217,433.2887268,61.1195602z
				 M481.7655945,68.6195602h-44.1269531c-0.828125,0-1.5-0.6713867-1.5-1.5s0.671875-1.5,1.5-1.5h44.1269531
				c0.828125,0,1.5,0.6713867,1.5,1.5S482.5937195,68.6195602,481.7655945,68.6195602z M483.8163757,62.6195602h-44.1269531
				c-0.828125,0-1.5-0.6713867-1.5-1.5s0.671875-1.5,1.5-1.5h44.1269531c0.828125,0,1.5,0.6713867,1.5,1.5
				S484.6445007,62.6195602,483.8163757,62.6195602z M485.8681335,56.6195602h-44.1269531c-0.828125,0-1.5-0.6713867-1.5-1.5
				s0.671875-1.5,1.5-1.5h44.1269531c0.828125,0,1.5,0.6713867,1.5,1.5S486.6962585,56.6195602,485.8681335,56.6195602z"/>
		</g>
		<path id="XMLID_2_" class="st1" d="M401.6047058,102.7815475h-77.2376709c-2.1956177,0-4.1483154,1.3960571-4.8585815,3.4736328
			l-10.392395,30.3975906c-1.1391602,3.3319702,1.3372803,6.7957764,4.8585815,6.7957764c0.5299072,0,1.0597534,0,1.5896606,0
			c0.1717529,3.2033081,3.8475952,7.9624023,6.5839233,11.4998169c4.3439331,5.6157227,9.0558472,9.3627319,9.666687,8.833313
			c0.7922974-0.6866455-6.748291-7.3259277-5.5-14.833313c0.3814697-2.2944946,1.4967041-4.1323242,2.6164551-5.4998169
			c20.7600708,0,41.5202026,0,62.2802124,0c2.1956177,0,4.1482544-1.3959961,4.8585815-3.4735718l10.3931274-30.3975296
			C407.6025085,106.2454147,405.1260681,102.7815475,401.6047058,102.7815475z"/>
		<path id="XMLID_64_" class="st2" d="M398.9480286,106.0325851h-72.7589111c-1.3272095,0-2.5075684,0.8438721-2.9369507,2.0997314
			l-9.5582886,27.957222c-0.6885986,2.0140991,0.8083496,4.1079712,2.9369507,4.1079712h72.7589722
			c1.3272095,0,2.5075684-0.8439331,2.9368896-2.0997314l9.5582886-27.957222
			C402.5735779,108.1263962,401.0766296,106.0325851,398.9480286,106.0325851z M369.3311462,127.1173019h-44.1269531
			c-0.828125,0-1.5-0.6713867-1.5-1.5s0.671875-1.5,1.5-1.5h44.1269531c0.828125,0,1.5,0.6713867,1.5,1.5
			S370.1592712,127.1173019,369.3311462,127.1173019z M371.3819275,121.1173019h-44.1269531c-0.828125,0-1.5-0.6713867-1.5-1.5
			s0.671875-1.5,1.5-1.5h44.1269531c0.828125,0,1.5,0.6713867,1.5,1.5S372.2100525,121.1173019,371.3819275,121.1173019z
			 M373.4336853,115.1173019h-44.1269531c-0.828125,0-1.5-0.6713867-1.5-1.5s0.671875-1.5,1.5-1.5h44.1269531
			c0.828125,0,1.5,0.6713867,1.5,1.5S374.2618103,115.1173019,373.4336853,115.1173019z M393.7627869,119.6173019
			c-1.3845825,5.1520386-6.0841064,9.3286209-10.4966431,9.3286209s-6.8671875-4.1765823-5.4825439-9.3286209
			c1.3845825-5.1520386,6.0841064-9.3285522,10.4966431-9.3285522S395.1474304,114.4652634,393.7627869,119.6173019z"/>
		<g id="XMLID_1_">
			<path id="XMLID_9_" class="st1" d="M461.4667664,182.1173096h-77.5605469c-0.828125,0-1.5-0.671875-1.5-1.5s0.671875-1.5,1.5-1.5
				h77.5605469c0.828125,0,1.5,0.671875,1.5,1.5S462.2948914,182.1173096,461.4667664,182.1173096z"/>
			<path id="XMLID_8_" class="st1" d="M457.4023132,191.1173096h-77.5605469c-0.828125,0-1.5-0.671875-1.5-1.5s0.671875-1.5,1.5-1.5
				h77.5605469c0.828125,0,1.5,0.671875,1.5,1.5S458.2304382,191.1173096,457.4023132,191.1173096z"/>
			<polygon id="XMLID_3_" class="st1" points="439.3417664,169.7423096 432.7167664,169.7423096 434.7167664,163.8314209 
				441.3417664,163.8314209 			"/>
			<polygon id="XMLID_6_" class="st1" points="451.8417664,169.7423096 445.2167664,169.7423096 447.2167664,163.8314209 
				453.8417664,163.8314209 			"/>
			<polygon id="XMLID_7_" class="st1" points="464.3417664,169.7423096 457.7167664,169.7423096 459.7167664,163.8314209 
				466.3417664,163.8314209 			"/>
		</g>
	</g>
	<g id="XMLID_13_">
		<g id="XMLID_11_">
			<path id="XMLID_4_" class="st3" d="M373.9667664,367.3672791v0.0000305h96c5.5918884,0,10.125-4.5331116,10.125-10.125
				v-0.0000305c0-5.5918579-4.5331116-10.1249695-10.125-10.1249695h-96l0,0
				C372.6461792,353.8027039,372.6461792,360.6818848,373.9667664,367.3672791z"/>
			<path id="XMLID_12_" class="st4" d="M465.0917664,351.1173096h-91.7399902c-0.4805908,4.0700073-0.4805908,8.1799927,0,12.25
				h91.7399902c3.3827515,0,6.125-2.7422485,6.125-6.125S468.4745178,351.1173096,465.0917664,351.1173096z"/>
		</g>
		<g id="XMLID_5_">
			<path id="XMLID_14_" class="st5" d="M394.7341003,347.1173096L394.7341003,347.1173096h73.0740662
				c3.3827515,0,6.125-2.7422485,6.125-6.125l0,0c0-3.3827515-2.7422485-6.125-6.125-6.125h-73.0740662l0,0
				C393.9352112,338.9115601,393.9352112,343.0730286,394.7341003,347.1173096z"/>
			<path id="XMLID_10_" class="st4" d="M464.8591003,337.2870483h-70.4970398c-0.290741,2.4620972-0.290741,4.9483948,0,7.4104919
				h70.4970398c2.0463562,0,3.7052307-1.6588745,3.7052307-3.7052307S466.9054565,337.2870483,464.8591003,337.2870483z"/>
		</g>
	</g>
	<g id="XMLID_56_">
		<g id="XMLID_27_">
			<path id="XMLID_17_" class="st6" d="M556.8417358,305.7839966c-4.6296387-9.0889282-7.1868896-17.3438721-8.666626-23.666687
				c-1.4291382-6.1064453-3.7044067-16.2349243-2.5-29.5c0.2258301-2.4873352,1.225769-12.1855164,5.833313-24
				c5.0957642-13.0664368,11.8227539-21.5849915,15.5-26.1666565c7.1741943-8.9386902,14.1280518-14.717926,19.5-18.5
				c9.1610718-6.4497681,14.8917847-7.9152222,20-7.666687c2.6178589,0.1273804,4.7277222,0.6881409,5.666626,1
				c11.2949829,3.751709,15.0200806,25.2558899,21.166687,57.3333435c6.2623291,32.6813049,8.99646,44.8076477,6.166687,45.8333435
				c-1.6870117,0.6114807-4.4064331-3.0648193-9.166687-9.5c-4.9238281-6.656311-9.4840698-14.1430054-16-27.5
				c-2.5819702-5.2927551-5.7768555-11.0840759-12.166687-22.666687c-2.9150391-5.2840271-4.3511353-7.7829895-7.166626-8.5
				c-3.8233032-0.9736633-7.133728,2.1170349-18.333374,11.5c-14.4899902,12.1395569-13.8329468,11.0579224-15.833313,13.3333435
				c-4.4470215,5.0585327-10.9754639,12.4845886-12.666626,23.3333435c-1.0293579,6.6030273,0.4248657,12.2353516,3.333313,23.5
				c2.4725952,9.5765686,5.3363037,17.2583923,7.5,22.4999695
				C558.2861938,306.2283936,557.5639648,306.0062256,556.8417358,305.7839966z"/>
			<path id="XMLID_31_" class="st7" d="M628.8134155,235.8800049c-0.0576172-0.2363281-1.5058594-6.0742188-9.5214844-30.4082031
				c-3.6474609-11.0712891-5.3183594-15.6787109-10.1035156-18.5449219
				c-8.5429688-5.1191406-19.7216797-0.4384766-23.4003906,1.1015625
				c-4.0771484,1.7089844-9.0820313,4.6582031-18.0224609,14.5869141c-2.6124268,2.8998413-5.1204834,5.9282837-7.531189,9.0588989
				c-2.6532593,4.0620728-5.4939575,9.1005249-8.0126343,15.1867676
				c5.0386963-8.2398682,10.746582-15.9313354,17.0301514-22.9077759
				c8.6767578-9.6357422,13.4472656-12.4619141,17.3134766-14.0830078
				c3.4443359-1.4404297,13.921875-5.8271484,21.5957031-1.2285156c0.9365845,0.5612183,1.7345581,1.2070923,2.4599609,2.00177
				c0.7321167,6.71521,1.0338135,13.5371094,0.8876953,20.2853394c-0.1328125,6.1230469-0.6337891,12.3076172-1.4902344,18.3818359
				c-0.0771484,0.546875,0.3037109,1.0527344,0.8505859,1.1298828c0.0478516,0.0068359,0.0947266,0.0097656,0.140625,0.0097656
				c0.4902344,0,0.9189453-0.3613281,0.9892578-0.8603516c0.8671875-6.1513672,1.375-12.4160156,1.5097656-18.6181641
				c0.1206055-5.5682983-0.071167-11.1842041-0.541687-16.7527466c0.8898315,1.7897949,1.7722168,4.081543,2.8068237,7.0679321
				c0.8674927,6.8428345,1.451416,13.8076172,1.7358398,20.7043457c0.2734375,6.6601563,0.2734375,13.4179688,0,20.0849609
				c-0.0224609,0.5517578,0.40625,1.0175781,0.9580078,1.0400391c0.0136719,0.0009766,0.0283203,0.0009766,0.0419922,0.0009766
				c0.5332031,0,0.9765625-0.4208984,0.9980469-0.9589844c0.2753906-6.7216797,0.2753906-13.5341797,0-20.2490234
				c-0.1605225-3.8969727-0.4255371-7.8136597-0.7727661-11.7194214
				c6.7984619,20.7905273,8.1221313,26.1101685,8.1340942,26.1588745l9.8330078,41.3330078
				c0.109375,0.4599609,0.5195313,0.7685547,0.9716797,0.7685547c0.0771484,0,0.1542969-0.0087891,0.2324219-0.0273438
				c0.5371094-0.1279297,0.8691406-0.6669922,0.7412109-1.2041016L628.8134155,235.8800049z"/>
			<path id="XMLID_61_" class="st7" d="M598.8338013,215.1960449c-0.1612549-2.1339111-0.7766113-3.9663086-2.1587524-5.0787354
				c-1.3239746-1.0656128-3.1031494-1.2896118-5.833313-1c-10.1123047,1.0726318-17.9375,7.5645142-22.166687,11.5
				c-9.7581177,9.0803833-18.5496216,17.2612305-20.666626,31.166626
				c-0.6246338,4.1026001-0.5430908,7.9107666-0.1125488,11.2868042c0.0512085-0.8665161,0.1411743-1.7346191,0.2792358-2.6201172
				c1.6911621-10.8487549,8.2196045-18.2747803,12.666626-23.333313c2.0003662-2.2754517,1.3433228-1.1937866,15.833313-13.333374
				c11.199646-9.3829346,14.5100708-12.4736328,18.333374-11.5
				C596.5377197,212.6734009,597.6604004,213.5944214,598.8338013,215.1960449z"/>
		</g>
		<g id="XMLID_39_">
			<g id="XMLID_30_">
				<path id="XMLID_24_" class="st8" d="M577.0917358,306.3673096c0.1057129-3.0245972-0.026062-7.5431519-1.375-12.75
					c-1.6497192-6.367981-4.7854614-12.4744568-15.625-25.125c-8.862854-10.3435974-11.234314-11.4754639-19.125-20.375
					c-4.8690186-5.4915466-11.9165039-13.440094-17.375-22.5c-10.5462646-17.5046387-12.0501709-33.9951477-13.9999695-55.375
					c-0.2915039-3.1964722-1.5424805-18.2891235,2.9999695-35.875c2.6737061-10.3510513,4.6225586-10.9891739,5.375-11.0000076
					c2.5407715-0.0366211,4.5926514,6.8892899,7.25,16.8750076c3.843811,14.4438477,5.765686,21.6657715,8.625,35.625
					c1.7199707,8.3967896,6.369812,28.1982117,16.625,48.625c7.9519043,15.8389282,12.5682373,18.697052,20.375,37.25
					c3.2990112,7.8401489,6.1227417,15.9995422,7.375,26.25c0.9641724,7.8921509,0.6963501,14.5648804,0.25,19.25
					C578.0084229,306.9506226,577.5500488,306.6589966,577.0917358,306.3673096z"/>
				<path id="XMLID_66_" class="st7" d="M569.5084229,277.1173096c-3.5196533-7.7352905-8.125061-11.2989502-14.5-18.666687
					c-0.000061-0.000061-7.2785034-8.4119873-14.166687-20c-10.6932983-17.9893799-5.6613159-22.8659058-16.5-45.666687
					c-5.8980713-12.4075317-8.9138184-14.1728516-11.166626-24c-1.769928-7.7207642-1.2910461-13.8138428-0.333374-26
					c0.6153564-7.8292236,1.8135986-14.8187943,6-16.5000076c0.6204224-0.2491455,1.1610107-0.3257446,1.6727295-0.5240479
					c-0.8206177-1.5410156-1.6537476-2.4054565-2.5477295-2.3925781c-0.7524414,0.0108032-2.7012939,0.6489258-5.375,11.0000076
					c-4.54245,17.5858765-3.2914734,32.6785278-2.9999695,35.875c1.9498291,21.3798218,3.4537048,37.8703613,13.9999695,55.375
					c5.4584961,9.0598755,12.5059814,17.0084229,17.375,22.5c7.890686,8.8995361,10.262146,10.0313721,19.125,20.375
					c6.0012207,7.0039063,9.6348877,11.9978027,11.9685669,16.1448364
					C571.5071411,282.2944336,570.7086182,279.7550049,569.5084229,277.1173096z"/>
			</g>
			<g id="XMLID_32_">
				<path id="XMLID_23_" class="st9" d="M562.7167358,306.7423096c0.5006714-4.7883911,0.991272-11.0426636,1.125-18.375
					c0.0822144-4.5079956,0.130188-14.941925-1.375-28.5c-1.565918-14.1053772-4.0209351-24.4587097-8.625-43.875
					c-4.217041-17.7841187-4.5370483-16.3928833-5-20.875c-1.0228271-9.9029236,0.0332031-21.5956726,9.375-44.5
					c6.2514648-15.3275146,14.8219604-32.2639847,29.5-54.0000076c6.7570801-10.0062561,32.8391113-48.6298828,39-45.375
					c2.9716187,1.5699463,0.0717163,12.229248-5.375,32.25c-6.9678345,25.6119385-10.4517212,38.4178772-18.25,52.2500076
					c-12.4589233,22.0988159-20.0145874,20.9104919-30.125,43.75c-3.9030762,8.8170166-8.1752319,18.4679565-8.875,31.75
					c-0.3167725,6.0131531,0.439209,6.3061523,1.375,30.625c0.3687134,9.5813599,0.2496338,9.4914246,0.625,18.25
					c0.6737061,15.7201233,1.1416626,17.9786682,1.125,25c-0.0128174,5.4050903-0.3121338,13.3535156-1.75,23.125
					C564.5500488,307.7423096,563.6334229,307.2423096,562.7167358,306.7423096z"/>
				<path id="XMLID_37_" class="st7" d="M594.0204468,110.4844894
					c10.1142578-16.0356445,19.6650391-33.2265625,28.3867188-51.0952148
					c0.2421875-0.4960938,0.0361328-1.0947266-0.4599609-1.3369141c-0.4921875-0.2431641-1.0947266-0.0366211-1.3369141,0.4599609
					c-8.6904297,17.8037109-18.2050781,34.9306641-28.28125,50.9052734l-0.3486328,0.5517578
					c-1.196167,1.8946533-2.3720093,3.807251-3.5560913,5.7130127c-0.0531006,0.0617676-0.0894775,0.130188-0.1255493,0.2016602
					c-7.1641235,11.5370483-14.1083374,23.2451859-20.6621094,34.9100418
					c-2.1532593,3.8326416-4.0231323,7.305542-5.6888428,10.7312012c-0.2502441,0.1937866-0.4125977,0.4892578-0.3956299,0.8275146
					c-2.6303711,5.5084229-4.7491455,10.9591675-6.6713867,17.6551514
					c-2.2258301,7.7520142-3.5720825,15.7426758-4.0509033,23.8756714c0.4656372,1.7573853,1.057373,4.0545044,1.8175049,7.1533203
					c-0.0448608-10.4172363,1.3321533-20.6430664,4.1552734-30.4762573
					c1.8848877-6.5656128,3.9666138-11.9215088,6.5516357-17.3373413c3.9349365-0.3364258,7.8007813-1.1633301,11.4942627-2.4990845
					c5.5341797-2.0004883,10.5791016-5.0390625,14.9970703-9.0317383c0.4091797-0.3701172,0.4414063-1.0024414,0.0712891-1.4121094
					c-0.3701172-0.4111328-1.0039063-0.4404297-1.4130859-0.0712891c-4.2236328,3.8173828-9.046875,6.7226563-14.3349609,8.6342773
					c-3.1523438,1.1399536-6.4368896,1.8827515-9.7820435,2.2630005c1.4853516-2.9754028,3.1309814-6.0168457,4.9939575-9.3328247
					c1.8521729-3.2969971,3.7373047-6.5984497,5.6466064-9.8988647c4.5766602-1.6922607,9.0948486-3.6616821,13.4344482-5.8657837
					c5.8320313-2.9628906,11.484375-6.4106445,16.7978516-10.2475662c0.4482422-0.3232422,0.5488281-0.9482422,0.2255859-1.3959961
					s-0.9492188-0.5493164-1.3955078-0.2250977c-5.2304688,3.7763672-10.7929688,7.1694412-16.5341797,10.0854568
					c-3.5376587,1.7972412-7.1989746,3.4297485-10.9108887,4.8872681
					c4.3137207-7.3972778,8.7580566-14.7725296,13.2973633-22.0841751c4.5596313-2.65979,8.8469238-5.7961426,12.739502-9.3382568
					c5.4023438-4.9169922,10.0615234-10.5996094,13.8496094-16.8911133
					c0.2851563-0.4731445,0.1328125-1.0874023-0.3408203-1.3725586c-0.4716797-0.2856445-1.0869141-0.1333008-1.3720703,0.3413086
					c-3.6884766,6.125-8.2246094,11.6572266-13.4824219,16.4428711c-2.8067627,2.5542603-5.8272705,4.8875732-9.0061646,6.9821777
					c0.4497681-0.7166748,0.890625-1.440979,1.3421021-2.1560059L594.0204468,110.4844894z"/>
			</g>
			<g id="XMLID_33_">
				<path id="XMLID_16_" class="st10" d="M580.5917358,367.3673096h-28.25l-8.9282837-56.6947327
					c-0.5628052-3.573761,2.199646-6.8052673,5.8174438-6.8052673h34.4717407c3.6177979,0,6.380249,3.2315063,5.8174438,6.8052673
					L580.5917358,367.3673096z"/>
				<path id="XMLID_21_" class="st11" d="M577.0397339,365.3673096h-5.6114502
					c-0.6378784,0-1.1542358-0.5185852-1.1515503-1.1564636l0.2203369-51.921936
					c0.0062866-1.4773254,1.2056274-2.6716003,2.6829834-2.6716003h7.6870728c1.5908813,0,2.8323364,1.3764038,2.6687622,2.9588623
					l-5.350708,51.7579651C578.1245117,364.9211731,577.6298828,365.3673096,577.0397339,365.3673096z"/>
			</g>
		</g>
	</g>
	<g id="XMLID_102_">
		<path id="XMLID_139_" class="st12" d="M275.6586609,168.6036377c-0.9259033-5.0546875-2.1630859-10.0952148-3.6848145-15.0649414
			c0.0977783-4.2267456-0.2351074-7.0874023-0.7987671-11.9213867c-0.262085-2.2481079-0.6533203-4.9213257-2-8
			c-1.5415649-3.5244141-3.5449219-5.7735672-4.333313-6.6666946c-14.4810181-16.4052734-18.7769775-27.883606-33-33
			c-2.3151855-0.8328247-8.7895508-3.0753174-16.666687-1.666687c-17.4231567,3.1157227-26.6662598,21.4039307-30,28
			c-2.7322388,5.4059448-4.5413208,12.3665848-7.8328857,25.6400833
			c-3.5629272,6.2625732-6.8275146,12.6005859-9.7426147,18.9423218c-1.3115234,2.8544922-2.1523438,4.8291016-3.1264648,7.1162109
			c-1.1494141,2.6992188-2.4516602,5.7578125-4.8740234,11.0517578
			c-6.1645508,13.4746094-9.2583008,20.2373047-12.3837891,24.3066406
			c-4.597168,5.9863281-10.2275391,9.9306641-21.4472656,17.7900391c-4.0996094,2.8720703-7.2631836,4.8691406-10.0546875,6.6318359
			c-5.0048828,3.1601563-8.621582,5.4433594-13.2514648,10.1533203c-4.0927734,4.1640625-7.6767578,8.8857422-10.6523438,14.0341797
			c-0.2763672,0.4775391-0.112793,1.0898438,0.3652344,1.3662109c0.1577148,0.0908203,0.3295898,0.1337891,0.4995117,0.1337891
			c0.3452148,0,0.6816406-0.1787109,0.8666992-0.5c2.8911133-5.0019531,6.3725586-9.5878906,10.3476563-13.6318359
			c4.4672852-4.5458984,7.8188477-6.6611328,12.8925781-9.8642578c2.8100586-1.7744141,5.9956055-3.7851563,10.1362305-6.6865234
			c11.3852539-7.9755859,17.0996094-11.9785156,21.8837891-18.2080078c3.2636719-4.25,6.3891602-11.0820313,12.6162109-24.6933594
			c2.4335938-5.3183594,3.7416992-8.3896484,4.8959961-11.1005859c0.9677734-2.2724609,1.8037109-4.2353516,3.1035156-7.0644531
			c1.8930664-4.1185913,3.9411011-8.2351685,6.1160278-12.331604c-1.9489746,8.3771362-2.532959,12.4776001-3.8571167,18.2474976
			c-2.6850586,4.0476685-5.1566772,8.2360229-7.3883057,12.5401611c-2.5297852,4.8779297-3.5585938,7.6015625-4.3852539,9.7890625
			c-0.8427734,2.2304688-1.5087891,3.9921875-3.4165039,7.1542969
			c-6.2675781,10.3847656-14.2270508,16.4072266-27.4140625,26.3857422
			c-6.940918,5.2519531-10.3837891,7.3525391-12.8974609,8.8867188c-2.3291016,1.4208984-3.8676758,2.3603516-6.5170898,4.8486328
			c-9.2563477,8.6943359-15.6352539,20.8681641-18.9589844,36.1835938
			c-0.1171875,0.5390625,0.2250977,1.0722656,0.7651367,1.1894531c0.0712891,0.015625,0.1425781,0.0224609,0.2128906,0.0224609
			c0.4604492,0,0.8745117-0.3193359,0.9760742-0.7880859c3.2368164-14.9111328,9.418457-26.7373047,18.3740234-35.1503906
			c2.4985352-2.3457031,3.8876953-3.1933594,6.1894531-4.5986328c2.5498047-1.5556641,6.0424805-3.6865234,13.0629883-8.9980469
			c13.3779297-10.1240234,21.453125-16.234375,27.9189453-26.9482422c2.0024414-3.3173828,2.6967773-5.1542969,3.5756836-7.4804688
			c0.8500977-2.2509766,1.8139648-4.8017578,4.2895508-9.5761719c1.2698975-2.4489746,2.62677-4.8555298,4.0484619-7.2246094
			c-2.5789185,9.5831909-5.4797363,20.2925415-10.2696533,29.0979614c-12.5255737,23.0263672-29.828186,18.0629883-49,41.416687
			c-4.9344482,6.0107422-16.7272949,20.6407471-17.8757324,41.5215454
			c-0.2310791,4.2008057-1.3948975,34.3601074,21.8757324,52.2284546c21.3355103,16.3824463,55.5910645,16.5824585,66.75,1.75
			c12.2573242-16.2924194-13.1791992-37.6610718-4.416687-64.916687c10.659668-33.1565552,79.9157104-54.0900879,82.666687-55
			c1.2479248-0.4127197,3.8800659-1.2440186,6.5-3.5c2.7285156-2.3494263,7.4080811-7.9353027,6.666687-38.833313
			c-0.3348999-13.9563599-1.3566895-15.6590576-1.2937012-21.6244507c0.7648926,2.9776001,1.4275513,5.9718018,1.9771118,8.9711304
			c2.34375,12.7978516,1.9355469,21.4736328,1.3173828,34.6064453c-0.140625,2.9931641-0.4335938,9.2226563-3.8745117,15.3925781
			c-1.7080078,3.0644531-3.7260742,5.3564453-5.9990234,6.8125c-2.1953125,1.40625-4.6816406,2.2519531-7.3901367,2.5136719
			c-0.5498047,0.0527344-0.9521484,0.5410156-0.8994141,1.0908203c0.050293,0.5175781,0.4853516,0.9042969,0.9946289,0.9042969
			c0.0317383,0,0.0644531-0.0019531,0.097168-0.0048828c2.984375-0.2880859,5.8466797-1.2626953,8.2768555-2.8203125
			c2.5532227-1.6357422,4.7963867-4.1669922,6.6669922-7.5214844c3.6694336-6.5810547,3.9775391-13.1279297,4.1254883-16.2734375
			C277.6318054,190.3936768,278.0444031,181.6270752,275.6586609,168.6036377z"/>
		<path id="XMLID_97_" class="st13" d="M279.0917664,271.8673096c-4.4208374-16.770874-12.6054077-32.3612671-17.5-49
			c-0.348999-1.1863403-1.4282837-4.946167-4.75-7.75c-1.0952148-0.9244995-3.7369995-2.8447266-7.25-3
			c-3.526001-0.1558838-6.2158813,1.5419312-7,2c-7.4571533,4.3562012-29.0025635,5.5025635-46,0.5
			c-5.3718872-1.5810547-16.7568359-5.6796875-28.5-13.75c-6.810791-4.6806641-12.7697754-10.0291138-19.5-8.5
			c-3.6781616,0.8356323-6.2451172,3.458252-8.25,6c-12.4916382,15.836792-16,62.7498779-16,62.75
			c-2.3091431,30.8780518-3.4494629,46.5856934-2.75,59.75c0.9376221,17.6461792,3.2957153,32.7987061,5.75,44.75
			c2.3999634,0.687439,6.069458,1.4078369,10.5,1c0.3585815-0.03302,0.7076416-0.0775146,1.0557251-0.1229248
			c-1.8277588-0.4033203-2.9306641-0.8514404-3.5557251-1.1270752c-2.237793-0.9869385-3.3779297-1.4898071-4.25-2.75
			c-2.8273315-4.0856934,0.8283691-10.8364258,2-13c1.6901245-3.1210327,5.9988403-10.9882813,14.25-11.75
			c0.369873-0.0341187,0.7320557-0.0470581,1.0896606-0.0498657c0.0901489-0.0007935,0.1790771,0.0010376,0.2683716,0.0020752
			c0.3012085,0.0038452,0.5986328,0.0159302,0.8901978,0.0392456c0.0498047,0.0039063,0.1004028,0.0062256,0.1498413,0.0106201
			c0.7335815,0.0667725,1.4360962,0.1889648,2.100708,0.3512573c2.6134033,0.6383667,4.6469116,1.8809204,5.7512207,2.6466675
			c-0.506958-5.65448-0.8633423-11.6654053-1-18c-0.1768188-8.1970215,0.0369263-15.8880615,0.5-23
			c5.7283325,17.3520508,12.9516602,30.4816895,18.75,39.5c6.6010742,10.2668457,10.2488403,15.8237305,17.25,21
			c12.7727051,9.4434814,26.5779419,10.1315918,44,11c10.3026123,0.5135498,25.2044067,0.2778931,43-3.5
			c-3.6290894-2.2055054-8.7577515-5.569458-14.5-10.25c-4.081665-3.3269653-6.1224976-4.9904785-7.5-6.75
			c-1.9916382-2.5439453-5.3482056-7.8876953-6.25-26c-0.3364868-6.7585449-0.1522217-11.7003784,0-16
			c0.0661621-1.8677979,0.138916-3.9741821,0.2165527-6.3067627c2.5172729,5.192627,4.1672363,9.7139893,5.2834473,13.3067627
			c0.5678711,1.8278198,2.9345093,9.6469116,7.25,19.25c2.0665894,4.5986938,3.9033203,8.1004028,7.75,10.5
			c3.506897,2.1876221,7.1793823,2.5203857,9.5,2.5c1.1564331-5.1536865,2.4038696-10.4059448,3.75-15.75
			c1.6876221-6.699707,3.4440308-13.2012329,5.25-19.5C285.4649353,295.4564819,281.6041565,281.3981934,279.0917664,271.8673096z"
			/>
		<path id="XMLID_72_" class="st14" d="M241.5084381,286.2839966c-0.1826935-1.0859985-15.0701447,1.9211426-32.9166718,1.333313
			c-5.5052032-0.1813354-12.3525543-0.4068604-21.0833282-2.333313c-15.2801514-3.371582-22.8350983-8.975647-24.3333435-7.0000305
			c-1.4322357,1.8886108,4.800415,7.8951721,14.6666718,21.0000305c11.281189,14.9842529,9.3099365,15.3362427,16.125,23.333313
			c14.7545013,17.3134766,31.5109711,24.4841919,31.5,24.5c-0.0059204,0.0085449-4.6381378-2.4180298-4.375-5.125
			c0.0895386-0.9210205,0.7295837-1.7077637,1.625-2.375c-1.9345398-1.5328979-4.646286-3.8255005-7.625-6.875
			c-2.8100128-2.87677-5.5515594-6.1137695-15.125-21.375c-6.1341858-9.7786255-7.6161499-12.6063843-6.375-15
			c1.0061188-1.9403687,3.2326355-2.4979248,7.5-3.5c7.62146-1.7896729,12.5226593-0.8835449,21.75-1.125
			c4.5232239-0.1183472,8.2155914-0.4710693,10.625-0.75c0.6895142-0.4501953,1.8192596-1.1706543,3.25-2
			C240.2963104,286.9173584,241.5619049,286.6018066,241.5084381,286.2839966z"/>
		<path id="XMLID_88_" class="st14" d="M144.0917664,241.8673096c-0.8331299,8.4655151-1.6629639,20.2658691-1.583313,34.416626
			c0.0737305,13.109314,0.1553955,20.8283691,2.083313,30.583374c1.6288452,8.2415771,5.0459595,20.3167725,13,34
			c-0.506958-5.65448-0.8633423-11.6654053-1-18c-0.1768188-8.1970215,0.0369263-15.8880615,0.5-23
			c-2.5955811-7.4118652-5.088623-15.6225586-7.25-24.583374
			C146.9162903,263.1552734,145.1413879,251.9042969,144.0917664,241.8673096z"/>
		<path id="XMLID_96_" class="st14" d="M273.6750793,339.4506226c-2.3292236-5.9967041,0.3737183-12.2579956,3.5-19.5
			c1.9391479-4.4918823,4.1425781-7.963623,5.833374-10.333313c-2.7454224,1.6367798-6.314209,4.3301392-8.833374,8.666687
			c-2.8892212,4.9737549-2.6661377,9.1283569-4.083313,9.25c-1.1340942,0.0973511-2.5447388-2.4545288-6.416687-15.5
			c-2.55896-8.6217041-3.9940796-14.418335-5.833313-20.833374c-1.859314-6.4851074-3.5881348-11.7067871-4.75-15.083313
			c-0.4658813,4.2020874-0.8205566,8.7123413-1,13.5c-0.1711426,4.5661621-0.1643677,8.8908691-0.0334473,12.9432373
			c2.5172729,5.192627,4.1672363,9.7139893,5.2834473,13.3067627c0.5678711,1.8278198,2.9345093,9.6469116,7.25,19.25
			c2.0665894,4.5986938,3.9033203,8.1004028,7.75,10.5c3.506897,2.1876221,7.1793823,2.5203857,9.5,2.5
			c0.0196533-0.0874634,0.0415649-0.1773682,0.0612183-0.2648926
			C278.7915344,346.2478027,275.2926331,343.6151123,273.6750793,339.4506226z"/>
		<path id="XMLID_57_" class="st14" d="M234.4667664,349.2423096c-1.7146912-0.3659668-2.7987671-2.1329346-3.4583282-3.625
			c0.9444427,0.166687,1.8888855,0.333313,2.8333282,0.5c-1.6111145-0.944458-3.2222137-1.888855-4.8333282-2.833313
			c0.6405182,3.8824463,2.0250092,6.6862793,3,8.333313c1.4342957,2.4228516,4.2143402,7.1190796,9.6666565,8.666687
			c2.7802582,0.7891846,5.2388916,0.4710693,6.6666718,0.166626c-2.8619843-2.8919678-4.9196014-5.3545532-6.3333282-7.166626
			c-1.5627594-2.0031128-3.0014191-4.060791-5.1666718-4.166687
			C235.8732605,349.0699463,235.4179535,349.4453125,234.4667664,349.2423096z"/>
		<path id="XMLID_131_" class="st15" d="M244.5917664,354.7423096c-3.5994873-3.7221069-7.2229614-8.024231-9.125-7.125
			c-0.6123047,0.2894897-0.8743286,1.0368042-1,1.625c1.3506317,1.5089722,2.9130554,3.1015625,4.7083282,4.708313
			c2.5940857,2.3216553,5.1272278,4.1831055,7.4166718,5.666687c-4.7574768-1.2108765-7.8135834-3.1975708-9.75-4.833313
			c-3.0271759-2.5571899-3.83992-4.6976929-6.75-5.416687c-0.5327759-0.1316528-2.0462189-0.6865234-7.375,1.375
			c-6.3869629,2.4708862-9.5804443,3.7062988-11.125,4.75c-3.4387817,2.3236694-4.8485107,4.3695068-8,4.5
			c-1.4608765,0.0604858-2.6813965-0.3002319-3.5-0.625c-19.5478516-7.755127-26.8748779-10.999939-26.875-11
			c-0.000061-0.000061-5.3274536-2.6633911-15.625-7.5c-2.2644043-1.0635986-4.1400146-1.932312-5.7507935-2.6465454
			c-0.0001831-0.000061-0.0002441-0.000061-0.0004272-0.0001221c-0.6646118-0.1622925-1.3671265-0.2844849-2.100708-0.3512573
			c-0.0494385-0.0043945-0.1000366-0.0067139-0.1498413-0.0106201c-0.2915649-0.0233154-0.5889893-0.0354004-0.8901978-0.0392456
			c-0.0892944-0.0010376-0.1782227-0.0028687-0.2683716-0.0020752c-0.357605,0.0028076-0.7197876,0.0157471-1.0896606,0.0498657
			c-8.2511597,0.7617188-12.5598755,8.6289673-14.25,11.75c-1.1716309,2.1635742-4.8273315,8.9143066-2,13
			c0.8720703,1.2601929,2.012207,1.7630615,4.25,2.75c0.625061,0.2756348,1.7279663,0.7237549,3.5557251,1.1270752
			c5.9370728,0.6715088,8.4058228-0.1835938,20.8192749-0.2520752c4.3164673-0.0238037,10.8657227-0.0278931,35.5,0.375
			c9.2611694,0.1514893,13.8917236,0.2271729,14.375,0.25c16.7897949,0.7922974,22.541626,2.8237305,33.875,1.75
			c3.8321533-0.3630371,8.5354614-1.1032104,13.875-2.625C251.5951233,361.6445313,247.4075623,357.6540527,244.5917664,354.7423096
			z"/>
		<path id="XMLID_71_" class="st15" d="M325.3417664,191.3673096c0.6005249,5.9744263,1.8838806,10.4821472,3,13.5833435
			c0.7622375,2.1178589,1.6027527,4.0139771,2.5,7.4166565c0.6309509,2.3928223,1.3104553,4.9697266,1.5,8.25
			c0.1420593,2.4585876,0.4121704,7.1332092-1.6666565,11.8333435c-1.7660828,3.993042-3.0996094,3.1933594-6.3333435,8.1666565
			c-2.5292053,3.8897705-3.5908203,7.1772766-5.5,13.6666565c-2.0670776,7.0260315-2.9841919,12.5455627-3.1666565,13.666687
			c-5.141571,31.5924377-5.666687,35.1665344-5.666687,35.1666565s-1.4117432,9.4711304-7,31.833313
			c-0.6691589,2.6777344-2.0050659,7.7382202-6.4166565,11.416687c-0.3580322,0.2985229-7.1965332,5.8529053-12.75,3.25
			c-1.128418-0.5288696-3.526001-2.0142822-5.166687-7.166687c-2.5074158-7.8743896-0.2486267-14.8977661,5.416687-31.083313
			c6.2770386-17.9333496,5.93396-16.2532349,9.4166565-26.583313c0.2024841-0.6006165,3.6052856-10.6959534,7-20.3333435
			c0.6917114-1.9637146,2.2364502-6.3310852,4.5-12c0.843689-2.112915,1.5698547-3.8623352,2.0833435-5.0833435
			c-0.1666565-3.5833435-0.3333435-7.1666565-0.5-10.75c1.5833435,0.4166565,3.1666565,0.8333435,4.75,1.25
			c1.6282959-1.5598145,3.8852539-3.8961182,6.25-7c1.5344238-2.0140076,7.0401917-9.2406921,5.5-11
			c-0.5594482-0.6390381-2.0396423-0.3426819-5,0.25c-3.747406,0.7502747-4.7521057,1.6588745-5.9166565,1
			c-1.3756409-0.7783203-1.8192444-3.0903015-1.3333435-4.75c0.3503113-1.1965942,1.0490417-1.5938416,2.8333435-3.25
			c4.0681763-3.7759705,4.1252747-5.1351318,5.6666565-5.25c2.5861511-0.192749,4.0923157,3.5091858,5.25,3
			c1.1185303-0.4919434,0.2530518-4.1853027,0-8.5C324.3254395,197.8260193,324.8216248,194.0301208,325.3417664,191.3673096z"/>
		<path id="XMLID_79_" class="st13" d="M338.8417664,178.1173096c-10.8384705,0-21.6769104,0-32.5153809,0
			c-5.8282166,19.5833435-11.6564026,39.1666565-17.4846191,58.75c10.5,0.4166565,21,0.8333435,31.5,1.25
			C326.5084229,218.1173096,332.6751099,198.1173096,338.8417664,178.1173096z"/>
		<path id="XMLID_98_" class="st16" d="M295.8193665,213.421875c0.4980469,1.4798584,1.022522,2.8129883,1.5223999,3.9454346
			c3.25-11.416687,6.5-22.833374,9.75-34.25c-0.3247681-1.6904907-0.6587524-3.0758057-0.9957886-4.2258911
			C302.6704407,190.4015503,299.2449646,201.9117432,295.8193665,213.421875z"/>
		<g id="XMLID_80_">
			<path id="XMLID_92_" class="st17" d="M313.8866882,260.2979736c-1.9121094,0-3.7280273-0.5722656-5.3422852-1.7021484
				c-3.7578125-2.6298828-4.4555664-5.6982422-4.5371094-7.2929688c-0.0419922-0.828125,0.59375-1.5380859,1.4208984-1.5800781
				c0.8383789-0.0605469,1.5322266,0.5878906,1.574707,1.4150391l0.0004883,0.0117188
				c0.0429688,0.84375,0.4472656,3.0195313,3.2607422,4.9892578c1.9770508,1.3818359,4.3383789,1.5361328,6.8300781,0.4453125
				c0.1049805-0.046875,0.1821289-0.078125,0.2280273-0.0957031c0.7788086-0.2851563,1.6391602,0.1132813,1.925293,0.890625
				s-0.112793,1.6396484-0.8901367,1.9257813C316.8432312,259.9688721,315.3373718,260.2979736,313.8866882,260.2979736z"/>
		</g>
		<path id="XMLID_100_" class="st14" d="M127.3417664,365.6173096c2.3999634,0.687439,6.069458,1.4078369,10.5,1
			c0.3585815-0.03302,0.7076416-0.0775146,1.0557251-0.1229248c-1.8277588-0.4033203-2.9306641-0.8514404-3.5557251-1.1270752
			c-1.8062134-0.7966309-2.8924561-1.2838745-3.7046509-2.1025391c-1.6902466,0.2431641-3.3291016,0.7615967-4.4860229,1.4057007
			C127.2146912,364.9852295,127.2779846,365.3068848,127.3417664,365.6173096z"/>
		<path id="XMLID_60_" class="st18" d="M611.963562,376.7423096H83.8449554c-2.7631836,0-5.0031891-2.2399902-5.0031891-5.0031738
			s2.2400055-5.0032349,5.0031891-5.0032349H611.963562c2.7631836,0,5.0031738,2.2400513,5.0031738,5.0032349
			S614.7267456,376.7423096,611.963562,376.7423096z"/>
		<path id="XMLID_107_" class="st19" d="M189.8153381,366.7359009c-0.8503418,0.5255127-1.3720703,1.0715942-1.3485718,1.6314087
			c0.0784302,1.8686523,6.0752563,3.1330566,11.5,4c17.1107178,2.7344971,27.0240479,1.2739258,41.75,1.25
			c20.4988403-0.0333252,27.1149292,2.7548828,42.375,0.25c1.0734863-0.1762085,8.3320313-1.4110718,17.25-5
			c1.501709-0.6043091,3.3250122-1.3398438,5.1431274-2.1314087H189.8153381z"/>
		<path id="XMLID_99_" class="st15" d="M153.0084229,195.7839661c1.3814087-0.4918518,3.5100403-1.1413879,6.1666718-1.5
			c4.8766022-0.6582947,6.3611298,0.3616943,14.5,0.8333435c6.753067,0.3913269,9.8478699-0.0723267,12.5-0.8333435
			c2.0799255-0.5968323,3.1198883-0.8952332,4-1.5c4.8978424-3.365509,3.238266-10.9491882,5.1666718-21.333313
			c0.6245575-3.3631287,1.859024-8.2776489,4.5833282-14.0833435c-2.1872253-2.3606262-3.1435852-4.6963806-3.5833282-6.0833435
			c-0.5761108-1.8171082-1.7857971-5.6324768,0.1666718-8.833313c0.2693939-0.4416504,1.7668152-2.867218,4.1666565-3
			c2.6588135-0.1471252,4.66362,2.6191711,5,3.083313c1.3167725,1.816925,0.9059601,2.8591614,2.1666718,4
			c1.3550415,1.2261963,3.2097931,1.2710571,4.4166718,1.25c11.3313751-0.1977844,17.7499084-2.666626,17.75-2.6666565
			c6.2761383-2.4140625,14.8208008-6.1105347,24.8333282-11.6666565c2.4830627,10.3712158,2.1313477,18.9533081,1.5,24.333313
			c-1.3125763,11.1852417-4.9828186,18.3216858-6.1666718,20.5c-2.7312469,5.0256042-4.8170776,8.7367859-9.3333282,10.8333435
			c-6.7937164,3.1538086-13.7664032,0.3353577-15-0.1666565c-4.7486877-1.9324951-7.5719604-5.1714478-8.8333282-6.8333435
			c0.1935425,2.8937378,0.2753296,6.074646,0.1666565,9.5c-0.0987854,3.113678-0.3416901,6.0122375-0.6666565,8.6666565
			c3.0572052,1.4157104,6.2238617,2.8085632,9.5,4.166687c9.0551605,3.7538147,17.7729645,6.7557068,26,9.1666565
			c-2.2277374,9.1423645-6.3029785,14.3998413-9.6666718,17.5c-20.4562683,18.8535156-68.6824493,7.7669678-84.1666718-19.6666565
			C154.7271729,205.3418884,153.5099335,199.4984436,153.0084229,195.7839661z"/>
		<path id="XMLID_144_" class="st17" d="M219.3627625,209.9698486c1.5625-2.5692749,1.7369385-5.3933105,1.4536133-7.7433472
			c-0.7354126-0.3240967-1.4503784-0.6531982-2.1738892-0.9802856c0.4517212,2.1951904,0.5656738,5.1289673-0.9887085,7.6845703
			c-3.8334961,6.3037109-14.2597656,4.2910156-15.4379883,4.0410156
			c-6.7954102-1.4414063-10.6181641-6.3652344-12.2509766-8.4677734c-2.6234131-3.3781128-4.0004272-6.9457397-4.7196045-9.9729004
			c-0.6044312,0.1483765-1.2491455,0.2791748-1.961792,0.3881836c0.7684326,3.2712402,2.2521362,7.142334,5.1018066,10.8112793
			c1.6147461,2.0800781,5.9038086,7.6035156,13.4150391,9.1982422c0.5224609,0.1103516,2.675293,0.5302734,5.3681641,0.5302734
			C211.2670593,215.4591064,216.6166687,214.4854736,219.3627625,209.9698486z"/>
		<g id="XMLID_101_">
			<path id="XMLID_129_" class="st20" d="M219.3086243,147.3370972l15.0684814,4.2130127
				c-0.6450806,1.3751831-1.1289063,2.9331055-1.3952026,4.6228638c-1.0429688,6.6220703,1.6826172,12.3671875,6.2045898,13.0795898
				c0.3032227,0.0478516,0.6069336,0.0712891,0.9101563,0.0712891c1.9345703,0,3.8549805-0.9609375,5.4907227-2.769043
				c1.7875977-1.9755859,3.0390625-4.7602539,3.5244141-7.840332c1.043457-6.621582-1.6816406-12.3666992-6.2041016-13.0795898
				c-2.8373413-0.4501953-5.6026001,1.1986084-7.5303955,4.1186523l-11.208313-3.133728
				C222.7831726,146.881958,221.1506653,147.1328125,219.3086243,147.3370972z M234.957489,156.4844971
				c0.7915039-5.0214844,3.9418945-8.9189453,7.0634766-8.9189453c0.1923828,0,0.3842773,0.0146484,0.5751953,0.0449219
				c3.3007813,0.5205078,5.3798828,5.4628906,4.5400391,10.7924805c-0.425293,2.7006836-1.5019531,5.1191406-3.0317383,6.8100586
				c-1.4248047,1.574707-3.0605469,2.3095703-4.6064453,2.0639648
				C236.1972351,166.756958,234.1181335,161.8145752,234.957489,156.4844971z"/>
			<path id="XMLID_156_" class="st20" d="M261.0468445,152.7803955c-0.7207031-2.3051758-2.0224609-3.7172852-3.6655273-3.9760742
				c-1.6455078-0.2612305-3.3168945,0.684082-4.7114258,2.65625c-1.25,1.7680664-2.1704102,4.2133789-2.5917969,6.8852539
				c-0.9213867,5.8500977,0.8422852,10.824707,4.0151367,11.3251953c0.1723633,0.0273438,0.3442383,0.0400391,0.5161133,0.0400391
				c2.9985352,0,5.9150391-4.0493164,6.7866211-9.5820313C261.8173523,157.4571533,261.6933289,154.8477783,261.0468445,152.7803955
				z M259.4203796,159.8175049c-0.7851563,4.984375-3.2768555,8.1552734-5.015625,7.8779297
				c-1.7421875-0.2749023-3.1362305-4.0541992-2.3510742-9.0380859c0.3740234-2.3745117,1.1728516-4.5200195,2.2495117-6.0419922
				c0.8417969-1.1904297,1.7592773-1.8520508,2.5532227-1.8520508c0.0722656,0,0.1435547,0.0053711,0.2133789,0.0166016
				c0.8398438,0.1323242,1.59375,1.0791016,2.0683594,2.597168
				C259.6943054,155.1563721,259.7944031,157.4434814,259.4203796,159.8175049z"/>
		</g>
		<path id="XMLID_137_" class="st17" d="M203.0084534,156.6173096c0.9827271-1.0856934,1.2219849-3.1131592,0.333313-3.833374
			c-0.7659912-0.6207886-2.1135864-0.062439-2.666687,0.166687c-0.9996948,0.4141846-2.0032349,1.1919556-2.6221924,1.9818726
			c0.4953613,0.7826538,1.1043091,1.6060181,1.8721924,2.4348145c-0.0528564,0.1126099-0.0962524,0.2191772-0.1479492,0.3311157
			C200.9201965,157.7816772,202.2177429,157.4909058,203.0084534,156.6173096z"/>
	</g>
	<path id="XMLID_108_" class="st18" d="M611.963562,366.7359009h-23.75177
		c-3.4382935,3.6412964-6.9365234,6.9666138-10.4470215,10.0064087h34.1987915c2.7631836,0,5.0031738-2.2399902,5.0031738-5.0031738
		S614.7267456,366.7359009,611.963562,366.7359009z"/>
	<path id="XMLID_125_" class="st18" d="M78.8417664,371.7391357c0,2.7631836,2.2399902,5.0031738,5.0031738,5.0031738h2.6487427
		c-2.5984497-2.1165771-5.0963745-4.1873779-7.4920654-6.1990967
		C78.9066467,370.9282837,78.8417664,371.3247681,78.8417664,371.7391357z"/>
</g>
</svg>
