<?xml version="1.0" encoding="utf-8"?>
<!-- Generator: Adobe Illustrator 19.0.0, SVG Export Plug-In . SVG Version: 6.00 Build 0)  -->
<svg version="1.1" id="Layer_1" xmlns="http://www.w3.org/2000/svg" xmlns:xlink="http://www.w3.org/1999/xlink" x="0px" y="0px"
	 width="774.2775879px" height="646.0698853px" viewBox="-158.8974915 123.0591431 774.2775879 646.0698853"
	 style="enable-background:new -158.8974915 123.0591431 774.2775879 646.0698853;" xml:space="preserve">
<style type="text/css">
	.st0{fill:#B9E4ED;}
	.st1{fill:#DAEAF0;}
	.st2{fill:#3791D5;}
	.st3{fill:#4D7EA6;}
	.st4{fill:#194766;}
	.st5{fill:none;stroke:#194766;stroke-width:4;stroke-miterlimit:10;}
	.st6{fill:none;stroke:#194766;stroke-width:4;stroke-miterlimit:10;stroke-dasharray:10.0607481,10.0607481;}
	.st7{fill:#063049;}
	.st8{fill:none;stroke:#3791D5;stroke-width:4;stroke-linecap:round;stroke-linejoin:round;stroke-miterlimit:10;}
	.st9{fill:none;stroke:#063049;stroke-width:4;stroke-linecap:round;stroke-linejoin:round;stroke-miterlimit:10;}
	.st10{fill:#4A64DD;}
	.st11{fill:#FFFFFF;}
	.st12{fill:#F6D7B9;}
	.st13{fill:#122028;}
	.st14{fill:#E84E51;}
	.st15{fill:#FAD732;}
	.st16{fill:#D8E9EF;}
	.st17{fill:#0A1920;}
	.st18{fill:#172830;}
	.st19{fill:#E5C1A3;}
</style>
<g>
	<g>
		<path id="XMLID_2_" class="st0" d="M-108.6496811,481.4119873c4.1910858-11.0968933,7.2709732-22.5800781,13.0908508-33.098053
			c7.9516602-14.3707275,17.8884125-26.6611023,31.921093-35.5698547c17.674408-11.2207031,42.2846832-9.1400452,58.12323,4.4025269
			c15.6328011,13.3666687,23.942543,30.3711243,24.4866028,50.3680115
			c0.9716473,35.7121277-23.5228138,69.2743835-59.9619675,76.5328674
			c-20.1287575,4.0095215-37.8019371-1.3649902-53.004673-14.4558716
			c-6.9298859-5.9672241-11.1898651-14.2005005-13.2093124-23.321106c-0.2838058-1.2817383-0.1411133-2.6927795-1.4458237-3.5401611
			C-108.6496811,495.6242065-108.6496811,488.5180969-108.6496811,481.4119873z"/>
		<path class="st0" d="M615,563.0591431c-3.614502-51.213623-32.4923706-88.5427856-40-98
			c-55.739624-70.2142334-120.8760986-45.7910767-167-115c-21.310791-31.9768677-15.8609009-49.8775024-48-89
			c-12.7338257-15.5007324-32.3156128-39.3373413-64-55c-55.8447266-27.605957-131.0883789-20.8234863-183,19
			c-48.2545776,37.0180664-61.8839722,90.7667847-65,105c-16.0453491,73.2915039,26.2360229,104.4758301,3,168
			c-15.5228882,42.437561-48.7092285,67.6590576-61,77c-63.9682007,48.6156616-127.099968,33.1494141-145,76
			c-8.4552002,20.2407227-0.7861328,40.3227539,1,45c15.2755737,40.0005493,68.2444992,52.5050659,92.9999924,58
			c88.7856445,19.7075195,143.3400269-12.6740723,227-25c179.1379395-26.3930664,231.0680542,77.5728149,335,25
			C568.3256226,720.0032349,620.3619385,639.0316162,615,563.0591431z"/>
	</g>
	<g>
		<path class="st1" d="M440.583313,304.8924866c0,8.1001587-6.5664673,14.6666565-14.6666565,14.6666565
			c-8.1001587,0-14.6666565-6.5664978-14.6666565-14.6666565c0-8.1001892,6.5664978-14.666687,14.6666565-14.666687
			C434.0168457,290.2257996,440.583313,296.7922974,440.583313,304.8924866z M406.6640015,318.9355469l-3.5515137,2.2792969
			l6.4818115,6.4818115l2.2792969-3.5515137c2.9988403,2.1911011,6.5263672,3.701416,10.3581543,4.2962036l-0.8984375,4.1177979
			H430.5l-0.8984375-4.1177979c3.8318481-0.5947876,7.359314-2.1050415,10.3581543-4.2962036l2.2793579,3.5515137
			l6.4818115-6.4818115l-3.5515747-2.2793579c2.1911621-2.9988403,3.701416-6.5263062,4.2962036-10.3580933l4.1177979,0.8984375
			v-9.166687l-4.1177979,0.8984375c-0.5947876-3.8318481-2.1050415-7.3592529-4.2962036-10.3581543l3.5515747-2.2793579
			l-6.4818115-6.4818115l-2.2793579,3.5515747c-2.9989014-2.1911621-6.5263062-3.701416-10.3581543-4.2962036L430.5,277.2258301
			h-9.166687l0.8984375,4.1177979c-3.8317871,0.5947876-7.3592529,2.1050415-10.3580933,4.2962036l-2.2793579-3.5515747
			l-6.4818115,6.4818115l3.5515137,2.2793579c-2.1911621,2.9988403-3.701416,6.5263062-4.2962036,10.3581543L398.25,300.3091431
			v9.166687l4.1177979-0.8984375C402.9625854,312.4091797,404.4729004,315.9367065,406.6640015,318.9355469z"/>
		<path class="st1" d="M414.8082275,401.5591431c0,15.9563599-12.9351807,28.891571-28.891571,28.891571
			c-15.9563599,0-28.891571-12.9352112-28.891571-28.891571c0-15.9563904,12.9352112-28.8916016,28.891571-28.8916016
			C401.8730469,372.6675415,414.8082275,385.6027527,414.8082275,401.5591431z M347.9912415,429.22229l-6.9960632,4.4899292
			l12.7684021,12.7684021l4.4899292-6.9960632c5.9073486,4.3162231,12.8561707,7.2913513,20.4043274,8.4630127l-1.7698364,8.1115723
			h18.0572815l-1.7698059-8.1115723c7.5482788-1.1716614,14.4969482-4.1466675,20.4043274-8.4630127l4.4900513,6.9960632
			l12.7684021-12.7684021l-6.9961853-4.4900513c4.3163147-5.9073486,7.2913513-12.8560486,8.4630127-20.4042053l8.1115417,1.7698364
			v-18.0572815l-8.1115417,1.7698059c-1.1716614-7.5482788-4.146698-14.4968567-8.4630127-20.4043274l6.9961853-4.4900513
			l-12.7684021-12.7684021l-4.4900513,6.9961853c-5.9075012-4.3163147-12.8560486-7.2913513-20.4043274-8.4630127
			l1.7698059-8.1115417h-18.0572815l1.7698364,8.1115417c-7.5481567,1.1716614-14.4968567,4.146698-20.4042053,8.4630127
			l-4.4900513-6.9961853l-12.7684021,12.7684021l6.9960632,4.4900513
			c-4.3163452,5.9073792-7.2913513,12.8560486-8.4630127,20.4043274l-8.1115723-1.7698059v18.0572815l8.1115723-1.7698364
			C340.6998901,416.3661194,343.6750183,423.3149414,347.9912415,429.22229z"/>
		<g>
			<polygon class="st2" points="129.25,168.3091431 84.7499924,130.5591431 161.25,123.0591431 140.25,149.3091431 			"/>
			<polygon class="st3" points="84.7499924,130.5591431 140.25,149.3091431 153.8333282,161.0591431 152.51828,133.9737701 			"/>
			<polygon class="st4" points="140.25,149.3091431 153.8333282,161.0591431 136.8486786,155.1841431 			"/>
			<g>
				<g>
					<path class="st5" d="M161.25,167.3091431c1.1064911,0.963623,2.3850861,2.0439148,3.8322296,3.2062378"/>
					<path class="st6" d="M173.172699,176.4905396c3.3624268,2.2783203,7.1996307,4.6363831,11.4939728,6.901947
						C246.2298584,215.8711548,294.9408569,171.5310974,366,186.7257996
						c9.6444397,2.0622864,75.3516846,17.138855,107.6666565,74.3333435
						C495.3314819,299.4038696,504.9142456,361.8596191,473,395.7258301
						c-5.7781372,6.1315308-12.0946045,10.4537048-17.8656921,13.5266113"/>
					<path class="st5" d="M450.6154175,411.4725342c-1.6240234,0.7342834-3.1723328,1.3692017-4.6154175,1.9199219"/>
				</g>
			</g>
		</g>
	</g>
	<g>
		<path class="st7" d="M493.8333435,666.2258301c0.5632629-12.5654907-2.2490234-21.2879028-5-27
			c-3.8753357-8.0467529-8.0033569-10.8971558-15.166687-24.833374c-5.0838013-9.8905029-5.7511292-13.7981567-5-17.5
			c1.1851501-5.8408203,4.8882446-6.1748657,9.666687-13.166626c5.0946045-7.4544067,2.9253845-10.0597534,9.6666565-31.333374
			c4.9485779-15.616272,6.9328613-16.7855835,7.833313-16.666626c0.7114258,0.0939941,1.128479,1.0426025,1.4791565,1.895813
			c3.453949,8.4030762,4.1716614,16.5621948,6.1875305,23.9375c0.8810425,3.2233887,1.3721924,5.0202026,2.5624695,7.4375
			c3.2286072,6.5563965,7.2790222,8.9004517,8.2708435,15.229187c0.1352539,0.8630981,0.2945557,1.9249878,0.166687,3.333313
			c-0.4553223,5.0143433-3.9251099,7.5244141-5.625,10.125c-3.7016602,5.663147,1.5355835,10.9208984,2.125,22.041687
			c0.4021606,7.5877075-1.7874756,13.3362427-6.166687,24.833313
			C502.6574707,650.2715454,499.2386475,657.869812,493.8333435,666.2258301z"/>
		<path class="st2" d="M494.25,663.0591431c4.3140259-6.2798462,6.0088501-11.8032837,6.75-15.75
			c2.4279785-12.9295044-3.2637939-20.2040405,2.125-27.75c1.5701294-2.1986694,3.9475098-4.2335205,6.125-9
			c1.5627441-3.4208984,1.1270142-4.0994873,2.375-7.125c2.3619385-5.7260132,5.4467163-6.9900513,10-12.875
			c4.2805786-5.5324097,3.2485962-6.6051025,6.5-11c6.7824707-9.1677856,19.4068604-15.494873,23.25-12.375
			c3.2174683,2.6119385,0.6183472,12.1200562-1.875,17.375c-2.1190796,4.4661865-3.2252808,3.8865356-3.75,6.625
			c-1.3460083,7.0244751,5.8901367,11.0601807,4.5,19c-0.267395,1.5273438-0.5617676,3.2086792-1.875,4.75
			c-4.675293,5.4873657-15.0686646,0.7544556-19.375,6.25c-0.5665894,0.7230835-0.885437,1.7835693-1.5,3.875
			c-3.2891846,11.1936035-0.6900024,14.8994751-3,20.25c-2.0513916,4.7515869-7.0759277,7.2927246-17.125,12.375
			C502.0588989,660.3727417,497.4217529,662.0474243,494.25,663.0591431z"/>
		<path class="st2" d="M490.75,667.3091431c1.0941162-2.1063843,2.4943848-5.286499,3.333313-9.333313
			c2.3079834-11.1331787-0.0821533-26.6560059-9.6666565-33.5c-4.475769-3.1960449-7.0597839-2.0282593-12.1666565-6.666687
			c-2.1061707-1.9129639-6.260498-5.6862183-7-11.25c-0.7188721-5.4085693,2.5385132-6.871582,1.1666565-10.583313
			c-1.5528564-4.2014771-6.0232849-3.1299438-11.1666565-8.916687c-2.3195496-2.6096802-1.2974243-2.7005615-5.3333435-8.25
			c-5.9096069-8.1257935-8.2558289-8.1436768-9.1666565-7.916687c-0.8660278,0.2158813-1.61026,0.946228-1.75,1.083374
			c-1.3769836,1.3513184-1.5263062,3.2073975-1.5833435,3.916626c-0.3701782,4.6021729,3.5006104,11.3082886,3.666687,17.416687
			c0.2478333,9.1150513-7.8520813,13.2770996-4.916687,21.416687c0.3197937,0.8867798,0.639801,1.4580688,1.0833435,2.25
			c4.7589722,8.496582,11.9998474,7.8445435,17.5,14.166626c4.0671387,4.6749878,0.7153625,5.7298584,5.5833435,13
			c1.75177,2.616272,6.4111023,9.5747681,14.6666565,12.666687c3.4533386,1.293335,5.1368713,1.0115967,8.4166565,3
			C487.0900574,662.0361328,489.3760071,665.0557861,490.75,667.3091431z"/>
		<path class="st8" d="M492.1666565,567.8924561c3.2739563,6.7576294,4.5470276,12.7324219,5.0833435,16.916687
			c0.5881348,4.5888062,0.9969482,7.7780151,0,11.75c-2.079895,8.2869873-7.4110718,8.5562744-8.5,15
			c-0.889801,5.2654419,2.2550659,7.539917,5.5,17c2.4188232,7.0516968,3.2091064,13.1862183,3.5,17.25"/>
		<path class="st9" d="M537,585.2258301c-1.0950317,4.5545654-3.1934814,11.3964233-7.5,18.833313
			c-4.328064,7.4740601-7.5245361,9.7438965-10.833313,16c-2.5424805,4.807251-5.3292847,12.3049316-5.333374,23.333313"/>
		<path class="st9" d="M478,641.7258301c-1.3844299-3.2311401-3.842865-8.0049438-8.1666565-12.666687
			c-6.4667358-6.972168-11.4095154-7.5518799-15.166687-12.666687c-2.7694397-3.7701416-5.1904297-10.4068604-2.333313-22.833313"/>
		<path class="st10" d="M516.3929443,711.5591431h-49.2858887c-2.7229919,0-4.9697266-2.1311035-5.1134644-4.8502808
			l-2.4586182-46.5087891c-0.1549072-2.9301758,2.1792297-5.3909302,5.1134644-5.3909302h54.203125
			c2.9342041,0,5.2683716,2.4607544,5.1134644,5.3909302l-2.4586182,46.5087891
			C521.3626709,709.4280396,519.1159058,711.5591431,516.3929443,711.5591431z"/>
	</g>
	<g>
		<g>
			<path class="st4" d="M357.5,268.0591431h-176c-13.7851563,0-25,11.2148438-25,25v355.5v37c0,13.7851563,11.2148438,25,25,25h176
				c13.7851563,0,25-11.2148438,25-25v-37v-355.5C382.5,279.2739868,371.2851563,268.0591431,357.5,268.0591431z"/>
			<path class="st11" d="M168.5,293.0591431c0-7.1679688,5.8320313-13,13-13h176
				c0.8959961,0,1.7711182,0.0911255,2.6165771,0.2645874C366.0348511,281.5380249,370.5,286.7871704,370.5,293.0591431v355.5
				c0,7.1679688-5.8320313,13-13,13h-176c-7.168457,0-13-5.8320313-13-13V293.0591431z"/>
		</g>
		<g>
			<path class="st2" d="M309.958313,639.3143311H136.7916565c-9.4808884,0-17.1666641-7.68573-17.1666641-17.166626v-359.166687
				c0-9.480896,7.6857758-17.1666718,17.1666641-17.1666718H309.958313c9.480896,0,17.166687,7.6857758,17.166687,17.1666718
				v359.166687C327.125,631.6286011,319.439209,639.3143311,309.958313,639.3143311z"/>
			<g>
				<path class="st4" d="M290.111969,534.3039551H156.6380157c-1.9401855,0-3.5130157-1.572876-3.5130157-3.5130615v-14.640625
					c0-1.9401855,1.5728302-3.5130005,3.5130157-3.5130005H290.111969c1.9401855,0,3.513031,1.5728149,3.513031,3.5130005v14.640625
					C293.625,532.7310791,292.0521545,534.3039551,290.111969,534.3039551z"/>
				<g>
					<path class="st11" d="M290.111969,493.8507996H156.6380157c-1.9401855,0-3.5130157-1.5728149-3.5130157-3.5130005v-14.640625
						c0-1.9401855,1.5728302-3.513031,3.5130157-3.513031H290.111969c1.9401855,0,3.513031,1.5728455,3.513031,3.513031v14.640625
						C293.625,492.2779846,292.0521545,493.8507996,290.111969,493.8507996z"/>
					<g>
						<circle class="st4" cx="193.875" cy="483.0174866" r="2.875"/>
						<circle class="st4" cx="205.6749878" cy="483.0174866" r="2.875"/>
						<circle class="st4" cx="217.4749908" cy="483.0174866" r="2.875"/>
						<circle class="st4" cx="229.2749939" cy="483.0174866" r="2.875"/>
						<circle class="st4" cx="241.0749969" cy="483.0174866" r="2.875"/>
						<circle class="st4" cx="252.875" cy="483.0174866" r="2.875"/>
					</g>
				</g>
				<g>
					<path class="st11" d="M290.111969,453.3976746H156.6380157c-1.9401855,0-3.5130157-1.5728149-3.5130157-3.5130005v-14.640625
						c0-1.9401855,1.5728302-3.513031,3.5130157-3.513031H290.111969c1.9401855,0,3.513031,1.5728455,3.513031,3.513031v14.640625
						C293.625,451.8248596,292.0521545,453.3976746,290.111969,453.3976746z"/>
					<g>
						<circle class="st4" cx="193.875" cy="442.5643616" r="2.875"/>
						<circle class="st4" cx="205.6749878" cy="442.5643616" r="2.875"/>
						<circle class="st4" cx="217.4749908" cy="442.5643616" r="2.875"/>
						<circle class="st4" cx="229.2749939" cy="442.5643616" r="2.875"/>
						<circle class="st4" cx="241.0749969" cy="442.5643616" r="2.875"/>
						<circle class="st4" cx="252.875" cy="442.5643616" r="2.875"/>
					</g>
				</g>
				<g>
					<path class="st11" d="M290.111969,412.9445496H156.6380157c-1.9401855,0-3.5130157-1.5728149-3.5130157-3.5130005v-14.640625
						c0-1.9401855,1.5728302-3.513031,3.5130157-3.513031H290.111969c1.9401855,0,3.513031,1.5728455,3.513031,3.513031v14.640625
						C293.625,411.3717346,292.0521545,412.9445496,290.111969,412.9445496z"/>
					<g>
						<circle class="st4" cx="193.875" cy="402.1112366" r="2.875"/>
						<circle class="st4" cx="205.6749878" cy="402.1112366" r="2.875"/>
						<circle class="st4" cx="217.4749908" cy="402.1112366" r="2.875"/>
						<circle class="st4" cx="229.2749939" cy="402.1112366" r="2.875"/>
						<circle class="st4" cx="241.0749969" cy="402.1112366" r="2.875"/>
						<circle class="st4" cx="252.875" cy="402.1112366" r="2.875"/>
					</g>
				</g>
				<g>
					<path class="st11" d="M290.111969,372.4914246H156.6380157c-1.9401855,0-3.5130157-1.5728149-3.5130157-3.5130005v-14.640625
						c0-1.9401855,1.5728302-3.513031,3.5130157-3.513031H290.111969c1.9401855,0,3.513031,1.5728455,3.513031,3.513031v14.640625
						C293.625,370.9186096,292.0521545,372.4914246,290.111969,372.4914246z"/>
					<g>
						<circle class="st4" cx="193.875" cy="361.6581116" r="2.875"/>
						<circle class="st4" cx="205.6749878" cy="361.6581116" r="2.875"/>
						<circle class="st4" cx="217.4749908" cy="361.6581116" r="2.875"/>
						<circle class="st4" cx="229.2749939" cy="361.6581116" r="2.875"/>
						<circle class="st4" cx="241.0749969" cy="361.6581116" r="2.875"/>
						<circle class="st4" cx="252.875" cy="361.6581116" r="2.875"/>
					</g>
				</g>
			</g>
		</g>
	</g>
	<g>
		<path id="XMLID_9_" class="st12" d="M42.1666603,503.1008301c-0.3611107,7.027771-0.7222252,14.055542-1.0833359,21.083313
			c-4.0684204-7.3544312-9.4153976-17.2680664-15.25-28.833313c-1.3657722-2.7072144-3.3290787-6.6890259-3.8958321-12.229187
			c-0.3542099-3.4624939-0.0651207-6.5776367,1.25-12.6875c1.1079178-5.1472168,2.8984261-12.2080383,5.875-20.5625
			c5.0416679,2.520813,10.0833321,5.041687,15.125,7.5625c-1.6536369,3.6252747-3.6674919,7.5643311-6.125,11.6875
			c-2.2518158,3.7780762-4.5420151,7.150177-6.75,10.125c1.778904,1.9840088,3.7378464,4.5290222,5.5208321,7.6875
			C40.3606148,493.1825867,41.6535759,499.0939331,42.1666603,503.1008301z"/>
		<path id="XMLID_1_" class="st12" d="M94.8749924,684.9341431c4.5-0.166687,9-0.333313,13.5-0.5
			c-0.375,4.208313-0.75,8.416687-1.125,12.625c-3.7916641,0.166687-7.5833359,0.333313-11.375,0.5
			C95.5416565,693.3508301,95.2083282,689.1424561,94.8749924,684.9341431z"/>
		<path id="XMLID_3_" class="st12" d="M51.1249924,684.0591431c4.2083359-0.25,8.4166641-0.5,12.625-0.75
			c0,4.458313,0,8.916687,0,13.375c-4.125,0.125-8.25,0.25-12.375,0.375
			C51.2916565,692.7258301,51.2083282,688.3924561,51.1249924,684.0591431z"/>
		<path id="XMLID_8_" class="st13" d="M94.2499924,708.875v-13.0151978c0-0.7220459,0.5785141-1.3109741,1.3004684-1.3238525
			l11.7568665-0.2099609c0.5674438-0.0101318,1.0709152,0.3361816,1.2928314,0.8585205
			c1.3212738,3.1098633,3.0378647,5.1345215,4.6498337,6.4996338c5.8286591,4.9359741,14.1158295,4.4885864,14.4375,7.4375
			c0.0684509,0.6275024-0.2501526,1.166748-0.4375,1.4375l-31.6909332-0.3601074
			C94.8336868,710.1907959,94.2499924,709.6004028,94.2499924,708.875z"/>
		<path id="XMLID_7_" class="st13" d="M50.3749924,708v-13.0151978c0-0.7220459,0.5785141-1.3109741,1.3004723-1.3238525
			l11.7568665-0.2099609c0.5674362-0.0101318,1.0709114,0.3361816,1.2928276,0.8585205
			c1.3212738,3.1098633,3.0378647,5.1345215,4.6498337,6.4996338c5.8286591,4.9359741,14.1158295,4.4885864,14.4375,7.4375
			c0.0684509,0.6275024-0.2501526,1.166748-0.4375,1.4375l-31.6909332-0.3601074
			C50.9586868,709.3157959,50.3749924,708.7254028,50.3749924,708z"/>
		<path id="XMLID_4_" class="st13" d="M91.8749924,688.5591431c-0.587326-14.5252686-1.2120438-29.1087646-1.875-43.75
			c-0.5984421-13.2164917-1.2236633-26.3832397-1.875-39.5c-2.249649-5.4534912-4.87043-11.7985229-7.125-17.25
			c-2.0070877-4.8530884-4.6138458-11.1486206-6.625-16c0.5866013,13.8014526,0.4044952,25.6889038,0,35.125
			c-0.1502686,3.5054932-0.6434097,13.9552612-4.125,45.875c-1.4645157,13.4268799-2.8480911,25.0626831-4,34.375
			c-5.8333359,0.166687-11.6666641,0.333313-17.5,0.5c-0.2091446-4.7471924-0.5640869-12.1573486-1.125-21.25
			c-1.1745148-19.0394897-1.9379654-24.1529541-1.875-33c0.0499802-7.0223999,0.6272964-17.3313599,3.25-30
			c-1.5288849-4.7650146-3.6620331-11.5088501-6.125-19.625c-9.3503036-30.8117065-10.2861443-38.0093994-8.875-45.875
			c0.8504524-4.7403564,2.9704666-12.0482788,9.125-20.375c8.1571121-0.3858032,16.4926605-0.6817627,25-0.875
			c9.6326599-0.218811,19.0527878-0.2960815,28.25-0.25c1.1571655,5.69104,3.0075989,14.3538818,5.625,24.875
			c3.4180527,13.7394409,4.8548889,17.4265137,8.125,30.75c3.6923981,15.0440063,5.5385895,22.565979,6.25,30.5
			c1.1260681,12.5586548-0.3811493,20.5147095-2,33.25c-1.5783539,12.416687-3.3623047,30.1591187-4,52.375
			C104.2083282,688.4758301,98.0416565,688.5174561,91.8749924,688.5591431z"/>
		<path id="XMLID_10_" class="st14" d="M40.8333244,456.8508301c14.8055534-13.666687,29.6111107-27.3333435,44.4166679-41
			c1.9395447,0.3867798,4.7702255,1.2523499,7.3333359,3.416626c3.3729935,2.848175,4.4734421,6.4177856,6,12.5
			c3.7639389,14.9965515,5.6038208,22.5707397,3.5416641,26.291687c-2.3846359,4.3027954-5.5774918,4.1719666-7.75,9.5
			c-1.8374939,4.5064087-1.2171173,8.6801758-0.875,11c1.3325272,9.0355835,3.3326721,23.0971069,6.1353149,40.7876587
			c0.1447144,0.9134521-0.5522003,1.7498169-1.4769669,1.7626343c-19.3231888,0.2670898-38.6463776,0.5342407-57.9695625,0.8013306
			c-0.9021797,0.0125122-1.6135254-0.7521973-1.5294075-1.6505127c0.9961815-10.6391602,1.7309837-21.9057312,2.0911484-33.7461548
			C41.0647354,476.1841736,41.0674858,466.2825928,40.8333244,456.8508301z"/>
		<path id="XMLID_6_" class="st12" d="M158.5,435.2466431c3.4177094-2.5125122,7.9756317-5.7531738,13.5-9.375
			c-0.1101532-1.9851074,0.1845551-3.5327148,0.4374847-4.5c0.0000458-0.0000916,1.5213013-5.8175659,8.5625153-9.6875
			c0.3253937-0.178833,0.8604431-0.4549866,1.125-0.25c0.9279327,0.7189941-2.908783,6.2434998-2,7
			c0.545105,0.4537659,2.6172638-0.9579773,3.9374847-2.1875c2.1885986-2.038208,2.2399139-3.5095825,4.4375153-4.9375
			c0.9307098-0.6047363,2.2171631-1.4406128,2.9374847-1c1.6344452,0.9997559,0.416214,8.609314-4.125,13.125
			c-1.1785126,1.1719055-3.3262634,2.8766785-5.75,4.3125c-1.743576,1.0328979-3.2115173,1.6787109-4.9374847,3.3125
			c-1.3842926,1.3103638-2.1654053,2.5282593-2.4375153,2.9375c-3.2937622,4.9541626-11.6593018,11.072876-22.6874847,22.3125
			c0,0-5.6251678,5.7330322-13.1875153,10.1875c-0.8045807,0.473938-2.4148102,1.3545227-4.5,1.3125
			c-1.6824188-0.033905-2.9393463-0.6536255-3.5-0.9375c-11.6510391-5.899292-17.8124161-10.437439-17.8124161-10.437439
			c-8.143364-5.9979858-12.2143326-8.9977417-13.8750763-10.437561c-0.6043472-0.5239563-2.3470154-2.0535278-5-3.5625
			c-2.2097244-1.2568359-4.1781693-2.0029297-5.5-2.4375l-2.25-22.875c13.1066666,6.0349731,21.045433,12.7692871,25.6875,17.5
			c2.6825409,2.7337646,6.3322449,6.9059753,8,8.8125c4.9203796,5.6248169,8.8640213,10.5021362,11.6713791,14.0818481
			c0.4006958,0.5109253,1.1573944,0.538208,1.5923309,0.0560608c0.4890594-0.5421448,1.0739136-1.181427,1.7362823-1.8879089
			C136.9248962,453.1644897,143.7273407,446.1067505,158.5,435.2466431z"/>
		<path id="XMLID_5_" class="st12" d="M89.6249924,411.0591431c-0.6878738-0.5419922-5.5543365-4.5076599-5.625-11
			c-0.0624695-5.7398071,3.6489182-11.1233826,9.375-13.5c1.0774078,1.7742004,2.8502808,5.2891846,2.75,9.875
			c-0.0077438,0.3542786-0.0553589,2.0266724-0.625,4.25C94.9501266,402.8303223,93.5563812,406.8850098,89.6249924,411.0591431z"/>
		<path id="XMLID_11_" class="st13" d="M47.7146683,392.4855957c4.2903671-3.4451599,4.8397141-8.6450195,6.257576-13.4221191
			c2.4048004-8.1023254,7.5086365-14.0104675,13.9700394-17.0669861c6.6229401-3.1329346,14.8695526-3.5516968,21.5387878-0.1941528
			c2.0614319,1.0378113,7.2783356,3.6641846,9.1022568,9.2151489c1.8152847,5.5246582-0.6398544,11.1783142-1.25,12.5833435
			c-1.3948975,3.2120972-2.6655884,3.7969055-3.9166718,7.666626c-0.8646622,2.6744995-1.0559616,4.8642578-1.25,7.25
			c-0.4951706,6.0883789,0.7763138,6.47052,0.0833359,10c-1.336113,6.8051453-5.0808182,8.0961304-4.8333359,13.25
			c0.1586151,3.3031616,1.711113,3.071228,3.3333359,8.291687c0.6349869,2.043457,2.4655151,8.1890259,0.625,14.75
			c-1.1966934,4.2659302-3.4217072,6.8408508-6.5453033,10.4556885c-1.513504,1.7515564-6.8792267,4.2982178-15.4023972,11.9597473
			c-4.4675064,4.0158691-9.9138947,3.8853149-15.5783081-0.0919189c-8.4236946-5.9146423-8.8273964-6.0617981-13.2788506-6.9024353
			c-3.216217-0.6073608-5.1228218-0.1218872-8.2368088-1.7127686c-2.3065338-1.1783447-3.8696175-2.7776184-4.8290253-3.9433899
			c-4.589592-7.0544128-4.4697838-10.9442444-3.3376389-13.2232361c1.2710686-2.5586548,3.5482101-2.543457,6.5-6.166687
			c2.6001091-3.1915283,3.4747314-6.4456482,4.2709541-9.5362854c1.9982071-7.7562866-0.6007843-9.3813477,1.0376587-15.0404053
			C37.9430847,403.810791,41.9769821,397.8356628,47.7146683,392.4855957z"/>
	</g>
	<g>
		<g>
			<path class="st12" d="M441.4281921,640.6424561c-2.5057373-9.8276367-7.7861328-18.9811401-8.5004272-20.1934204
				c-3.3016357,1.40979-6.8236084,3.15625-10.4579468,5.3601074c-2.9372559,1.781189-5.553772,3.6185913-7.8691406,5.4160767
				c3.376709,6.6300049,3.93927,7.4597778,3.7441406,9.2505493c-0.399353,3.6655273-3.3513184,5.7220459-7.666626,9.416687
				c-3.6708984,3.1428833-8.628418,7.7282104-14.166687,14c2.416626,4.083313,4.833313,8.166687,7.25,12.25
				c5.9673462-4.5828857,10.9528198-8.0529785,14.333313-10.333313c0,0,17.6793823-11.9256592,22.75-20.583374
				c0.4730835-0.8076172,0.666626-1.6665649,0.666687-1.666626
				C441.5115051,643.5591431,441.8213196,642.1845093,441.4281921,640.6424561z"/>
			<path class="st15" d="M432.8448181,620.3091431c-6.2138062-10.3133545-5.3033447-10.331543-13.625-24
				c-4.465271-7.3343506-5.6092529-8.7775879-7.375-10.375c-5.5701904-5.0392456-12.050293-6.7949219-17.625-8.375
				c-5.4990234-1.5586548-10.0957642-1.9714355-13.375-2.25c-3.0144043-0.2561035-5.7869873-0.3268433-8.2753296-0.2941895
				c-2.4883423-0.0326538-5.2609253,0.0380859-8.2753296,0.2941895c-3.2792358,0.2785645-7.8759766,0.6913452-13.375,2.25
				c-5.574707,1.5800781-12.0548096,3.3357544-17.625,8.375c-1.7657471,1.5974121-2.909729,3.0406494-7.375,10.375
				c-8.3216553,13.668457-7.4111938,13.6866455-13.625,24c0,0-0.0302124,0.050415-0.0829468,0.1398926
				c3.3016357,1.40979,6.8236084,3.15625,10.4579468,5.3601074c2.9372559,1.781189,5.553772,3.6185913,7.8691406,5.4160767
				c0.112793-0.2214966,0.2199707-0.4313354,0.3391724-0.6660767c3.8269043-7.5369263,6.4460449-12.6175537,7.5-12.25
				c0.4574585,0.1595459,0.4260254,1.3446045,0.416687,1.75c-0.192749,8.3400269-0.616333,18.0912476,0.1055908,23.2495728
				c0.7384644,5.2766113,3.2474976,9.3083496,4.6444092,11.1254272c6.8319702,8.8869629,20.9089966,8.8347778,29.0253296,7.9378052
				c8.116333,0.8969727,22.1933594,0.9491577,29.0253296-7.9378052c1.3969116-1.8170776,3.9059448-5.8488159,4.6444092-11.1254272
				c0.7219238-5.1583252,0.2983398-14.9095459,0.1055908-23.2495728c-0.0093384-0.4053955-0.0407715-1.5904541,0.416687-1.75
				c1.0539551-0.3675537,3.6730957,4.7130737,7.5,12.25c0.1192017,0.2347412,0.2263794,0.4445801,0.3391724,0.6660767
				c2.3153687-1.7974854,4.9318848-3.6348877,7.8691406-5.4160767c3.6343384-2.2038574,7.156311-3.9503174,10.4579468-5.3601074
				C432.8750305,620.3595581,432.8448181,620.3091431,432.8448181,620.3091431z"/>
			<path class="st12" d="M303.7108154,640.6424561c2.5057373-9.8276367,7.7861328-18.9811401,8.5004272-20.1934204
				c3.3016357,1.40979,6.8236084,3.15625,10.4579468,5.3601074c2.9372559,1.781189,5.553772,3.6185913,7.8691406,5.4160767
				c-3.376709,6.6300049-3.93927,7.4597778-3.7441406,9.2505493c0.399353,3.6655273,3.3513184,5.7220459,7.666626,9.416687
				c3.6708984,3.1428833,8.628418,7.7282104,14.166687,14c-2.416626,4.083313-4.833313,8.166687-7.25,12.25
				c-5.9673462-4.5828857-10.9528198-8.0529785-14.333313-10.333313c0,0-17.6793823-11.9256592-22.75-20.583374
				c-0.4730835-0.8076172-0.666626-1.6665649-0.666687-1.666626
				C303.6275024,643.5591431,303.317688,642.1845093,303.7108154,640.6424561z"/>
		</g>
		<g>
			<path class="st16" d="M406.819519,690.5174561h-68.5c-2.6924133,0-4.875-2.1826172-4.875-4.875v-41.083313
				c0-2.6923828,2.1825867-4.875,4.875-4.875h68.5c2.6923828,0,4.875,2.1826172,4.875,4.875v41.083313
				C411.694519,688.3348389,409.5119019,690.5174561,406.819519,690.5174561z"/>
			<circle class="st11" cx="372.569519" cy="665.1008301" r="6"/>
		</g>
		<g>
			<g>
				<g>
					<path class="st17" d="M412.5812073,700.8091431c0,4.0008545,0,8.001709,0,12.0026245
						c-2.3586731-0.1587524-5.7211914-0.4019165-9.75-0.7526245c-6.3607483-0.5536499-24.0057983-2.2142944-40.75-5.25
						c-15.9404907-2.8900146-53.0488586-9.6177368-59.25-24.5c-0.5620728-1.348938-2.2201233-5.328064-1-9.75
						c1.508728-5.4678955,6.5299988-8.3934937,8-9.25c11.3846436-6.6331787,32.3132019,5.1005249,61.5,19
						C380.3633423,686.6104736,394.5565491,693.2004395,412.5812073,700.8091431z"/>
					<g>
						<path class="st13" d="M412.5812073,700.8091431c0,4.0008545,0,8.001709,0,12.0026245
							c1.2953186,0.5018921,3.2033386,1.1415405,5.5833435,1.5806885c2.5219727,0.4653931,4.1564026,0.7670288,6.1666565,0.333374
							c0.9521484-0.2054443,4.447113-0.9593506,5.8333435-3.666687c1.6888733-3.2984009-0.5722961-7.8947144-3.3333435-10.166687
							C423.2365723,697.9346313,417.5237732,697.8708496,412.5812073,700.8091431z"/>
					</g>
					<g>
						<path class="st12" d="M405.9978943,698.0033569c2.1327515,0.9176636,4.3280029,1.8537598,6.583313,2.8057861
							c0,4.0008545,0,8.001709,0,12.0025635c-1.7085571-0.1149292-3.949646-0.2750244-6.583313-0.4873657V698.0033569z"/>
					</g>
				</g>
			</g>
			<g>
				<g>
					<path class="st18" d="M332.5578003,700.8091431c0,4.0008545,0,8.001709,0,12.0026245
						c2.3586731-0.1587524,5.7211914-0.4019165,9.75-0.7526245c6.3607483-0.5536499,24.0057983-2.2142944,40.75-5.25
						c15.9404907-2.8900146,53.0488586-9.6177368,59.25-24.5c0.5620728-1.348938,2.2201233-5.328064,1-9.75
						c-1.508728-5.4678955-6.5299988-8.3934937-8-9.25c-11.3846436-6.6331787-32.3132019,5.1005249-61.5,19
						C364.7756653,686.6104736,350.5824585,693.2004395,332.5578003,700.8091431z"/>
					<g>
						<path class="st13" d="M332.5578003,700.8091431c0,4.0008545,0,8.001709,0,12.0026245
							c-1.2953186,0.5018921-3.2033386,1.1415405-5.5833435,1.5806885c-2.5219727,0.4653931-4.1564026,0.7669678-6.1666565,0.333374
							c-0.9521484-0.2054443-4.447113-0.9593506-5.8333435-3.666687c-1.6888733-3.2984009,0.5722961-7.8947144,3.3333435-10.166687
							C321.9024353,697.9346313,327.6152344,697.8708496,332.5578003,700.8091431z"/>
					</g>
					<g>
						<path class="st12" d="M339.1411133,698.0033569c-2.1327515,0.9176636-4.3280029,1.8537598-6.583313,2.8057861
							c0,4.0008545,0,8.001709,0,12.0025635c1.7085571-0.1149292,3.949646-0.2750244,6.583313-0.4873657V698.0033569z"/>
					</g>
				</g>
			</g>
		</g>
		<g>
			<path class="st19" d="M363.9653625,560.8091431v13.479187c0,4.7519531,3.8521729,8.604126,8.604126,8.604126
				s8.604187-3.8521729,8.604187-8.604126v-13.479187H363.9653625z"/>
			<path class="st12" d="M394.0486755,552.3091431c-0.5480347-2.0230103-3.1435547-2.8865967-3.5-3
				c0.5823364-1.7879028,1.3443604-5.0139771,0.625-8.875c-1.4439087-7.7497559-7.6838379-11.7645264-8.875-12.5h-9.729126
				h-9.729187c-1.1911621,0.7354736-7.4310913,4.7502441-8.875,12.5c-0.7193604,3.8610229,0.0426636,7.0870972,0.625,8.875
				c-0.3564453,0.1134033-2.9519653,0.9769897-3.5,3c-0.6251831,2.3075562,1.5353394,5.6745605,5.75,6.625
				c0.0470581,1.2161255,0.3026733,3.1481934,1.5,5c0.6396484,0.9892578,1.7306519,2.2380371,6.5,4.625
				c0.3796082,0.1900024,0.7896423,0.3907471,1.2292786,0.5997925c4.1090698,1.9535522,8.8906555,1.9535522,12.9997253,0
				c0.4396362-0.2090454,0.8496704-0.40979,1.2293091-0.5997925c4.7693481-2.3869629,5.8603516-3.6357422,6.5-4.625
				c1.1973267-1.8518066,1.4529419-3.7838745,1.5-5C392.5133362,557.9837036,394.6738586,554.6166992,394.0486755,552.3091431z"/>
			<path class="st13" d="M375.7966003,531.8171387l0.0020752-0.0079956c0.1050415,0.1945801,0.84729,1.5166016,2.416687,1.833313
				c1.324646,0.267395,2.7197876-0.2861328,3.583313-1.416626c0.0264893,0.8441162,0.513916,1.5926514,1.25,1.916626
				c0.8921509,0.3926392,1.7236328-0.0257568,1.833374-0.083313c-0.6300659,1.104187-0.5196533,2.4492798,0.25,3.333313
				c0.904541,1.0390625,2.2749634,0.9302979,2.416626,0.916687c-0.1558228,0.3938599-0.9264526,2.4575195,0.083374,4.666687
				c0.6902466,1.5100098,1.8493652,2.2938232,2.333313,2.583313c-1.0333252,0.5784302-1.6225586,1.670166-1.5,2.75
				c0.1934814,1.704895,2.0380859,2.2945557,2.166687,2.333313c1.6831665,0.5073853,4.0438232-0.4330444,4.333313-2.25
				c0.1930542-1.2119751-0.5774536-2.550354-1.916687-3.25c1.6166382-0.9675293,2.5293579-2.7929688,2.333374-4.666626
				c-0.1960449-1.8742676-1.4674683-3.4716797-3.25-4.083374c1.0217896-0.6403198,1.4369507-1.9186401,1-3
				c-0.4074707-1.0083618-1.4702148-1.6330566-2.583374-1.5c1.3076172-1.7752686,1.2230835-4.2107544-0.166626-5.833313
				c-1.2880859-1.5038452-3.447876-2.0182495-5.333374-1.25c0.3118896-2.425415-0.9526367-4.7093506-3-5.583313
				c-2.4553223-1.0481567-4.760498,0.4762573-4.916626,0.583313c-0.3195801-0.9345703-1.1915894-1.5699463-2.166687-1.583313
				c-0.6275635-0.008606-1.6643677,0.2457886-2.395813,0.6741333c-0.7314453-0.4283447-1.7682495-0.6827393-2.395813-0.6741333
				c-0.9750977,0.0133667-1.8471069,0.6487427-2.166687,1.583313c-0.1561279-0.1070557-2.4613037-1.6314697-4.916687-0.583313
				c-2.0473633,0.8739624-3.3118896,3.1578979-3,5.583313c-1.885498-0.7682495-4.0452881-0.2538452-5.333313,1.25
				c-1.3897095,1.6225586-1.4743042,4.0580444-0.166687,5.833313c-1.1130981-0.1330566-2.1758423,0.4916382-2.583313,1.5
				c-0.4370117,1.0813599-0.0218506,2.3596802,0.999939,3c-1.7825317,0.6116943-3.0539551,2.2091064-3.25,4.083374
				c-0.1959839,1.8736572,0.7167358,3.6990967,2.333374,4.666626c-1.3392334,0.699646-2.1097412,2.0380249-1.916687,3.25
				c0.2894897,1.8169556,2.6501465,2.7573853,4.333313,2.25c0.1286011-0.0387573,1.9732056-0.628418,2.166687-2.333313
				c0.1225586-1.079834-0.4666748-2.1715698-1.5-2.75c0.4839478-0.2894897,1.6430664-1.0733032,2.333313-2.583313
				c1.0098267-2.2091675,0.2391968-4.2728271,0.083374-4.666687c0.1416626,0.0136108,1.512085,0.1223755,2.416626-0.916687
				c0.7696533-0.8840332,0.8800659-2.229126,0.25-3.333313c0.1097412,0.0575562,0.9412231,0.4759521,1.833374,0.083313
				c0.736084-0.3239746,1.2235718-1.0725098,1.25-1.916626c0.8635254,1.1304932,2.258667,1.684021,3.583313,1.416626
				c1.569458-0.3167114,2.3116455-1.6387329,2.416687-1.833313c0.0007019,0.0027466,0.0014343,0.0055542,0.0021667,0.0084229
				c0.3455505,1.3272095,1.5637817,2.2415771,2.9352722,2.2415771h0.5834045
				C374.2328796,534.0591431,375.4515076,533.1446533,375.7966003,531.8171387z"/>
		</g>
	</g>
</g>
</svg>
