<?xml version="1.0" encoding="utf-8"?>
<!-- Generator: Adobe Illustrator 19.0.0, SVG Export Plug-In . SVG Version: 6.00 Build 0)  -->
<svg version="1.1" id="Layer_1" xmlns="http://www.w3.org/2000/svg" xmlns:xlink="http://www.w3.org/1999/xlink" x="0px" y="0px"
	 width="970.3648682px" height="551.3279419px" viewBox="0 0 970.3648682 551.3279419"
	 style="enable-background:new 0 0 970.3648682 551.3279419;" xml:space="preserve">
<style type="text/css">
	.st0{opacity:0.3;}
	.st1{fill:#CBDCEE;}
	.st2{fill:#A3C5E8;}
	.st3{fill:#A4C4E7;}
	.st4{fill:#FAFCF9;}
	.st5{fill:#F69590;}
	.st6{fill:#9FD09F;}
	.st7{fill:#6890C7;}
	.st8{fill:#769ED3;}
	.st9{fill:#98BCE4;}
	.st10{fill:#9DD198;}
	.st11{fill:#73B86D;}
	.st12{fill:#F39792;}
	.st13{fill:#F6F8F1;}
	.st14{fill:#73A1D5;}
	.st15{fill:#EF9A57;}
	.st16{fill:#E28440;}
	.st17{fill:#95CDDF;}
	.st18{fill:#A3DDEF;}
	.st19{fill:#799ED2;}
	.st20{fill:#8E7B78;}
	.st21{fill:#2C5A9A;}
	.st22{fill:#2D59A0;}
</style>
<g id="XMLID_1_">
	<g id="XMLID_13_" class="st0">
		<g id="XMLID_164_">
			<path id="XMLID_11_" class="st1" d="M951.8494263,383.6726685c-72.1630859-136.4877167-108.9997559-205.6569672-146-250.9999847
				c-57.9360352-70.9993896-87.9349365-89.6014404-103-98c-12.6745605-7.0659161-54.2910156-29.7424316-108-34
				c-127.3771973-10.0974121-152.144104,96.9296265-269,90c-61.7507935-3.6618652-94.4669189-35.8987465-182-27.0000038
				c-27.0718307,2.75214-46.2383957,8.1022987-63.9999924,20.0000038c-36.5316162,24.4710083-59.8342285,71.760437-58,116
				c2.7867432,67.2117767,61.2353516,70.4962006,80,152.9999847c12.7730103,56.1598511-10.2020874,72.6945801,8,126
				c8.0516357,23.5793457,20.1716843,42.6665039,32.3792038,57.6552734h767.9163208
				c6.3439941-3.9464722,12.6263428-8.454895,18.7044678-13.6552734c10.1237793-8.6618042,33.7765503-29.4544678,40-62
				C975.0213623,428.3964844,960.9351196,400.8571167,951.8494263,383.6726685z"/>
		</g>
	</g>
	<g id="XMLID_159_">
		<g id="XMLID_32_">
			<g id="XMLID_109_">
				<g id="XMLID_5_">
					<path id="XMLID_176_" class="st2" d="M596.3494263,86.6726837h-75c-2.2089844,0-4-1.7910156-4-4s1.7910156-4,4-4h75
						c2.2089844,0,4,1.7910156,4,4S598.5584106,86.6726837,596.3494263,86.6726837z"/>
				</g>
				<g id="XMLID_6_">
					<path id="XMLID_174_" class="st2" d="M641.3494263,98.6726837h-120c-2.2089844,0-4-1.7910156-4-4s1.7910156-4,4-4h120
						c2.2089844,0,4,1.7910156,4,4S643.5584106,98.6726837,641.3494263,98.6726837z"/>
				</g>
			</g>
			<g id="XMLID_99_">
				<g id="XMLID_9_">
					<path id="XMLID_173_" class="st2" d="M777.3494263,352.7839966h-70.5087891c-2.2089844,0-4-1.7910156-4-4s1.7910156-4,4-4
						h70.5087891c2.2089844,0,4,1.7910156,4,4S779.5584106,352.7839966,777.3494263,352.7839966z"/>
				</g>
				<g id="XMLID_7_">
					<path id="XMLID_172_" class="st2" d="M777.3494263,366.2839966h-70.5087891c-2.2089844,0-4-1.7910156-4-4s1.7910156-4,4-4
						h70.5087891c2.2089844,0,4,1.7910156,4,4S779.5584106,366.2839966,777.3494263,366.2839966z"/>
				</g>
				<g id="XMLID_10_">
					<path id="XMLID_170_" class="st2" d="M777.3494263,379.7839966h-70.5087891c-2.2089844,0-4-1.7910156-4-4s1.7910156-4,4-4
						h70.5087891c2.2089844,0,4,1.7910156,4,4S779.5584106,379.7839966,777.3494263,379.7839966z"/>
				</g>
			</g>
			<g id="XMLID_94_">
				<g id="XMLID_19_">
					<path id="XMLID_119_" class="st3" d="M808.3077393,255.4851837h-175.916626c-3.2446899,0-5.875-2.6303253-5.875-5.875
						V149.881012c0-3.2446747,2.6303101-5.875,5.875-5.875h175.916626c3.2446899,0,5.875,2.6303253,5.875,5.875v99.7291718
						C814.1827393,252.8548584,811.5524292,255.4851837,808.3077393,255.4851837z"/>
					<path id="XMLID_165_" class="st4" d="M808.3074341,255.9851837H632.3914185c-3.515625,0-6.375-2.8598633-6.375-6.375
						v-99.7290039c0-3.5151367,2.859375-6.375,6.375-6.375h175.9160156c3.515625,0,6.375,2.8598633,6.375,6.375v99.7290039
						C814.6824341,253.1253204,811.8230591,255.9851837,808.3074341,255.9851837z M632.3914185,144.5061798
						c-2.9638672,0-5.375,2.4111328-5.375,5.375v99.7290039c0,2.9638672,2.4111328,5.375,5.375,5.375h175.9160156
						c2.9638672,0,5.375-2.4111328,5.375-5.375v-99.7290039c0-2.9638672-2.4111328-5.375-5.375-5.375H632.3914185z"/>
				</g>
				<g id="XMLID_30_">
					<path class="st4" d="M804.8494263,250.6726837h-169c-1.8409424,0-3.333313-1.4923859-3.333313-3.3333435v-82.6666565
						c0-1.8409576,1.4923706-3.3333435,3.333313-3.3333435h169c1.8409424,0,3.333313,1.4923859,3.333313,3.3333435v82.6666565
						C808.1827393,249.1802979,806.6903687,250.6726837,804.8494263,250.6726837z"/>
				</g>
				<g id="XMLID_29_">
					<circle class="st4" cx="637.9153442" cy="152.9886017" r="3.815918"/>
				</g>
				<g id="XMLID_33_">
					<circle class="st4" cx="650.4153442" cy="152.9886017" r="3.815918"/>
				</g>
				<g id="XMLID_40_">
					<circle class="st4" cx="662.9153442" cy="152.9886017" r="3.815918"/>
				</g>
				<g id="XMLID_51_">
					<g id="XMLID_31_">
						<rect id="XMLID_151_" x="639.5994263" y="182.0227814" class="st3" width="161.5" height="1"/>
					</g>
					<g id="XMLID_50_">
						<rect id="XMLID_149_" x="639.5994263" y="166.1726837" class="st3" width="161.5" height="1"/>
					</g>
					<g id="XMLID_46_">
						<rect id="XMLID_148_" x="639.5994263" y="197.872879" class="st3" width="161.5" height="1"/>
					</g>
					<g id="XMLID_47_">
						<rect id="XMLID_147_" x="639.5994263" y="213.7224884" class="st3" width="161.5" height="1"/>
					</g>
					<g id="XMLID_48_">
						<rect id="XMLID_146_" x="639.5994263" y="229.5725861" class="st3" width="161.5" height="1"/>
					</g>
					<g id="XMLID_49_">
						<rect id="XMLID_137_" x="639.5994263" y="245.4226837" class="st3" width="161.5" height="1"/>
					</g>
					<g id="XMLID_45_">
						<rect id="XMLID_145_" x="731.3855591" y="166.6726837" class="st3" width="1" height="79.25"/>
					</g>
					<g id="XMLID_54_">
						<rect id="XMLID_144_" x="708.3132935" y="166.6726837" class="st3" width="1" height="79.25"/>
					</g>
					<g id="XMLID_41_">
						<rect id="XMLID_143_" x="685.2420044" y="166.6726837" class="st3" width="1" height="79.25"/>
					</g>
					<g id="XMLID_62_">
						<rect id="XMLID_142_" x="662.1707153" y="166.6726837" class="st3" width="1" height="79.25"/>
					</g>
					<g id="XMLID_75_">
						<rect id="XMLID_141_" x="639.0994263" y="166.6726837" class="st3" width="1" height="79.25"/>
					</g>
					<g id="XMLID_78_">
						<rect id="XMLID_140_" x="754.4568481" y="166.6726837" class="st3" width="1" height="79.25"/>
					</g>
					<g id="XMLID_81_">
						<rect id="XMLID_139_" x="777.5281372" y="166.6726837" class="st3" width="1" height="79.25"/>
					</g>
					<g id="XMLID_84_">
						<rect id="XMLID_138_" x="800.5994263" y="166.6726837" class="st3" width="1" height="79.25"/>
					</g>
				</g>
				<g id="XMLID_52_">
					<path id="XMLID_136_" class="st3" d="M653.8494263,205.4226837h-10.125c-0.5527344,0-1-0.4477539-1-1s0.4472656-1,1-1h10.125
						c0.5527344,0,1,0.4477539,1,1S654.4021606,205.4226837,653.8494263,205.4226837z"/>
				</g>
				<g id="XMLID_55_">
					<path id="XMLID_135_" class="st3" d="M653.8494263,210.4226837h-10.125c-0.5527344,0-1-0.4477539-1-1s0.4472656-1,1-1h10.125
						c0.5527344,0,1,0.4477539,1,1S654.4021606,210.4226837,653.8494263,210.4226837z"/>
				</g>
				<g id="XMLID_56_">
					<path id="XMLID_134_" class="st3" d="M727.8494263,187.8391876h-10.125c-0.5527344,0-1-0.4477539-1-1s0.4472656-1,1-1h10.125
						c0.5527344,0,1,0.4477539,1,1S728.4021606,187.8391876,727.8494263,187.8391876z"/>
				</g>
				<g id="XMLID_44_">
					<path id="XMLID_133_" class="st3" d="M727.8494263,192.8391876h-10.125c-0.5527344,0-1-0.4477539-1-1s0.4472656-1,1-1h10.125
						c0.5527344,0,1,0.4477539,1,1S728.4021606,192.8391876,727.8494263,192.8391876z"/>
				</g>
				<g id="XMLID_59_">
					<path id="XMLID_132_" class="st3" d="M750.8494263,187.8391876h-10.125c-0.5527344,0-1-0.4477539-1-1s0.4472656-1,1-1h10.125
						c0.5527344,0,1,0.4477539,1,1S751.4021606,187.8391876,750.8494263,187.8391876z"/>
				</g>
				<g id="XMLID_57_">
					<path id="XMLID_120_" class="st3" d="M750.8494263,192.8391876h-10.125c-0.5527344,0-1-0.4477539-1-1s0.4472656-1,1-1h10.125
						c0.5527344,0,1,0.4477539,1,1S751.4021606,192.8391876,750.8494263,192.8391876z"/>
				</g>
				<g id="XMLID_70_">
					<path id="XMLID_131_" class="st5" d="M797.5164185,171.3391876h-10.125c-0.5527344,0-1-0.4477539-1-1s0.4472656-1,1-1h10.125
						c0.5527344,0,1,0.4477539,1,1S798.0691528,171.3391876,797.5164185,171.3391876z"/>
				</g>
				<g id="XMLID_68_">
					<path id="XMLID_129_" class="st5" d="M797.5164185,176.3391876h-10.125c-0.5527344,0-1-0.4477539-1-1s0.4472656-1,1-1h10.125
						c0.5527344,0,1,0.4477539,1,1S798.0691528,176.3391876,797.5164185,176.3391876z"/>
				</g>
				<g id="XMLID_92_">
					<path id="XMLID_128_" class="st5" d="M797.5164185,203.3391876h-10.125c-0.5527344,0-1-0.4477539-1-1s0.4472656-1,1-1h10.125
						c0.5527344,0,1,0.4477539,1,1S798.0691528,203.3391876,797.5164185,203.3391876z"/>
				</g>
				<g id="XMLID_91_">
					<path id="XMLID_122_" class="st5" d="M797.5164185,208.3391876h-10.125c-0.5527344,0-1-0.4477539-1-1s0.4472656-1,1-1h10.125
						c0.5527344,0,1,0.4477539,1,1S798.0691528,208.3391876,797.5164185,208.3391876z"/>
				</g>
				<g id="XMLID_53_">
					<path id="XMLID_111_" class="st4" d="M680.0161133,194.756012h-12.083374c-1.0125122,0-1.833313-0.820816-1.833313-1.8333282
						v-5.1666718c0-1.0125122,0.8208008-1.8333282,1.833313-1.8333282h12.083374c1.0125122,0,1.833313,0.820816,1.833313,1.8333282
						v5.1666718C681.8494263,193.9351959,681.0286255,194.756012,680.0161133,194.756012z"/>
					<path id="XMLID_112_" class="st3" d="M680.0164185,195.2561798h-12.0839844
						c-1.2861328,0-2.3330078-1.046875-2.3330078-2.3334961v-5.1665039c0-1.2866211,1.046875-2.3334961,2.3330078-2.3334961
						h12.0839844c1.2861328,0,2.3330078,1.046875,2.3330078,2.3334961v5.1665039
						C682.3494263,194.2093048,681.3025513,195.2561798,680.0164185,195.2561798z M667.9324341,186.4226837
						c-0.7353516,0-1.3330078,0.5981445-1.3330078,1.3334961v5.1665039c0,0.7353516,0.5976563,1.3334961,1.3330078,1.3334961
						h12.0839844c0.7353516,0,1.3330078-0.5981445,1.3330078-1.3334961v-5.1665039
						c0-0.7353516-0.5976563-1.3334961-1.3330078-1.3334961H667.9324341z"/>
				</g>
				<g id="XMLID_60_">
					<path id="XMLID_106_" class="st4" d="M772.6827393,242.3186035h-12.083313c-1.0125122,0-1.833313-0.820816-1.833313-1.8333435
						v-5.1666565c0-1.0125275,0.8208008-1.8333435,1.833313-1.8333435h12.083313c1.0125732,0,1.833374,0.820816,1.833374,1.8333435
						v5.1666565C774.5161133,241.4977875,773.6953125,242.3186035,772.6827393,242.3186035z"/>
					<path id="XMLID_107_" class="st3" d="M772.6824341,242.8186798h-12.0830078
						c-1.2861328,0-2.3330078-1.046875-2.3330078-2.3334961v-5.1665039c0-1.2866211,1.046875-2.3334961,2.3330078-2.3334961
						h12.0830078c1.2871094,0,2.3339844,1.046875,2.3339844,2.3334961v5.1665039
						C775.0164185,241.7718048,773.9695435,242.8186798,772.6824341,242.8186798z M760.5994263,233.9851837
						c-0.7353516,0-1.3330078,0.5981445-1.3330078,1.3334961v5.1665039c0,0.7353516,0.5976563,1.3334961,1.3330078,1.3334961
						h12.0830078c0.7353516,0,1.3339844-0.5981445,1.3339844-1.3334961v-5.1665039
						c0-0.7353516-0.5986328-1.3334961-1.3339844-1.3334961H760.5994263z"/>
				</g>
				<g id="XMLID_93_">
					<path id="XMLID_105_" class="st6" d="M749.6060181,180.1178436h-12.8152466
						c-1.4777832,0-2.6757202-1.1979523-2.6757202-2.675705v-5.3514099c0-1.4777527,1.197937-2.675705,2.6757202-2.675705
						h12.8152466c1.4777832,0,2.6757202,1.1979523,2.6757202,2.675705v5.3514099
						C752.2817383,178.9198914,751.0838013,180.1178436,749.6060181,180.1178436z"/>
				</g>
				<g id="XMLID_42_">
					<circle id="XMLID_100_" class="st3" cx="742.7244263" cy="222.2976837" r="4.125"/>
					<path id="XMLID_102_" class="st4" d="M742.7244263,226.9226837c-2.5498047,0-4.625-2.074707-4.625-4.625
						s2.0751953-4.625,4.625-4.625s4.625,2.074707,4.625,4.625S745.274231,226.9226837,742.7244263,226.9226837z
						 M742.7244263,218.6726837c-1.9990234,0-3.625,1.6259766-3.625,3.625s1.6259766,3.625,3.625,3.625s3.625-1.6259766,3.625-3.625
						S744.7234497,218.6726837,742.7244263,218.6726837z"/>
				</g>
				<g id="XMLID_61_">
					<path id="XMLID_101_" class="st4" d="M741.8533325,178.0720978L741.8533325,178.0720978
						c-0.265625,0-0.5195313-0.1054688-0.7070313-0.2929688l-1.9208984-1.9213867
						c-0.390625-0.390625-0.390625-1.0239258,0-1.4140625c0.390625-0.390625,1.0234375-0.390625,1.4140625,0l1.2138672,1.2143555
						l3.9042969-3.9042969c0.390625-0.390625,1.0234375-0.390625,1.4140625,0s0.390625,1.0234375,0,1.4140625l-4.6113281,4.6113281
						C742.3728638,177.966629,742.1189575,178.0720978,741.8533325,178.0720978z"/>
				</g>
				<g id="XMLID_96_">
					<path id="XMLID_97_" class="st6" d="M680.5903931,227.4824219h-12.8152466
						c-1.4777832,0-2.6757202-1.1979523-2.6757202-2.675705v-5.3514099c0-1.4777527,1.197937-2.675705,2.6757202-2.675705
						h12.8152466c1.4777832,0,2.6757202,1.1979523,2.6757202,2.675705v5.3514099
						C683.2661133,226.2844696,682.0681763,227.4824219,680.5903931,227.4824219z"/>
				</g>
				<g id="XMLID_95_">
					<path id="XMLID_98_" class="st4" d="M672.8377075,225.4363556c-0.2558594,0-0.5117188-0.0976563-0.7070313-0.2929688
						l-1.9208984-1.9208984c-0.390625-0.390625-0.390625-1.0234375,0-1.4140625s1.0234375-0.390625,1.4140625,0l1.2138672,1.2138672
						l3.9042969-3.9038086c0.390625-0.390625,1.0234375-0.390625,1.4140625,0s0.390625,1.0234375,0,1.4140625l-4.6113281,4.6108398
						C673.3494263,225.3386993,673.0935669,225.4363556,672.8377075,225.4363556z"/>
				</g>
			</g>
			<g id="XMLID_4_">
				<g id="XMLID_36_">
					<g id="XMLID_37_">
						<path id="XMLID_14_" class="st3" d="M707.2307129,239.48526H606.0646973c-2.7617188,0-5,2.2387695-5,5v51.8334961
							c0,2.7617188,2.2382813,5,5,5h101.1660156c2.7617188,0,5-2.2382813,5-5V244.48526
							C712.2307129,241.7240295,709.9924316,239.48526,707.2307129,239.48526z M709.7307129,296.3187561
							c0,1.3808594-1.1191406,2.5-2.5,2.5H606.0646973c-1.3808594,0-2.5-1.1191406-2.5-2.5V244.48526
							c0-1.3808594,1.1191406-2.5,2.5-2.5h101.1660156c1.3808594,0,2.5,1.1191406,2.5,2.5V296.3187561z"/>
					</g>
				</g>
				<g id="XMLID_39_">
					<g id="XMLID_69_">
						<path id="XMLID_15_" class="st4" d="M707.2307129,241.98526H606.0646973c-1.3808594,0-2.5,1.1191406-2.5,2.5v51.8334961
							c0,1.3808594,1.1191406,2.5,2.5,2.5h101.1660156c1.3808594,0,2.5-1.1191406,2.5-2.5V244.48526
							C709.7307129,243.1044006,708.6115723,241.98526,707.2307129,241.98526z M704.7307129,293.8187561h-96.1660156V246.98526
							h96.1660156V293.8187561z"/>
					</g>
				</g>
				<g id="XMLID_8_">
					<rect id="XMLID_90_" x="606.0643311" y="244.4853516" class="st3" width="101.1666641" height="51.8333321"/>
				</g>
				<g id="XMLID_12_">
					<g id="XMLID_22_">
						<path id="XMLID_17_" class="st4" d="M656.6472778,288.3191528c-9.8789063,0-17.9160156-8.0375977-17.9160156-17.9169922
							s8.0371094-17.9169769,17.9160156-17.9169769c9.8798828,0,17.9169922,8.0375824,17.9169922,17.9169769
							S666.5271606,288.3191528,656.6472778,288.3191528z M656.6472778,255.4851837
							c-8.2246094,0-14.9160156,6.6918793-14.9160156,14.9169769s6.6914063,14.9169922,14.9160156,14.9169922
							c8.2255859,0,14.9169922-6.6918945,14.9169922-14.9169922S664.8728638,255.4851837,656.6472778,255.4851837z"/>
					</g>
				</g>
				<g id="XMLID_23_">
					<polygon id="XMLID_89_" class="st4" points="652.6827393,278.129303 664.6126099,270.4020081 652.6827393,262.6747131 					"/>
				</g>
			</g>
		</g>
		<g id="XMLID_43_">
			<g id="XMLID_67_">
				<path class="st7" d="M820.3494263,353.8392944v169.833374h-42.666687c-8.8365479,0-16,7.1633911-16,15.999939v0.000061
					h66.666687c4.4182739,0,8-3.5817261,8-8v-177.833374H820.3494263z"/>
			</g>
			<g id="XMLID_64_">
				<path id="XMLID_88_" class="st8" d="M850.1679077,296.8603821l-7.057373-1.7893982l-49.7270508,196.1231079l7.057312,1.7893982
					c2.3294678,0.5906372,4.6966553-0.8189392,5.2872925-3.148407l47.5881958-187.6874084
					C853.9069214,299.8182068,852.4973755,297.4510193,850.1679077,296.8603821z"/>
			</g>
			<g id="XMLID_66_">
				<path id="XMLID_87_" class="st9" d="M829.5734253,303.131897l-44.2509155,174.5250854
					c-1.512207,5.9641418,2.0968018,12.0249023,8.0609131,13.5371094h0.000061l49.7270508-196.1231079l0,0
					C837.1464233,293.5587769,831.0856323,297.1677856,829.5734253,303.131897z"/>
			</g>
		</g>
	</g>
	<g id="XMLID_117_">
		<g id="XMLID_115_">
			<path id="XMLID_86_" class="st10" d="M24.5994339,386.9226685c-4.9795837,3.8349915-6.8134918,9.5551147-9.000001,16.375
				c-0.9496307,2.9619751-2.242691,7.8903809-2.5,14.125c-0.0194244,0.4707642-0.3051758,8.2802124,1.25,14
				c4.5608377,16.774292,28.7253113,29.4429932,36.25,24c2.97435-2.1514893,3.1902542-7.0181885,3.5-14
				c0.4569473-10.2998657-2.7345657-14.6942139,0.5-20.25c1.4901733-2.5595703,4.4401703-5.5303955,7-5
				c3.0784912,0.6378784,4.2442169,6.0602417,4.5,7.25c1.7150192,7.977356-1.8025436,16.836731-5.75,26.5
				c-1.5020905,3.677063-2.3967056,5.4329834-1.5,6.75c1.550354,2.2770386,6.9434662,1.0214233,17.25-1.75
				c26.5824432-7.1480103,28.5853043-8.9810791,29.75-11.5c3.4185791-7.3935547-2.1556702-16.8641357-3-18.25
				c-3.9899902-6.5490723-7.855751-5.7229614-13.5-13.75c-4.1949081-5.9658813-7.1702728-13.6904907-5.5-15
				c0.7072601-0.5545044,2.2111435,0.0697327,3,0.583313c2.105751,1.3709106,2.5157013,4.1662598,2.6666641,5
				c0.4893494,2.7026367,3.2706757,6.3572998,8.8333359,13.666687c6.693985,8.7958984,13.0350723,17.1281738,21.5,17.25
				c4.509285,0.0648804,8.1728592-2.5400391,15.4999924-7.75c4.8049316-3.4165039,8.3117828-5.9863892,9.75-10.75
				c0.2161255-0.7158203,1.5019836-5.1813354-0.25-9.5c-2.7796631-6.8519897-10.7239838-7.2150879-21.4999924-12
				c-3.7941437-1.6847229-20.009552-8.8848877-30-23.375c-6.5599518-9.5145569-5.5899963-15.1435547-12.25-18.5
				c-6.3548889-3.2026672-13.3167191-1.1411133-20.125,0.875c-13.8536606,4.102417-26.0226288,13.7554932-24.7916718,16.5833435
				c0.3005676,0.6904602,1.537796,0.8030396,4,1c8.3403397,0.6671753,11.7403793-2.1851807,17.5416718-0.4583435
				c3.1250458,0.9302063,3.6274719,2.2011414,3.75,2.625c0.4327316,1.4970398-0.8009338,3.0571289-1.25,3.625
				c-3.4128189,4.3158264-11.0960312,5.3716431-18.75,6.875C31.8924484,384.054718,27.1014633,384.9957581,24.5994339,386.9226685z"
				/>
		</g>
		<g id="XMLID_116_">
			<path id="XMLID_85_" class="st10" d="M13.5994329,264.4226685c-2.4068146,2.5488586,6.6835794,14.664856,13.500001,23.75
				c6.5764618,8.7653198,9.9423981,13.1750183,13.75,14.5c5.8888397,2.0492249,13.4226761-1.1893005,28.25-7.75
				c9.6903992-4.2877502,23.3028641-11.0043945,31.25-8.5c0.8945007,0.2818909,3.6929626,1.1637573,3.75,2.5
				c0.0554428,1.2987976-2.5055313,2.4071045-4,3c-9.1772461,3.6408997-21.578598,5.0809326-29.5,7.5
				c-7.2205048,2.2050171-18.1397781,7.4896851-17.75,12.25c0.3578568,4.3704834,10.1282349,6.8318481,16.75,8.5
				c12.928154,3.2568665,27.2962036,6.8764954,39.25-0.25c8.4512787-5.0383911,5.6763306-9.474823,19.4999924-23.25
				c9.7741699-9.7398682,12.3355103-8.691864,17-15.5c1.3743896-2.006012,10.3739319-15.5716858,6.5-30.9999847
				c-5.0404663-20.0741882-28.7173386-30.7268982-32.2499924-27.5c-1.970253,1.7997131,3.0844727,7.2234802,5,22.5
				c1.9486694,15.5408783-2.1270752,19.1426239-3.25,19.9999847c-0.258667,0.1974792-2.9015045,2.1677551-4.75,1.25
				c-2.8889771-1.4343567-1.7002869-8.8617554-1-15.2499847c1.8597488-16.9652405,2.646286-25.4631348,0.75-29
				c-2.2422104-4.1820374-5.4178696-4.5491943-26.75-11.75c-21.0008774-7.0889893-27.0593033-9.8171387-28.75-7.5
				c-1.937149,2.6549072,3.2665634,10.0049133,8.75,17.75c7.0999069,10.0282898,13.175293,15.0103149,11.75,20.75
				c-0.0799713,0.322052-0.7338486,2.9552002-2.25,3.25c-2.0734329,0.4031372-4.4650879-3.8186646-5.75-6
				c-5.1039276-8.6646729-12.0606461-16.0991211-17.8333359-24.3333435
				c-5.9455566-8.4808044-8.9533005-12.7401123-10.6666641-13.6666565c-9.6986237-5.2447205-23.250412,0.2225952-31,6.25
				c-2.4024658,1.8685608-15.0944366,11.7399902-13.75,26.25c0.0793304,0.8562317,1.3432312,12.6004639,10.5,18.5
				c7.9939432,5.1503448,15.8054667,1.8529663,37.25,6.2499847c3.1158371,0.6388855,7.8954239,1.7223206,8,3.5
				c0.0359879,0.6116943-0.4579391,1.7071228-5.5,3.75c-5.5024109,2.2294006-10.930069,4.4284973-18.5,4
				C20.473732,268.528717,15.3411322,262.578186,13.5994329,264.4226685z"/>
		</g>
		<g id="XMLID_114_">
			<path id="XMLID_83_" class="st10" d="M143.016098,441.8393555c-3.3627167-12.2966919-5.3344269-21.1028442-8.5-35.333374
				c-3.629776-16.3173523-5.4490967-24.5765076-5.6666718-29.4999695c-0.7133484-16.143219,2.9281769-27.8324585,5-33.666687
				c4.1291962-11.6277161,8.7857666-16.6271057,11.3333435-19c5.1054382-4.7553711,10.5065613-7.1268921,14-8.333313
				c2.9762115-4.2937317,7.9569244-10.3154602,15.6666565-15.3333435c14.107666-9.1819763,29.5957947-9.9538574,30-8.6666565
				c0.2715454,0.8647461-6.2966766,2.5559998-12.6666565,9.6666565c-4.7172699,5.2657776-4.3354797,7.9329834-4,9
				c0.0574188,0.1826477,0.6044464,1.8380127,2.1666565,2.6666565c2.2493744,1.1931152,5.0803223-0.1355591,6.5-0.833313
				c7.6175842-3.7438965,13.4937592-8.4361572,18-11c1.6497192-0.9385986,7.8992615-4.4112854,15.5-4.666687
				c12.330368-0.4143372,21.5057373,7.8637695,25.1666718,11.166687
				c5.3038483,4.7851868,13.9266205,12.5647278,13.9999847,24.333313
				c0.0735474,11.7930298-8.4577332,24.4151306-16.6666565,24.666687c-2.2833405,0.0699768-3.6194763-0.8454285-19-15.3333435
				c0,0-12.3392639-11.6231689-23-15c-3.3295135-1.054657-5.1926575-0.592804-6.3333282,0.1666565
				c-0.9364624,0.6235046-1.875946,1.7738342-2,2.8333435c-0.4525452,3.8651123,9.8421021,7.4147034,22,13.6666565
				c13.7741699,7.0830994,21.3414154,10.9743958,21.1666718,15.5c-0.1727448,4.4736328-7.8336182,7.5720215-21.6666718,13.166687
				c-5.461731,2.2089539-10.0300446,3.3615112-19.1666718,5.6666565c-9.6381989,2.4316711-12.1620941,2.4635925-14.5,1.1666565
				c-3.9997864-2.2188721-5.2239685-7.0896606-6.5-12.1666565c-1.7176208-6.8340454-1.5879974-14.0512085-1.5-17.8333435
				c0.1334839-5.7365417,0.7294006-8.8887329-1.5-11c-1.4775085-1.399231-3.9668732-2.1243286-6-1.333313
				c-2.5938263,1.0091858-3.3508301,4.0603333-3.6666565,5.333313c-0.6876984,2.7718506-0.071579,5.1313171,0.1666565,6
				c2.0810699,7.5883179,6.7703857,16.0787048,10.3333435,23.166687c2.9278107,5.8244629,3.4815674,7.492218,2.6666565,8.75
				c-1.8608093,2.8721313-9.3173981,1.2284241-13,0.4166565c-3.5431671-0.7810364-7.8868103-1.7385254-12.3333282-4.8333435
				c-6.8504028-4.7679138-14.2402954-14.8143616-12.3333282-24c1.5694427-7.559845,8.2851715-8.9930725,12-21.5
				c0.5479126-1.8446655,1.7725372-6.0707092,0.5-6.833313c-1.714325-1.0273438-6.9654083,4.8273315-8.1666718,6.1666565
				c-14.8296661,16.5342407-16,39.333252-16,39.333252c-0.3342133,6.5108337,0.8883057,12.8961182,3.3333282,25.666748
				c3.3058929,17.2669678,6.8012238,34.913147,16.5,55.666687c3.6168518,7.7393799,7.1467133,13.8787231,9.6666718,18
				c-4.6666718-0.277771-9.3333282-0.555603-14-0.833374C148.4278412,460.5418701,145.7913055,451.9876709,143.016098,441.8393555z"
				/>
		</g>
		<g id="XMLID_63_">
			<path id="XMLID_82_" class="st11" d="M171.1827698,463.3393555c1.6999664-4.833313,3.8282471-12.1871948,4.6666565-21.333374
				c0.7552338-8.2385254,2.6244049-32.5585327-13-54.6666565c-3.4659271-4.9042053-15.3212738-21.6792603-35.3333282-25.333313
				c-2.3572464-0.4304199-21.1200638-3.653656-26,5.333313c-2.0928574,3.854248-0.8815155,8.5717163,0.3333359,11.666687
				c-3.4607391-0.418396-8.6132278-0.7002258-14.6666641,0.333313c-9.0471115,1.5446777-15.5613327,5.2514038-23.8333359,9.9583435
				c-9.0175171,5.131134-9.3584061,6.6787109-17.625,10.625c-6.1275787,2.9251709-7.8861694,3.0037842-10.875,5.25
				c-5.9162598,4.446228-8.6887054,11.4002075-10,18.125c-0.2976685-2.3754883-0.5147858-6.9755859,1.875-11.625
				c0.7799225-1.517395,2.4702301-4.2709961,8.5-8.625c5.5849609-4.0328369,10.1890411-6.0421753,13-7.375
				c5.006958-2.3740845,11.1296387-6.6660461,23.375-15.25c12.6408615-8.8611755,11.5847702-9.0564575,18.625-13.5
				c10.7985764-6.8156738,16.1978607-10.2235413,23.0416641-11.5833435
				c17.5714874-3.491333,33.2471466,7.739624,39.8333282,12.4583435c4.0461578,2.8988953,15.6714478,11.4437256,22.625,27
				c5.6057281,12.5409546,5.4038239,24.0272827,5,47c-0.1897125,10.7926025-0.9561157,19.7183228-1.625,25.875
				C176.4605408,466.2282104,173.8216553,464.7838135,171.1827698,463.3393555z"/>
		</g>
		<g id="XMLID_65_">
			<path id="XMLID_80_" class="st11" d="M158.516098,468.3393555c0.0959473-11.9867554-0.0634155-28.4744873-1.1666718-48.166687
				c-0.8196106-14.6295776-1.811615-24.8058777-2.1666565-28.3333435
				c-2.7852936-27.6725769-4.1779327-41.5088806-8.6666718-52.1666565
				c-5.2212372-12.3969421-9.6366119-15.2865906-12.6666718-28.6666565c-1.9086609-8.4282837-1.2655182-12.1781616-4.3333282-19
				c-1.3656921-3.0368652-4.1719742-8.2506104-17-19.3333435c-4.4975739-3.8856506-16.4394302-13.8599243-36.3333282-25.3333282
				c-5.0569611-2.9165039-11.154007-6.4126892-19.6666718-10.333313
				c-13.4661942-6.2020569-25.4060898-9.9792786-34.3333359-12.3333435
				c7.3943024,2.7303467,16.6430817,6.5114441,27.0000076,11.6666565
				c4.3541794,2.1673279,17.3569107,8.7849121,33.3333282,19.6666718c11.0026016,7.4940491,16.6349258,12.3920898,25,19.6666565
				c8.1434326,7.0818176,13.289238,12.2856445,15.3333359,20.3333435c1.0865936,4.2779846,0.9666061,8.0598755,0.6666641,10.6666565
				c2.3350601,3.9411011,5.2829285,9.2363281,8.3333282,15.6666565c2.0214539,4.261261,7.9182129,16.8265991,11.6666718,31.3333435
				c1.3308411,5.1504517,2.1489258,9.6091919,4.3333282,50c1.3417816,24.8098755,1.3665466,29.2930298,1.3333435,33
				c-0.1329651,14.8410645-1.2839508,27.1200562-2.3333435,35.666687c2.8009186-0.9602661,5.6018372-1.9205933,8.4027405-2.8809204
				C156.3401489,469.0853882,157.4281158,468.7124023,158.516098,468.3393555z"/>
		</g>
		<g id="XMLID_58_">
			<path id="XMLID_79_" class="st12" d="M171.5994263,537.0060425h-18.5c-16.706604,0-30.2499924-13.543396-30.2499924-30.2500305
				v-48.0833435h78.9999924v48.0833435C201.8494263,523.4626465,188.3060455,537.0060425,171.5994263,537.0060425z"/>
		</g>
	</g>
	<g id="XMLID_2_">
		<g id="XMLID_163_">
			<path id="XMLID_77_" class="st13" d="M348.2226563,416.163208c0.9535522-1.4083862,1.8641357-2.7837524,2.7335205-4.1243896
				c-6.7967529-6.6646118-18.0184937-15.6394043-34.1067505-21.3661499
				c-15.0238647-5.3478394-28.4683228-5.7896729-37.6029053-5.1779175c-0.4744263,1.024231-0.9547729,2.0615845-1.4402466,3.1105347
				c8.6598511-0.1303101,20.2210693,0.8024292,33.0431519,5.0673828
				C328.2163696,399.4494019,340.5510864,408.8921509,348.2226563,416.163208z"/>
		</g>
		<g id="XMLID_171_">
			<path id="XMLID_76_" class="st13" d="M337.5078125,430.8225098c2.4537354-3.118042,4.7252197-6.1518555,6.8239746-9.0782471
				c-7.3884277-6.7641602-18.2611084-14.6463013-32.9823608-19.8215942
				c-14.6895142-5.1641846-27.9185791-5.7738037-37.2451782-5.2492676c-1.4388428,3.1801147-2.751709,6.1383667-3.9276123,8.8261108
				c9.9312744,0.034668,22.8793945,1.4783936,36.9227905,6.9231567
				C320.8103638,417.7385254,330.888855,425.0531006,337.5078125,430.8225098z"/>
		</g>
		<g id="XMLID_155_">
			<g id="XMLID_156_">
				<path id="XMLID_73_" class="st14" d="M601.3289795,527.5101929l91.8980713-4.9040527
					c4.4908447-0.2396851,8.329834,3.1973267,8.5864258,7.6871948l0.0628052,1.0988159
					c0.2600708,4.552002-3.2582397,8.4349365-7.8137817,8.6234131l-91.9608765,3.8052979
					c-4.6376953,0.1918945-8.5021973-3.5159912-8.5021973-8.1576538l0,0
					C593.5994263,531.3230591,596.9949951,527.7414551,601.3289795,527.5101929z"/>
			</g>
			<g id="XMLID_154_">
				<path id="XMLID_35_" class="st15" d="M492.3494263,473.6726685c12.6538696,5.6178589,23.8155518,10.28302,33,14
					c28.362854,11.4785156,35.9585571,13.1409912,44.5,12c3.201355-0.4276123,11.9231567-1.96875,17.5-3
					c13.4570923-2.4884644,13.7026978-2.9512939,16.5-3c9.8712158-0.171875,17.1920166,5.4112549,27.5,13.5
					c6.661377,5.2272339,16.0256958,13.7116089,25,26.5c-2.4092407-1.0328979-4.9654541-2.041626-7.666626-3
					c-5.6235352-1.9952393-10.9482422-3.4432373-15.833374-4.5c0.9210815,0.8289185,1.9624634,1.9766846,1.666687,2.833313
					c-0.4699707,1.3610229-4.0629883,1.2565918-6.5,1.166687c-7.9068604-0.291687-11.8602295-0.437561-17.166687-1
					c-7.9075928-0.8381348-6.8143311,1.6505737-23.166626,3.333313c-14.2606201,1.4674683-18.9833984-0.0248413-21.666687-1.166626
					c-4.4521484-1.8944092-7.571106-4.6454468-9.5-6.666687c-8.9778442,0.0917358-18.2044067,0.0440063-27.666687-0.166687
					c-12.0621338-0.2686157-23.7368164-0.7850342-35-1.5C493.3494263,506.5615234,492.8494263,490.1171265,492.3494263,473.6726685z
					"/>
			</g>
			<g id="XMLID_161_">
				<path id="XMLID_34_" class="st16" d="M649.2185669,530.8726807c-3.2655029-3.0628052-7.1606445-6.3428345-11.7441406-9.5750122
					c-8.819458-6.2193604-15.3717651-10.8399048-24.625-11.625c-6.9960327-0.5935669-12.9335938,1.2261353-17,3
					c6.4203491,2.5420532,11.7887573,4.4456787,15.625,5.75c6.8723145,2.3366089,9.5477295,2.994812,14.25,4.875
					c2.895752,1.1578369,5.4837036,2.3522949,7.767334,3.4979858c-0.2087402-0.2194214-0.4282837-0.4303589-0.642334-0.6229858
					c4.8851318,1.0567627,10.2098389,2.5047607,15.833374,4.5
					C648.866333,530.737793,649.036377,530.8071289,649.2185669,530.8726807z"/>
			</g>
		</g>
		<g id="XMLID_153_">
			<g id="XMLID_150_">
				<path id="XMLID_28_" class="st17" d="M312.3494263,542.6726685c-6.333313,0-12.6666565,0-19,0
					c0.1931458-4.22229,0.2977295-10.8984985-0.5-19c-2.1369324-21.7022705-9.1197815-37.0896606-10.5-40.5
					c-15.3745117-37.9885254,30.9063416-155.2221985,79.5-154.5c12.2447205,0.1819763,21.7728882,7.8109741,36,22.5
					c26.187561,27.0377197,64.0602417,73.6224976,95,147.5
					C432.6827698,513.3393555,372.5161133,528.0059814,312.3494263,542.6726685z"/>
			</g>
			<g id="XMLID_127_">
				<path id="XMLID_26_" class="st18" d="M400.1827698,258.339325c-7.8884888,0.2742004-16.5436707,2.5461426-33.6666565,13.666687
					c-12.1971436,7.9214478-25.5067749,16.7105103-40.666687,33.6666565c-20.0379944,22.4122314-30.2562256,44.4941101-49,85
					c-4.4752197,9.6710815-7.980835,17.7733154-10.3333435,23.333313
					c10.8122864,2.8605347,22.370636,6.3613281,34.5000305,10.666687c11.2833252,4.0050659,21.7367249,8.2363281,31.333313,12.5
					c10.8168945-12.880127,18.5984192-24.699646,24-33.833313c6.6818848-11.2985535,12.5443115-21.3824158,16.3333435-36.166687
					c1.8062134-7.0475769,2.6078491-13.0819397,3-17.3333435c1.5195923,24.04599,4.4819946,50.5027161,9.6666565,78.8333435
					c3.2148743,17.5670166,6.960907,34.0880127,11,49.5c27.666687,5.166687,55.3333435,10.333313,83,15.5
					c-29.6125183,4.5853271-54.5839233,10.333313-74,15.5c-14.7825928,3.9337158-34.3993225,9.2171631-59.5,19
					c-13.7155151,5.3455811-25.0883484,10.4833374-33.5,14.5c63.1669006,0,126.3337708,0,189.5006714,0
					c-0.8466797-26.7791748-2.2637939-49.1380615-3.5006714-65.5c-2.8257751-37.380127-4.8475647-62.8706055-12-96
					c-0.6308594-2.9220886-5.1134644-23.3782349-14-49.5c-8.3722229-24.6100159-15.8670959-40.179657-28.1666565-53.5
					c-5.5309143-5.9899292-10.9420776-10.3431091-17.5-13.6666565
					C423.6996765,262.9942017,413.3266602,257.8824463,400.1827698,258.339325z"/>
			</g>
		</g>
		<g id="XMLID_126_">
			<g id="XMLID_130_">
				<polygon id="XMLID_21_" class="st19" points="439.3494263,424.6726685 489.1682129,424.6726685 484.8494263,497.8393555 
					443.9690552,497.8393555 				"/>
			</g>
			<g id="XMLID_157_">
				<path id="XMLID_20_" class="st15" d="M488.8494263,471.6726685c-0.3662109-2.4768677-0.7193604-4.7010498-2.25-7
					c-0.8603516-1.2921753-1.8126221-2.1873169-2.5-2.75c0.8789673-1.059082,1.0744019-2.5256958,0.5-3.75
					c-0.6181641-1.317627-2.0186768-2.12146-3.5-2c-3.411438,0.1831665-8.121582,0.2985229-13.75,0
					c-7.4110107-0.3930664-7.729187-1.0430908-7.75-1.25c-0.031311-0.3115234,0.4901123-0.8251953,8.5-3.25
					c4.6503296-1.4077759,5.4639282-1.5341187,7.75-2.25c4.1239624-1.2914429,12.5320435-4.3424072,12.25-5.75
					c-0.2451782-1.2238159-6.9840698-0.8287964-9.75-0.666687c-6.0780029,0.3562622-14.4799194,0.9222412-25.5,5.166687
					c-3.7943115,1.4614258-4.7024536,2.1277466-17.25,8.75c-7.7849121,4.1087036-14.1392822,7.3903198-18.25,9.5
					c-6.8948364-0.1556396-17.1586914-0.4004517-29.666687-0.75c-24.9491577-0.6972046-18.5125122-0.6844482-23.583313-0.75
					c0,0-19.8636475-0.256897-44.75-5.5c-1.1673584-0.2459717-3.5449829-0.8028564-3.916687-2.25
					c-0.2232666-0.8693237,0.3688354-1.7038574,0.75-2.25c1.8925781-2.7114258,3.4640503-5.6339111,5.25-8.416687
					c1.2526245-1.9516602,1.588501-2.9997559,3-6.166626c0.6809082-1.5275879,1.5361328-3.3689575,2.5778198-5.494751
					c-0.0004272,0.0009155-0.0009766,0.0019531-0.0014038,0.0028687
					c-8.1027832-3.4719238-16.7654419-6.8994141-25.993042-10.1748047
					c-10.4855347-3.7218628-20.541687-6.8400269-30.0606079-9.4655151l-14.1060791,36.4655151
					c-12.4541626,38.2888794-7.8338623,46.0164185-6,48.5c2.7267456,3.6928101,8.1490479,7.7855225,37.166687,8.333313
					c29.6243896,0.5592651,53.918335-3.1410522,80.833313-7.833313c13.1204224-2.2873535,30.4376831-5.4335327,50.833313-9.5
					c4.7970581,0.4762573,10.7719116,1.0500488,17.666687,1.666687c8.5474243,0.7644043,10.6141357,0.8886719,13.666687,0.166626
					c2.9157104-0.6896973,4.6141357-1.6508179,13-6.666626c5.1107178-3.0568848,9.3447266-5.6096802,12.333313-7.416687
					c1.3043213,0.4494019,3.7255249,1.4754639,6,3.75c2.2745361,2.2745361,3.3006592,4.6956787,3.75,6
					c1.347168-2.7053833,2.6738892-6.3636475,3-10.75C489.1569214,477.1500244,489.3032227,474.7418823,488.8494263,471.6726685z"/>
			</g>
			<g id="XMLID_160_">
				<path id="XMLID_18_" class="st16" d="M315.3978271,456.6126099c0.0651855-0.6586304,0.4868164-1.2628174,0.7849121-1.6899414
					c1.8624268-2.6682739,3.4158325-5.5397339,5.166748-8.2824707c-9.4777832,0.9705811-17.272583,2.1434326-23.125061,3.1574707
					c-4.4915161,0.7781982-9.5654297,1.7610474-15.375,4.875c-3.2598877,1.7473145-5.7299194,3.618103-7.375,5
					c1.9559326-0.6184082,4.6929932-1.4327393,8-2.25c4.1740723-1.0315552,9.633667-2.3807983,15-2.75
					C302.2925415,454.4099731,308.142395,454.5073853,315.3978271,456.6126099z"/>
			</g>
		</g>
		<g id="XMLID_124_">
			<path id="XMLID_16_" class="st16" d="M437.0994263,252.4226837c-1.2261047,3.4048157-1.8358154,6.2480621-2.1666565,8.2499847
				c-0.5343933,3.2335205-1.2684631,5.9441528-1.416687,6.8333435c-1.3318787,7.9900513,3.2849731,13.5828857,4.2083435,20.4166565
				c1.4148254,10.4708252-5.9302979,23.3417664-11.375,23.25c-8.5332336-0.1437988-15.6390076-27.7151489-17.25-46
				c-1.643219-18.6507416,1.3747253-34.2033539,4.25-44.4999847c3.839386,5.6824036,7.9981384,11.5323486,12.5,17.5
				C429.625885,243.1786957,433.3868103,247.9269257,437.0994263,252.4226837z"/>
		</g>
		<g id="XMLID_125_">
			<path id="XMLID_27_" class="st15" d="M435.7244263,300.1726685c-1.2488098-5.9945068-5.1959534-9.21698-8-12.375
				c-4.7188416-5.3145447-6.5209045-12.5013428-10.125-26.875c-2.0024414-7.9860077-4.0104065-19.1623993-4-32.7499847
				c2.1660767,5.4855652,6.7187805,14.7786255,16,22.75c2.1561584,1.8518677,22.7214966,19.5148468,39.25,12.4999847
				c12.9084778-5.4784851,16.1758118-22.9620819,19.5-40.7499847c3.2131348-17.1936951,2.1113281-31.7145996,0.75-41
				c-27.8333435-0.9166565-55.6666565-1.8333435-83.5-2.75c-9.1849976,12.1465759-10.0830688,19.4100342-9,23.875
				c0.433136,1.7854919,2.1719055,7.1999817,1.3593445,14.3722839c-0.1973267,1.7419434-0.4798584,3.0109863-0.673584,3.8875427
				c-2.8357849,12.831604-0.6030579,4.2441711-5.102417,24.6151733c-1.6368103,7.4106445-3.3300171,14.6629181-5.0686951,21.7536469
				c-0.475647,3.4685059-0.7540894,9.1057739,1.3603516,15.3713379c3.7190552,11.0203247,12.3294373,16.5425415,18.5,20.5
				c1.9318848,1.2389832,21.052124,13.2996216,27.25,7.375
				C437.2994995,307.7331848,436.0020752,301.5053711,435.7244263,300.1726685z"/>
		</g>
		<g id="XMLID_123_">
			<path id="XMLID_121_" class="st20" d="M410.1827698,223.6726837c-2.535675,7.1118164-5.2998962,12.2942505-7.3333435,15.6666565
				c-1.769043,2.9339294-3.6150208,5.5426941-6.75,6.3333435c-1.5733643,0.3967896-2.9845581,0.2128601-3.9166565,0
				c2.2626343-8.6599121,2.8112793-15.6938171,2.9166565-20.375c0.1886292-8.378479-1.0092163-10.7080383-1.25-25
				c-0.1580811-9.382782,0.2764282-13.2333069,0.875-16.5c1.0395813-5.6733704,1.9098206-10.4224548,4.5-14.25
				c7.8890076-11.6576233,28.4399109-9.8999023,37.5-9.125c10.0948486,0.8634033,22.8948975,1.9581909,29.25,11.375
				c4.0734558,6.0359192,5.2378235,15.1038513,2.125,17.375c-0.8150024,0.594635-1.7807312,0.6193848-8.875-1.25
				c-9.9670715-2.6263733-11.4470215-3.5675049-15.125-3.5c-2.7495117,0.0504456-7.5789185,0.1390686-10.375,3.375
				c-3.0012207,3.4733582-2.2105103,8.8955688-1.375,14.625c0.8633423,5.920166,2.1862488,6.3492737,2,10.75
				c-0.1933594,4.5684509-1.7740173,7.7682495-3,10.25c-1.2900391,2.6114502-2.657959,5.3805237-4.5,5.375
				c-1.3818359-0.0041504-2.5247192-1.5681763-3.5-3.375c-4.0750427-7.5494995-1.6523743-12.7209778-4.25-21
				c-0.744873-2.374054-3.5117493-11.1925049-9.375-12.125c-2.7748108-0.4413147-6.0233459,0.9185486-8,3.125
				c-1.5748291,1.7579346-1.9785156,3.6471558-2.375,5.625c-0.4122314,2.0563965-1.6254883,8.1086731,1.875,14.375
				C404.1113281,220.5905609,408.5299683,222.9069061,410.1827698,223.6726837z"/>
		</g>
		<g id="XMLID_3_">
			<path id="XMLID_152_" class="st21" d="M442.1827698,136.006012
				c-21.4144287,1.0472565-35.108429,13.3660126-38.6666565,16.6666718c-1.5996704,1.4838867-16.8526306,15.8582458-13,23.3333435
				c1.2071838,2.3422852,3.8711548,3.1939697,4.333313,3.333313c6.45224,1.945282,10.7861023-6.2080383,22.3333435-10.333313
				c3.7680054-1.3461304,9.1405029-3.2654724,15-2c9.6080627,2.0750122,9.7866821,10.3938599,21.6666565,19.333313
				c3.2478027,2.4439087,15.9832764,12.0270996,29.3333435,8.666687c1.8581543-0.4677124,8.2079468-2.0660706,12-7.666687
				c7.0298767-10.3826904-1.1038513-25.1074829-2.3333435-27.333313c-6.3474121-11.4909363-17.1589661-16.1784668-23.6666565-19
				C456.7879028,135.6320343,445.8427124,135.8270264,442.1827698,136.006012z"/>
		</g>
		<g id="XMLID_199_">
			<path id="XMLID_162_" class="st13" d="M439.6115112,290.1584473c-1.2750549-9.4536438-3.8649597-17.1318665-6.140564-22.5787048
				c-0.2565002,0.988739-0.614563,2.1102295-1.121521,3.311676c-0.4394836,1.0415649-0.9126892,1.9578857-1.3716431,2.7466431
				c1.5271301,2.6698608,3.9062805,7.7200012,3.9257813,14.2902832c0.0172119,5.800293-1.77948,16.7341919-8.1769409,19.0795593
				c-6.9428406,2.5453186-15.4560242-6.2590942-23.5397034-14.6193848
				c-6.6116638-6.8379822-14.1073608-14.8180847-14.6193848-26.5131531
				c-0.1962585-4.4830322,0.6911316-8.1983643,1.4866943-10.6548004c-1.4552002,0.3290405-3.6908875,1.0782928-5.4512939,2.9734344
				c-3.239502,3.4873962-2.7355042,8.5579834-2.4778442,11.1503906c0.6014709,6.0515137,4.6950378,24.5651855,23.5397034,37.1679382
				c1.1494446,0.7687073,23.3896484,15.373291,31.9644165,7.9291687
				C442.3194275,310.3697205,441.1451721,301.5290833,439.6115112,290.1584473z"/>
		</g>
	</g>
	<path class="st22" d="M922.8494263,551.3279419h-813c-4.1420898,0-7.5-3.3574219-7.5-7.5s3.3579102-7.5,7.5-7.5h813
		c4.1425781,0,7.5,3.3574219,7.5,7.5S926.9920044,551.3279419,922.8494263,551.3279419z"/>
</g>
</svg>
