<?xml version="1.0" encoding="utf-8"?>
<!-- Generator: Adobe Illustrator 19.0.0, SVG Export Plug-In . SVG Version: 6.00 Build 0)  -->
<svg version="1.1" id="Layer_1" xmlns="http://www.w3.org/2000/svg" xmlns:xlink="http://www.w3.org/1999/xlink" x="0px" y="0px"
	 width="300px" height="300px" viewBox="-155 247 300 300" style="enable-background:new -155 247 300 300;" xml:space="preserve">
<style type="text/css">
	.st0{fill:none;stroke:#016ECF;stroke-width:8;stroke-linecap:round;stroke-linejoin:round;stroke-miterlimit:10;}
</style>
<g>
	<g>
		<path class="st0" d="M-115.0964966,351.6668701v53.2016907c0,15.4704895,3.6738663,30.7362366,10.8524399,44.4403687
			c6.1657104,11.7705383,15.0261841,25.1401367,27.7440491,38.0068665C-49.2874565,514.8468628-19.1714687,525.145752-5.0964918,529
			"/>
		<path class="st0" d="M-115.0964966,308.6140442v27.7187195"/>
		<path class="st0" d="M-115.0964966,308.6140442c14.5121613-1.2217407,33.9261246-4.3572693,55.578949-12.3508911
			C-34.4597588,287.0125122-17.3912983,274.6708984-4.9035058,265"/>
	</g>
	<g>
		<path class="st0" d="M83.4600601,467.0092163c-4.7085266,6.7058411-10.3063812,13.5750427-16.9600525,20.3065796
			C39.2874565,514.8468628,9.1714697,525.145752-4.9035082,529"/>
		<path class="st0" d="M105.0964966,308.6140442v96.2545166c0,15.4704895-3.6738663,30.7362366-10.8524399,44.4403687
			c-1.0245438,1.9559021-2.123497,3.9559326-3.3021927,5.9904785"/>
		<path class="st0" d="M105.0964966,308.6140442c-14.5121613-1.2217407-33.9261246-4.3572693-55.578949-12.3508911
			C24.4597607,287.0125122,7.3912988,274.6708984-5.0964942,265"/>
	</g>
	<polyline class="st0" points="-43.6929855,405.4912415 -19.570179,429.6140442 35.2368393,374.8070068 	"/>
</g>
</svg>
