<?xml version="1.0" encoding="utf-8"?>
<!-- Generator: Adobe Illustrator 25.4.1, SVG Export Plug-In . SVG Version: 6.00 Build 0)  -->
<svg version="1.1" id="Layer_1" xmlns="http://www.w3.org/2000/svg" xmlns:xlink="http://www.w3.org/1999/xlink" x="0px" y="0px"
	 width="300px" height="300px" viewBox="0 0 300 300" style="enable-background:new 0 0 300 300;" xml:space="preserve">
<style type="text/css">
	.st0{fill:none;stroke:#008CFF;stroke-width:8;stroke-linecap:round;stroke-linejoin:round;stroke-miterlimit:10;}
	.st1{fill:#008CFF;stroke:#008CFF;stroke-width:8;stroke-linecap:round;stroke-linejoin:round;stroke-miterlimit:10;}
</style>
<g id="XMLID_9_">
	<path id="XMLID_12_" class="st0" d="M280,138.1251068c0-44.0102386-35.6773376-79.6875839-79.6875763-79.6875839h-90.4875259
		c-9.788887,0-18.2789154,7.3201218-19.1265869,17.0722351c-0.9657898,11.1111069,7.7673416,20.4277496,18.6767807,20.4277496
		h85.6248474c22.7817535,0,41.25,18.4682465,41.25,41.2499924v28.1249542
		c-11.069397-3.9262238-28.3268585-9.1401367-49.9998932-11.8749542
		c-28.2998505-3.5709991-63.9960098-8.0752869-97.499939,10.6250458
		c-20.0548477,11.1937866-33.0839348,27.2187347-44.9999771,41.874939
		C32.6857681,219.5460052,25.0406609,232.1947021,20,241.5624695h224.3752899
		C264.0502625,241.5624695,280,225.6127472,280,205.9377594V138.1251068z"/>
	<path id="XMLID_11_" class="st1" d="M43.7499123,205.9376068C32.6855354,219.5462036,25.0406609,232.1947021,20,241.5623627
		h224.3752899C264.0502625,241.5623627,280,225.6126251,280,205.9376373v-0.0000305H43.7499123z"/>
	<path id="XMLID_10_" class="st1" d="M186.250061,153.4374084c0.3202057,0.0405121,0.6175232,0.0926971,0.9356689,0.1341095
		c-2.6076508-10.1772308-9.5597076-19.1917114-19.6856689-24.7991028
		c-12.9080048-7.1481781-30.0642853-8.2864304-44.3751221-1.1114502
		c-12.5122757,6.2732086-20.5590668,17.7703705-21.8238678,30.4714813
		C130.9961853,146.4690857,161.4605713,150.3092651,186.250061,153.4374084z"/>
</g>
</svg>
