<?xml version="1.0" encoding="utf-8"?>
<!-- Generator: Adobe Illustrator 19.0.0, SVG Export Plug-In . SVG Version: 6.00 Build 0)  -->
<svg version="1.1" id="Layer_1" xmlns="http://www.w3.org/2000/svg" xmlns:xlink="http://www.w3.org/1999/xlink" x="0px" y="0px"
	 width="300px" height="300px" viewBox="-155 247 300 300" style="enable-background:new -155 247 300 300;" xml:space="preserve">
<style type="text/css">
	.st0{fill:none;stroke:#016ECF;stroke-width:8;stroke-linecap:round;stroke-linejoin:round;stroke-miterlimit:10;}
</style>
<g>
	<path class="st0" d="M115.9934998,482.6471252h-239.3518982c-6.0786209,0-11.0063858,4.9277649-11.0063858,11.0065002v15.0369568
		H127v-15.0369568C127,487.5748901,122.0722275,482.6471252,115.9934998,482.6471252z"/>
	<line class="st0" x1="126.841156" y1="320.1828003" x2="126.841156" y2="320.1840515"/>
	<path class="st0" d="M126.913826,285.3094177l-31.0729752,12.5531311l8.7128754,6.2733459
		c-0.0097656,0.0135193-0.0225983,0.0231628-0.0323639,0.0368042
		C84.7453308,331.9801331,49.4333267,370.3667908-6.4740195,395.322113
		c-37.8598557,16.8984375-79.9633942,24.9643555-121.7372208,23.3112183
		c-2.1727142-0.1226196-4.3109131,0.6212769-5.9386292,2.0519104c-1.7185364,1.508728-2.7549438,3.6896057-2.8430481,5.9694824
		c-0.0908356,2.2362976,0.69487,4.3745117,2.2135925,6.0185547c1.5187073,1.644989,3.5869598,2.5987244,5.8159943,2.6850281
		c3.7904358,0.1516724,7.6489944,0.2288818,11.4675903,0.2288818c40.4885406,0,81.2386856-8.6363525,117.8450546-24.9761658
		c59.3376312-26.4853821,96.8036118-67.2001038,117.7864685-96.696106l8.7053757,6.2678833L126.913826,285.3094177z"/>
	<path class="st0" d="M-74.5269089,399.0135193c0-3.2961731-2.6720581-5.9682617-5.9682541-5.9682617h-28.6788559
		c-3.296196,0-5.9682617,2.6720886-5.9682617,5.9682617v19.7958984c13.6071548-0.1182861,27.1971588-1.243927,40.6153717-3.3725891
		V399.0135193z"/>
	<path class="st0" d="M-115.1422806,482.6471252h40.6153717V432.349823
		c-13.448761,2.0137329-27.0402374,3.0939636-40.6153717,3.2060242V482.6471252z"/>
	<path class="st0" d="M-54.3741493,482.6471252h40.6153717v-66.1997986
		c-13.160367,5.0323486-26.764904,9.0862122-40.6153717,12.1606445V482.6471252z"/>
	<path class="st0" d="M-13.7587786,386.6118469c0-3.2962036-2.6720629-5.9682617-5.968257-5.9682617h-28.6788559
		c-3.296196,0-5.9682579,2.6720581-5.9682579,5.9682617v24.8356018c13.877037-3.2791443,27.4807777-7.6099243,40.6153717-13.0065002
		V386.6118469z"/>
	<path class="st0" d="M6.3938665,482.6471252h40.6154823V384.291626
		c-12.1523552,8.4432373-25.6543636,16.4345398-40.6154823,23.5311584V482.6471252z"/>
	<path class="st0" d="M41.0409813,364.8314819H12.362237c-3.2961941,0-5.9683704,2.6720581-5.9683704,5.9682617v18.3518677
		c13.9772902-7.1450806,26.5466766-15.0939331,37.7752686-23.4141846
		C43.2574043,365.1727905,42.1921654,364.8314819,41.0409813,364.8314819z"/>
	<path class="st0" d="M67.1619949,368.9349365v113.7121887h40.6153717V351.8872986
		c0-3.2962036-2.6720657-5.9683838-5.9682617-5.9683838H91.7231903
		C84.4677277,353.5465698,76.3018951,361.3108215,67.1619949,368.9349365z"/>
	<line class="st0" x1="126.841156" y1="320.1828003" x2="126.844902" y2="320.1855469"/>
</g>
</svg>
