<?xml version="1.0" encoding="utf-8"?>
<!-- Generator: Adobe Illustrator 19.0.0, SVG Export Plug-In . SVG Version: 6.00 Build 0)  -->
<svg version="1.1" id="Layer_1" xmlns="http://www.w3.org/2000/svg" xmlns:xlink="http://www.w3.org/1999/xlink" x="0px" y="0px"
	 width="300px" height="300px" viewBox="-155 247 300 300" style="enable-background:new -155 247 300 300;" xml:space="preserve">
<style type="text/css">
	.st0{fill:none;stroke:#016ECF;stroke-width:8;stroke-linecap:round;stroke-linejoin:round;stroke-miterlimit:10;}
</style>
<g>
	<g>
		<path class="st0" d="M-33.0477028,367.881958H95.2788315H-33.0477028z"/>
		<path class="st0" d="M-33.0477028,398.6418762H95.2788315H-33.0477028z"/>
		<path class="st0" d="M-33.0477028,429.4017944H95.2788315H-33.0477028z"/>
	</g>
	<path class="st0" d="M107.294426,333.5173645H-45.0632973c-10.8830299,0-19.7055702,8.8224487-19.7055702,19.7055969v90.8378601
		c0,10.8830566,8.8225403,19.7055969,19.7055702,19.7055969H62.6167183l40.3009377,45.8467407
		c1.5218964,1.7313538,4.37677,0.6549988,4.37677-1.6501465v-44.1965942c10.8831482,0,19.705574-8.8225403,19.705574-19.7055969
		v-90.8378601C127,342.3398132,118.1775742,333.5173645,107.294426,333.5173645z"/>
	<path class="st0" d="M-81.2840576,396.2472839l-34.8755875,39.6748352c-1.3170166,1.4982605-3.7875671,0.566803-3.7875671-1.428009
		v-38.2468262c-9.4180527,0-17.0527878-7.6348572-17.0527878-17.0527954v-78.6091919
		c0-9.4180603,7.6347351-17.0527954,17.0527878-17.0527954H11.8999701c9.4179468,0,17.0527916,7.6347351,17.0527916,17.0527954
		v13.5869751"/>
</g>
</svg>
