<?xml version="1.0" encoding="utf-8"?>
<!-- Generator: Adobe Illustrator 19.0.0, SVG Export Plug-In . SVG Version: 6.00 Build 0)  -->
<svg version="1.1" id="Layer_1" xmlns="http://www.w3.org/2000/svg" xmlns:xlink="http://www.w3.org/1999/xlink" x="0px" y="0px"
	 width="809.3083496px" height="599.6138916px" viewBox="0 0 809.3083496 599.6138916"
	 style="enable-background:new 0 0 809.3083496 599.6138916;" xml:space="preserve">
<style type="text/css">
	.st0{fill:#DAD8E0;}
	.st1{fill:#B8E4ED;}
	.st2{fill:none;stroke:#3695AF;stroke-width:4;stroke-miterlimit:10;}
	.st3{fill:none;stroke:#3695AF;stroke-width:4;stroke-linecap:round;stroke-linejoin:round;stroke-miterlimit:10;}
	.st4{fill:none;stroke:#8B8B8B;stroke-width:4;stroke-linecap:round;stroke-linejoin:round;stroke-miterlimit:10;}
	.st5{fill:none;stroke:#3E3E3E;stroke-width:4;stroke-linecap:round;stroke-linejoin:round;stroke-miterlimit:10;}
	.st6{fill:none;stroke:#337DD8;stroke-width:5;stroke-linecap:round;stroke-linejoin:round;stroke-miterlimit:10;}
	.st7{fill:#C0CACC;}
	.st8{fill:#EFEEEE;}
	.st9{fill:#748086;}
	.st10{fill:#FFFFFF;}
	.st11{fill:#BDBDBD;}
	.st12{fill:#383A44;}
	.st13{fill:#141414;}
	.st14{fill:#EDEDED;}
	.st15{fill:#D9D9D8;}
	.st16{fill:#C2CCCF;}
	.st17{opacity:0.07;fill:#748086;}
	.st18{fill:#D4D4D4;}
	.st19{fill:#35B7D6;}
	.st20{fill:#65CCE8;}
	.st21{fill:#1B1B1C;}
	.st22{fill:#454147;}
	.st23{fill:#546276;}
	.st24{fill:#4051D1;}
	.st25{fill:#89AFCE;}
	.st26{fill:#E5E5E5;}
	.st27{fill:#EFF0F0;}
	.st28{fill:#D28629;}
	.st29{fill:#EC9922;}
	.st30{fill:#FBAA20;}
	.st31{fill:#F9E237;}
	.st32{fill:#E78625;}
	.st33{fill:#39AAAA;}
	.st34{fill:#DDEAE9;}
	.st35{fill:#40B4B0;}
	.st36{fill:#88CFC1;}
	.st37{opacity:0.03;fill:#383A44;}
	.st38{fill:#45D7F3;}
	.st39{fill:none;stroke:#3695AF;stroke-width:2;stroke-linecap:round;stroke-linejoin:round;stroke-miterlimit:10;}
	.st40{fill:#98C622;}
	.st41{fill:none;stroke:#648E3D;stroke-width:2;stroke-linecap:round;stroke-linejoin:round;stroke-miterlimit:10;}
	.st42{fill:#4F66DA;}
	.st43{fill:none;stroke:#234F91;stroke-width:5;stroke-linecap:round;stroke-linejoin:round;stroke-miterlimit:10;}
	.st44{fill:#618FE0;}
	.st45{fill:#FFA61F;}
	.st46{fill:none;stroke:#DE8B27;stroke-width:2;stroke-linecap:round;stroke-linejoin:round;stroke-miterlimit:10;}
	.st47{fill:#EC5054;}
	.st48{fill:none;stroke:#B82D26;stroke-width:2;stroke-linecap:round;stroke-linejoin:round;stroke-miterlimit:10;}
	.st49{fill:#F8AB97;}
	.st50{fill:#393686;}
	.st51{fill:#444299;}
	.st52{fill:#DB382D;}
	.st53{fill:#EB4E57;}
	.st54{fill:#D86048;}
	.st55{fill:#164867;}
	.st56{fill:#F95D6C;}
	.st57{fill:#2F231C;}
	.st58{fill:#3185BB;}
	.st59{fill:#FAD935;}
	.st60{fill:#173852;}
	.st61{fill:#3C92CF;}
</style>
<g id="XMLID_5_">
	<g id="XMLID_30_">
		<path id="XMLID_457_" class="st0" d="M735.5466309,582.6889038c-108.7901611-8.0366821-224.1706543-12.75-345.515625-12.75
			c-108.9987488,0-224.4028168,3.8029785-345.515625,12.75c108.7902069,8.0366821,224.1706543,12.75,345.515625,12.75
			C499.0297852,595.4389038,614.4338379,591.6359863,735.5466309,582.6889038z"/>
		<path id="XMLID_28_" class="st1" d="M195.5466309,87.6889114c11.3458405-16.521225,38.6292419-51.2903481,87-72
			c7.1236877-3.0499649,86.3811951-35.5192719,164,2.999999c46.9891968,23.3189545,73.0834351,62.583168,82,76
			c27.4285278,41.2719193,22.5585327,63.3129807,56,97.0000076c19.0321655,19.1718903,39.7380371,31.3017731,58,42
			c36.2978516,21.2639923,46.1063232,19.0561371,71,33.9999847c47.3023071,28.3959351,70.024292,71.2679138,74,79
			c6.772522,13.1715393,30.9718018,62.0351563,18,125c-13.4736938,65.401123-57.9311523,101.7502441-70,111
			c-230.3335876,0-460.6671448,0-691.0007324,0c-5.0183029-2.3013306-27.9380875-13.4282227-33.9992752-37
			c-1.6718445-6.50177-3.1097107-18.0284424,4.25-36c13.067894-31.9102173,36.1980438-40.9808655,75.75-74
			c34.5072403-28.8076477,53.8123398-44.9241333,67.9999924-74c17.1144562-35.0739746,17.1257629-69.2158508,17-77
			c-0.3675842-22.7528381-5.1822815-23.0934143-9-57.9999847c-2.9333954-26.8209991-5.56604-50.8922272,1-79
			C170.7902832,133.8035583,177.9296265,111.8663101,195.5466309,87.6889114z"/>
		<path id="XMLID_29_" class="st1" d="M21.8799629,280.6889038c7.8963089-10.6415405,15.526825-20.9248962,30.0000076-26.9999847
			c3.4899979-1.46492,15.871151-6.484436,30.6666679-4c25.6061554,4.2997437,42.9944458,28.4812469,48.9999924,49.3333282
			c11.1472473,38.7047119-15.8444443,69.6820679-17.3333282,71.333313c-17.6658478,19.5923157-47.7663269,32.1819458-75,23.3333435
			c-5.7389603-1.8646545-23.2591171-8.5505676-32.9999924-26.3333435c-9.3724518-17.1101685-5.9726105-34.3244324-3.6666718-46
			C6.4005623,301.8421326,15.7698097,288.9233093,21.8799629,280.6889038z"/>
	</g>
	<g id="XMLID_224_">
		<circle id="XMLID_31_" class="st2" cx="310.0466309" cy="110.8555756" r="9.5"/>
		<circle id="XMLID_33_" class="st2" cx="400.9960632" cy="273.9176025" r="9.5"/>
		<circle id="XMLID_36_" class="st2" cx="62.5466347" cy="526.1889038" r="9.5"/>
		<circle id="XMLID_38_" class="st2" cx="726.9960938" cy="356.9176025" r="9.5"/>
		<g id="XMLID_46_">
			<path id="XMLID_32_" class="st3" d="M639.8799438,291.6889038h17.416687H639.8799438z"/>
			<path id="XMLID_47_" class="st3" d="M648.5883179,300.3972473v-17.4166565V300.3972473z"/>
		</g>
		<g id="XMLID_49_">
			<path id="XMLID_53_" class="st3" d="M201.8799744,214.6889191h17.4166565H201.8799744z"/>
			<path id="XMLID_52_" class="st3" d="M210.5883026,223.3972473v-17.4166718V223.3972473z"/>
		</g>
		<g id="XMLID_34_">
			<path id="XMLID_57_" class="st3" d="M105.5049667,273.9176025h23.9166641H105.5049667z"/>
			<path id="XMLID_35_" class="st3" d="M137.5049744,273.9176025h4.9166565H137.5049744z"/>
		</g>
		<g id="XMLID_61_">
			<path id="XMLID_66_" class="st3" d="M662.5049438,428.6889038h23.916687H662.5049438z"/>
			<path id="XMLID_64_" class="st3" d="M694.5049438,428.6889038h4.916687H694.5049438z"/>
		</g>
		<g id="XMLID_58_">
			<path id="XMLID_60_" class="st3" d="M478.5049744,133.6889038h23.9166565H478.5049744z"/>
			<path id="XMLID_59_" class="st3" d="M510.5049744,133.6889038h4.9166565H510.5049744z"/>
		</g>
		<g id="XMLID_54_">
			<path id="XMLID_56_" class="st3" d="M44.338295,332.6889038h17.4166679H44.338295z"/>
			<path id="XMLID_55_" class="st3" d="M53.0466309,341.3972473v-17.4166565V341.3972473z"/>
		</g>
	</g>
	<g id="XMLID_4_">
		<path id="XMLID_65_" class="st4" d="M200.838501,167.1889191h451.375H200.838501z"/>
		<g id="XMLID_68_">
			<path id="XMLID_48_" class="st5" d="M347.5552673,170.285202c0-5.7601166-4.6694946-10.4296265-10.4296265-10.4296265
				s-10.4296265,4.6695099-10.4296265,10.4296265c0,5.7601318,4.6694946,10.4296417,10.4296265,10.4296417v8.4740753v-8.4740753"/>
			<rect id="XMLID_67_" x="335.4323425" y="189.1889191" class="st6" width="3.3866301" height="8.166667"/>
			<polygon id="XMLID_69_" class="st6" points="392.6256409,221.5222473 337.1256409,197.3555756 281.6256409,221.5222473 			"/>
		</g>
		<g id="XMLID_72_">
			<path id="XMLID_86_" class="st5" d="M378.5552673,170.285202c0-5.7601166-4.6694946-10.4296265-10.4296265-10.4296265
				s-10.4296265,4.6695099-10.4296265,10.4296265c0,5.7601318,4.6694946,10.4296417,10.4296265,10.4296417v8.4740753v-8.4740753"/>
			<rect id="XMLID_77_" x="366.4323425" y="189.1889191" class="st6" width="3.3866301" height="8.166667"/>
			<polygon id="XMLID_74_" class="st6" points="423.6256409,221.5222473 368.1256409,197.3555756 312.6256409,221.5222473 			"/>
		</g>
		<g id="XMLID_89_">
			<path id="XMLID_96_" class="st5" d="M409.5552673,170.285202c0-5.7601166-4.6694946-10.4296265-10.4296265-10.4296265
				s-10.4296265,4.6695099-10.4296265,10.4296265c0,5.7601318,4.6694946,10.4296417,10.4296265,10.4296417v8.4740753v-8.4740753"/>
			<rect id="XMLID_93_" x="397.4323425" y="189.1889191" class="st6" width="3.3866301" height="8.166667"/>
			<polygon id="XMLID_90_" class="st6" points="454.6256409,221.5222473 399.1256409,197.3555756 343.6256409,221.5222473 			"/>
		</g>
		<g id="XMLID_3_">
			<path id="XMLID_9_" class="st5" d="M585.5552979,170.285202c0-5.7601166-4.6695557-10.4296265-10.4296265-10.4296265
				c-5.7601318,0-10.4296265,4.6695099-10.4296265,10.4296265c0,5.7601318,4.6694946,10.4296417,10.4296265,10.4296417v8.4740753
				v-8.4740753"/>
			<rect id="XMLID_6_" x="573.432312" y="189.1889191" class="st6" width="3.3866301" height="8.166667"/>
			<polygon id="XMLID_12_" class="st6" points="630.6256714,221.5222473 575.1256714,197.3555756 519.6256714,221.5222473 			"/>
		</g>
	</g>
	<g id="XMLID_308_">
		<g id="XMLID_20_">
			<path id="XMLID_205_" class="st7" d="M611.7289429,577.3555908h-24.666687V326.0222473h35.666687v240.3333435
				C622.7289429,572.4307251,617.8040771,577.3555908,611.7289429,577.3555908z"/>
			<path id="XMLID_209_" class="st8" d="M622.7289429,326.0222473h-35.666687v-11h24.666687
				C617.8040771,315.0222473,622.7289429,319.947113,622.7289429,326.0222473L622.7289429,326.0222473z"/>
			<path id="XMLID_203_" class="st9" d="M601.7289429,354.0222473H380.7289124v-28c0-6.0751343,4.9248657-11,11-11h199.0000305
				c6.0751343,0,11,4.9248657,11,11V354.0222473z"/>
			<rect id="XMLID_195_" x="380.7289124" y="354.0222473" class="st10" width="221" height="189.3333282"/>
			<rect id="XMLID_246_" x="380.7289124" y="542.0222168" class="st11" width="221" height="1.3333334"/>
			<rect id="XMLID_289_" x="380.7289124" y="354.1264038" class="st11" width="221" height="1.75"/>
			<g id="XMLID_234_">
				<path id="XMLID_241_" class="st12" d="M516.4372559,343.3139038h-49.375c-1.8639526,0-3.375-1.5110168-3.375-3.375v-12.25
					c0-1.8639526,1.5110474-3.375,3.375-3.375h49.375c1.8639526,0,3.375,1.5110474,3.375,3.375v12.25
					C519.8122559,341.802887,518.3012085,343.3139038,516.4372559,343.3139038z"/>
				<path id="XMLID_242_" class="st13" d="M516.4372559,343.3139038h-49.375c-1.8639526,0-3.375-1.5110168-3.375-3.375l0,0h56.125
					l0,0C519.8122559,341.802887,518.3012085,343.3139038,516.4372559,343.3139038z"/>
			</g>
			<path id="XMLID_200_" class="st14" d="M601.7289429,543.3555908H380.7289124v23c0,6.0751343,4.9248657,11,11,11h199.0000305
				c6.0751343,0,11-4.9248657,11-11V543.3555908z"/>
			<g id="XMLID_245_">
				<path id="XMLID_238_" class="st7" d="M442.8122559,346.2618408h-56.6666565v-15.354187
					c0-5.6494141,4.5797424-10.2291565,10.2291565-10.2291565h46.4375V346.2618408z"/>
				<polygon id="XMLID_243_" class="st15" points="402.3997192,344.2826538 388.9372559,344.2826538 409.8497925,322.6576538 
					423.3122559,322.6576538 				"/>
				<polygon id="XMLID_248_" class="st15" points="428.3122559,322.6576538 407.3997192,344.2826538 413.3997192,344.2826538 
					434.3122559,322.6576538 				"/>
			</g>
			<g id="XMLID_250_">
				<circle id="XMLID_249_" class="st16" cx="550.5622559" cy="334.2722473" r="11.25"/>
				<circle id="XMLID_244_" class="st10" cx="550.5622559" cy="334.2722473" r="8.25"/>
				<path id="XMLID_247_" class="st17" d="M550.5622559,345.5222473c6.2131958,0,11.25-5.0368042,11.25-11.25
					s-5.0368042-11.25-11.25-11.25V345.5222473z"/>
			</g>
			<g id="XMLID_256_">
				<circle id="XMLID_311_" class="st16" cx="580.5622559" cy="334.2722473" r="11.25"/>
				<circle id="XMLID_295_" class="st10" cx="580.5622559" cy="334.2722473" r="8.25"/>
				<path id="XMLID_257_" class="st17" d="M580.5622559,345.5222473c6.2131958,0,11.25-5.0368042,11.25-11.25
					s-5.0368042-11.25-11.25-11.25V345.5222473z"/>
			</g>
		</g>
		<g id="XMLID_19_">
			<circle id="XMLID_254_" class="st18" cx="493.710144" cy="446.6889038" r="68"/>
			<circle id="XMLID_284_" class="st11" cx="493.710144" cy="446.6889038" r="57.3333321"/>
			<circle id="XMLID_286_" class="st19" cx="493.710144" cy="446.6889038" r="51.3333321"/>
			<path id="XMLID_325_" class="st20" d="M505.7351074,402.2872925l-56.4265747,56.4265747
				c1.8939209,7.0092773,5.3988647,13.354126,10.098999,18.612854l64.9404297-64.9404297
				C519.0892334,407.6861572,512.7443848,404.1812134,505.7351074,402.2872925z"/>
			<path id="XMLID_329_" class="st20" d="M532.0117798,421.2158813l-63.7746582,63.7746582
				c2.4206543,1.6130371,5.0009155,3.0045776,7.71521,4.1416016l60.2010498-60.2010498
				C535.0164185,426.2167969,533.6248779,423.6364746,532.0117798,421.2158813z"/>
		</g>
		<g id="XMLID_18_">
			<g id="XMLID_14_">
				<path id="XMLID_15_" class="st21" d="M604.4398804,583.6889038h-41.921875
					c-1.1894531,0-2.1536865-0.9642334-2.1536865-2.1536255v-4.1796875h46.229187v4.1796875
					C606.5935059,582.7246704,605.6292725,583.6889038,604.4398804,583.6889038z"/>
				<path id="XMLID_16_" class="st22" d="M583.5023804,583.6889038h-20.984375
					c-1.1894531,0-2.1536865-0.9642334-2.1536865-2.1536255v-4.1796875h25.291687v4.1796875
					C585.6560059,582.7246704,584.6917725,583.6889038,583.5023804,583.6889038z"/>
			</g>
			<path id="XMLID_17_" class="st22" d="M420.0023499,583.6889038h-20.984375c-1.1894226,0-2.1536255-0.9642334-2.1536255-2.1536255
				v-4.1796875h25.2916565v4.1796875C422.1560059,582.7246704,421.191803,583.6889038,420.0023499,583.6889038z"/>
		</g>
	</g>
	<g id="XMLID_334_">
		<g id="XMLID_332_">
			<path id="XMLID_424_" class="st7" d="M357.7289429,577.3555908h-24.666687V326.0222473h35.6666565v240.3333435
				C368.7289124,572.4307251,363.8040771,577.3555908,357.7289429,577.3555908z"/>
			<path id="XMLID_421_" class="st8" d="M368.7289124,326.0222473h-35.6666565v-11h24.666687
				C363.8040771,315.0222473,368.7289124,319.947113,368.7289124,326.0222473L368.7289124,326.0222473z"/>
			<path id="XMLID_418_" class="st9" d="M347.7289124,354.0222473H126.7289276v-28c0-6.0751343,4.9248657-11,10.9999847-11
				h199.0000305c6.0751343,0,10.9999695,4.9248657,10.9999695,11V354.0222473z"/>
			<rect id="XMLID_415_" x="126.7289276" y="354.0222473" class="st10" width="221" height="189.3333282"/>
			<rect id="XMLID_412_" x="126.7289276" y="542.0222168" class="st11" width="221" height="1.3333334"/>
			<rect id="XMLID_409_" x="126.7289276" y="354.1264038" class="st11" width="221" height="1.75"/>
			<g id="XMLID_402_">
				<path id="XMLID_406_" class="st12" d="M262.4372559,343.3139038h-49.375c-1.8639526,0-3.375-1.5110168-3.375-3.375v-12.25
					c0-1.8639526,1.5110474-3.375,3.375-3.375h49.375c1.8639526,0,3.375,1.5110474,3.375,3.375v12.25
					C265.8122559,341.802887,264.3012085,343.3139038,262.4372559,343.3139038z"/>
				<path id="XMLID_403_" class="st13" d="M262.4372559,343.3139038h-49.375c-1.8639526,0-3.375-1.5110168-3.375-3.375l0,0h56.125
					l0,0C265.8122559,341.802887,264.3012085,343.3139038,262.4372559,343.3139038z"/>
			</g>
			<path id="XMLID_399_" class="st14" d="M347.7289124,543.3555908H126.7289276v23c0,6.0751343,4.9248657,11,10.9999847,11
				h199.0000305c6.0751343,0,10.9999695-4.9248657,10.9999695-11V543.3555908z"/>
			<g id="XMLID_389_">
				<path id="XMLID_396_" class="st7" d="M188.8122559,346.2618408h-56.6666565v-15.354187
					c0-5.6494141,4.5797424-10.2291565,10.2291565-10.2291565h46.4375V346.2618408z"/>
				<polygon id="XMLID_393_" class="st15" points="148.3997192,344.2826538 134.9372559,344.2826538 155.8498077,322.6576538 
					169.3122559,322.6576538 				"/>
				<polygon id="XMLID_390_" class="st15" points="174.3122559,322.6576538 153.3997192,344.2826538 159.3997192,344.2826538 
					180.3122559,322.6576538 				"/>
			</g>
			<g id="XMLID_379_">
				<circle id="XMLID_386_" class="st16" cx="296.5622559" cy="334.2722473" r="11.25"/>
				<circle id="XMLID_383_" class="st10" cx="296.5622559" cy="334.2722473" r="8.25"/>
				<path id="XMLID_380_" class="st17" d="M296.5622559,345.5222473c6.2131958,0,11.25-5.0368042,11.25-11.25
					s-5.0368042-11.25-11.25-11.25V345.5222473z"/>
			</g>
			<g id="XMLID_344_">
				<circle id="XMLID_351_" class="st16" cx="326.5622559" cy="334.2722473" r="11.25"/>
				<circle id="XMLID_348_" class="st10" cx="326.5622559" cy="334.2722473" r="8.25"/>
				<path id="XMLID_345_" class="st17" d="M326.5622559,345.5222473c6.2131958,0,11.25-5.0368042,11.25-11.25
					s-5.0368042-11.25-11.25-11.25V345.5222473z"/>
			</g>
		</g>
		<g id="XMLID_23_">
			<g id="XMLID_25_">
				<path id="XMLID_283_" class="st21" d="M350.4398499,583.6889038h-41.921875
					c-1.1894226,0-2.1536255-0.9642334-2.1536255-2.1536255v-4.1796875h46.2291565v4.1796875
					C352.5935059,582.7246704,351.629303,583.6889038,350.4398499,583.6889038z"/>
				<path id="XMLID_26_" class="st22" d="M329.5023499,583.6889038h-20.984375
					c-1.1894226,0-2.1536255-0.9642334-2.1536255-2.1536255v-4.1796875h25.2916565v4.1796875
					C331.6560059,582.7246704,330.691803,583.6889038,329.5023499,583.6889038z"/>
			</g>
			<path id="XMLID_24_" class="st22" d="M166.0023651,583.6889038h-20.984375c-1.1894226,0-2.1536407-0.9642334-2.1536407-2.1536255
				v-4.1796875h25.2916565v4.1796875C168.1560059,582.7246704,167.1917877,583.6889038,166.0023651,583.6889038z"/>
		</g>
		<g id="XMLID_331_">
			<rect id="XMLID_21_" x="164.6091309" y="435.6889038" class="st23" width="10.9375" height="22"/>
			<g id="XMLID_322_">
				<circle id="XMLID_341_" class="st18" cx="239.710144" cy="446.6889038" r="68"/>
				<circle id="XMLID_338_" class="st11" cx="239.710144" cy="446.6889038" r="57.3333321"/>
				<circle id="XMLID_335_" class="st9" cx="239.710144" cy="446.6889038" r="53.6635132"/>
				<circle id="XMLID_328_" class="st23" cx="239.710144" cy="446.6889038" r="45.749958"/>
			</g>
			<g id="XMLID_330_">
				<ellipse id="XMLID_438_" class="st14" cx="122.9736328" cy="446.6889038" rx="46.7365112" ry="68"/>
				<ellipse id="XMLID_336_" class="st18" cx="128.6960144" cy="446.6889038" rx="41.0038567" ry="65"/>
				<path id="XMLID_333_" class="st19" d="M160.3365479,446.6889038c0-26.7858276-14.5037842-48.5-32.3950729-48.5
					c-3.223877,0-6.3349609,0.7149048-9.2738647,2.0276489c-11.4152222,8.2006836-19.321106,25.9221191-19.321106,46.4723511
					c0,20.550354,7.9059448,38.2717896,19.3212891,46.4724121c2.9388428,1.3126831,6.0498657,2.0275879,9.2736816,2.0275879
					C145.8327637,495.1889038,160.3365479,473.4746704,160.3365479,446.6889038z"/>
				<path id="XMLID_452_" class="st20" d="M158.1134644,429.0355835l-50.8040085,50.8040161
					c0.8825073,1.5906372,1.8325806,3.0870361,2.8338623,4.5026245l49.2535934-49.2536621
					C159.0567627,433.0143433,158.6254272,430.9952393,158.1134644,429.0355835z"/>
				<path id="XMLID_455_" class="st20" d="M145.9414673,406.3640747l-46.2990036,46.9719238
					c0.5794067,6.836731,2.0368652,13.2444458,4.1980591,18.9622192l51.4919357-51.4919434
					C152.9078369,415.0671387,149.7063599,410.1384277,145.9414673,406.3640747z"/>
				<path id="XMLID_37_" class="st9" d="M132.9414673,395.3555298c-5.1049728,0-9.9409103,1.74823-14.2738571,4.8610229
					c2.9389038-1.3127441,6.0499878-2.0276489,9.2738647-2.0276489c17.8912888,0,32.3950729,21.7141724,32.3950729,48.5
					c0,26.7857666-14.5037842,48.5-32.3950729,48.5c-3.2238159,0-6.3348389-0.7149048-9.2736816-2.0275879
					c4.3328857,3.1126709,9.1688232,4.8609009,14.273674,4.8609009c18.5539551,0,33.5949097-22.9827271,33.5949097-51.333313
					C166.536377,418.3382568,151.4954224,395.3555298,132.9414673,395.3555298z"/>
			</g>
		</g>
	</g>
	<g id="XMLID_116_">
		<g id="XMLID_13_">
			<path id="XMLID_156_" class="st24" d="M283.2133179,272.8139343c-2.7058105-6.5386353-6.9591675-10.7844849-9.7265625-13.104187
				h-14.8624268c-3.0842285,2.7548218-10.807373,10.4614868-13.4110107,23.104187
				c-3.338562,16.2109985,4.1596069,28.8480835,6.3621216,32.208313h28.4908447
				c4.3028564-10.364563,5.300354-19.2336426,5.4803467-24.875
				C285.7246094,284.5699768,285.8394775,279.1600647,283.2133179,272.8139343z M275.8799438,299.4805603
				c-2.9454956,0-5.333313-5.4472046-5.333313-12.166687c0-6.7194214,2.3878174-12.166626,5.333313-12.166626
				c2.9455566,0,5.333374,5.4472046,5.333374,12.166626C281.2133179,294.0333557,278.8255005,299.4805603,275.8799438,299.4805603z"
				/>
			<path id="XMLID_70_" class="st25" d="M268.7132874,303.1472473c0.8488159,5.7220459-0.0271606,6.8320923-0.333313,7.1666565
				c-2.1942139,2.3977356-8.2901611,1.2098999-12.1458435-1.5416565c-7.2773285-5.1933899-6.8170166-16.1309509-6.6875-19.2083435
				c0.3812408-9.0587158,4.7631836-18.2006531,10.3333435-20.4166565c1.1269226-0.4483337,3.9721375-1.5802612,6.3541565-0.25
				c0.2960205,0.1653137,1.370575,0.7837524,1.9375,2c1.0557556,2.2648621-0.5079651,4.7596436-1.4583435,7.083313
				c-2.1873169,5.3480835-1.442688,10.5651245-1,13.666687
				C266.3740234,296.2764282,267.7572937,296.7026062,268.7132874,303.1472473z"/>
			<rect id="XMLID_22_" x="259.6716309" y="254.4805756" class="st26" width="12.916667" height="5.2291665"/>
			<rect id="XMLID_39_" x="261.8799744" y="249.4805756" class="st27" width="8.5" height="5"/>
		</g>
		<g id="XMLID_104_">
			<path id="XMLID_150_" class="st28" d="M329.9330444,315.0222473h-3.6364136v-57.6152954
				c1.1160278,7.4106445,2.0488281,13.2838745,2.625,16.8652954c2.8121948,17.4802856,4.0576172,23.4458618,2.875,32.125
				C331.3238525,309.8670349,330.5945435,312.8044128,329.9330444,315.0222473z"/>
			<path id="XMLID_152_" class="st29" d="M326.2966309,257.4069519v57.6152954h-5.6112671
				c-0.7601318-2.1299438-1.5135498-4.8300781-1.8887329-8c-1.2600098-10.6470337,2.8521729-17.0809937,5.4985352-29.625
				c0.9715576-4.6052856,2.0344238-11.4031372,2-20"/>
			<path id="XMLID_107_" class="st30" d="M293.4216309,315.0222473h27.2637329
				c-0.7601318-2.1299438-1.5135498-4.8300781-1.8887329-8c-1.2600098-10.6470337,2.8521729-17.0809937,5.4985352-29.625
				c0.9715576-4.6052856,2.0344238-11.4031372,2-20h-32.8735352c0.0461426,8.5317993-1.0050049,15.3153687-2,20
				c-2.3046875,10.8513794-5.3641968,15.4145508-4.75,23.5c0.4501343,5.925293,2.6437378,10.7335205,4.6798706,14.125"/>
			<path id="XMLID_125_" class="st31" d="M326.295166,257.3972473h-32.8735352
				c0.0106812,1.9736328-0.0425415,3.8428345-0.1350098,5.625h32.8673706
				C326.2475586,261.2414856,326.3031006,259.3728333,326.295166,257.3972473z"/>
			<path id="XMLID_141_" class="st32" d="M286.6004028,298.9847107h32.2429199
				c0.7469482-5.7807617,2.8876343-11.0266724,4.699585-18.3374634h-32.8782959
				C288.7040405,288.4594421,286.5656738,292.835907,286.6004028,298.9847107z"/>
		</g>
		<g id="XMLID_105_">
			<g id="XMLID_100_">
				<rect id="XMLID_102_" x="231.8039856" y="261.2097473" class="st33" width="10.4301481" height="8.875"/>
				<path id="XMLID_99_" class="st34" d="M238.2065582,268.3972473h-2.375c-6.2324829,0-11.2849274,5.0524292-11.2849274,11.2849121
					v35.3400879h24.9448547v-35.3400879C249.4914856,273.4496765,244.4390564,268.3972473,238.2065582,268.3972473z"/>
				<rect id="XMLID_101_" x="224.5466309" y="285.5222473" class="st35" width="24.9448509" height="15.375"/>
				<rect id="XMLID_103_" x="233.8039856" y="258.3347473" class="st36" width="6.4301486" height="2.875"/>
			</g>
			<path id="XMLID_114_" class="st37" d="M242.2341309,269.1504517v-7.9407349h-2v-2.875h-3.2150879v2.875v7.1875v1.6875v15.4375
				v15.375v14.125h12.4724121v-14.125v-15.375v-5.8400879C249.4914551,274.8706665,246.4747925,270.7736816,242.2341309,269.1504517
				z"/>
		</g>
	</g>
	<g id="XMLID_214_">
		<g id="XMLID_185_">
			<path id="XMLID_237_" class="st38" d="M601.5403442,483.4137573c-2.930542,0-5.3062134,2.3756409-5.3062134,5.3061829l0,0
				c0,2.930542,2.3756714,5.3062134,5.3062134,5.3062134h62.4703979c5.2503052,0,9.9481201-3.6858826,10.7722168-8.8711243
				c1.0539551-6.6314087-4.041626-12.3536682-10.4736938-12.3536682h-62.7689209
				c-2.930542,0-5.3062134,2.3756714-5.3062134,5.3061829l0,0
				C596.2341309,481.0380859,598.6098022,483.4137573,601.5403442,483.4137573"/>
			<g id="XMLID_197_">
				<g id="XMLID_298_">
					<g id="XMLID_303_">
						<line id="XMLID_304_" class="st39" x1="658.0330811" y1="483.4137573" x2="601.5403442" y2="483.4137573"/>
					</g>
					<g id="XMLID_301_">
						<path id="XMLID_302_" class="st39" d="M658.0330811,483.4137573l2.3293457,2.3293457L658.0330811,483.4137573z"/>
					</g>
					<g id="XMLID_299_">
						<path id="XMLID_300_" class="st39" d="M658.0330811,483.4137573l2.3293457-2.3293762L658.0330811,483.4137573z"/>
					</g>
				</g>
			</g>
		</g>
		<g id="XMLID_180_">
			<path id="XMLID_223_" class="st40" d="M610.5403442,499.4137573c-2.930542,0-5.3062134,2.3756409-5.3062134,5.3061829l0,0
				c0,2.930542,2.3756714,5.3062134,5.3062134,5.3062134h62.4703979c5.2503052,0,9.9481201-3.6858826,10.7722168-8.8711243
				c1.0539551-6.6314087-4.041626-12.3536682-10.4736938-12.3536682h-62.7689209
				c-2.930542,0-5.3062134,2.3756714-5.3062134,5.3061829l0,0
				C605.2341309,497.0380859,607.6098022,499.4137573,610.5403442,499.4137573"/>
			<g id="XMLID_186_">
				<g id="XMLID_269_">
					<g id="XMLID_274_">
						<line id="XMLID_275_" class="st41" x1="667.0330811" y1="499.4137573" x2="610.5403442" y2="499.4137573"/>
					</g>
					<g id="XMLID_272_">
						<path id="XMLID_273_" class="st41" d="M667.0330811,499.4137573l2.3293457,2.3293457L667.0330811,499.4137573z"/>
					</g>
					<g id="XMLID_270_">
						<path id="XMLID_271_" class="st41" d="M667.0330811,499.4137573l2.3293457-2.3293762L667.0330811,499.4137573z"/>
					</g>
				</g>
			</g>
		</g>
		<g id="XMLID_170_">
			<path id="XMLID_110_" class="st42" d="M537.3174438,519.9389038l16.6621704,67.6287842
				c0.1984253,0.8052368,0.9207153,1.3712158,1.7501221,1.3712158h15.8498535c0.7036743,0,1.3430176-0.4095459,1.6372681-1.0487671
				l1.9338989-4.2012329h68.833374l1.9338989,4.2012329c0.2942505,0.6392212,0.9335938,1.0487671,1.6372681,1.0487671h15.8499146
				c0.8293457,0,1.5516968-0.565979,1.7501221-1.3712158l16.6621094-67.6287842H537.3174438z"/>
			<g id="XMLID_151_">
				<g id="XMLID_352_">
					<g id="XMLID_371_">
						<line id="XMLID_376_" class="st43" x1="604.0258179" y1="529.0222168" x2="615.1091309" y2="529.0222168"/>
						<line id="XMLID_375_" class="st43" x1="629.0258179" y1="529.0222168" x2="640.1091309" y2="529.0222168"/>
						<line id="XMLID_374_" class="st43" x1="654.0258179" y1="529.0222168" x2="665.1091309" y2="529.0222168"/>
						<line id="XMLID_373_" class="st43" x1="579.0258179" y1="529.0222168" x2="590.1091309" y2="529.0222168"/>
						<line id="XMLID_372_" class="st43" x1="554.0258179" y1="529.0222168" x2="565.1091309" y2="529.0222168"/>
					</g>
					<g id="XMLID_365_">
						<line id="XMLID_370_" class="st43" x1="604.0258179" y1="540.6889038" x2="615.1091309" y2="540.6889038"/>
						<line id="XMLID_369_" class="st43" x1="628.0258179" y1="540.6889038" x2="639.1091309" y2="540.6889038"/>
						<line id="XMLID_368_" class="st43" x1="652.0258179" y1="540.6889038" x2="663.1091309" y2="540.6889038"/>
						<line id="XMLID_367_" class="st43" x1="580.0258179" y1="540.6889038" x2="591.1091309" y2="540.6889038"/>
						<line id="XMLID_366_" class="st43" x1="556.0258179" y1="540.6889038" x2="567.1091309" y2="540.6889038"/>
					</g>
					<g id="XMLID_359_">
						<line id="XMLID_364_" class="st43" x1="604.0258179" y1="552.3555908" x2="615.1091309" y2="552.3555908"/>
						<line id="XMLID_363_" class="st43" x1="627.0258179" y1="552.3555908" x2="638.1091309" y2="552.3555908"/>
						<line id="XMLID_362_" class="st43" x1="650.0258179" y1="552.3555908" x2="661.1091309" y2="552.3555908"/>
						<line id="XMLID_361_" class="st43" x1="581.0258179" y1="552.3555908" x2="592.1091309" y2="552.3555908"/>
						<line id="XMLID_360_" class="st43" x1="558.0258179" y1="552.3555908" x2="569.1091309" y2="552.3555908"/>
					</g>
					<g id="XMLID_353_">
						<line id="XMLID_358_" class="st43" x1="604.0258179" y1="564.0222168" x2="615.1091309" y2="564.0222168"/>
						<line id="XMLID_357_" class="st43" x1="625.5258179" y1="564.0222168" x2="636.6091309" y2="564.0222168"/>
						<line id="XMLID_356_" class="st43" x1="647.0258179" y1="564.0222168" x2="658.1091309" y2="564.0222168"/>
						<line id="XMLID_355_" class="st43" x1="582.5258179" y1="564.0222168" x2="593.6091309" y2="564.0222168"/>
						<line id="XMLID_354_" class="st43" x1="561.0258179" y1="564.0222168" x2="572.1091309" y2="564.0222168"/>
					</g>
				</g>
			</g>
			<path id="XMLID_161_" class="st44" d="M683.1664429,504.4701538h-147.197937c-2.5802002,0-4.671875,2.0916748-4.671875,4.671875
				v6.125c0,2.5802002,2.0916748,4.671875,4.671875,4.671875h147.197937c2.5802002,0,4.671875-2.0916748,4.671875-4.671875v-6.125
				C687.8383179,506.5618286,685.7466431,504.4701538,683.1664429,504.4701538z"/>
		</g>
		<g id="XMLID_175_">
			<path id="XMLID_176_" class="st45" d="M614.3513184,493.3295288c3.076416,0,5.5703125-2.4938965,5.5703125-5.5703125l0,0
				c0-3.0763855-2.4938965-5.5703125-5.5703125-5.5703125h-65.5237427c-6.1340332,0-11.3959351,4.7988892-11.5081787,10.9318848
				c-0.1143799,6.248291,4.9164429,11.3493652,11.1386719,11.3493652h65.8932495
				c3.076416,0,5.5703125-2.4938965,5.5703125-5.5703125l0,0
				C619.9216309,495.8234558,617.4277344,493.3295288,614.3513184,493.3295288"/>
			<g id="XMLID_174_">
				<line id="XMLID_172_" class="st46" x1="555.0466309" y1="493.3295288" x2="614.3513184" y2="493.3295288"/>
				<path id="XMLID_171_" class="st46" d="M555.0466309,493.3295288l-2.4453125-2.4453125L555.0466309,493.3295288z"/>
				<path id="XMLID_173_" class="st46" d="M555.0466309,493.3295288l-2.4453125,2.4453125L555.0466309,493.3295288z"/>
			</g>
		</g>
		<g id="XMLID_177_">
			<path id="XMLID_201_" class="st47" d="M547.5403442,471.4137573c-2.930542,0-5.3062134,2.3756409-5.3062134,5.3061829l0,0
				c0,2.930542,2.3756714,5.3062134,5.3062134,5.3062134h62.4703979c5.2503052,0,9.9481201-3.6858826,10.7722168-8.8711243
				c1.0539551-6.6314087-4.041626-12.3536682-10.4736938-12.3536682h-62.7689209
				c-2.930542,0-5.3062134,2.3756714-5.3062134,5.3061829l0,0
				C542.2341309,469.0380859,544.6098022,471.4137573,547.5403442,471.4137573"/>
			<g id="XMLID_183_">
				<g id="XMLID_276_">
					<g id="XMLID_281_">
						<line id="XMLID_282_" class="st48" x1="604.0330811" y1="471.4137573" x2="547.5403442" y2="471.4137573"/>
					</g>
					<g id="XMLID_279_">
						<path id="XMLID_280_" class="st48" d="M604.0330811,471.4137573l2.3293457,2.3293457L604.0330811,471.4137573z"/>
					</g>
					<g id="XMLID_277_">
						<path id="XMLID_278_" class="st48" d="M604.0330811,471.4137573l2.3293457-2.3293762L604.0330811,471.4137573z"/>
					</g>
				</g>
			</g>
		</g>
	</g>
	<g id="XMLID_456_">
		<path id="XMLID_443_" class="st49" d="M513.4841309,561.1889038c-0.041626,3.333313-0.083313,6.666687-0.125,10
			c3-0.020813,6-0.041687,9-0.0625c0-3.916687,0-7.833313,0-11.75
			C519.4008179,559.9805908,516.4425049,560.5847168,513.4841309,561.1889038z"/>
		<path id="XMLID_450_" class="st49" d="M450.4841309,575.3139038c3-0.020813,6-0.041687,9-0.0625
			c1.1458435-4.020813,2.2916565-8.041687,3.4375-12.0625c-3.0208435-0.0625-6.0416565-0.125-9.0625-0.1875
			C452.7341309,567.1055908,451.6091309,571.2097168,450.4841309,575.3139038z"/>
		<path id="XMLID_441_" class="st50" d="M529.6716309,404.1889038c-0.2801514,10.3456421-0.6278076,25.0368347-0.875,42.75
			c-0.3137207,22.483551-0.119812,25.0587769-0.5,41.375c-0.4327393,18.571167-0.8744507,23.223114-1.375,44
			c-0.2915039,12.1019287-0.4213867,22.1912842-0.484375,29.2675171c-0.0095825,1.0728149-0.8267212,1.956665-1.895752,2.0467529
			c-1.9365234,0.163208-4.0698242,0.2451172-6.369873,0.18573c-1.9825439-0.0512085-3.8312378-0.2006836-5.527771-0.4076538
			c-0.9403076-0.1146851-1.6866455-0.8475952-1.8165894-1.7858887c-1.6165466-11.6715698-2.5800476-21.161438-3.1556396-27.5564575
			c-1.1973572-13.3033447-1.1307678-17.8214111-2.5-33.375c-0.9593811-10.8979187-1.898407-18.9750671-2.75-26.25
			c-2.1496582-18.3641357-3.3742065-28.8253784-6-42.5c-1.2659302-6.5926514-3.2424622-15.9369202-6.25-27.125
			C503.3382874,404.6055603,516.5050049,404.3972473,529.6716309,404.1889038z"/>
		<path id="XMLID_122_" class="st51" d="M469.4216309,408.8139038c-3.2565308,25.5216675-5.7333069,46.1606445-7.375,60.125
			c-3.0552979,25.9884644-5.3080444,46.6356812-9.75,76.25c-1.180481,7.8701782-2.2277222,14.4547729-2.9753113,19.0626831
			c-0.1630859,1.005249,0.4189148,1.9840698,1.3870544,2.2999268c1.6509705,0.5385742,3.8015442,1.0372925,6.3382568,1.1373901
			c2.5622864,0.1011963,4.7550659-0.234436,6.4253845-0.6383057c0.7983398-0.1929932,1.4098206-0.826416,1.5620117-1.6335449
			c0.8430786-4.4712524,2.0263977-10.2666626,3.6376038-16.9781494c0.8615723-3.5888672,3.28302-13.4276733,8.125-28.625
			c4.6357727-14.5501099,4.7055969-12.7171631,9.25-26.875c4.2377014-13.2023621,7.1971741-24.2055359,9.25-31.875
			c2.2313843-8.3365784,2.445343-9.7391052,4.75-18.625c2.2079468-8.5130615,5.224884-19.6524658,9.125-32.75
			C495.9216309,409.3972473,482.6716309,409.1055603,469.4216309,408.8139038z"/>
		<path id="XMLID_119_" class="st52" d="M563.9125977,225.5695038c0.2468872-0.7267609,0.9074097-1.2236481,1.6735229-1.2706451
			c1.3783569-0.0845642,3.3175049,0.0024719,5.4605103,0.7650604c1.8017578,0.6411438,3.1687622,1.5538635,4.1159668,2.3323669
			c0.5523682,0.4539795,0.7987671,1.169281,0.6384888,1.8660736c-3.1100464,13.5214691-7.4969482,29.7987366-13.5044556,46.1765442
			c-2.2685547,6.1846008-4.8908691,12.7181396-10.5,19.5c-3.9623413,4.7908325-7.6832275,7.5688782-15.125,13.125
			c-3.5315552,2.6366882-7.5551147,5.3753662-13.25,6.875c-5.5362549,1.4578857-7.5766602,0.4082947-8.25,0
			c-2.6099243-1.5826416-3.2366638-4.78302-4-9c-1.1705933-6.4669495-1.8595581-10.2730408,0-13.875
			c1.8208008-3.526825,4.7518921-4.2760315,18.625-10.125c7.50354-3.1635132,11.2553101-4.7452698,11.75-5.083313
			c6.2924805-4.3000488,9.6972656-14.0224304,16.25-33.2916718
			C559.3790894,238.9105377,562.6085205,229.4084778,563.9125977,225.5695038z"/>
		<path id="XMLID_121_" class="st53" d="M534.4216309,404.8139038c-5.3170776,3.1103821-13.2270508,6.848877-23.375,8.75
			c-14.7336426,2.7601929-26.3838501,0.1858215-30.125-0.75c-4.8211365-1.2059631-8.7243347-2.7466736-11.5-4
			c0.5664063-15.8664246,0.90979-29.065918,1.125-38.75c0.2780457-12.5115662,0.4170532-18.7673645,0.375-23.25
			c-0.1994934-21.26474-0.2992554-31.8971252-0.5-34.5c-0.6506958-8.4369507-1.3818665-12.2594299,1.125-16.75
			c2.5805969-4.6226196,6.7355042-6.626709,14.25-10.125c11.4648438-5.3373108,18.4156189-8.5731506,24.5-5.875
			c1.5028687,0.6664734,4.9543457,2.718689,10.5,18.375c4.4957886,12.6922302,6.2857056,22.8485413,6.583374,24.5833435
			c3.0247803,17.6290894,4.572937,33.6839905,5.666626,51.1666565
			C533.5236206,381.3131104,534.086853,391.9685974,534.4216309,404.8139038z"/>
		<path id="XMLID_120_" class="st49" d="M499.5466309,252.0222321c-1.0968628-2.119873-2.8292847-5.0308838-5.5-8.166626
			c-0.7446899,0.7854004-1.9742432,1.973938-3.6875,3.145813c-2.5247803,1.7269897-3.9103394,1.9199219-8.25,3.9375
			c-3.9207153,1.8228149-5.8984985,2.7645264-6.75,4.25c-1.6031494,2.7967377-0.6382446,6.220932-0.5,6.6874847
			c0.5731812,1.9344482,1.4655151,2.4640503,2.875,5.75c0.5813599,1.3552856,0.9605713,2.5030518,1.1875,3.25
			c-0.9606323-1.3653564-1.7877808-2.4586182-2.390625-3.234375c-0.737915-0.949646-0.9976807-1.2407227-1.359375-1.5625
			c-0.6593628-0.586731-1.6525269-1.4703979-3.09375-1.59375c-0.4639282-0.0397339-1.8798218-0.1609497-2.65625,0.796875
			c-0.7862549,0.9699097-0.3573608,2.3561401-0.25,2.703125c0.168457,0.5443115,0.4468994,1.0053711,1.578125,2.1875
			c1.1378784,1.1890869,1.7832642,1.8634644,2.880249,2.682312c1.456604,1.0872192,2.9025269,1.8268433,4.166626,2.333313
			c0.7885132,2.0612183,1.7705688,4.307312,3,6.666687c1.5809326,3.0336914,3.2515869,5.6419067,4.833374,7.833313
			c5.277771-2.305542,10.555542-4.611145,15.833313-6.916687c-1.1755981-2.5430908-0.4449463-0.9622803-1.0998535-2.3792114
			c0.3845215-0.1842651,0.7538452-0.4082031,1.0998535-0.7041016c1.6608276-1.4202881,2.072937-3.6013794,2.25-6.166687
			C504.515686,261.8942871,499.7888794,252.4904327,499.5466309,252.0222321z"/>
		<path id="XMLID_453_" class="st54" d="M495.5466309,281.1055908c-2.1620483,0.015564-5.6339111-0.2629395-9.75-2
			c0,0,0.2324829,0.102417,0.6393433,0.2816162c0.4089966,0.1745605,0.9981689,0.4141235,1.7196655,0.6661987
			c1.4396973,0.5091553,3.4295044,1.0252075,5.4746704,1.2363281c1.0238647,0.1118774,2.0532227,0.1361694,3.008606,0.1417236
			c0.9612427,0.0076294,1.8817139-0.0437012,2.6724243-0.2145386c0.4799194-0.100708,0.8942871-0.2470703,1.2466431-0.4031982
			c-0.0454102-0.0982666-0.1096802-0.2371216-0.194519-0.4207153
			C498.9833374,281.0544434,497.3650513,281.0924683,495.5466309,281.1055908z"/>
		<path id="XMLID_117_" class="st55" d="M490.4216309,233.4805908c2.9542542-0.5427246,4.1437073-1.2206116,5.9166565-0.625
			c1.756012,0.5899353,3.2836304,2.1601563,3.791687,3.9583282c0.8323669,2.9460297-1.2904968,5.7309265-2.416687,7.2083282
			c-5.002655,6.5627747-15.0237427,10.1094513-15.9166565,10.4166718c-0.87854,0.3022766-2.9352722,0.966568-4.2916565,2.8749847
			c-0.2380676,0.3349915-1.3551025,1.9066162-1.291687,4.041687c0.0970154,3.2659912,2.8466492,4.1626587,3.3333435,8.333313
			c0.0249023,0.2133484,0.2411804,2.066864-0.2083435,2.2083435c-0.3075562,0.0968018-0.7654724-0.6585999-1.333313-1.5
			c-1.7472839-2.5890808-2.942688-4.3603516-4.7083435-5.0416565c-0.2276001-0.0878296-2.176239-0.8116455-3.2083435,0.1666565
			c-0.8280945,0.7848816-0.8587036,2.4687805,0.0833435,4.0833435c-1.243927-0.7377014-3.056366-1.9419556-4.9583435-3.75
			c-2.7926636-2.6547852-5.4181519-5.1506348-5.583313-8.666687c-0.1656799-3.526886,2.229248-6.2692566,3.333313-7.3749847
			c-0.283783-1.3672028-0.7754517-4.7184448,0.9583435-8.0416718c1.9224854-3.6849213,5.4268188-5.1226959,7.6666565-6.0416565
			c2.8585205-1.1728058,5.7390137-1.3790894,11.5-1.7916718
			C487.5884399,233.6166382,487.7191162,233.977066,490.4216309,233.4805908z"/>
		<path id="XMLID_118_" class="st56" d="M538.994873,221.8266602c0.2328491-0.788559,0.9492798-1.3402863,1.7715454-1.342392
			c1.0448608-0.0026703,2.2015381,0.0529633,3.4468994,0.2046509l2.4367676,0.2989349
			c0.9785767,0.1200409,1.6830444,1.0059509,1.5804443,1.986496c-1.0196533,9.7431183-2.2073364,17.8731232-3.1838989,23.8812408
			c-4.3936157,27.0310059-8.1456299,33.4543152-10.833313,37.1666565
			c-4.1940918,5.7929993-9.0784302,9.5635986-15.833313,13.6666565c-10.944397,6.6478271-19.5315857,9.9189453-27.083374,12.75
			c-10.9070129,4.0888672-14.6430359,4.4536743-17.25,2.5c-3.1569519-2.3658447-3.6758118-7.3954163-3.75-8.25
			c-0.3562927-4.1042786,1.2764893-7.1459656,1.75-8c2.3605042-4.2573547,6.3847046-5.9784241,11-8.1666565
			c11.4113464-5.4104004,16.1360168-6.7362671,23.3333435-10.1666565c8.1110535-3.8659363,12.1665955-5.7988892,15.3333435-9
			c4.4418945-4.4901733,6.6883545-11.8323364,11-26.3333435C535.6377563,233.186554,537.8883667,225.5738525,538.994873,221.8266602
			z"/>
		<path id="XMLID_444_" class="st57" d="M510.3591309,580.6889038c12.104187,0,24.208374,0,36.3125,0
			c0.1473999-0.899231,0.2116699-2.2130127-0.5625-3.0625c-0.9030151-0.9909668-2.4000244-0.7498779-5.0625-0.875
			c-1.8248901-0.0857544-3.6241455-0.4649658-5.4375-0.6875c-2.5101929-0.3080444-6.2583008-1.7943115-11.5-7.1875
			c-1.423645-0.2943115-3.6189575-0.6322021-6.3125-0.5625c-3.3032227,0.0854492-5.8735962,0.1519775-7.0625,1.8125
			c-0.4812927,0.6722412-0.4855957,1.2556763-0.4375,5.5C510.3084106,576.6657715,510.329071,578.4321899,510.3591309,580.6889038z"
			/>
		<path id="XMLID_454_" class="st57" d="M449.3762817,583.5731812c12.1041565,0,24.2083435,0,36.3125,0
			c0.1473694-0.899231,0.2116394-2.2130127-0.5625-3.0625c-0.9030457-0.9909668-2.4000244-0.7498779-5.0625-0.875
			c-1.8249207-0.0857544-3.624176-0.4649658-5.4375-0.6875c-2.5102234-0.3080444-6.2583008-1.7943115-11.5-7.1875
			c-1.4236755-0.2943115-3.6189575-0.6322021-6.3125-0.5625c-3.3032227,0.0854492-5.8735962,0.1519775-7.0625,1.8125
			c-0.4812927,0.6722412-0.4855957,1.2556763-0.4375,5.5C449.3255615,579.5500488,449.3462219,581.3164673,449.3762817,583.5731812z
			"/>
		
			<ellipse id="XMLID_459_" transform="matrix(-0.2810633 -0.9596893 0.9596893 -0.2810633 501.6315308 803.5841675)" class="st49" cx="551.8122559" cy="213.8972321" rx="4.0794225" ry="8.8831348"/>
		
			<ellipse id="XMLID_460_" transform="matrix(0.9769554 -0.2134434 0.2134434 0.9769554 -32.7958298 128.3356476)" class="st49" cx="577.9371948" cy="216.0485687" rx="9.5307274" ry="4.3143506"/>
	</g>
	<g id="XMLID_477_">
		<path id="XMLID_40_" class="st49" d="M309.9841309,370.3764038c-0.512207,1.0866699-0.2581177,3.8286133,0.25,9.3125
			c0.3420715,3.6916199,0.5848389,4.1057434,0.25,5.4375c-0.8791199,3.496521-3.7658081,5.467041-2.96875,6.84375
			c0.3288574,0.5680237,1.2098694,0.9054871,1.375,0.96875c1.0417786,0.3990479,1.4905396-0.0404053,2,0.28125
			c0.8156128,0.5149231,0.3413086,2.0678711,0.46875,4.84375c0.0848694,1.8485718,0.1273193,2.7728271,0.5,3.5
			c1.164032,2.2711487,4.6780396,3.446228,7.625,2.8125c2.1383362-0.4598083,3.5348816-1.7766418,4.1875-2.5
			c0.8514709,1.2416077,1.7295837,2.7391052,2.5,4.5c1.9121399,4.3704529,2.3024902,8.401886,2.3125,11.125
			c6.416687-2.2916565,12.8333435-4.5833435,19.25-6.875c-0.6870117-1.4631653-1.7559204-3.7155151-3.125-6.5
			c-0.8486633-1.7261047-0.9772034-1.9573669-1.125-2.375c-1.3778076-3.8931274,1.351593-7.6390991,2.1875-10.125
			c2.4074707-7.1593933-5.7060242-19.2845764-16.125-23.3125
			C321.9000854,365.3577881,311.8914795,366.329895,309.9841309,370.3764038z"/>
		<path id="XMLID_42_" class="st55" d="M325.2966309,397.0639038c0.7721558-0.6045837,3.277771-2.7256165,3.625-6.125
			c0.2018127-1.975647-0.243866-5.3441162-2.25-6.125c-0.1330261-0.0517883-1.1714478-0.4559937-2,0.0625
			c-1.7260132,1.0801086-0.5422058,4.9135742-0.3125,10.8125c0.1216431,3.1233826-0.0685425,5.6877441-0.25,7.375
			c-0.9638977,2.6308289-3.2871704,4.4701233-5.9375,4.6875c-2.1829834,0.1790466-4.4660645-0.7522888-5.8125-2.5625
			c-1.892395-2.544281-1.4144897-6.1231079-0.75-6.3125c0.3053589-0.0870361,0.5247498,0.6056213,1.75,1.75
			c0.868927,0.811554,1.9148254,1.7883911,3.0625,1.9375c2.0202942,0.2624512,3.8149719-2.11026,4.0625-2.4375
			c1.2724609-1.6822815,1.5668945-3.5525818,1.375-9.4375c-0.2049561-6.2855835-0.3287659-9.4697876-1.375-11.5
			c-0.5534363-1.0740051-2.7220764-5.2822876-6.6875-6.0625c-2.1246948-0.4180298-4.2499084,0.145813-4.2499084,0.145813
			c-1.8471985,0.4901123-2.383606,1.26297-4.2500916,1.5000305c-0.8328247,0.1057739-2.6506348,0.3366394-3.4375-0.5208435
			c-1.333313-1.4530334,0.7498474-5.5340271,2.125-7.625c4.2769775-6.5033569,11.5478821-8.7230225,14.4375-9.5625
			c0,0,10.4138489-3.0253906,18.6875,0.875c0.8833618,0.4164429,2.4760132,1.1918335,3.625,2.9375
			c0.9884644,1.50177,1.2019653,3.0431519,1.25,3.9375c0.8590698-0.1336365,2.0432434-0.1764526,3.25,0.3125
			c3.9049988,1.5822144,4.7095642,7.3808899,5.125,10.375c0.4129639,2.9762268,1.3486328,9.7198486-2.875,16.3125
			c-0.9257507,1.4450073-5.9641418,8.9152527-13,8.9375c-4.6074524,0.0145569-7.8124084-2.437439-7.8124084-2.437439
			C326.0609131,397.8466492,325.6029663,397.3936462,325.2966309,397.0639038z"/>
		
			<ellipse id="XMLID_463_" transform="matrix(0.7991258 0.6011639 -0.6011639 0.7991258 311.7203979 -74.6210098)" class="st49" cx="267.520752" cy="429.1381836" rx="6.2435822" ry="4.6373224"/>
		<path id="XMLID_71_" class="st58" d="M270.4632874,432.4389038c-0.724762,0.29245-2.2216187,1.009613-3.5,2.5833435
			c-1.3253174,1.6315002-1.7068787,3.3108826-1.833313,4.083313c4.6243591,3.8295288,11.2396851,7.9752197,19.8333435,9.916687
			c3.0730896,0.6942749,22.5120544,5.085907,31.6666565-5.75c2.0882568-2.4718018,3.1184082-5.1169434,3.6666565-7.0833435
			c-2.8689575,0.3467712-7.135376,0.7955627-12.333313,1.0833435c-8.5864563,0.4753723-14.7282715,0.8153687-22.25-0.416687
			C282.056366,436.2565308,276.723877,435.0649109,270.4632874,432.4389038z"/>
		<polygon id="XMLID_475_" class="st49" points="427.8799744,564.8555908 416.2132874,563.7722168 416.8799744,572.3555908 
			429.7966309,573.5222168 		"/>
		<polygon id="XMLID_474_" class="st49" points="295.8799744,578.8555908 300.7132874,590.5222168 291.8799744,590.5222168 
			287.6299744,579.6055908 		"/>
		<path id="XMLID_476_" class="st59" d="M229.2133026,477.3555603c5.6819458,1.8721924,23.4017944,6.8809509,41.4999847-1.5
			c5.6785889-2.6296387,10.0739746-5.9660034,13.3333435-9c-0.7201538-4.5946655-1.9064636-11.3014221-3.8333435-19.333313
			c-4.252594-17.7266235-6.9534912-20.4040222-9.5-21.3333435c-3.4892273-1.2733459-4.56427,1.5105286-12,2.5
			c-11.2163696,1.4925842-13.9625854-4.1509399-21.333313-1.1666565c-3.0486603,1.2343445-5.9995728,3.5848083-11.3333435,7.833313
			c-1.7770233,1.4154663-3.2022858,2.645813-4.1666565,3.5c0.1143799,1.1434326,0.5488434,3.9067383,2.6666565,6.5
			c2.8360443,3.4727173,6.6830902,4.1820068,7.6666718,4.3333435c1.6666565-2.8888855,3.3333282-5.777771,5-8.6666565
			c0.3093414,7.5634155-0.3105469,13.7445068-1,18.1666565c-0.9707489,6.2263794-2.1636047,9.5058594-3.3333282,12
			C231.6280212,473.8583679,230.2611237,475.9298401,229.2133026,477.3555603z"/>
		<path id="XMLID_464_" class="st60" d="M421.8799744,575.6889038c0.4393005-2.1477661,0.8025818-4.7960815,0.833313-7.833313
			c0.0344543-3.4033203-0.3582458-6.3436279-0.833313-8.666687c-7.0513916-0.5820923-12.8001709-0.6796265-16.6666565-0.666687
			c0,0-30.0561523,0.1003418-40.5-4.166626c-0.4035645-0.164856-1.4806824-0.6049805-1.8333435-1.583374
			c-0.3540344-0.9821777,0.1979065-2.0188599,0.4166565-2.416626c9.1665344-16.6664429,13.7497864-24.9996948,13.7497864-24.9996948
			c5.5421143-8.6244507,11.0465088-23.8492737,5.6669006-30.0003357c-3.3496704-3.8300171-9.9794922-3.0677795-22.166687-1.6666565
			c-8.6808472,0.9980164-13.7138977,1.6467896-17.333313,5.5c-3.4031067,3.6228943-2.6276245,6.9605713-4,17.5
			c-1.5803833,12.1367798-5.2721252,28.164917-7,35.666687c-1.1157532,4.8441772-2.5983887,10.8777466,0.5,16.166626
			c1.7457581,2.9799805,4.3012695,4.62323,5.1666565,5.166687c4.1906433,2.6316528,8.4239502,2.607605,14.1666565,2.5
			c11.5842896-0.2171021,17.3764648-0.3256836,17.5-0.333313c5.1833496-0.3208008,13.7333374-0.3249512,30.8333435-0.333374
			C405.7234802,575.5195923,413.0713501,575.5489502,421.8799744,575.6889038z"/>
		<path id="XMLID_461_" class="st55" d="M286.7966309,583.6889038c-5.1055908-11.0515747-8.8902283-20.6966553-11.625-28.25
			c-3.2135315-8.8756104-5.1166992-15.2474976-6.75-20.75c-4.281189-14.4230957-4.7262878-18.7644043-4.875-20.5
			c-0.6590576-7.6911926-1.2686768-14.8054199,2-20.25c2.8879089-4.8103027,8.0731506-7.1014099,35-10.375
			c45.5170593-5.5336609,36.9247742,0.2564087,56.125-3.375c3.4680786-0.6559448,10.5932312-2.1394348,17.625,1.25
			c1.3356934,0.6438293,8.4034424,4.0505981,10.625,11.75c1.2121582,4.2010193,0.4220276,7.7409058,0.125,9
			c-1.7984619,7.6237488-7.9344177,11.769165-9.625,12.875c-1.9560852,1.2796021-5.8190308,3.392334-22.5,4.375
			c-6.5378723,0.3851318-10.0769653,0.5936279-15.375,0.375c-6.7988892-0.2805786-36.9354858-2.1080322-41-0.5
			c-1.0351563,0.4095459-1.7499084,1.124939-1.7499084,1.124939s-1.1496582,1.1506348-1.5000916,3.125061
			c-1.9884949,11.2037964,5.375,43.7498779,5.375,43.7498779c0.7464294,3.2992554,1.8869019,8.635437,3,15.3751221
			c-1.90448,0.425293-4.0836182,0.7928467-6.5,1C292.0157166,583.9594116,289.1876831,583.8934937,286.7966309,583.6889038z"/>
		<path id="XMLID_73_" class="st61" d="M263.7966309,433.6889038c8.0059509,6.8715515,15.5710449,9.4310608,19.916687,10.5
			c4.1488647,1.0205383,7.552124,1.8144531,11.5,0.6666565c5.237854-1.5228271,7.1750183-5.2251892,13.4166565-13.083313
			c6.4573059-8.1296692,11.3500366-14.2062073,18.6666565-19.3333435c5.2677612-3.6914063,10.5611267-7.2901611,17.166687-6.5
			c5.3805847,0.6436157,9.0463257,3.8900146,12.833313,7.3333435c6.137146,5.5802002,9.6337891,11.6092834,12.8333435,18.1666565
			c7.3513184,15.0663147,10.6297607,27.7886658,11.25,30.25c2.4794922,9.8397217,5.0969849,23.8701477,5.3333435,41.1666565
			c-7.7488098,2.3240967-19.5580139,4.5447693-33.166687,2c-7.4723816-1.3973083-16.2904053-3.1723328-23.333313-10.6666565
			c-3.819397-4.0641785-5.7901917-8.3987732-6.8333435-11.3333435c1.3840942-1.5144653,4.4710388-5.3231506,5.1666565-11
			c1.2199707-9.9559631-5.9904175-16.8833008-6.833313-17.6666565c-1.7685547,2.9735718-6.388916,9.7661133-14.75,12.5
			c-8.3836365,2.741272-15.7805481-0.1503906-23.5833435-3.3333435c-6.312561-2.5750427-17.4855957-8.2276917-28.1666718-20.6666565
			c0.2351227-1.0591431,0.9425201-3.5732117,3.1666718-5.8333435
			C260.450531,434.7514954,262.7460022,433.9747314,263.7966309,433.6889038z"/>
		
			<ellipse id="XMLID_458_" transform="matrix(0.7991258 0.6011639 -0.6011639 0.7991258 310.0843811 -64.3498154)" class="st49" cx="251.333252" cy="431.8256836" rx="6.2435822" ry="4.6373224"/>
		<path id="XMLID_472_" class="st57" d="M302.5317383,599.6138916c-12.1041565,0-24.2083435,0-36.3125,0
			c-0.1473694-0.899231-0.2116394-2.2130127,0.5625-3.0625c0.9030457-0.9909668,2.4000244-0.7498779,5.0625-0.875
			c1.8249207-0.0857544,3.624176-0.4649658,5.4375-0.6875c2.5102234-0.3080444,6.2583008-1.7943115,11.5-7.1875
			c1.4236755-0.2943115,3.6189575-0.6322021,6.3125-0.5625c3.3032227,0.0854492,5.8735962,0.1519775,7.0625,1.8125
			c0.4812927,0.6722412,0.4855957,1.2556763,0.4375,5.5C302.5824585,595.5907593,302.5617981,597.3571777,302.5317383,599.6138916z"
			/>
		<path id="XMLID_482_" class="st57" d="M432.2966309,586.3555908c-0.1201172,0.1809082-0.7467651,0.4816895-2,1.083313
			c-2.142395,1.0284424-2.7564087,1.1459351-3.25,1.833313c-0.2543335,0.354187-0.5334473,0.9850464-0.5032349,2.020813h9.0877991
			c0.4752197,0,0.8699036-0.3666382,0.9048462-0.8405762l2.0105896-27.2635498
			c-1.1134644-0.0245972-3.3365479-0.0767212-6.2130127-0.1677856c-3.8616943-0.1222534-4.6508179-0.1705322-5.5,0.4375
			c-1.6605225,1.1889038-1.7270508,3.7592773-1.8125,7.0625c-0.0697021,2.6935425,0.2681885,4.888855,0.5625,6.3125
			C431.8676758,583.0632324,432.8925781,585.458252,432.2966309,586.3555908z"/>
	</g>
</g>
</svg>
