<?xml version="1.0" encoding="utf-8"?>
<!-- Generator: Adobe Illustrator 19.0.0, SVG Export Plug-In . SVG Version: 6.00 Build 0)  -->
<svg version="1.1" id="Layer_1" xmlns="http://www.w3.org/2000/svg" xmlns:xlink="http://www.w3.org/1999/xlink" x="0px" y="0px"
	 width="781.5088501px" height="276.7513123px" viewBox="0 0 781.5088501 276.7513123"
	 style="enable-background:new 0 0 781.5088501 276.7513123;" xml:space="preserve">
<style type="text/css">
	.st0{fill:#008cff;}
</style>
<g>
	<g>
		<path class="st0" d="M300.2038269,38.6043434c-14.1140137,0-25.5968628,11.3085938-25.5968628,25.2090454
			c0,13.9003868,11.4828491,25.2090416,25.5968628,25.2090416s25.5969238-11.3086548,25.5969238-25.2090416
			C325.8007507,49.9129372,314.3178406,38.6043434,300.2038269,38.6043434z M300.2038269,75.7867126
			c-6.1950073,0-11.2354126-5.3712158-11.2354126-11.9733238s5.0404053-11.9733276,11.2354126-11.9733276
			s11.2354126,5.3712158,11.2354126,11.9733276S306.3988342,75.7867126,300.2038269,75.7867126z"/>
		<path class="st0" d="M554.7370605,39.2923241c-2.7543335,1.5792847-4.5008545,3.4952393-6.041687,5.4351196v-5.4987183h-14
			v47.4824257h14c0-6.3580322,0-12.7160645,0-19.0740967c0.097229-2.3093262,0.194458-4.6186867,0.291687-6.9280128
			c0.0664673-0.866394,0.2631226-2.1534119,0.875-3.5833435c0.2974243-0.6950378,1.3701782-3.0197754,3.875-4.791687
			c3.3139648-2.3442993,6.8621216-2.1450806,7.916626-2.0464478V36.9048119
			C559.7915649,37.1896019,557.3067627,37.8189354,554.7370605,39.2923241z"/>
		<path class="st0" d="M433.4454041,112.3638992V82.2241898c1.8170776,1.7490234,6.7322998,5.7711182,13.833313,5.6594238
			c5.8547974-0.0921631,9.9136963-2.9484253,11.25-3.916687c8.6663208-6.2793579,9.3414917-17.131897,9.416687-18.75
			c0.4459839-9.5980797-4.4855347-22.9681358-16-25.9999962c-6.6486206-1.7506104-13.7224121,0.4129028-18.5,4.4298706v-3.7579956
			h-14v72.4750977H433.4454041z M433.528717,56.3003044c1.4001465-2.59552,4.1553955-4.7341309,7.5-5.333374
			c0.3248291-0.0581665,5.0568237-0.8224487,8.916687,2.416687c4.1190186,3.456604,3.9727173,8.7313232,3.916687,10.7499962
			c-0.0557251,2.0076294-0.1468506,5.2927856-2.666687,8.083313c-3.0112915,3.3347778-7.2126465,3.4172363-8,3.416687
			c-1.1672974-0.0009155-4.3933716-0.1920166-7-2.541687c-1.6096802-1.4509888-2.3771973-3.1744995-2.75-4.0679932
			c-0.0130005-0.03125-0.0296021-0.069519-0.041687-0.0986328c-0.5592651-1.3494873-0.7522583-2.4883423-0.916626-3.458374
			c-0.1751099-1.0332642-0.4211426-2.5442467-0.25-4.4166222c0.0792236-0.866394,0.2556763-2.7213745,1.208313-4.5786743
			C433.474762,56.4144402,433.4978943,56.3574944,433.528717,56.3003044z"/>
		<path class="st0" d="M615.5286865,57.0210876c-0.3928223-2.1090088-1.326416-7.1074219-5.1012573-11.3978882
			c-6.1849365-7.0297852-15.5219116-7.0205078-17.2320557-7.0187988c-1.9926758,0.0020142-9.1740112,0.2525635-15.666626,5.583313
			c-0.7080078,0.5813599-9.3487549,7.9205322-9.083374,19.6922607c0.2731323,12.1139526,9.8065186,21.220459,19,24.0577393
			c5.9667358,1.8414307,11.0719604,0.8045654,12.416687,0.5c8.6785889-1.9657593,13.4668579-8.2047119,14.75-10l-9.010437-6.635376
			c-0.8508301,1.1826172-2.5065308,3.1309814-5.21875,4.46875c-0.8903809,0.4391479-6.7429199,3.3258057-12.15625,0.0625
			c-3.6964722-2.2283936-5.8279419-6.5092163-5.6060791-11.0625h20.8039551h12.3448486
			C616.017395,63.2755432,616.1569214,60.3941956,615.5286865,57.0210876z M582.5884399,57.7085876
			c1.6787109-4.8837891,5.5473022-8.3125,10.0439453-8.3125c4.4973755,0,8.3661499,3.4287109,10.0449219,8.3125H582.5884399z"/>
		<path class="st0" d="M406.5287781,49.6291237c-0.354248-1.6641235-0.7529297-3.4589844-2-5.5
			c-1.4266357-2.3347778-3.2300415-3.7911377-4.416687-4.583313c-4.1036377-2.739563-8.4013062-2.5900879-10.25-2.5
			c-4.7306519,0.2305298-8.0383911,2.1918335-9.3815308,3.0101929c-2.5084839,1.5283813-4.2232056,3.2940674-5.2994385,4.5944824
			c-0.0568237,0.0686646-0.1199341,0.1418457-0.1732483,0.2078247c0.0383606-0.0969238,0.0767517-0.1939087,0.1150818-0.2908325
			c-1.6448364-2.3567505-3.0911865-4.3964233-5.7400818-5.8966675c-0.1174011-0.0665283-0.233429-0.1116333-0.3506775-0.1734009
			c-3.4103394-1.7958984-6.7134399-1.6310425-7.961792-1.5453491c-1.0377808,0.071228-4.7526245,0.4297485-8.40625,3.125
			c-2.1264648,1.5686646-3.4294434,3.3366699-4.1562805,4.5v-4.6875h-7.5323181h-6.0301514v0.291626v46.7986488h14V57.6118507
			c-0.0371094-0.6119385-0.1462402-3.4904175,1.9840088-5.94104c0.4745483-0.5459595,2.3477783-2.6311035,5.4222412-2.75
			c3.0631714-0.1184692,5.0787354,1.8013916,5.4840088,2.1875c0.2840576,0.2705688,1.0878906,1.048584,1.6882324,2.2619629
			c0.1803589,0.364563,0.3445435,0.7644653,0.4680176,1.2067871c0.1998901,0.7159424,0.2374268,1.3522949,0.3125,2.625
			c0.0803833,1.3624878,0.0639648,2.4981689,0.0314941,3.3012085v26.4765663h13.1879883V57.6118507
			c-0.0300293-0.4956665-0.0862427-2.4790649,1.017334-4.5168457c0.2589722-0.4781494,0.5618286-0.9584351,0.9666443-1.4241943
			c0.4745789-0.5459595,2.3478088-2.6311035,5.4222717-2.75c3.0631714-0.1184692,5.0787354,1.8013916,5.4840088,2.1875
			c0.3694458,0.3518677,1.6218872,1.5545044,2.15625,3.46875c0.1998901,0.7159424,0.2374268,1.3522949,0.3124695,2.625
			c0.0804138,1.3624878,0.0639954,2.4981689,0.0315247,3.3012085v26.4765663h14V67.503273
			c-0.0332642-3.0202026-0.0175781-5.4454994,0-7.0000038C406.9828796,54.4563332,407.1811829,52.693943,406.5287781,49.6291237z"/>
		<path class="st0" d="M523.0703735,73.8763123c-0.4571533-0.1586914-0.8925171-0.3098145-1.25-0.625
			c-0.6958008-0.6135254-0.7286987-1.5645752-0.75-3.75c-0.026062-2.6760864,0-3.083252,0-3.083252
			c0.2858276-4.4633141,0.428772-6.6949425,0.375-8.6667442c-0.0352173-1.2928467-0.0900269-3.0109863-0.541626-5.208374
			c-0.3308105-1.609436-0.800293-3.8937988-2.145874-6.2291145c-2.1185303-3.6768303-5.2516479-5.4717522-6.9374695-6.4375114
			c-3.9163818-2.2436523-7.4874268-2.6455078-9.125-2.8124886c-1.7278442-0.1762199-5.6643066-0.5343132-10.25,1.125
			c-5.8539429,2.1181526-9.1885376,6.2294197-10.5,8.0624886c2.666687,2.375,5.333374,4.75,8,7.125
			c0.3825684-0.5130615,3.418396-4.446106,8.5-4.5c0.8399658-0.0089111,4.8212891-0.0511475,7.458374,3.166626
			c2.1984863,2.6826782,1.9835205,5.826355,1.916626,6.541687c-1.4511108-0.2523193-3.4620361-0.5515747-5.875-0.75
			c-2.852356-0.2344971-4.7873535-0.3935547-7.25-0.166687c-5.031189,0.463623-8.618042,2.2022095-9.5,2.6458855
			c-2.1469727,1.0799446-4.076355,2.0504036-5.833313,4.1874847c-2.8120117,3.4202881-3.0825806,7.2745972-3.125,8.208313
			c-0.2282715,5.0227051,2.3199463,9.6949463,5.958313,12.291687c2.4673462,1.7609253,4.9470215,2.2183838,6.8124695,2.5625153
			c1.172821,0.2162933,4.6510925,0.8226166,8.5625305-0.1875153c7.0194702-1.8128052,10.722229-7.6147461,11.625-9.125
			c0.5056763,1.2628174,1.9140625,4.2716675,5.1874695,6.4375153c5.0864868,3.3652802,10.5911865,1.9925385,11.5,1.75
			c0-4.0633698,0-8.1267242,0-12.1900787C525.2299805,74.2911072,524.2141113,74.2732849,523.0703735,73.8763123z
			 M506.8828735,69.6888275c-0.7211609,1.4152679-2.079071,4.0798798-5.375,5.7916107
			c-1.9943542,1.0358276-3.7471619,1.2286377-4.5832825,1.3125c-0.8260498,0.0828247-1.6678467,0.159729-2.729187-0.1041107
			c-0.7147827-0.1777496-2.0023804-0.497879-2.895813-1.625c-1.2764282-1.6103668-0.8068848-3.6804352-0.729187-4
			c0.1298828-0.4375763,0.378479-1.0876617,0.875-1.75c0.9821167-1.3101959,2.2871094-1.8048248,2.9374695-2.0417023
			c1.0190125-0.3710327,1.8430481-0.4258423,3.4167175-0.4582977c1.4398193-0.0297394,3.3414917-0.0373077,5.604187,0.0416107
			c0.777771,0.034729,1.555542,0.069458,2.333313,0.104187c0.3084106,0.003479,1.1452637,0.0505981,1.5,0.6042023
			C507.5655823,68.0764465,507.3365784,68.7986145,506.8828735,69.6888275z"/>
	</g>
	<g>
		<polygon class="st0" points="291.0896301,182.0794373 297.3326111,142.0976868 311.4884338,182.0794373 325.2698059,182.0794373 
			338.9854431,142.2461243 345.6003723,182.0794373 359.7921448,182.0794373 349.2686462,113.6909485 333.7447205,113.5591125 
			318.2911072,159.3447571 302.2876892,113.3198547 286.7730408,113.5762024 276.9198914,182.0794373 		"/>
		<polygon class="st0" points="399.2313538,134.3969727 387.7471619,160.684082 377.4826355,134.5219727 362.4256287,134.5219727 
			380.4156189,177.4643555 366.6097107,209.0636597 381.8878479,209.0636597 414.5088806,134.3969727 		"/>
		<polygon class="st0" points="766.2313232,134.3969727 754.7471313,160.684082 744.482605,134.5219727 729.4255981,134.5219727 
			747.4155884,177.4643555 733.6096802,209.0636597 748.8878174,209.0636597 781.5088501,134.3969727 		"/>
		<path class="st0" d="M625.9453735,146.6556091c-0.5693359-2.114502-1.4943237-5.5497437-4.416687-8.583374
			c-1.5661011-1.6257324-3.3145142-2.7230835-5.0031738-3.4752197c-3.3502808-1.4923096-6.4608154-1.6010132-7.4134521-1.6080933
			c-1.1253662-0.0083618-4.7583618,0.0724487-8.666687,2.166687c-2.1734619,1.1646118-3.9876709,2.7166138-5.956665,5.1515503
			v-6.710144h-14v48.4824219h14v-29.367981c0.3330688-2.0231323,1.3084717-5.0197144,4.144165-6.9933472
			c0.4008789-0.2790527,3.3076782-2.2164917,7.0625-1.625c0.8113403,0.1278076,2.5419922,0.4230347,4.125,1.78125
			c1.8397217,1.5784302,2.380188,3.6488037,2.520813,4.21875c0.2178345,0.8827515,0.2979736,1.99823,0.458374,4.229126
			c0.0384521,0.53479,0.0637817,0.9780884,0.0796509,1.2806396v26.4765625h14v-19.4765625v-7
			C626.7182007,151.3612976,626.6370239,149.2243958,625.9453735,146.6556091z"/>
		<path class="st0" d="M523.0892334,169.8208008c0.5693359,2.114502,1.4943237,5.5497437,4.416687,8.583374
			c1.5661011,1.6257324,3.3145142,2.7230835,5.0031738,3.4752197c3.3502808,1.4923096,6.4608154,1.6010132,7.4134521,1.6080933
			c1.1253662,0.0083618,4.7583618-0.0724487,8.666687-2.166687c2.1734619-1.1646118,3.9876709-2.7166138,5.956665-5.1515503
			v6.710144h14v-48.4824219h-14v29.367981c-0.3330688,2.0231323-1.3084717,5.0197144-4.144165,6.9933472
			c-0.4008789,0.2790527-3.3076782,2.2164917-7.0625,1.625c-0.8113403-0.1278076-2.5419922-0.4230347-4.125-1.78125
			c-1.8397217-1.5784302-2.380188-3.6488037-2.520813-4.21875c-0.2178345-0.8827515-0.2979736-1.99823-0.458374-4.229126
			c-0.0384521-0.53479-0.0637817-0.9780884-0.0796509-1.2806396v-26.4765625h-14v19.4765625v7
			C522.3164063,165.1151123,522.397583,167.2520142,523.0892334,169.8208008z"/>
		<path class="st0" d="M718.3618164,134.660614c-2.7543335,1.5792847-4.5008545,3.4952393-6.041687,5.4351196v-5.4987183h-14
			v47.4824219h14c0-6.3580322,0-12.7160645,0-19.0740967c0.097229-2.3093262,0.194397-4.6186829,0.291626-6.928009
			c0.0664673-0.866394,0.2631836-2.1534119,0.875061-3.5833435c0.2973633-0.6950378,1.3701782-3.0197754,3.875-4.791687
			c3.3139648-2.3442993,6.8621216-2.1450806,7.916626-2.0464478v-13.3827515
			C723.4163208,132.5578918,720.9315186,133.1872253,718.3618164,134.660614z"/>
		<path class="st0" d="M670.1953735,109.7283936v30.1397095c-1.8170776-1.7490234-6.7322998-5.7711182-13.833313-5.6594238
			c-5.8547974,0.0921631-9.9136963,2.9484253-11.25,3.916687c-8.6663208,6.2793579-9.3414917,17.131897-9.416687,18.75
			c-0.4459839,9.5980835,4.4855347,22.9681396,16,26c6.6486206,1.7506104,13.7224121-0.4129028,18.5-4.4298706v3.7579956h14
			v-72.4750977H670.1953735z M670.1120605,165.7919922c-1.4001465,2.59552-4.1553955,4.7341309-7.5,5.333374
			c-0.3248291,0.0581665-5.0568237,0.8224487-8.916687-2.416687c-4.1190186-3.456604-3.9727173-8.7313232-3.916687-10.75
			c0.0557251-2.0076294,0.1468506-5.2927856,2.666687-8.083313c3.0112915-3.3347778,7.2126465-3.4172363,8-3.416687
			c1.1672974,0.0009155,4.3933716,0.1920166,7,2.541687c1.6096802,1.4509888,2.3771973,3.1744995,2.75,4.0679932
			c0.0130005,0.03125,0.0296021,0.069519,0.041687,0.0986328c0.5592651,1.3494873,0.7522583,2.4883423,0.916626,3.458374
			c0.1751099,1.0332642,0.4211426,2.5442505,0.25,4.416626c-0.0792236,0.866394-0.2556763,2.7213745-1.208313,4.5786743
			C670.1660156,165.6778564,670.1428833,165.7348022,670.1120605,165.7919922z"/>
		<polygon class="st0" points="433.4454041,168.0794373 433.4454041,112.3638992 419.4454041,112.3638992 419.4454041,182.0794373 
			426.4454041,182.0794373 433.4454041,182.0794373 458.0704041,182.0794373 458.0704041,168.0794373 		"/>
		<path class="st0" d="M511.4397583,169.4219208c-0.4571533-0.1586914-0.8925171-0.3098145-1.25-0.625
			c-0.6958008-0.6135254-0.7286987-1.5645752-0.75-3.75c-0.026062-2.6760864,0-3.083252,0-3.083252
			c0.2858276-4.4633179,0.428772-6.6949463,0.375-8.666748c-0.0352173-1.2928467-0.0900269-3.0109863-0.541626-5.208374
			c-0.3308105-1.609436-0.800293-3.8937988-2.145874-6.229126c-2.1185303-3.6768188-5.2516479-5.4717407-6.9375-6.4375
			c-3.9163818-2.2436523-7.4874268-2.6455078-9.125-2.8125c-1.7278442-0.1762085-5.6643066-0.5343018-10.25,1.125
			c-5.8539429,2.1181641-9.1885376,6.2294312-10.5,8.0625c2.666687,2.375,5.333374,4.75,8,7.125
			c0.3825684-0.5130615,3.418396-4.446106,8.5-4.5c0.8399658-0.0089111,4.8212891-0.0511475,7.458374,3.166626
			c2.1984863,2.6826782,1.9835205,5.826355,1.916626,6.541687c-1.4511108-0.2523193-3.4620361-0.5515747-5.875-0.75
			c-2.852356-0.2344971-4.7873535-0.3935547-7.25-0.166687c-5.031189,0.463623-8.618042,2.2022095-9.5,2.645874
			c-2.1469727,1.0799561-4.076355,2.050415-5.833313,4.1875c-2.8120117,3.4202881-3.0825806,7.2745972-3.125,8.208313
			c-0.2282715,5.0227051,2.3199463,9.6949463,5.958313,12.291687c2.4673462,1.7609253,4.9470215,2.2183838,6.8125,2.5625
			c1.1727905,0.2163086,4.651062,0.8226318,8.5625-0.1875c7.0194702-1.8128052,10.722229-7.6147461,11.625-9.125
			c0.5056763,1.2628174,1.9140625,4.2716675,5.1875,6.4375c5.0864868,3.3652954,10.5911865,1.9925537,11.5,1.75
			c0-4.0633545,0-8.126709,0-12.1900635C513.5993652,169.8367157,512.5834961,169.8188934,511.4397583,169.4219208z
			 M495.2522583,165.2344208c-0.7211914,1.4152832-2.0791016,4.079895-5.375,5.791626
			c-1.9943848,1.0358276-3.7471924,1.2286377-4.583313,1.3125c-0.8260498,0.0828247-1.6678467,0.159729-2.729187-0.104126
			c-0.7147827-0.1777344-2.0023804-0.4978638-2.895813-1.625c-1.2764282-1.6103516-0.8068848-3.6804199-0.729187-4
			c0.1298828-0.437561,0.378479-1.0876465,0.875-1.75c0.9821167-1.3101807,2.2871094-1.8048096,2.9375-2.041687
			c1.0189819-0.3710327,1.8430176-0.4258423,3.416687-0.458313c1.4398193-0.0297241,3.3414917-0.0372925,5.604187,0.041626
			c0.777771,0.034729,1.555542,0.069458,2.333313,0.104187c0.3084106,0.003479,1.1452637,0.0505981,1.5,0.604187
			C495.9349365,163.6220551,495.7059326,164.344223,495.2522583,165.2344208z"/>
	</g>
	<g>
		<path class="st0" d="M20.7017403,276.7513123c-3.5488281,0-7.074708-1.5029297-9.546876-4.4238281
			c-3.0615234-3.6162109-12.8935547-16.8583984-10.887207-35.4199219c0.0722656-0.6660156,0.1582031-1.3251953,0.2563476-1.9726563
			c2.5605469-16.8964844,15.7670908-30.6123047,32.8618164-34.1308594l197.9760742-40.7373047v-34.1845703
			c-1.2856445,0.4941406-2.5844727,0.9462891-3.8950195,1.3544922c-0.0351563,0.0112305-0.0722656,0.0224609-0.1079102,0.0332031
			c-0.9824219,0.2963867-9.8676758,2.8964844-19.246582,2.8964844c-17.8720703,0-34.5371094-7.097168-46.925293-19.9848633
			c-12.3828125-12.8818359-18.8134766-29.8300781-18.1064453-47.7226524
			c1.3378906-33.8666992,28.9248047-61.2856445,62.8046875-62.421875
			c19.6318359-0.6557617,38.3115234,7.4404297,51.2353668,22.2197266c4.5444336,5.1967773,4.015625,13.09375-1.1811676,17.6381836
			c-5.1972656,4.5454102-13.0942383,4.0146484-17.6381836-1.1811523c-7.9628906-9.1064453-19.484375-14.105957-31.578125-13.6904297
			c-20.855957,0.6992188-37.8383789,17.5761719-38.6621094,38.4223633
			c-0.4360352,11.0331993,3.5239258,21.4780235,11.1494141,29.4106407
			c7.6303711,7.9384766,17.8950195,12.3100586,28.9018555,12.3100586c5.5786133,0,11.4633789-1.6679688,11.9946289-1.8217773
			c5.5991211-1.7573242,10.8803711-4.8291016,15.2783203-8.887207c3.6499023-3.3662109,8.9458008-4.253418,13.4912109-2.2631836
			c4.5473633,1.9916992,7.4853668,6.4858398,7.4853668,11.4501953v66.6118164c0,5.9326324-4.1699371,11.0478516-9.980484,12.2431641
			L38.4253731,225.2903748c-6.8862305,1.4179688-12.1845703,6.7988281-13.1835938,13.390625
			c-0.0454102,0.2998047-0.0854492,0.6035156-0.1186523,0.9121094c-0.9619141,8.8974609,4.090332,15.3740234,5.112793,16.5820313
			c4.4604492,5.2685547,3.8046875,13.15625-1.4643555,17.6171875
			C26.42342,275.7796326,23.5547676,276.7513123,20.7017403,276.7513123z"/>
	</g>
</g>
</svg>
