<?xml version="1.0" encoding="utf-8"?>
<!-- Generator: Adobe Illustrator 19.0.0, SVG Export Plug-In . SVG Version: 6.00 Build 0)  -->
<svg version="1.1" id="Layer_1" xmlns="http://www.w3.org/2000/svg" xmlns:xlink="http://www.w3.org/1999/xlink" x="0px" y="0px"
	 width="300px" height="300px" viewBox="-155 247 300 300" style="enable-background:new -155 247 300 300;" xml:space="preserve">
<style type="text/css">
	.st0{fill:none;stroke:#016ECF;stroke-width:8;stroke-linecap:round;stroke-linejoin:round;stroke-miterlimit:10;}
</style>
<g>
	<path class="st0" d="M93.0390091,475.3683167v26.400177C93.0390091,516.8080444,80.8470535,529,65.8075104,529h-89.3858261
		c-15.0395412,0-27.2314968-12.1919556-27.2314968-27.2315063V360.6220398l37.4173241-46.1480103H55.621685l37.4173241,46.1480103
		v94.5906677"/>
	<path class="st0" d="M-79.3343582,401.5686646l-22.2006226,60.9957886
		c-4.6896515,12.8845825,1.9536896,27.131073,14.8381195,31.8207092l36.5514717,13.3035889
		c-0.4235649-1.9081726-0.6644287-3.8847046-0.6644287-5.9202881V360.6220398l36.3278122-44.8042603L-57.5233459,341.64328
		l-16.4802475,45.2792053"/>
	<g>
		<path class="st0" d="M55.1020012,400.7446289l-67.9748077,67.9747925L55.1020012,400.7446289z"/>
		<circle class="st0" cx="-5.1772375" cy="414.2506714" r="12.680315"/>
		<circle class="st0" cx="47.4064369" cy="455.2133789" r="12.680315"/>
	</g>
	<circle class="st0" cx="21.1145992" cy="344.6157532" r="9.354331"/>
	<path class="st0" d="M30.4689293,344.6157532h0.0000229c12.5141907,0,22.6589508-10.1447754,22.6589508-22.6589661V265"/>
</g>
</svg>
