<?xml version="1.0" encoding="utf-8"?>
<!-- Generator: Adobe Illustrator 19.0.0, SVG Export Plug-In . SVG Version: 6.00 Build 0)  -->
<svg version="1.1" id="Layer_1" xmlns="http://www.w3.org/2000/svg" xmlns:xlink="http://www.w3.org/1999/xlink" x="0px" y="0px"
	 width="300px" height="300px" viewBox="-155 247 300 300" style="enable-background:new -155 247 300 300;" xml:space="preserve">
<style type="text/css">
	.st0{fill:none;stroke:#016ECF;stroke-width:8;stroke-linecap:round;stroke-linejoin:round;stroke-miterlimit:10;}
</style>
<g>
	<path class="st0" d="M46.1213875,368.256897v119.2864685c0,7.1637268-5.8073616,12.9710999-12.9710999,12.9710999H-86.6416168
		v15.5144653C-86.6416168,523.192627-80.834259,529-73.670517,529H69.7745667
		c7.1637344,0,12.9710999-5.807373,12.9710999-12.9710693V365.4185791
		c-6.7287064,3.1220703-14.2212906,4.8762207-22.1271706,4.8762207
		C55.588047,370.2947998,50.7287292,369.5744019,46.1213875,368.256897z"/>
	<circle class="st0" cx="60.6184959" cy="317.6473999" r="52.6473999"/>
	<path class="st0" d="M7.9710984,317.6473999c0-15.4169617,6.6279912-29.2848206,17.1883698-38.9132996h-135.4542694
		c-7.1637344,0-12.9710999,5.807373-12.9710999,12.9710999v195.8381653c0,7.1637268,5.8073654,12.9710999,12.9710999,12.9710999
		H33.1502876c7.1637383,0,12.9710999-5.807373,12.9710999-12.9710999V368.256897
		C24.0981636,361.9592285,7.9710984,341.6932678,7.9710984,317.6473999z"/>
	<path class="st0" d="M-86.6416168,317.6473999v26.2542725H14.9920177l0,0
		c-4.4576969-7.7298889-7.0209193-16.6901245-7.0209193-26.2542725H-86.6416168z"/>
	<path class="st0" d="M-86.6416168,373.8554993H14.9920111H-86.6416168z"/>
	<path class="st0" d="M-86.6416168,398.2716675H14.9920111H-86.6416168z"/>
	<path class="st0" d="M-86.6416168,422.6878662H14.9920111H-86.6416168z"/>
	<path class="st0" d="M-86.6416168,447.1040344H14.9920111H-86.6416168z"/>
	<g>
		<path class="st0" d="M60.6184959,298.3179321v38.6589355V298.3179321z"/>
		<rect x="60.6184959" y="294.2485657" class="st0" width="0" height="0"/>
	</g>
</g>
</svg>
