<?xml version="1.0" encoding="utf-8"?>
<!-- Generator: Adobe Illustrator 19.0.0, SVG Export Plug-In . SVG Version: 6.00 Build 0)  -->
<svg version="1.1" id="Layer_1" xmlns="http://www.w3.org/2000/svg" xmlns:xlink="http://www.w3.org/1999/xlink" x="0px" y="0px"
	 width="300px" height="300px" viewBox="-155 247 300 300" style="enable-background:new -155 247 300 300;" xml:space="preserve">
<style type="text/css">
	.st0{fill:none;stroke:#016ecf;stroke-width:8;stroke-linecap:round;stroke-linejoin:round;stroke-miterlimit:10;}
	.st1{fill:#016ecf;}
</style>
<g>
	<g>
		<path class="st0" d="M-72.8692703,444.3365173c25.0029068,25.0028992,65.5406647,25.0028992,90.5435715,0
			s25.0029087-65.5406494,0-90.5435791c-25.0029087-25.0028992-65.5406647-25.0028992-90.5435715,0
			c-20.1225815,20.1225891-24.0503159,50.307373-11.7832108,74.3580627"/>
		<polyline class="st0" points="10.731863,449.7310791 26.3808765,465.3801575 38.7179222,453.0430908 23.0689087,437.3940735 		"/>
		<path class="st0" d="M77.7666397,482.6220398l-34.3138351-34.3138123l-21.8068104,21.8067932l34.3138351,34.3138428
			c6.021801,6.0217896,15.7850075,6.0217896,21.8068123,0C83.7884369,498.4070435,83.7884369,488.6438599,77.7666397,482.6220398z"
			/>
	</g>
	<path class="st0" d="M12.4764891,382.6443176H-88.2052841C-115.153862,382.6443176-137,360.7981873-137,333.8496094v-0.0000916
		c0-26.9485779,21.846138-48.7947388,48.7947159-48.7947388H78.2052841C105.153862,285.0547791,127,306.9009399,127,333.8495178
		v0.0000916c0,26.9485779-21.846138,48.7947083-48.7947159,48.7947083H34.2933197"/>
	<path class="st0" d="M78.2052689,362.8166809h-0.000061c-15.9980927,0-28.9671135-12.9689941-28.9671135-28.9671021v-0.000061
		c0-15.9980774,12.9690208-28.9671021,28.9671135-28.9671021h0.000061c15.9980927,0,28.9671173,12.9690247,28.9671173,28.9671021
		v0.000061C107.1723862,349.8476868,94.2033615,362.8166809,78.2052689,362.8166809z"/>
	<g>
		<circle class="st1" cx="-94.9445953" cy="333.8495483" r="5.0337672"/>
		<circle class="st1" cx="-111.5337982" cy="333.8495483" r="5.0337672"/>
		<circle class="st1" cx="-78.3553848" cy="333.8495483" r="5.0337672"/>
	</g>
	<polyline class="st0" points="67.6209793,333.2062988 75.1059799,340.6913147 88.7894974,327.007782 	"/>
</g>
</svg>
