<svg xmlns="http://www.w3.org/2000/svg" width="27.494" height="7.11" viewBox="0 0 27.494 7.11">
  <g id="Arrow_icon" transform="translate(-601.5 -473)">
    <g id="Group_51" data-name="Group 51">
      <line id="Line_13" data-name="Line 13" x2="23" transform="translate(601.5 476.5)" fill="none" stroke="#fff" stroke-width="2"/>
      <g id="Group_25" data-name="Group 25" transform="translate(622.579 473)">
        <path id="Path_8" data-name="Path 8" d="M.5,6.915V.5L6.273,3.707Z" transform="translate(-0.179 -0.161)" fill="#fff"/>
        <path id="Path_9" data-name="Path 9" d="M.321,7.135a.221.221,0,0,1-.192-.071A.385.385,0,0,1,0,6.778V.364A.385.385,0,0,1,.128.078a.263.263,0,0,1,.321,0L6.222,3.286c.128,0,.192.143.192.285s-.064.285-.192.285L.449,7.063C.449,7.135.385,7.135.321,7.135ZM.641.934V6.208L5.388,3.571Z" transform="translate(0 -0.025)" fill="#fff"/>
      </g>
    </g>
  </g>
</svg>
