<?xml version="1.0" encoding="utf-8"?>
<!-- Generator: Adobe Illustrator 19.0.0, SVG Export Plug-In . SVG Version: 6.00 Build 0)  -->
<svg version="1.1" id="Layer_1" xmlns="http://www.w3.org/2000/svg" xmlns:xlink="http://www.w3.org/1999/xlink" x="0px" y="0px"
	 width="1493.7026367px" height="264.4746094px" viewBox="0 0 1493.7026367 264.4746094"
	 style="enable-background:new 0 0 1493.7026367 264.4746094;" xml:space="preserve">
<style type="text/css">
	.st0{fill:#008CFF;}
	.st1{opacity:0.2;}
</style>
<g id="XMLID_29_">
	<g id="XMLID_27_">
		<path id="XMLID_38_" class="st0" d="M11.375,264.4746094c-6.2719727,0-11.375-5.1025391-11.375-11.375
			s5.1030273-11.375,11.375-11.375s11.375,5.1025391,11.375,11.375S17.6469727,264.4746094,11.375,264.4746094z M11.375,245.7246094
			c-4.0664063,0-7.375,3.3085938-7.375,7.375s3.3085938,7.375,7.375,7.375s7.375-3.3085938,7.375-7.375
			S15.4414063,245.7246094,11.375,245.7246094z"/>
	</g>
	<g id="XMLID_32_" class="st1">
		<path id="XMLID_39_" class="st0" d="M20.1010742,249.4443359l-1.5395508-2.5742188
			c2.2353516-1.3369141,4.5317383-2.7011719,6.8876953-4.0888672l1.5234375,2.5839844
			C24.621582,246.7509766,22.3310547,248.1113281,20.1010742,249.4443359z M30.4179688,243.3417969l-1.5146484-2.5898438
			c2.2573242-1.3203125,4.5664063-2.6611328,6.9267578-4.0214844l1.4980469,2.5996094
			C34.9736328,240.6865234,32.6694336,242.0253906,30.4179688,243.3417969z M40.7929688,237.3388672l-1.4897461-2.6035156
			c2.2763672-1.3027344,4.5986328-2.6220703,6.9663086-3.9550781l1.4726563,2.6132813
			C45.3803711,234.7236328,43.0639648,236.0400391,40.7929688,237.3388672z M51.2255859,231.4375l-1.4638672-2.6191406
			c2.293457-1.2822266,4.628418-2.5791016,7.003418-3.8867188l1.4472656,2.6269531
			C55.8432617,228.8642578,53.5141602,230.1572266,51.2255859,231.4375z M61.7163086,225.6376953l-1.4394531-2.6328125
			c2.3100586-1.2626953,4.6567383-2.5361328,7.0405273-3.8193359l1.4228516,2.640625
			C66.3623047,223.1074219,64.0205078,224.3769531,61.7163086,225.6376953z M72.2607422,219.9394531l-1.4130859-2.6464844
			c2.3256836-1.2412109,4.6845703-2.4921875,7.0771484-3.7509766l1.3964844,2.6552734
			C76.9345703,217.453125,74.5805664,218.7001953,72.2607422,219.9394531z M82.8613281,214.34375l-1.3876953-2.6601563
			c2.340332-1.2207031,4.7109375-2.4492188,7.112793-3.6826172l1.3710938,2.6679688
			C87.5615234,211.9003906,85.1962891,213.125,82.8613281,214.34375z M93.5141602,208.8505859l-1.3623047-2.6738281
			c2.3544922-1.1992188,4.7373047-2.4033203,7.1489258-3.6132813l1.3447266,2.6816406
			C98.2397461,206.4521484,95.862793,207.6533203,93.5141602,208.8505859z M974.690918,207.7304688
			c-2.6582031-0.0039063-5.3330078-0.0263672-8.0214844-0.0683594l0.046875-3
			c2.6748047,0.0419922,5.3349609,0.0644531,7.9785156,0.0683594L974.690918,207.7304688z M978.7016602,207.7236328l-0.015625-3
			c2.6777344-0.0146484,5.3378906-0.0478516,7.9804688-0.0976563l0.0566406,3
			C984.0668945,207.6757813,981.3930664,207.7089844,978.7016602,207.7236328z M962.6586914,207.5849609
			c-2.6591797-0.0615234-5.3330078-0.1416016-8.0185547-0.2412109l0.1113281-2.9980469
			c2.671875,0.0996094,5.3300781,0.1796875,7.9755859,0.2392578L962.6586914,207.5849609z M990.7329102,207.5351563
			l-0.078125-2.9980469c2.6787109-0.0693359,5.3388672-0.15625,7.9785156-0.2597656l0.1171875,2.9980469
			C996.097168,207.3789063,993.425293,207.4658203,990.7329102,207.5351563z M950.6313477,207.1787109
			c-0.8720703-0.0390625-1.7460938-0.0800781-2.6220703-0.1230469c-1.8125-0.0898438-3.609375-0.1875-5.3896484-0.2949219
			l0.1796875-2.9941406c1.7705078,0.1054688,3.5566406,0.203125,5.3583984,0.2929688
			c0.8701172,0.0429688,1.7402344,0.0839844,2.6083984,0.1220703L950.6313477,207.1787109z M1002.7563477,207.1044922
			l-0.1367188-2.9960938c2.6796875-0.1230469,5.3378906-0.2626953,7.9716797-0.4160156l0.1757813,2.9941406
			C1008.1196289,206.8417969,1005.449707,206.9814453,1002.7563477,207.1044922z M938.6186523,206.5058594
			c-2.7050781-0.1816406-5.3701172-0.3837891-7.9990234-0.6035156l0.25-2.9902344
			c2.6132813,0.2197266,5.2626953,0.4199219,7.9501953,0.6015625L938.6186523,206.5058594z M1014.7700195,206.4394531
			l-0.1953125-2.9941406c2.6796875-0.1738281,5.3349609-0.3642578,7.9628906-0.5693359l0.234375,2.9902344
			C1020.1303711,206.0732422,1017.4624023,206.2636719,1014.7700195,206.4394531z M926.6225586,205.5498047
			c-2.6455078-0.2441406-5.3300781-0.515625-7.9785156-0.8066406l0.328125-2.9824219
			c2.6308594,0.2890625,5.2978516,0.5585938,7.9257813,0.8007813L926.6225586,205.5498047z M1026.7670898,205.5439453
			l-0.2519531-2.9902344c2.6806641-0.2255859,5.3310547-0.4667969,7.9501953-0.7197266l0.2890625,2.9863281
			C1032.1235352,205.0742188,1029.4594727,205.3164063,1026.7670898,205.5439453z M1038.7446289,204.421875l-0.3066406-2.984375
			c2.6796875-0.2753906,5.3261719-0.5654297,7.9365234-0.8662109l0.34375,2.9804688
			C1044.0961914,203.8544922,1041.4379883,204.1445313,1038.7446289,204.421875z M914.6577148,204.2861328
			c-2.6582031-0.3164063-5.3349609-0.6601563-7.953125-1.0214844l0.4101563-2.9726563
			c2.6005859,0.359375,5.2578125,0.7011719,7.8984375,1.015625L914.6577148,204.2861328z M104.2197266,203.4589844
			l-1.3359375-2.6855469c2.3671875-1.1787109,4.762207-2.3603516,7.1831055-3.5449219l1.3183594,2.6953125
			C108.9702148,201.1044922,106.581543,202.2841797,104.2197266,203.4589844z M1050.7006836,203.0791016l-0.3613281-2.9785156
			c2.6796875-0.3251953,5.3203125-0.6621094,7.9199219-1.0107422l0.3984375,2.9726563
			C1056.0463867,202.4130859,1053.394043,202.7519531,1050.7006836,203.0791016z M902.7338867,202.6953125
			c-2.6279297-0.3896484-5.2939453-0.8115234-7.9228516-1.2539063l0.4980469-2.9589844
			c2.6103516,0.4404297,5.2558594,0.8583984,7.8642578,1.2441406L902.7338867,202.6953125z M1062.6293945,201.5205078
			l-0.4160156-2.9707031c2.6806641-0.375,5.3154297-0.7597656,7.9013672-1.1533203l0.4511719,2.9667969
			C1067.9682617,200.7578125,1065.3217773,201.1435547,1062.6293945,201.5205078z M890.8579102,200.7529297
			c-2.6386719-0.4736328-5.2900391-0.9775391-7.8808594-1.4990234l0.5917969-2.9414063
			c2.5703125,0.5175781,5.2011719,1.0185547,7.8183594,1.4873047L890.8579102,200.7529297z M1074.5297852,199.7470703
			l-0.46875-2.9628906c2.6835938-0.4248047,5.3105469-0.8574219,7.8798828-1.2949219l0.5039063,2.9570313
			C1079.8637695,198.8857422,1077.2250977,199.3203125,1074.5297852,199.7470703z M879.0444336,198.4394531
			c-2.6455078-0.5644531-5.2792969-1.1572266-7.8271484-1.7597656l0.6914063-2.9199219
			c2.5263672,0.5986328,5.1376953,1.1855469,7.7626953,1.7460938L879.0444336,198.4394531z M114.9770508,198.1728516
			l-1.3105469-2.6992188c2.3808594-1.1552734,4.7866211-2.3144531,7.2172852-3.4755859l1.293457,2.7070313
			C119.7519531,195.8632813,117.3520508,197.0195313,114.9770508,198.1728516z M1086.3959961,197.7617188l-0.5214844-2.9550781
			c2.6884766-0.4746094,5.3076172-0.953125,7.8554688-1.4345703l0.5566406,2.9472656
			C1091.7270508,196.8027344,1089.0961914,197.2841797,1086.3959961,197.7617188z M867.3149414,195.7324219
			c-2.6162109-0.6513672-5.2275391-1.3349609-7.7617188-2.0302734l0.7929688-2.8925781
			c2.5126953,0.6884766,5.1015625,1.3662109,7.6953125,2.0126953L867.3149414,195.7324219z M1098.2241211,195.5634766
			l-0.5742188-2.9453125c2.6982422-0.5253906,5.3095703-1.0527344,7.8291016-1.5761719l0.609375,2.9375
			C1103.5571289,194.5048828,1100.934082,195.0341797,1098.2241211,195.5634766z M1110.0131836,193.1513672l-0.6289063-2.9335938
			c2.7197266-0.5830078,5.3212891-1.1582031,7.7978516-1.7207031l0.6640625,2.9257813
			C1115.3579102,191.9873047,1112.7446289,192.5664063,1110.0131836,193.1513672z M125.7841797,192.9892578L124.5,190.2783203
			c2.3930664-1.1337891,4.8095703-2.2685547,7.25-3.4052734l1.2670898,2.71875
			C130.5820313,190.7265625,128.1713867,191.859375,125.7841797,192.9892578z M855.6889648,192.6162109
			c-2.5683594-0.7373047-5.1542969-1.5146484-7.6875-2.3085938l0.8984375-2.8632813
			c2.5097656,0.7871094,5.0722656,1.5576172,7.6171875,2.2890625L855.6889648,192.6162109z M1121.7563477,190.5214844
			l-0.6835938-2.921875c2.7695313-0.6474609,5.359375-1.2734375,7.7626953-1.8701172l0.7226563,2.9121094
			C1127.1430664,189.2402344,1124.5395508,189.8701172,1121.7563477,190.5214844z M844.1782227,189.0830078
			c-2.5371094-0.8310547-5.0927734-1.703125-7.5966797-2.5927734l1.0039063-2.8271484
			c2.4804688,0.8818359,5.0126953,1.7451172,7.5263672,2.5683594L844.1782227,189.0830078z M136.6411133,187.9101563
			l-1.2587891-2.7226563c2.4052734-1.1123047,4.8330078-2.2236328,7.2832031-3.3369141l1.2402344,2.7314453
			C141.4624023,185.6923828,139.0405273,186.8017578,136.6411133,187.9101563z M1133.4487305,187.6611328l-0.7421875-2.90625
			c2.9296875-0.7480469,5.5126953-1.4316406,7.7246094-2.0292969l0.78125,2.8964844
			C1138.9887695,186.2216797,1136.394043,186.9091797,1133.4487305,187.6611328z M832.8061523,185.1240234
			c-2.4736328-0.9121094-4.9951172-1.8769531-7.4951172-2.8691406l1.1074219-2.7890625
			c2.4765625,0.9833984,4.9746094,1.9404297,7.4257813,2.84375L832.8061523,185.1240234z M1145.0805664,184.5625
			l-0.8007813-2.890625c2.5791016-0.7148438,5.1376953-1.4423828,7.6728516-2.1826172l0.8398438,2.8808594
			C1150.2436523,183.1132813,1147.6733398,183.84375,1145.0805664,184.5625z M147.5463867,182.9355469l-1.2314453-2.7363281
			c2.4169922-1.0878906,4.8544922-2.1767578,7.3139648-3.265625l1.2148438,2.7431641
			C152.3901367,180.7626953,149.9575195,181.8496094,147.5463867,182.9355469z M1156.6381836,181.2363281l-0.8574219-2.875
			c2.5634766-0.765625,5.1064453-1.5429688,7.6289063-2.3320313l0.8955078,2.8632813
			C1161.7700195,179.6855469,1159.215332,180.4667969,1156.6381836,181.2363281z M821.5883789,180.7509766
			c-2.453125-1.0087891-4.9375-2.0644531-7.3847656-3.1376953l1.2050781-2.7470703
			c2.4257813,1.0634766,4.8886719,2.1103516,7.3203125,3.109375L821.5883789,180.7509766z M158.4990234,178.0664063
			l-1.2050781-2.7480469c2.4282227-1.0654297,4.8764648-2.1298828,7.3447266-3.1943359l1.1884766,2.7539063
			C163.3647461,175.9404297,160.9223633,177.0029297,158.4990234,178.0664063z M1168.128418,177.6835938l-0.9140625-2.8574219
			c2.546875-0.8154297,5.0742188-1.6425781,7.5820313-2.4824219l0.953125,2.8457031
			C1173.2280273,176.0332031,1170.6889648,176.8642578,1168.128418,177.6835938z M810.5375977,175.9775391
			c-2.4169922-1.0927734-4.8632813-2.2324219-7.2724609-3.3876953l1.296875-2.7050781
			c2.3896484,1.1455078,4.8154297,2.2753906,7.2119141,3.3603516L810.5375977,175.9775391z M1179.5463867,173.9042969
			l-0.9707031-2.8378906c2.5302734-0.8652344,5.0400391-1.7421875,7.5322266-2.6308594l1.0078125,2.8261719
			C1184.6118164,172.1542969,1182.0883789,173.0351563,1179.5463867,173.9042969z M169.4980469,173.3027344l-1.1787109-2.7578125
			c2.4394531-1.0429688,4.8979492-2.0839844,7.3754883-3.1240234l1.1611328,2.765625
			C174.3842773,171.2246094,171.9316406,172.2636719,169.4980469,173.3027344z M799.6567383,170.8369141
			c-2.34375-1.1523438-4.7529297-2.3671875-7.1601563-3.6103516l1.3769531-2.6660156
			c2.3896484,1.234375,4.78125,2.4404297,7.1074219,3.5849609L799.6567383,170.8369141z M1190.8862305,169.9023438
			l-1.0253906-2.8183594c2.5107422-0.9140625,5.0039063-1.8398438,7.4794922-2.7773438l1.0625,2.8046875
			C1195.9155273,168.0546875,1193.4106445,168.984375,1190.8862305,169.9023438z M180.5424805,168.6464844l-1.1523438-2.7695313
			c1.3686523-0.5693359,2.7426758-1.1386719,4.1220703-1.7060547l3.2900391-1.3544922l1.1416016,2.7734375l-3.2885742,1.3544922
			C183.2783203,167.5117188,181.9072266,168.0791016,180.5424805,168.6464844z M1202.1479492,165.6816406l-1.0800781-2.7988281
			c2.4921875-0.9619141,4.9667969-1.9345703,7.4257813-2.9189453l1.1152344,2.7851563
			C1207.1381836,163.7373047,1204.6518555,164.7158203,1202.1479492,165.6816406z M788.940918,165.3710938
			c-2.3759766-1.2548828-4.7265625-2.5214844-7.0566406-3.7998047l1.4433594-2.6308594
			c2.3164063,1.2705078,4.6533203,2.53125,7.0136719,3.7783203L788.940918,165.3710938z M191.6557617,164.0615234
			l-1.1416016-2.7734375l7.4208984-3.0527344l1.1396484,2.7753906L191.6557617,164.0615234z M1213.3256836,161.2480469
			l-1.1328125-2.7773438c2.4726563-1.0078125,4.9287109-2.0273438,7.3720703-3.0566406l1.1640625,2.7646484
			C1218.2758789,159.2128906,1215.8081055,160.2363281,1213.3256836,161.2480469z M778.3764648,159.6308594
			c-2.3398438-1.3066406-4.6611328-2.6230469-6.96875-3.9472656l1.4941406-2.6015625
			c2.2958984,1.3183594,4.6074219,2.6289063,6.9375,3.9296875L778.3764648,159.6308594z M202.7875977,159.4863281
			l-1.1396484-2.7753906l7.4243164-3.0449219l1.1367188,2.7763672L202.7875977,159.4863281z M1224.4194336,156.609375
			l-1.1816406-2.7578125c2.4570313-1.0527344,4.9013672-2.1171875,7.3310547-3.1933594l1.2148438,2.7441406
			C1229.3422852,154.4824219,1226.8881836,155.5507813,1224.4194336,156.609375z M213.9243164,154.9238281l-1.1352539-2.7773438
			c2.4799805-1.0136719,4.956543-2.0234375,7.4306641-3.03125l1.1308594,2.7792969
			C218.878418,152.9003906,216.402832,153.9101563,213.9243164,154.9238281z M767.9399414,153.6806641
			c-2.3134766-1.3427734-4.6123047-2.6933594-6.9042969-4.0488281l1.5273438-2.5820313
			c2.2841797,1.3515625,4.5771484,2.6982422,6.8828125,4.0371094L767.9399414,153.6806641z M1235.4536133,151.7666016
			l-1.2285156-2.7363281c2.4365234-1.0947266,4.8613281-2.2001953,7.2744141-3.3144531l1.2578125,2.7226563
			C1240.3344727,149.5585938,1237.8999023,150.6679688,1235.4536133,151.7666016z M225.0688477,150.3828125l-1.1289063-2.7792969
			c2.4824219-1.0087891,4.9624023-2.0126953,7.4389648-3.0117188l1.1230469,2.78125
			C230.0273438,148.3720703,227.5493164,149.3759766,225.0688477,150.3828125z M757.5952148,147.5888672
			c-2.2880859-1.3613281-4.5693359-2.7255859-6.8496094-4.0917969l1.5410156-2.5742188
			c2.2783203,1.3642578,4.5576172,2.7285156,6.8417969,4.0878906L757.5952148,147.5888672z M1246.3999023,146.7460938
			l-1.2714844-2.7167969c2.4160156-1.1318359,4.8222656-2.2734375,7.21875-3.4267578l1.3007813,2.703125
			C1251.2416992,144.4628906,1248.8256836,145.6103516,1246.3999023,146.7460938z M236.2246094,145.8740234l-1.1201172-2.7832031
			c2.4863281-1,4.9697266-1.9960938,7.4506836-2.9863281l1.1123047,2.7851563
			C241.1894531,143.8798828,238.7080078,144.8740234,236.2246094,145.8740234z M1257.2592773,141.5605469l-1.3125-2.6972656
			c2.3974609-1.1660156,4.7851563-2.3417969,7.1669922-3.5283203l1.3378906,2.6855469
			C1262.0620117,139.2109375,1259.6645508,140.390625,1257.2592773,141.5605469z M747.3227539,141.4462891
			c-2.2832031-1.3691406-4.5673828-2.7382813-6.8574219-4.1044922l1.5380859-2.5761719
			c2.2910156,1.3681641,4.5771484,2.7373047,6.8623047,4.1083984L747.3227539,141.4462891z M247.3950195,141.4042969
			l-1.1083984-2.7871094c2.4902344-0.9902344,4.9775391-1.9746094,7.4628906-2.9550781l1.1005859,2.7910156
			C252.3671875,139.4316406,249.8823242,140.4160156,247.3950195,141.4042969z M258.5834961,136.984375l-1.0947266-2.7929688
			c2.4951172-0.9780273,4.9882813-1.9506836,7.4790039-2.9169922l1.0849609,2.796875
			C263.5654297,135.0361328,261.0756836,136.0078125,258.5834961,136.984375z M1268.0356445,136.2255859l-1.3496094-2.6796875
			c2.3798828-1.1972656,4.7529297-2.4038086,7.1210938-3.6191406l1.3701172,2.6689453
			C1272.8022461,133.8144531,1270.4213867,135.0244141,1268.0356445,136.2255859z M737.0288086,135.2949219
			c-2.2885742-1.359375-4.5849609-2.715332-6.894043-4.065918l1.5146484-2.5898438
			c2.3149414,1.3544922,4.6171875,2.7138672,6.9106445,4.0761719L737.0288086,135.2949219z M269.7939453,132.6259766
			l-1.0791016-2.7993164c2.5009766-0.9643555,5-1.9223633,7.4970703-2.8725586l1.0673828,2.8037109
			C274.7861328,130.7070313,272.2910156,131.6630859,269.7939453,132.6259766z M1278.7358398,130.7617188l-1.3789063-2.6640625
			c2.3623047-1.2241211,4.7216797-2.456543,7.0771484-3.6977539l1.3984375,2.6542969
			C1283.4711914,128.2983398,1281.105957,129.534668,1278.7358398,130.7617188z M726.6860352,129.2207031
			c-2.2915039-1.3266602-4.5981445-2.6469727-6.9233398-3.9594727l1.4746094-2.6123047
			c2.3349609,1.3173828,4.6503906,2.6435547,6.9516602,3.9750977L726.6860352,129.2207031z M281.0297852,128.3349609
			l-1.0605469-2.8061523c2.5078125-0.9472656,5.0131836-1.8876953,7.5175781-2.8208008l1.0473633,2.8115234
			C286.0341797,126.4506836,283.5332031,127.3891602,281.0297852,128.3349609z M1289.3696289,125.1835938l-1.40625-2.6494141
			c2.3486328-1.2475586,4.6962891-2.5024414,7.0410156-3.7646484l1.421875,2.6416016
			C1294.0756836,122.6762695,1291.7241211,123.934082,1289.3696289,125.1835938z M292.2939453,124.1245117l-1.0400391-2.8144531
			c2.5151367-0.9291992,5.0283203-1.8500977,7.5395508-2.7617188l1.0244141,2.8193359
			C297.3115234,122.2783203,294.8032227,123.1967773,292.2939453,124.1245117z M716.2836914,123.3129883
			c-2.3095703-1.2832031-4.6391602-2.5571289-6.9941406-3.8198242l1.4179688-2.6435547
			c2.3676758,1.2695313,4.7109375,2.550293,7.0332031,3.8413086L716.2836914,123.3129883z M303.5878906,120.0048828
			l-1.015625-2.8227539c2.5224609-0.9082031,5.043457-1.8071289,7.5634766-2.6972656l0.9990234,2.8291016
			C308.6206055,118.2021484,306.1049805,119.0986328,303.5878906,120.0048828z M1299.9428711,119.5112305l-1.4296875-2.6376953
			c2.3369141-1.2661133,4.6728516-2.5390625,7.0097656-3.8193359l1.4414063,2.6308594
			C1304.6235352,116.9677734,1302.2836914,118.2431641,1299.9428711,119.5112305z M705.7700195,117.6245117
			c-2.3823242-1.2514648-4.7646484-2.4765625-7.0820313-3.6411133l1.3466797-2.6806641
			c2.3334961,1.1723633,4.7329102,2.40625,7.1308594,3.6665039L705.7700195,117.6245117z M314.9165039,115.9863281
			l-0.9892578-2.8320313c2.53125-0.8837891,5.0610352-1.7587891,7.590332-2.6230469l0.9702148,2.8388672
			C319.9648438,114.2324219,317.440918,115.1044922,314.9165039,115.9863281z M1310.4663086,113.7626953l-1.4472656-2.628418
			c2.3271484-1.2807617,4.6542969-2.5678711,6.984375-3.8618164l1.4570313,2.6230469
			C1315.1264648,111.1914063,1312.7954102,112.4804688,1310.4663086,113.7626953z M695.1210938,112.2119141
			c-2.3984375-1.175293-4.8149414-2.3291016-7.1826172-3.4296875l1.2646484-2.7207031
			c2.3862305,1.109375,4.8217773,2.2724609,7.2382813,3.456543L695.1210938,112.2119141z M326.2822266,112.0800781
			l-0.9599609-2.8417969c2.5395508-0.8579102,5.0786133-1.7050781,7.6176758-2.5419922l0.9389648,2.8496094
			C331.347168,110.3798828,328.8149414,111.2250977,326.2822266,112.0800781z M337.6865234,108.2988281l-0.9277344-2.8525391
			c2.5493164-0.8291016,5.0981445-1.6469727,7.6469727-2.4526367l0.9042969,2.8603516
			C342.769043,106.6577148,340.2280273,107.4726563,337.6865234,108.2988281z M1320.9467773,107.956543l-1.4589844-2.6210938
			c2.3173828-1.2910156,4.6396484-2.5883789,6.9658203-3.8920898l1.4667969,2.6171875
			C1325.5922852,105.3652344,1323.2680664,106.6635742,1320.9467773,107.956543z M684.3193359,107.1240234
			c-2.434082-1.0991211-4.8857422-2.1733398-7.2871094-3.1933594l1.1728516-2.7612305
			c2.421875,1.0288086,4.8945313,2.1123047,7.3486328,3.2202148L684.3193359,107.1240234z M349.1318359,104.6552734
			l-0.8925781-2.8642578c2.559082-0.7973633,5.1181641-1.5820313,7.6772461-2.3549805l0.8671875,2.8720703
			C354.2324219,103.078125,351.6821289,103.8608398,349.1318359,104.6552734z M673.359375,102.3955078
			c-2.4516602-1.0087891-4.9379883-1.9975586-7.390625-2.9394531l1.0751953-2.8007813
			c2.4750977,0.9506836,4.9833984,1.9482422,7.4570313,2.9658203L673.359375,102.3955078z M1331.409668,102.1044922
			l-1.46875-2.6162109c2.3183594-1.3007813,4.640625-2.6069336,6.9697266-3.9194336l1.4726563,2.6137695
			C1336.0522461,99.4956055,1333.7280273,100.8027344,1331.409668,102.1044922z M360.6196289,101.1591797l-0.8535156-2.8759766
			c2.5693359-0.7626953,5.1391602-1.512207,7.7084961-2.2490234l0.8271484,2.8837891
			C365.7407227,99.6523438,363.1801758,100.3994141,360.6196289,101.1591797z M662.2456055,98.050293
			c-2.4677734-0.9145508-4.987793-1.8144531-7.4902344-2.6748047l0.9746094-2.8369141
			c2.5253906,0.8676758,5.0683594,1.7758789,7.5585938,2.6992188L662.2456055,98.050293z M372.1513672,97.8251953l-0.8125-2.8876953
			c2.5795898-0.7255859,5.1601563-1.4375,7.7407227-2.1347656l0.7822266,2.8964844
			C377.2910156,96.3935547,374.7211914,97.1025391,372.1513672,97.8251953z M1341.8588867,96.2246094l-1.4726563-2.6132813
			l6.9677734-3.9287109l1.4736328,2.6132813L1341.8588867,96.2246094z M383.7275391,94.6660156l-0.7670898-2.9003906
			c2.590332-0.6850586,5.1811523-1.3549805,7.7729492-2.0107422l0.7358398,2.9082031
			C388.8876953,93.315918,386.3076172,93.9838867,383.7275391,94.6660156z M650.9838867,94.1044922
			c-2.5029297-0.8271484-5.0537109-1.6367188-7.581543-2.40625l0.8740234-2.8701172
			c2.550293,0.7768555,5.1235352,1.5932617,7.6489258,2.4277344L650.9838867,94.1044922z M395.3481445,91.6933594
			l-0.71875-2.9121094c2.6000977-0.6420898,5.2016602-1.2685547,7.8041992-1.8793945l0.6855469,2.9208984
			C400.5273438,90.4306641,397.9375,91.0541992,395.3481445,91.6933594z M639.5898438,90.5605469
			c-2.5239258-0.7358398-5.1020508-1.4560547-7.6630859-2.1401367l0.7744141-2.8984375
			c2.5830078,0.6899414,5.1831055,1.4160156,7.7285156,2.1586914L639.5898438,90.5605469z M1352.3120117,90.3198242
			l-1.4824219-2.6074219c2.3349609-1.328125,4.6474609-2.6523438,6.9355469-3.9711914l1.4980469,2.5996094
			C1356.9702148,87.6621094,1354.652832,88.9887695,1352.3120117,90.3198242z M407.0136719,88.9213867l-0.6679688-2.9248047
			c2.6108398-0.5961914,5.2226563-1.1757813,7.8359375-1.7382813l0.6318359,2.9326172
			C412.2119141,87.7509766,409.6123047,88.328125,407.0136719,88.9213867z M628.074707,87.4150391
			c-2.5493164-0.6503906-5.1503906-1.2827148-7.7314453-1.8803711l0.6767578-2.9228516
			c2.6020508,0.6025391,5.2255859,1.2402344,7.7958984,1.8959961L628.074707,87.4150391z M418.722168,86.362793l-0.612793-2.9365234
			c2.6196289-0.546875,5.2416992-1.0761719,7.8652344-1.5888672l0.5751953,2.9443359
			C423.9389648,85.2915039,421.3295898,85.8188477,418.722168,86.362793z M616.4609375,84.6567383
			c-2.574707-0.5664063-5.1962891-1.1147461-7.7915039-1.6298828l0.5839844-2.9423828
			c2.6152344,0.5185547,5.2573242,1.0712891,7.8520508,1.6425781L616.4609375,84.6567383z M1362.7299805,84.3364258
			l-1.5058594-2.5947266c2.3261719-1.3491211,4.6259766-2.6923828,6.9023438-4.0297852l1.5195313,2.5864258
			C1367.3657227,81.6386719,1365.0600586,82.984375,1362.7299805,84.3364258z M430.4711914,84.0297852l-0.5546875-2.9482422
			c2.6289063-0.4951172,5.2602539-0.9716797,7.8945313-1.4301758l0.5146484,2.9550781
			C435.7050781,83.0629883,433.0874023,83.5375977,430.4711914,84.0297852z M604.7587891,82.2719727
			c-2.5805664-0.484375-5.2177734-0.9526367-7.8383789-1.3911133l0.4951172-2.9589844
			c2.6401367,0.4418945,5.296875,0.9135742,7.8969727,1.4018555L604.7587891,82.2719727z M442.2587891,81.9355469
			l-0.4931641-2.9589844c2.6376953-0.4399414,5.277832-0.8618164,7.9199219-1.2641602l0.4516602,2.9658203
			C447.5092773,81.0786133,444.8828125,81.4975586,442.2587891,81.9355469z M592.9887695,80.2416992
			c-2.578125-0.4067383-5.2285156-0.7988281-7.8779297-1.1660156l0.4121094-2.9716797
			c2.6674805,0.3696289,5.3364258,0.7646484,7.9335938,1.1748047L592.9887695,80.2416992z M454.0820313,80.0927734
			l-0.4296875-2.96875c2.6450195-0.3828125,5.2929688-0.7460938,7.9438477-1.090332l0.3857422,2.9750977
			C459.3457031,79.3505859,456.7124023,79.7119141,454.0820313,80.0927734z M581.1591797,78.5458984
			c-2.6386719-0.3413086-5.3017578-0.6611328-7.9150391-0.9516602l0.3310547-2.9814453
			c2.6308594,0.2919922,5.3120117,0.6142578,7.96875,0.9575195L581.1591797,78.5458984z M465.9355469,78.5126953
			l-0.3632813-2.9780273c2.6518555-0.3232422,5.3066406-0.6259766,7.9638672-0.9082031l0.3164063,2.9833984
			C471.2109375,77.8901367,468.5717773,78.190918,465.9355469,78.5126953z M1373.0952148,78.2641602l-1.5273438-2.5820313
			c2.3164063-1.3701172,4.6064453-2.7333984,6.8671875-4.0888672l1.5429688,2.5732422
			C1377.7114258,75.5249023,1375.4174805,76.8911133,1373.0952148,78.2641602z M477.8149414,77.2050781l-0.2929688-2.9853516
			c2.6567383-0.2607422,5.3168945-0.5004883,7.9799805-0.7192383l0.2451172,2.9902344
			C483.0996094,76.7075195,480.4560547,76.9462891,477.8149414,77.2050781z M569.2807617,77.1723633
			c-2.6308594-0.2680664-5.3017578-0.515625-7.9379883-0.7363281l0.25-2.9892578
			c2.6542969,0.2216797,5.3432617,0.4711914,7.9916992,0.7412109L569.2807617,77.1723633z M489.7148438,76.1816406
			l-0.2207031-2.9921875c2.6606445-0.1962891,5.324707-0.3710938,7.9921875-0.5234375l0.1708984,2.9951172
			C495.0063477,75.8125,492.3588867,75.9863281,489.7148438,76.1816406z M557.3691406,76.1230469
			c-2.6362305-0.1967773-5.3129883-0.3720703-7.9555664-0.5205078l0.1689453-2.9951172
			c2.6601563,0.1494141,5.3554688,0.3256836,8.0092773,0.5239258L557.3691406,76.1230469z M501.6279297,75.4511719
			l-0.1464844-2.996582c2.6601563-0.1293945,5.3510742-0.237793,7.9990234-0.3222656l0.0957031,2.9985352
			C506.9448242,75.2148438,504.2705078,75.3222656,501.6279297,75.4511719z M545.4321289,75.3969727
			c-2.6386719-0.125-5.3188477-0.2280273-7.9663086-0.3056641l0.0878906-2.9990234
			c2.6655273,0.0786133,5.3642578,0.1821289,8.0200195,0.3076172L545.4321289,75.3969727z M513.5537109,75.0209961
			l-0.0698242-2.9990234c2.6665039-0.0620117,5.3647461-0.1015625,8.0205078-0.1171875l0.0175781,3
			C518.8837891,74.9204102,516.2026367,74.9594727,513.5537109,75.0209961z M533.4804688,74.9912109
			c-2.6313477-0.0537109-5.3134766-0.0849609-7.972168-0.0927734l0.0087891-3
			c2.6762695,0.0078125,5.3759766,0.0390625,8.0249023,0.09375L533.4804688,74.9912109z M1383.4086914,72.1035156
			l-1.5488281-2.5688477c2.3066406-1.3911133,4.5849609-2.7734375,6.8320313-4.1469727l1.5644531,2.5605469
			C1388.003418,69.3237305,1385.7211914,70.7089844,1383.4086914,72.1035156z M1393.6694336,65.855957l-1.5703125-2.5556641
			c2.2978516-1.4125977,4.5634766-2.8144531,6.7958984-4.2050781l1.5859375,2.546875
			C1398.2426758,63.0356445,1395.9731445,64.4404297,1393.6694336,65.855957z M1403.8774414,59.5205078l-1.59375-2.5419922
			c2.2900391-1.4345703,4.5439453-2.855957,6.7607422-4.2626953l1.6074219,2.5332031
			C1408.4291992,56.6586914,1406.1713867,58.0830078,1403.8774414,59.5205078z M1414.0297852,53.0976563l-1.6152344-2.5283203
			c2.28125-1.456543,4.5224609-2.8969727,6.7246094-4.3208008l1.6289063,2.5195313
			C1418.5620117,50.1948242,1416.3149414,51.6381836,1414.0297852,53.0976563z M1424.128418,46.5893555l-1.6367188-2.5146484
			c2.2744141-1.4794922,4.5029297-2.9389648,6.6845703-4.3779297l1.6513672,2.5048828
			C1428.6411133,43.6435547,1426.4067383,45.1064453,1424.128418,46.5893555z M1434.168457,39.9931641l-1.6582031-2.5
			c2.2685547-1.5039063,4.484375-2.9829102,6.6484375-4.4355469l1.671875,2.4902344
			C1438.6625977,37.0043945,1436.440918,38.4863281,1434.168457,39.9931641z M1444.1518555,33.3115234l-1.6796875-2.4863281
			c2.2646484-1.5288086,4.4677734-3.0273438,6.6103516-4.4926758l1.6933594,2.4760742
			C1448.6293945,30.2773438,1446.4204102,31.7788086,1444.1518555,33.3115234z M1454.0786133,26.5424805l-1.7011719-2.4716797
			c2.2636719-1.5576172,4.453125-3.0751953,6.5712891-4.550293l1.7148438,2.4619141
			C1458.5415039,23.4604492,1456.3461914,24.980957,1454.0786133,26.5424805z"/>
	</g>
	<g id="XMLID_31_">
		<g id="XMLID_28_">
			<path id="XMLID_35_" class="st0" d="M1463.0268555,40.4628906l-4.7246094-18.7871094l-14.9423828-12.4858398L1493.7026367,0
				L1463.0268555,40.4628906z M1452.4731445,11.5922852l9.3916016,7.847168l3.0097656,11.9658203l19.4238281-25.6225586
				L1452.4731445,11.5922852z"/>
		</g>
		<g id="XMLID_30_">
			
				<rect id="XMLID_34_" x="1472.5419922" y="-5.2189064" transform="matrix(0.5214796 0.8532637 -0.8532637 0.5214796 715.602356 -1252.5628662)" class="st0" width="4.0000362" height="33.8865433"/>
		</g>
	</g>
</g>
</svg>
