<?xml version="1.0" encoding="utf-8"?>
<!-- Generator: Adobe Illustrator 19.0.0, SVG Export Plug-In . SVG Version: 6.00 Build 0)  -->
<svg version="1.1" id="Layer_1" xmlns="http://www.w3.org/2000/svg" xmlns:xlink="http://www.w3.org/1999/xlink" x="0px" y="0px"
	 width="300px" height="300px" viewBox="0 0 300 300" style="enable-background:new 0 0 300 300;" xml:space="preserve">
<g id="XMLID_35_">
	<g id="XMLID_86_">
		<g id="XMLID_89_">
			<path id="XMLID_90_" style="fill:#41B952;" d="M150,281.9997559c-72.7851715,0-132-59.2143402-132-131.9995117
				s59.2148285-132,132-132s132,59.2148285,132,132S222.7851715,281.9997559,150,281.9997559z M150,38.3316917
				c-61.5740891,0-111.6685638,50.0944633-111.6685638,111.6685486S88.4259109,261.6683044,150,261.6683044
				s111.6685486-50.0939636,111.6685486-111.6680603S211.5740967,38.3316917,150,38.3316917z"/>
		</g>
		<g id="XMLID_87_">
			<path id="XMLID_88_" style="fill:#41B952;" d="M130.9635925,194.5904388c-2.6014862,0-5.20298-0.9922485-7.187973-2.9772491
				l-30.7761307-30.7756348c-3.969986-3.969986-3.9704819-10.4064484-0.0004959-14.3764496
				c3.9699936-3.969986,10.4064636-3.9704895,14.3764572-0.0004883l23.5881424,23.5876465l61.6604614-61.6609573
				c3.969986-3.9690018,10.4069519-3.9690018,14.3769531,0c3.969986,3.9699936,3.969986,10.4069595,0,14.3769531
				l-68.848938,68.8489304C136.1670685,193.5976868,133.565094,194.5904388,130.9635925,194.5904388z"/>
		</g>
	</g>
</g>
</svg>
