<?xml version="1.0" encoding="utf-8"?>
<!-- Generator: Adobe Illustrator 25.4.1, SVG Export Plug-In . SVG Version: 6.00 Build 0)  -->
<svg version="1.1" id="Layer_1" xmlns="http://www.w3.org/2000/svg" xmlns:xlink="http://www.w3.org/1999/xlink" x="0px" y="0px"
	 width="300px" height="300px" viewBox="0 0 300 300" style="enable-background:new 0 0 300 300;" xml:space="preserve">
<style type="text/css">
	.st0{fill:#008CFF;}
</style>
<g>
	<path class="st0" d="M263.1402893,222.8950195c-12.8748932-14.7635803-21.7621002-30.6464233-26.4150238-47.2069397
		c-3.9819336-14.1690521-4.174057-26.0991058-4.3604431-37.636795c-0.2695312-16.7077179-0.548645-33.9841461-12.4973297-54.3583832
		c-9.1548309-15.6123428-20.0167542-24.610424-27.5170746-29.4095917
		c-9.3114014-5.9585724-19.9058838-9.9553299-31.094696-11.7905617V31.255724C161.255722,25.0395546,156.2166443,20,150,20
		c-6.2161713,0-11.255722,5.0395546-11.255722,11.255724v11.2370243
		c-11.1885757,1.8352318-21.782692,5.8319893-31.0951767,11.7905617
		c-7.4993591,4.7991676-18.3612823,13.7972488-27.5170746,29.4095917
		c-11.9486923,20.3742371-12.2273102,37.6506653-12.496376,54.3583832
		c-0.1863785,11.5376892-0.3785019,23.4677429-4.3604431,37.636795
		c-4.6534042,16.5605164-13.5410843,32.4433594-26.415966,47.2069397c-1.7873802,2.0502319-2.7723541,4.6777802-2.7723541,7.3980408
		v10.9058838c0,6.2166595,5.0395546,11.2557373,11.2557259,11.2557373h209.3147888
		c6.216629,0,11.255722-5.0390778,11.255722-11.2557373v-10.9058838
		C265.9131165,227.5727997,264.9286194,224.9452515,263.1402893,222.8950195z M60.1955605,229.943222
		c11.6973076-15.121048,20.008152-31.2829895,24.7518806-48.1646576
		c4.7709732-16.9782104,4.9970245-30.9967346,5.1967926-43.3645477c0.2528152-15.6802139,0.4525757-28.065239,9.4062119-43.3334885
		c7.2603989-12.3797684,15.7925186-18.9945068,20.2322998-21.8356781C130.8200531,66.1827774,142.2301483,64.2601471,150,63.9136658
		c7.7698517,0.3464813,19.1804199,2.2691116,30.2172546,9.3311844c4.4397888,2.8411713,12.9714203,9.4559097,20.2318268,21.8356781
		c8.9541016,15.2687302,9.1538696,27.6537552,9.4071655,43.3339615c0.1997681,12.3678131,0.4253387,26.3858643,5.1967926,43.3631134
		c4.7437286,16.8826294,13.0536194,33.0445709,24.7509308,48.1656189H60.1955605z"/>
	<path class="st0" d="M126.3456955,258.8518982c0,11.6797485,10.862587,21.1481018,24.2621994,21.1481018h0.000061
		c13.3996277,0,24.262146-9.4683533,24.262146-21.1481018v-0.0001221h-48.5244064V258.8518982z"/>
</g>
</svg>
