<?xml version="1.0" encoding="utf-8"?>
<!-- Generator: Adobe Illustrator 19.0.0, SVG Export Plug-In . SVG Version: 6.00 Build 0)  -->
<svg version="1.1" id="Layer_1" xmlns="http://www.w3.org/2000/svg" xmlns:xlink="http://www.w3.org/1999/xlink" x="0px" y="0px"
	 width="300px" height="300px" viewBox="0 0 300 300" style="enable-background:new 0 0 300 300;" xml:space="preserve">
<style type="text/css">
	.st0{fill:none;stroke:#008CFF;stroke-width:19.3444347;stroke-linecap:round;stroke-linejoin:round;stroke-miterlimit:10;}
</style>
<g id="XMLID_32_">
	<path id="XMLID_38_" class="st0" d="M234.8582306,59H65.1417694c-12.434639,0-22.5149078,10.0802612-22.5149078,22.5149078
		v0.0000458c0,12.4346313,10.0802689,22.5148926,22.5149078,22.5148926h169.7164612
		c12.4346313,0,22.5149078-10.0802612,22.5149078-22.5148926v-0.0000458C257.3731384,69.0802612,247.2928619,59,234.8582306,59z"/>
	<path id="XMLID_37_" class="st0" d="M234.3880615,104.0298462v150.776123C234.3880615,269.8248291,222.2128754,282,207.1940308,282
		H92.805954c-15.018837,0-27.1940155-12.1751709-27.1940155-27.1940155V104.0298462"/>
	<g id="XMLID_31_">
		<path id="XMLID_36_" class="st0" d="M121.6268692,168.3880615v49.2537231V168.3880615z"/>
		<path id="XMLID_33_" class="st0" d="M178.3731384,168.3880615v49.2537231V168.3880615z"/>
	</g>
	<path id="XMLID_21_" class="st0" d="M110.9674225,57.0325775C110.9674225,35.4754791,128.4429016,18,150,18
		s39.0325775,17.4754791,39.0325775,39.0325775"/>
</g>
</svg>
