<?xml version="1.0" encoding="utf-8"?>
<!-- Generator: Adobe Illustrator 19.0.0, SVG Export Plug-In . SVG Version: 6.00 Build 0)  -->
<svg version="1.1" id="Layer_1" xmlns="http://www.w3.org/2000/svg" xmlns:xlink="http://www.w3.org/1999/xlink" x="0px" y="0px"
	 width="767px" height="454px" viewBox="0 0 767 454" style="enable-background:new 0 0 767 454;" xml:space="preserve">
<style type="text/css">
	.st0{fill:#ADD8EB;}
	.st1{fill:#EFF4F5;}
	.st2{fill:#184767;}
	.st3{fill:#194665;}
	.st4{fill:#B5CFCE;}
	.st5{fill:#FFFFFF;}
	.st6{fill:#A3C0BE;}
	.st7{fill:#92B3B0;}
	.st8{fill:#3891D5;}
	.st9{fill:#174565;}
	.st10{opacity:0.1;}
	.st11{fill:#EDD4B9;}
	.st12{fill:#E5C9AE;}
	.st13{fill:#D1B597;}
	.st14{fill:#C63434;}
	.st15{fill:#E84D51;}
	.st16{fill:#B72926;}
	.st17{fill:#008F8D;}
	.st18{fill:#EED5BA;}
	.st19{fill:#00827C;}
	.st20{fill:#C1D7D4;}
	.st21{fill:#DFE5E5;}
</style>
<g>
	<g>
		<g>
			<path class="st0" d="M660.7411499,244h-2.2412109C634.1994629,244,614.5,224.3005524,614.5,200.000061v-0.0001221
				C614.5,175.6994476,634.1994629,156,658.499939,156h7.5001221C691.9573975,156,713,134.9574127,713,109.000061v-0.0001221
				C713,83.0425873,691.9573975,62,666.000061,62h-17.5563965c-10.0313721,0-18.5750732-7.8003922-18.9315796-17.8254509
				C629.1378174,33.6497726,637.5587769,25,648,25h10.5854492c6.8824463,0.0000019,12.786438-5.3843975,12.9124146-12.2657213
				C671.6262207,5.7235579,665.9815063,0,659,0h-65.255188c-8.7122192,0-17.307312,2.0075433-25.1181641,5.8668213
				l-1.0952148,0.5411377C548.104187,16.0068092,526.7263794,21,505.0571899,21l-106.105072-0.0000019
				c-8.6153259-0.0000019-16.0285034,6.6207504-16.4337769,15.2265453C382.0856323,45.4147148,389.4069824,53,398.5,53h15.4367981
				c12.7424927-0.0000038,23.5951843,9.9086113,24.0479431,22.643074C438.460083,89.0123978,427.7631836,100,414.500061,100
				h-38.9116516c-29.5847168,0-56.7460632,16.3533325-70.5883789,42.4999542l-0.000061,0.0000916
				C291.1576538,168.6466675,263.9963074,185,234.4115906,185h-74.9116058C139.8938904,185,124,200.8938904,124,220.4999847
				v0.0000763C124,240.1061401,139.8938599,256,159.499939,256h4.0001221C182.27771,256,197.5,271.22229,197.5,289.999939v0.0001221
				C197.5,308.77771,182.27771,324,163.500061,324H64.9999313C29.1014595,324,0,353.1014709,0,388.999939v0.0001221
				C0,424.8985291,29.1014633,454,64.999939,454H388h274c2.9981689,0,5.9649658-0.1326904,8.8994751-0.3790283
				c54.2474365-4.553894,96.7651978-50.3417358,96.0926514-105.9211121C766.2940674,290.0122986,718.4329224,244,660.7411499,244z"
				/>
		</g>
		<g>
			<g>
				<circle class="st0" cx="693.5" cy="12.5" r="12.5"/>
			</g>
			<g>
				<g>
					<path class="st1" d="M318.4166565,80.3333359H302.25c-3.0835876,0-5.5833435-2.4997482-5.5833435-5.5833359V58.5833321
						C296.6666565,55.4997444,299.1664124,53,302.25,53h16.1666565C321.5002441,53,324,55.4997444,324,58.5833321V74.75
						C324,77.8335876,321.5002441,80.3333359,318.4166565,80.3333359z"/>
				</g>
				<g>
					<path class="st2" d="M328.4165039,92.8334961H312.25c-4.4570313,0-8.0834961-3.6264648-8.0834961-8.0834961V68.5834961
						c0-4.4570313,3.6264648-8.0834961,8.0834961-8.0834961h16.1665039C332.8735352,60.5,336.5,64.1264648,336.5,68.5834961V84.75
						C336.5,89.2070313,332.8735352,92.8334961,328.4165039,92.8334961z M312.25,65.5
						c-1.7001953,0-3.0834961,1.3833008-3.0834961,3.0834961V84.75c0,1.7001953,1.3833008,3.0834961,3.0834961,3.0834961h16.1665039
						c1.7001953,0,3.0834961-1.3833008,3.0834961-3.0834961V68.5834961C331.5,66.8833008,330.1166992,65.5,328.4165039,65.5H312.25z
						"/>
				</g>
			</g>
			<g>
				<g>
					<path class="st1" d="M622.270813,88.9166641h-16.041626C604.4457397,88.9166641,603,87.4709167,603,85.6875V69.6458359
						c0-1.7834244,1.4457397-3.2291718,3.229187-3.2291718h16.041626c1.7834473,0,3.229187,1.4457474,3.229187,3.2291718V85.6875
						C625.5,87.4709167,624.0542603,88.9166641,622.270813,88.9166641z"/>
				</g>
				<g>
					<path class="st2" d="M614.7709961,98.1665039h-16.0419922C596.121582,98.1665039,594,96.0449219,594,93.4375V77.3959961
						c0-2.6079102,2.121582-4.7294922,4.7290039-4.7294922h16.0419922c2.6074219,0,4.7290039,2.121582,4.7290039,4.7294922V93.4375
						C619.5,96.0449219,617.378418,98.1665039,614.7709961,98.1665039z M598.7290039,75.6665039
						c-0.9536133,0-1.7290039,0.7758789-1.7290039,1.7294922V93.4375c0,0.9536133,0.7753906,1.7290039,1.7290039,1.7290039
						h16.0419922c0.9536133,0,1.7290039-0.7753906,1.7290039-1.7290039V77.3959961
						c0-0.9536133-0.7753906-1.7294922-1.7290039-1.7294922H598.7290039z"/>
				</g>
			</g>
			<g>
				<path class="st1" d="M470.6665039,91.9243164c-0.6367188,0-1.2739258-0.2426758-1.7587891-0.7275391l-5.3959961-5.3959961
					c-0.9702148-0.9697266-0.9702148-2.5483398,0-3.5180664l5.3959961-5.3959961c0.9707031-0.9697266,2.5493164-0.96875,3.5180664,0
					l5.3959961,5.3959961c0.9702148,0.9697266,0.9702148,2.5483398,0,3.5180664l-5.3959961,5.3959961
					C471.940918,91.6816406,471.3037109,91.9243164,470.6665039,91.9243164z M470.6669922,78.1582031
					c-0.125,0-0.25,0.0473633-0.3452148,0.1425781l-5.3959961,5.3959961c-0.1899414,0.1904297-0.1899414,0.4995117,0,0.6899414
					l5.3959961,5.3959961c0.1899414,0.1899414,0.4990234,0.190918,0.6899414,0l5.3959961-5.3959961
					c0.1899414-0.1904297,0.1899414-0.4995117,0-0.6899414l-5.3959961-5.3959961
					C470.9165039,78.2055664,470.7915039,78.1582031,470.6669922,78.1582031z"/>
			</g>
			<g>
				<path class="st1" d="M211.6147461,249.7675781c-0.637207,0-1.2744141-0.2421875-1.7592773-0.7275391l-5.3959961-5.3955078
					c-0.9702148-0.9697266-0.9702148-2.5488281,0-3.5185547l5.3959961-5.3955078
					c0.9707031-0.9707031,2.5493164-0.9697266,3.5180664,0l5.3959961,5.3955078
					c0.9702148,0.9697266,0.9702148,2.5488281,0,3.5185547l-5.3959961,5.3955078
					C212.8886719,249.5253906,212.2514648,249.7675781,211.6147461,249.7675781z M205.8735352,242.2304688l5.3959961,5.3955078
					c0.1904297,0.1894531,0.4995117,0.1894531,0.6899414,0l5.3959961-5.3955078c0.1904297-0.1904297,0.1904297-0.5,0-0.6904297
					l-5.3959961-5.3955078c-0.1904297-0.1884766-0.4995117-0.1904297-0.6899414,0l-5.3959961,5.3955078
					C205.6831055,241.7304688,205.6831055,242.0400391,205.8735352,242.2304688L205.8735352,242.2304688z"/>
			</g>
			<g>
				<path class="st1" d="M697.25,280.7675781c-0.637207,0-1.2744141-0.2421875-1.7592773-0.7275391l-5.3955078-5.3955078
					c-0.9702148-0.9697266-0.9702148-2.5488281,0-3.5185547l5.3955078-5.3955078
					c0.9697266-0.9707031,2.5488281-0.9707031,3.5185547,0l5.3955078,5.3955078
					c0.9702148,0.9697266,0.9702148,2.5488281,0,3.5185547l-5.3955078,5.3955078
					C698.5244141,280.5253906,697.887207,280.7675781,697.25,280.7675781z M697.25,267.0019531
					c-0.125,0-0.25,0.0478516-0.3452148,0.1425781l-5.3955078,5.3955078c-0.1904297,0.1904297-0.1904297,0.5,0,0.6904297
					l5.3955078,5.3955078c0.1904297,0.1894531,0.5,0.1894531,0.6904297,0l5.3955078-5.3955078
					c0.1904297-0.1904297,0.1904297-0.5,0-0.6904297l-5.3955078-5.3955078
					C697.5,267.0498047,697.375,267.0019531,697.25,267.0019531z"/>
			</g>
			<g>
				<path class="st1" d="M687.25,189.7675781c-0.637207,0-1.2744141-0.2421875-1.7592773-0.7275391l-5.3955078-5.3955078
					c-0.9702148-0.9697266-0.9702148-2.5488281,0-3.5185547l5.3955078-5.3955078
					c0.9697266-0.9707031,2.5488281-0.9707031,3.5185547,0l5.3955078,5.3955078
					c0.9702148,0.9697266,0.9702148,2.5488281,0,3.5185547l-5.3955078,5.3955078
					C688.5244141,189.5253906,687.887207,189.7675781,687.25,189.7675781z M687.25,176.0019531
					c-0.125,0-0.25,0.0478516-0.3452148,0.1425781l-5.3955078,5.3955078c-0.1904297,0.1904297-0.1904297,0.5,0,0.6904297
					l5.3955078,5.3955078c0.1904297,0.1894531,0.5,0.1894531,0.6904297,0l5.3955078-5.3955078
					c0.1904297-0.1904297,0.1904297-0.5,0-0.6904297l-5.3955078-5.3955078
					C687.5,176.0498047,687.375,176.0019531,687.25,176.0019531z"/>
			</g>
			<g>
				<path class="st1" d="M534.3959961,39.3198242c-0.637207,0-1.2744141-0.2421875-1.7592773-0.7275391l-5.3959961-5.3955078
					c-0.9702148-0.9702148-0.9702148-2.5483398,0-3.5185547l5.3959961-5.3955078
					c0.9707031-0.9697266,2.5493164-0.9697266,3.5180664,0l5.3959961,5.3955078
					c0.9702148,0.9702148,0.9702148,2.5483398,0,3.5185547l-5.3959961,5.3955078
					C535.6699219,39.0771484,535.0327148,39.3198242,534.3959961,39.3198242z M528.6547852,31.7827148l5.3959961,5.3955078
					c0.1899414,0.1899414,0.4990234,0.190918,0.6899414,0l5.3959961-5.3955078c0.1904297-0.1904297,0.1904297-0.5,0-0.6904297
					l-5.3959961-5.3955078c-0.1899414-0.1899414-0.4990234-0.190918-0.6899414,0l-5.3959961,5.3955078
					C528.4643555,31.2827148,528.4643555,31.5922852,528.6547852,31.7827148L528.6547852,31.7827148z"/>
			</g>
			<g>
				<path class="st1" d="M404.9755859,21.3125c-1.5139771-2.222168-4.7288208-2.222168-6.2427368,0
					c-0.8410645,1.234436-0.8410645,2.9321289-0.000061,4.1665649c1.5139771,2.22229,4.7288818,2.22229,6.2427979,0
					C405.8165894,24.2446289,405.8165894,22.546936,404.9755859,21.3125z"/>
			</g>
			<g>
				<path class="st1" d="M241.3333282,190.8334351c-1.5139771-2.222168-4.7288208-2.222168-6.2427368,0
					c-0.8410645,1.234436-0.8410645,2.9321289-0.000061,4.1665649c1.5139771,2.22229,4.7288818,2.22229,6.2427979,0
					C242.1743317,193.765564,242.1743317,192.0678711,241.3333282,190.8334351z"/>
			</g>
		</g>
	</g>
	<g>
		<g>
			<path class="st3" d="M333.9588623,454h7.1294556c-3.8414917-6.5861206-9.6563721-15.4953613-17.9216309-25
				c-9.7677612-11.2324829-14.729248-13.8354492-23.546814-22.3964233c2.5401001-1.9904785,5.0427856-6.0231323,6.380127-8.8535767
				c3.7837524-8.0081787,5.4358521-21.6204834-1.5-25.75c-4.6247559-2.75354-12.5603027-0.9888306-15.25,3.5
				c-1.2885132,2.1503906-0.5432129,5.7128906,1,12.75c1.0728149,4.8919678,1.8829346,8.5454102,2.5338135,11.2838745
				C292.0471802,398.7285156,291.2911987,397.8924561,290.5,397c-7.5575562-8.5247192-13.9639282-16.9824219-18.6480713-23.4393311
				c4.3948975-1.060791,9.9703979-8.7875977,10.6480713-9.727356c2.9229126-4.0533447,6.9387207-9.6221313,5.833313-16.833313
				c-0.748291-4.882019-4.1499634-12.513916-10.666626-13.333313c-4.8408203-0.6087036-9.5220947,2.7778931-11.666687,6.5
				c-1.4152222,2.4561768-1.4302368,4.5455322,0,16.333313c0.6074219,5.0063477,1.0802612,8.5009766,1.4935303,10.9622803
				c-0.1075439-0.1521606-0.2233276-0.3157959-0.3268433-0.4622803c-4.5809937-6.4832153-7.7103271-11.3019409-11.833374-17.666687
				c-0.2768555-0.4273682-0.5461426-0.8461304-0.8189087-1.2689209c2.6665649-2.3655396,5.4900513-7.6561279,6.1522827-8.8977051
				c2.531189-4.7459106,12.2388306-22.9476318,4.5-32.5c-2.0743408-2.5604858-5.8578491-5.0619507-9.666687-4.5
				c-4.8494873,0.7154541-7.468811,6.0618286-8.5,8.166626c-2.6060181,5.3192749-2.0151367,10.7684326-0.833313,21.666687
				c0.1482544,1.3674927,0.3630981,2.6239624,0.6582642,3.9307251c-4.1391602-6.6452637-7.6138306-12.3947754-10.4208374-17.0095825
				c1.0748291-5.5444336,1.8400879-14.196167-1.2374268-23.7544556c-2.2491455-6.9854736-8.9420776-21.8792114-16.833313-21.166687
				c-5.9664307,0.5386963-11.0668335,9.8586426-11,17.833313c0.0661621,7.8988647,5.1918945,13.3118896,9,17.333374
				c5.7254639,6.0462646,12.2174072,9.1636963,16.9306641,10.8049927
				c3.0947876,6.0487671,6.5087891,12.5209961,10.265686,19.3623047C241.0332642,337.1670532,238.1976929,334.9869385,234,332.5
				c-9.302002-5.5111084-14.114563-8.3623657-20-7.166687c-1.0067749,0.2045288-6.1782227,1.255127-8.5,5.5
				c-3.0957031,5.6599121,1.2269287,12.6983643,2.333374,14.5c2.5175781,4.0993652,5.8748169,6.2615967,7.5,7.166687
				c3.2178955,1.7921143,6.5270996,2.4885864,11.333313,2.666687c7.0656738,0.2617798,19.088562-0.5328369,23.7589111-3.5445557
				c4.9599609,8.6918335,8.9543457,15.6676636,12.6176147,21.6884766c-1.994812-1.0730591-4.241272-2.2192993-6.7098999-3.4772949
				c-14.5565186-7.4179688-20.7714844-5.902771-22.666626-5.333313c-1.7420044,0.5233765-5.6229858,1.6895142-7.166687,5
				c-2.4429321,5.2388916,2.5924683,12.3630371,6.5,15.833313c6.1544189,5.4657593,13.7155762,5.6016235,17.333313,5.666687
				c7.3512573,0.1321411,16.6851807-2.0255127,20.6235962-5.4883423C273.4845581,389.1114502,276.0872192,392.5142822,279,396
				c5.347168,6.3988647,8.6894531,9.5481567,13.5187988,14.1130981c-1.7575073-0.4918823-3.8388672-1.0668335-6.3521118-1.7797852
				c-12.3043213-3.4903564-15.121582-4.6738281-20.333374-4C262.3782349,404.7800293,258.12854,405.3294678,256,408.5
				c-3.1646729,4.7138672-0.2734375,13.1851807,4.666687,17.5c10.5687866,9.2310791,29.6132813-1.3495483,31.333313-2.333313
				c1.3851318-0.7922363,5.972229-3.4245605,8.1055298-6.2572632C302.9577026,420.2207031,306.3346558,423.6340942,310.5,428
				C320.3659668,438.3409424,328.3085327,447.3711548,333.9588623,454z"/>
		</g>
		<g>
			<path class="st3" d="M744.4025879,330.324707c-2.3217773-4.244812-7.4932251-5.2954102-8.5-5.5
				c-5.885437-1.1956177-10.697998,1.6556396-20,7.166687c-4.1976318,2.4869995-7.0332031,4.6670532-9.5296631,6.8339233
				c3.756897-6.8412476,7.1708374-13.3134766,10.265625-19.3622437c4.7132568-1.6413574,11.2052612-4.758728,16.9306641-10.8049927
				c3.8081055-4.0214844,8.9338379-9.4345093,9-17.333374c0.0668335-7.9746704-5.0335693-17.2946167-11-17.833313
				c-7.8912354-0.7124634-14.5841675,14.1812744-16.833313,21.166687
				c-3.0775146,9.5582886-2.3122559,18.210022-1.2374268,23.7544556
				c-2.8070068,4.6148071-6.2816772,10.3643188-10.4208374,17.0095825c0.295166-1.3067017,0.5100098-2.5632324,0.6582642-3.9307251
				c1.1818237-10.8982544,1.7727051-16.3473511-0.833313-21.666687c-1.031189-2.1047974-3.6505127-7.4511719-8.5-8.166626
				c-3.8088379-0.5619507-7.5923462,1.9395142-9.666687,4.5c-7.7388306,9.5524292,1.968811,27.7540894,4.5,32.5
				c0.6622314,1.2416382,3.4857178,6.5322266,6.1522827,8.8977051c-0.2727661,0.4227905-0.5420532,0.8415527-0.8189087,1.2689209
				c-4.1230469,6.3648071-7.2523804,11.1834717-11.833374,17.666687c-0.1035156,0.1464844-0.2192993,0.3101196-0.3268433,0.4622803
				c0.413269-2.4613037,0.8861084-5.9559326,1.4935303-10.9622803c1.4302368-11.7877808,1.4152222-13.8770752,0-16.333313
				c-2.1445923-3.7221069-6.8258667-7.1087036-11.666687-6.5c-6.5166626,0.819397-9.918335,8.4512939-10.666626,13.333313
				c-1.1054077,7.2111816,2.9104004,12.7800293,5.833313,16.833313c0.6776733,0.9397583,6.2531738,8.6665649,10.6480713,9.727356
				c-4.6841431,6.4569702-11.0905151,14.9146118-18.6480713,23.4393311
				c-0.7911987,0.8924561-1.5471802,1.7285156-2.2838135,2.5338745c0.6509399-2.7384644,1.4610596-6.3919678,2.5338135-11.2838745
				c1.5432129-7.0371094,2.2885132-10.5995483,1-12.75c-2.6896973-4.4887695-10.6252441-6.25354-15.25-3.5
				c-6.9358521,4.1295776-5.2837524,17.7418823-1.5,25.75c1.3373413,2.8304443,3.8400269,6.8630981,6.380127,8.8535767
				c-8.8175659,8.5609741-13.7790527,11.1639404-23.546814,22.3964233
				c-8.4799194,9.7515259-14.3811035,18.8769531-18.2171631,25.508606h6.9917603
				c5.6741943-6.6716309,13.7720947-15.9013672,23.8920898-26.508606
				c4.1653442-4.3659058,7.5422974-7.7792969,10.3944702-10.5905762c2.1333008,2.8327026,6.7203979,5.4650269,8.1055298,6.2572632
				c1.7200317,0.9837646,20.7645264,11.5643921,31.333313,2.333313c4.9401245-4.3148193,7.8313599-12.7861328,4.666687-17.5
				c-2.12854-3.1705322-6.3782349-3.7199707-9.833313-4.166687c-5.211792-0.6737671-8.0290527,0.5096436-20.333374,4
				c-2.5132446,0.7129517-4.5946045,1.2879028-6.3521118,1.7797852c4.8293457-4.5649414,8.1716309-7.7142334,13.5187988-14.1130981
				c2.9127808-3.4857178,5.5154419-6.8885498,8.0430908-10.4883423c3.9384155,3.4628906,13.2723389,5.6204834,20.6235962,5.4883423
				c3.6177368-0.0650024,11.178894-0.2009277,17.333313-5.666687c3.9075317-3.4702759,8.9429321-10.5944214,6.5-15.833313
				c-1.5437012-3.3104858-5.4246826-4.4765625-7.166687-5c-1.8951416-0.569397-8.1101074-2.0846558-22.666626,5.333313
				c-2.4686279,1.2579956-4.7150879,2.4042358-6.7098999,3.4772949c3.663269-6.020813,7.6576538-12.9966431,12.6176147-21.6884766
				c4.6703491,3.0117188,16.6932373,3.8063354,23.7589111,3.5445557c4.8062134-0.1781006,8.1154175-0.8745117,11.333313-2.666687
				c1.6251831-0.9050903,4.9824219-3.0673218,7.5-7.166687C743.1756592,343.0231323,747.498291,335.9846191,744.4025879,330.324707z
				"/>
		</g>
	</g>
	<g>
		<g>
			<g>
				<path class="st4" d="M666.3334961,433.3330078h-374v-225.249588c0-2.2552185,1.8282166-4.0834198,4.0834045-4.0834198
					H662.250061c2.255249,0,4.0834351,1.8282013,4.0834351,4.0834198V433.3330078z"/>
			</g>
			<g>
				<path class="st5" d="M315.1877441,413.75H643.479248c0.4718018,0,0.854248-0.3824463,0.854248-0.854248V222.354248
					c0-0.4717865-0.3824463-0.854248-0.854248-0.854248H315.1877441c-0.4718018,0-0.854248,0.3824615-0.854248,0.854248V412.895752
					C314.3334961,413.3675537,314.7159424,413.75,315.1877441,413.75z"/>
			</g>
			<g>
				<g>
					<path class="st6" d="M667.8751221,454H290.7914124c-9.4578247,0-17.1249084-7.6670837-17.1249084-17.1249084l0,0
						c0-2.6924438,2.1826477-4.8750916,4.8750916-4.8750916H680.124939C682.8173218,432,685,434.1826477,685,436.8750916l0,0
						C685,446.3329163,677.3329468,454,667.8751221,454z"/>
				</g>
			</g>
			<g>
				<g>
					<path class="st7" d="M496.445282,442.3003235h-34.2240601c-5.6887207,0-10.3003235-4.6116028-10.3003235-10.3003235l0,0
						h54.824707l0,0C506.7456055,437.6887207,502.1340027,442.3003235,496.445282,442.3003235z"/>
				</g>
			</g>
		</g>
		<g>
			<g>
				<g>
					<path class="st8" d="M268.0665894,124.833252V387.666748c0,1.8409119,1.4923401,3.333252,3.333252,3.333252h349
						c1.8408813,0,3.333252-1.4923401,3.333252-3.333252V124.833252c0-1.8409042-1.4923706-3.333252-3.333252-3.333252h-349
						C269.5589294,121.5,268.0665894,122.9923477,268.0665894,124.833252z"/>
				</g>
				<g>
					<rect x="274.0665894" y="170.4785156" class="st5" width="343.6665039" height="214.5214844"/>
				</g>
				<g>
					<g>
						<circle class="st9" cx="289.4415894" cy="144.625" r="6.875"/>
					</g>
					<g>
						<circle class="st9" cx="318.4415894" cy="144.625" r="6.875"/>
					</g>
					<g>
						<circle class="st9" cx="347.4415894" cy="144.625" r="6.875"/>
					</g>
				</g>
			</g>
			<g>
				<g>
					<path class="st9" d="M463.5248108,224.625h-6v-9.375c0-6.4101563-5.2148438-11.625-11.625-11.625
						s-11.625,5.2148438-11.625,11.625v9.375h-6v-9.375c0-9.71875,7.9067383-17.625,17.625-17.625s17.625,7.90625,17.625,17.625
						V224.625z"/>
				</g>
				<g>
					<path class="st4" d="M466.9831848,219.833313h-42.166687c-2.347229,0-4.25,1.902832-4.25,4.25v32.833374
						c0,2.347168,1.902771,4.25,4.25,4.25h42.166687c2.347168,0,4.25-1.902832,4.25-4.25v-32.833374
						C471.2331848,221.736145,469.3303528,219.833313,466.9831848,219.833313z"/>
				</g>
				<g class="st10">
					<path class="st9" d="M467.1416931,219.8493042c0.2634888,2.7617188,0.3048706,5.173584,0.2581177,7.1506958
						c-0.1049194,4.4372559-0.1907349,8.0628052-1.875,12.5c-0.7769775,2.0469971-3.2294312,8.2744751-9.125,12.375
						c-3.322998,2.3112183-6.8060913,3.2973022-18.75,4c-4.6640015,0.274353-10.4241943,0.4934082-17.083313,0.4748535v0.5668335
						c0,2.347168,1.902771,4.25,4.25,4.25h42.166687c2.347168,0,4.25-1.902832,4.25-4.25v-32.833374
						C471.2331848,221.7904053,469.4137268,219.9345093,467.1416931,219.8493042z"/>
				</g>
				<g>
					<path class="st5" d="M447.7331848,239.8935547V236.5c0-1.0125122-0.8208008-1.833313-1.833313-1.833313
						s-1.833313,0.8208008-1.833313,1.833313v3.3935547c-1.3175659,0.6716919-2.229187,2.026123-2.229187,3.6064453
						c0,2.2436523,1.8188477,4.0625,4.0625,4.0625s4.0625-1.8188477,4.0625-4.0625
						C449.9623718,241.9196777,449.0507507,240.5652466,447.7331848,239.8935547z"/>
				</g>
			</g>
			<g>
				<g>
					<path class="st8" d="M368.2699585,291.1669922l-6.4199219,26.1982422h-6.456543l-4.8984375-19l-4.9355469,19h-6.4194336
						l-6.4199219-26.1982422h5.6777344l4.0073242,20.2978516l5.1953125-20.2978516h5.7519531l5.2324219,20.2978516
						l4.0073242-20.2978516H368.2699585z"/>
				</g>
				<g>
					<path class="st8" d="M384.4862671,295.3232422v6.7900391h9.2768555v4.0078125h-9.2768555v7.0507813h10.3901367v4.1933594
						h-15.6225586v-26.1982422h15.6225586v4.15625H384.4862671z"/>
				</g>
				<g>
					<path class="st8" d="M411.3895874,313.3574219h8.7944336v4.0078125h-14.0268555v-26.1982422h5.2324219V313.3574219z"/>
				</g>
				<g>
					<path class="st8" d="M450.6869507,293.4306641c2.1523438,1.6826172,3.574707,3.9707031,4.2675781,6.8642578h-5.4921875
						c-0.5693359-1.4101563-1.4536133-2.5224609-2.6533203-3.3388672c-1.2001953-0.8164063-2.6411133-1.2246094-4.3232422-1.2246094
						c-1.3857422,0-2.6347656,0.3466797-3.7480469,1.0390625c-1.112793,0.6923828-1.9794922,1.6826172-2.597168,2.9677734
						c-0.6186523,1.2871094-0.9277344,2.7958984-0.9277344,4.5273438c0,1.7070313,0.309082,3.2041016,0.9277344,4.4902344
						c0.6176758,1.2871094,1.484375,2.2763672,2.597168,2.96875c1.1132813,0.6933594,2.3623047,1.0390625,3.7480469,1.0390625
						c1.6821289,0,3.1230469-0.4082031,4.3232422-1.2246094c1.199707-0.8164063,2.0839844-1.9296875,2.6533203-3.3398438h5.4921875
						c-0.6928711,2.8945313-2.1152344,5.1835938-4.2675781,6.8652344c-2.1523438,1.6826172-4.8613281,2.5234375-8.1269531,2.5234375
						c-2.4990234,0-4.7070313-0.5625-6.6235352-1.6884766c-1.9174805-1.125-3.4018555-2.7021484-4.453125-4.7314453
						c-1.0517578-2.0283203-1.5771484-4.3291016-1.5771484-6.9023438c0-2.5976563,0.5253906-4.9101563,1.5771484-6.9384766
						c1.0512695-2.0283203,2.5292969-3.6054688,4.4345703-4.7314453c1.9042969-1.1259766,4.1186523-1.6884766,6.6420898-1.6884766
						C445.8256226,290.9072266,448.5346069,291.7480469,450.6869507,293.4306641z"/>
				</g>
				<g>
					<path class="st8" d="M485.2528687,292.5029297c1.9912109,1.1376953,3.5625,2.7275391,4.7128906,4.7685547
						c1.1503906,2.0400391,1.7255859,4.3476563,1.7255859,6.9199219c0,2.5732422-0.5751953,4.8867188-1.7255859,6.9394531
						c-1.1503906,2.0537109-2.7216797,3.6494141-4.7128906,4.7871094c-1.9916992,1.1386719-4.2119141,1.7070313-6.6611328,1.7070313
						s-4.6699219-0.5683594-6.6606445-1.7070313c-1.9916992-1.1376953-3.5625-2.7333984-4.7128906-4.7871094
						c-1.1503906-2.0527344-1.7255859-4.3662109-1.7255859-6.9394531c0-2.5722656,0.5751953-4.8798828,1.7255859-6.9199219
						c1.1503906-2.0410156,2.7211914-3.6308594,4.7128906-4.7685547c1.9907227-1.1376953,4.2114258-1.7070313,6.6606445-1.7070313
						S483.2611694,291.3652344,485.2528687,292.5029297z M474.546814,296.6591797
						c-1.1630859,0.6923828-2.0722656,1.6875-2.7270508,2.9863281c-0.6557617,1.2988281-0.9833984,2.8144531-0.9833984,4.5458984
						c0,1.7324219,0.3276367,3.2470703,0.9833984,4.5458984c0.6547852,1.2988281,1.5639648,2.2949219,2.7270508,2.9873047
						c1.1625977,0.6933594,2.5107422,1.0390625,4.0449219,1.0390625c1.5336914,0,2.8818359-0.3457031,4.0449219-1.0390625
						c1.1625977-0.6923828,2.0717773-1.6884766,2.7275391-2.9873047c0.6552734-1.2988281,0.9833984-2.8134766,0.9833984-4.5458984
						c0-1.7314453-0.328125-3.2470703-0.9833984-4.5458984c-0.6557617-1.2988281-1.5649414-2.2939453-2.7275391-2.9863281
						c-1.1630859-0.6923828-2.5112305-1.0390625-4.0449219-1.0390625
						C477.0575562,295.6201172,475.7094116,295.9667969,474.546814,296.6591797z"/>
				</g>
				<g>
					<path class="st8" d="M531.2855835,291.4638672v25.9013672h-5.1948242v-18.0722656l-6.6425781,18.0722656h-4.5273438
						l-6.6420898-17.9980469v17.9980469h-5.2324219v-25.9013672h6.3457031l7.8666992,19.4814453l7.71875-19.4814453H531.2855835z"/>
				</g>
				<g>
					<path class="st8" d="M548.6893921,295.3232422v6.7900391h9.2768555v4.0078125h-9.2768555v7.0507813h10.3901367v4.1933594
						h-15.6225586v-26.1982422h15.6225586v4.15625H548.6893921z"/>
				</g>
			</g>
		</g>
	</g>
	<g>
		<g>
			<g>
				<path class="st3" d="M495.75,417.125c-9.5275269,2.1194153-12.6347046,0.8262939-14.125,0
					c-0.5172424-0.2867737-4.7878418-2.7618103-6.25-7.5c-0.4679871-1.516571-0.4760742-2.7076416-0.5-3.25
					c-0.3292847-7.4689026-8.9490662-11.9132996-12.375-20.25c-0.2828674-0.688324-3.8166199-9.5734253,0.625-17.75
					c3.3908997-6.2422791,10.3124695-10.5652466,17.375-10.375c9.7979126,0.2639771,17.7490845,9.157196,19.5,16.5
					c0.586731,2.4605713,0.4454346,4.6136169,2.25,7.375c2.6118164,3.9966431,5.84021,3.9736328,8.875,6.625
					c5.1280518,4.4801636,7.1759033,14.3882446,3.5,20.625C512.0465698,413.4998169,506.6143494,414.7081909,495.75,417.125z"/>
			</g>
			<g>
				<path class="st11" d="M496.8333435,396.666687L493.25,392c0.5009155-0.38974,1.0843201-0.9091492,1.6666565-1.583313
					c0.5400391-0.6251831,0.9467163-1.2301331,1.25-1.75c-5.0046387-7.3632507-9.4212341-9.2966309-12.6666565-9.5833435
					c-2.4222717-0.2139893-4.9373779,0.4234619-7.9166565-1.0833435c-2.5611877-1.2953186-4.0946045-3.4820251-5-5.1666565
					c0.0722656,1.4098206-0.0630798,3.3580322-1.166687,5.1666565c-0.7602539,1.2459717-1.2835693,1.2843018-1.75,2.0833435
					c-1.6612854,2.8459778,1.8167725,7.774231,4.916687,12.1666565c3.9976501,5.6645203,6.1591492,6.6008911,7,6.916687
					C481.7234497,399.970459,483.713501,399.9109497,485,399.75l0.84375,3.5625L487.0416565,409l15.541687-6.5833435
					L496.8333435,396.666687z"/>
			</g>
			<g>
				<path class="st12" d="M467.9708252,453.833313c8.883667-1.3598022,14.789856-2.7150269,16.4041748-3.708313
					c2.7533569-1.6940918,3.791626-3.7915649,3.791687-3.791687c0.3939209-0.7958374,0.6896362-1.7598877,0.916626-2.5
					c0.4377441-1.427063,0.6868286-2.6430054,0.833374-3.5c-4.027771-1.305542-8.055603-2.611084-12.083374-3.916626
					c-0.5055542,1.0476074-1.3727417,3.2332153-1.083313,6c0.1363525,1.3036499,0.4920044,2.3771362,0.833313,3.166626
					c-5.4301147-0.4277344-11.4310913-0.6480103-17.916626-0.5c-6.2733154,0.1431885-12.0751953,0.6098022-17.333313,1.25
					c0.2799683,2.5,0.5599976,5,0.8399658,7.5H467.9708252z"/>
			</g>
			<g>
				<path class="st13" d="M488.166687,446.333313c0.3110962-0.8078613,0.6174316-1.6412964,0.916626-2.5
					c0.3934937-1.2657471,0.6564941-2.4456177,0.833374-3.5c-0.3106689-0.100708-0.6213989-0.201416-0.9320679-0.302124
					C488.4341431,440.8122559,487.6021118,442.18396,487.5,443.5c-0.0628052,0.8098755,0.104187,1.4998779,0.104187,1.5
					C487.7474365,445.5921021,487.9846191,446.0429688,488.166687,446.333313z"/>
			</g>
			<g>
				<path class="st14" d="M491.875,436.625c0.6312256-2.0302734,1.1806641-5.1066284,0.6875-9.5625
					c-1.8125,4.875-3.625,9.75-5.4375,14.625c0.5790405,0.1724243,1.2267456,0.3267822,1.9375,0.4375
					c0.5904541,0.09198,1.1455688,0.1322021,1.6824341,0.1530762c0.00177-0.031189,0.0032959-0.0588989,0.0050659-0.0905762
					C490.9038696,439.4741821,491.5861206,437.5541382,491.875,436.625z"/>
			</g>
			<g>
				<path class="st15" d="M492.5625,427.0625c0.4931641,4.4558716-0.0562744,7.5322266-0.6875,9.5625
					c-0.2888794,0.9291382-0.9711304,2.8491821-1.125,5.5625c-0.0884399,1.5596313-0.142395,2.5108643,0.125,3.4375
					c0.4321289,1.4975586,1.9291382,3.7123413,10.3125,6.125c4.7238159,1.3594971,8.239624,1.8892212,9.8899536,2.083313h43.59552
					c0.1945801-1.3731689,0.3911133-2.8682861,0.5770264-4.5c0.7719116-6.7755737,1.1578369-10.1633301,0.666687-14.083313
					c-0.2642822-2.1092529-0.8618774-5.0991821-2.3405762-8.6130981c-1.7198486,0.6120605-3.6261597,1.0574341-5.8261108,1.2380981
					c-5.2516479,0.4313354-8.5830078-0.9142456-9.625-1.375c-2.7949829-1.2358398-4.555542-3.1097412-8.625-7.75
					c-8.2015381-9.3519897-7.4743042-12.4653931-13.25-16.25c-4.1633301-2.7280884-8.8727417-3.9486694-11-4.5
					c-3.3400879-0.8656616-6.2509155-1.201355-8.416687-1.333313c-0.1084595,0.5100098-0.9439087,4.133728-4.5,6
					c-2.9871826,1.567688-5.8565674,0.8258667-6.489563,0.645813c-0.9798584,1.8734131-2.2678223,4.5421753-3.510437,7.854187
					C481.6905518,412.8798828,480.6959229,415.9359131,479,423c-0.9254761,3.8548584-1.9594727,8.7485962-2.833313,14.5
					c3.652771,1.395813,7.305542,2.791687,10.958313,4.1875L492.5625,427.0625z"/>
			</g>
			<g>
				<path class="st16" d="M504,435.666687c1.0787964,5.8502197,2.1575928,11.7005005,3.2363281,17.5507813c0,0,0,0,0.000061,0
					c1.7030029,0.3331909,3.0120239,0.5172119,3.8460083,0.6158447h32.8690796c-2.4838867-1.0224609-4.6090698-2.0703735-6.28479-3
					c-7.1641235-3.9743652-14.2392578-7.9140625-16-15c-0.7991333-3.2158203,0.1246338-4.2957764-0.833374-10.166626
					c-0.7521973-4.6098022-2.0280151-8.2723999-3-10.666687c0.7808228,3.3060303,1.4528809,7.486145,1.5,12.333313
					c0.0336304,3.453186-0.2568359,6.5396729-0.666626,9.166687C513.777771,436.222229,508.888916,435.944458,504,435.666687z"/>
			</g>
			<g>
				<path class="st11" d="M509.3014526,453.833313c0.980957-0.5043335,1.9085083-1.1787109,2.6985474-2.083313
					c0.6327515-0.7245483,1.0237427-1.4200439,1.5-2.416687c1.229126-2.5718994,2.8493652-6.7783813,3.6809082-12.9177246
					c-4.3936157-0.2496338-8.7872925-0.4992676-13.1809082-0.7489014c-0.2419434,1.3769531-0.4472656,2.8812866-0.583313,4.5
					c-0.1592407,1.8937378-0.1992188,3.6530762-0.166687,5.25c-2.3851929-0.234375-5.2293091-0.333374-8.416687-0.083374
					c-0.8279419,0.0649414-1.5838013,0.1464233-2.2758179,0.2364502c-2.3776855,0.3092041-4.0899048,0.6973267-4.3908081,0.7635498
					C483.4331665,447.3748779,463.5001221,447.625,463.5,447.625c-5.1268311,0.0643311-12.4649658,0.4805908-21.5,2.125
					c0.291687,1.361084,0.583313,2.722229,0.875,4.083313H509.3014526z"/>
			</g>
			<g>
				<g>
					<path class="st17" d="M679.875,386.125c2.3223877-2.4528503,4.6563721-4.9526978,7-7.5
						c1.9829102-2.1552429,3.9325562-4.3007813,5.8493652-6.4355164c0.7839966-0.8731079,2.1141968-0.9677734,3.0144043-0.2150269
						c4.2316895,3.5387268,8.4633789,7.0774231,12.6950684,10.6161194c0.6310425,0.52771,0.074646,1.5428467-0.7094727,1.2939758
						c-1.8103027-0.5745239-3.3803711-0.8888855-4.5993652-1.072052c-4.166748-0.6261292-5.9776611,0.0177002-6.6875,0.3125
						c-1.7406616,0.7229004-2.9005127,1.8553772-3.5625,2.625c-1.875,2.166687-3.75,4.3333435-5.625,6.5
						C684.791687,390.2083435,682.333313,388.166687,679.875,386.125z"/>
				</g>
				<g>
					<path class="st18" d="M686.6988525,378.8150635c-2.2843018,2.4810181-4.5597534,4.9186401-6.8238525,7.3099365
						c2.458313,2.041687,4.916687,4.083313,7.375,6.125c1.875-2.166687,3.75-4.333313,5.625-6.5
						c0.1077271-0.1252441,0.2503052-0.2710571,0.3847656-0.4121704L686.6988525,378.8150635z"/>
				</g>
			</g>
			<g>
				<g>
					<path class="st17" d="M704.1893311,417.8109436c3.2420044-0.9482117,6.5177612-1.9311218,9.8258057-2.9501953
						c2.7988281-0.8622131,5.5640869-1.7328186,8.2954712-2.6106262c1.1171875-0.3590393,2.3138428,0.2295837,2.7119751,1.3334045
						c1.8716431,5.1890869,3.7432861,10.3781738,5.6149292,15.5672607c0.2791138,0.7738342-0.7130737,1.3702087-1.2648926,0.7601013
						c-1.2740479-1.4085693-2.4717407-2.471344-3.432312-3.243866c-3.2833862-2.6407166-5.171936-2.9972534-5.9336548-3.1003418
						c-1.8677368-0.2528687-3.4402466,0.1407471-4.3999023,0.4718933c-2.7114258,0.9264832-5.4228516,1.8529358-8.1342163,2.7794189
						C706.3781128,423.8156433,705.2836914,420.8132935,704.1893311,417.8109436z"/>
				</g>
				<g>
					<path class="st18" d="M713.7672119,414.9361267c-3.2233887,0.9917297-6.4171753,1.9504089-9.5778809,2.8748169
						c1.0943604,3.0023499,2.1888428,6.0046997,3.2832031,9.0070496c2.7114258-0.9264832,5.4227905-1.8529358,8.1342163-2.7794189
						c0.1561279-0.053894,0.3527832-0.1079712,0.5400391-0.1621094L713.7672119,414.9361267z"/>
				</g>
			</g>
			<g>
				<g>
					<path class="st17" d="M705.5,415.625c-7.1102905,2.8111572-13.1943359,5.0060425-17.875,6.625
						c-9.1030884,3.1485596-13.3545532,4.2764282-15.75,4.875c-4.0966187,1.0236206-7.5534058,1.6958008-10,2.125
						c3.9477539-4.9783325,7.9078369-10.0613403,11.875-15.25c5.7924805-7.5760498,11.3734741-15.0809326,16.75-22.5
						c-3.5-2.291687-7-4.583313-10.5-6.875c-7.9903564,7.8048096-16.0883789,16.008667-24.25,24.625
						c-5.6107178,5.9232788-11.0256348,11.8031006-16.25,17.625c-2.7554321,0.536499-6.7112427,1.1551514-11.5,1.375
						c-8.2561035,0.3790283-17.3480225,0.7964478-26.5-3.375c-6.8569336-3.1253662-8.2260742-6.3099976-16-8.125
						c-1.9165649-0.4475098-5.2059326-1.1876221-9.25-0.875c-10.4854736,0.8106079-14.3344727,7.7940063-22.6738892,10.7619019
						c1.4786987,3.513916,2.0762939,6.5038452,2.3405762,8.6130981c0.4911499,3.9199829,0.1052246,7.3077393-0.666687,14.083313
						c-0.1859131,1.6317139-0.3824463,3.1268311-0.5770264,4.5h98.6582642
						c9.052063-2.9551392,16.468811-5.9439697,18.0437622-6.583313c9.9899292-4.0551758,17.2878418-7.7336426,20-9.125
						c7.3910522-3.791748,13.7480469-7.539978,19-10.875L705.5,415.625z"/>
				</g>
				<g>
					<path class="st19" d="M673.75,414c5.7924805-7.5760498,11.3734741-15.0809326,16.75-22.5
						c-1.1500854-0.7530518-2.3001709-1.5060425-3.4502563-2.2590942
						c-4.182373,5.7995605-8.1714478,11.1885376-11.8830566,16.0924072
						C664.7120972,419.1460571,662.1399536,421.6812134,658.333313,424c-8.8748779,5.4060059-17.8798218,5.6273804-21,5.666687
						c-3.5313721,0.0444336-6.7568359-0.418335-10.4555054-1.3659668
						c-7.3950806,0.3312378-15.4195557,0.5253906-23.5343018-2.6490479C606.3643188,427.6254883,609.9822388,429.5598755,614,431
						c9.0860596,3.2567139,17.0006104,2.8649902,24.375,2.5c9.4960327-0.4700317,17.4802856-2.3407593,23.5-4.25
						C665.8227539,424.2716675,669.7828369,419.1886597,673.75,414z"/>
				</g>
			</g>
		</g>
		<g>
			<g>
				<path class="st20" d="M441.5,447.8333435h32.3958435c2.1746216,0,3.9375,1.7628784,3.9375,3.9375V454H441.5V447.8333435z"/>
			</g>
			<g>
				<path class="st21" d="M448.9166565,454h-43.3896179c-0.6802368,0-1.3017883-0.3852234-1.6044617-0.9943848
					l-18.2195129-36.666748c-0.5917969-1.190979,0.2745667-2.5888672,1.6044617-2.5888672h40.4987793
					c0.6802063,0,1.3017578,0.3852234,1.6044617,0.9943848L448.9166565,454z"/>
			</g>
			<g>
				<circle class="st4" cx="416.6666565" cy="435.9166565" r="3.9166667"/>
			</g>
		</g>
	</g>
</g>
</svg>
