<svg xmlns="http://www.w3.org/2000/svg" width="26.58" height="26.581" viewBox="0 0 26.58 26.581">
  <g id="Group_19030" data-name="Group 19030" transform="translate(-554.412 -3573.053)">
    <g id="Ellipse_59" data-name="Ellipse 59" transform="translate(554.412 3573.053)" fill="none" stroke="#fc2c62" stroke-width="2">
      <ellipse cx="13.29" cy="13.29" rx="13.29" ry="13.29" stroke="none"/>
      <ellipse cx="13.29" cy="13.29" rx="12.29" ry="12.29" fill="none"/>
    </g>
    <g id="Group_250" data-name="Group 250" transform="translate(564.816 3581.684)">
      <path id="Path_8" data-name="Path 8" d="M.5,8.995V.5L8.145,4.747Z" transform="translate(-0.075 -0.052)" fill="#fc2c62"/>
      <path id="Path_9" data-name="Path 9" d="M.425,9.44A.293.293,0,0,1,.17,9.346.51.51,0,0,1,0,8.968V.473A.51.51,0,0,1,.17.1.348.348,0,0,1,.595.1L8.24,4.343c.17,0,.255.189.255.378S8.41,5.1,8.24,5.1L.595,9.346C.595,9.44.51,9.44.425,9.44ZM.849,1.228V8.213L7.136,4.721Z" transform="translate(0 -0.025)" fill="#fc2c62"/>
    </g>
  </g>
</svg>
