<?xml version="1.0" encoding="utf-8"?>
<!-- Generator: Adobe Illustrator 19.0.0, SVG Export Plug-In . SVG Version: 6.00 Build 0)  -->
<svg version="1.1" id="Layer_1" xmlns="http://www.w3.org/2000/svg" xmlns:xlink="http://www.w3.org/1999/xlink" x="0px" y="0px"
	 width="751.3567505px" height="795.0959473px" viewBox="0 0 751.3567505 795.0959473"
	 style="enable-background:new 0 0 751.3567505 795.0959473;" xml:space="preserve">
<style type="text/css">
	.st0{opacity:0.07;fill:#008CFF;}
</style>
<path class="st0" d="M153.2430115,77.1996613C85.725914,190.2194519,170.879303,266.001709,134.6406403,397.4260254
	C98.6516953,527.9447632-15.5029688,562.6213379,1.7666379,673.8039551
	c2.1058593,13.5576782,5.3158321,32.8913574,18.6023617,53.1495972
	c65.0626831,99.2024536,269.0838318,64.0285034,332.1850281,53.1495972
	c17.2624817-2.9760742,92.0820923-16.5500488,182.0374146-58.4645386
	c92.4665527-43.0846558,154.1687012-71.8345947,190.0098267-136.8602295
	c53.0543823-96.2553406,13.5800171-206.9337463-2.6574707-252.4606323
	c-46.0619507-129.1487122-143.4209595-195.7137756-195.3248291-231.2007751
	C483.8367004,71.8664551,310.5229797-46.629364,203.7351379,20.0638371
	C177.6392212,36.3617439,164.7365265,57.9601784,153.2430115,77.1996613z"/>
</svg>
