<?xml version="1.0" encoding="utf-8"?>
<!-- Generator: Adobe Illustrator 25.4.1, SVG Export Plug-In . SVG Version: 6.00 Build 0)  -->
<svg version="1.1" id="Layer_1" xmlns="http://www.w3.org/2000/svg" xmlns:xlink="http://www.w3.org/1999/xlink" x="0px" y="0px"
	 width="1921.0003662px" height="1069.2568359px" viewBox="0 0 1921.0003662 1069.2568359"
	 style="enable-background:new 0 0 1921.0003662 1069.2568359;" xml:space="preserve">
<style type="text/css">
	.st0{opacity:0.07;fill:#008CFF;enable-background:new    ;}
</style>
<g>
	<path id="XMLID_27_" class="st0" d="M0,0v902.8446655c40.583046,25.5410767,92.0001373,47.2722778,151.1578522,47.1445923
		c103.5226288-0.2234497,146.7481232-67.199585,237.2469025-60.0625
		c99.3226929,7.8330078,122.9068604,94.4725952,207.2156677,147.1531982
		c208.0613403,130.0074463,414.6149902-178.8365479,777.8095093-135.140686
		c250.0064697,30.078186,404.6138916,206.78302,547.5704346,151.0067749V0H0z"/>
	<path class="st0" d="M389.3868408,619.3868408L189.0269775,419.0270386L0,230v396.2722778l191.2506714,191.2507324
		c54.7138062,54.7136841,143.4222412,54.7136841,198.1360474,0l0.0001221-0.0001221
		C444.1005859,762.809082,444.1005859,674.100647,389.3868408,619.3868408z"/>
	<path id="XMLID_30_" class="st0" d="M1165.942627,0H803.2490845l-10.6331177,10.6331177
		c-50.0774536,50.0775146-50.0774536,131.269165,0,181.3466187l0.0001831,0.0001831
		c50.0775146,50.0774536,131.269165,50.0774536,181.3466187,0L1165.942627,0z"/>
	<path id="XMLID_29_" class="st0" d="M1791.0152588,502.6354675l-0.0002441,0.0001221
		c-57.7841797,40.9449158-71.4351807,120.9806824-30.4902344,178.7649841l160.4755859,226.4741211V491.8143005
		C1880.319458,472.1805115,1830.4793701,474.6718445,1791.0152588,502.6354675z"/>
</g>
</svg>
