<?xml version="1.0" encoding="utf-8"?>
<!-- Generator: Adobe Illustrator 19.0.0, SVG Export Plug-In . SVG Version: 6.00 Build 0)  -->
<svg version="1.1" id="Layer_1" xmlns="http://www.w3.org/2000/svg" xmlns:xlink="http://www.w3.org/1999/xlink" x="0px" y="0px"
	 width="838.2592163px" height="837.3150635px" viewBox="0 0 838.2592163 837.3150635"
	 style="enable-background:new 0 0 838.2592163 837.3150635;" xml:space="preserve">
<style type="text/css">
	.st0{opacity:0.07;fill:#008CFF;}
</style>
<path class="st0" d="M838.2592163,324.8039856c-49.5648804,10.2281494-114.2706299,15.7240601-186.9904175,1.4801636
	c-63.385437-12.4155273-161.3584595-31.605835-215.9891357-109.4945221
	c-38.1025391-54.3239136-22.2050781-90.2715454-71.99646-143.9927979
	c-17.6101074-19.000061-58.7213135-56.7138062-121.4938965-68.996521
	C231.4915771,1.7853565,122.5961838-17.7267895,51.2988205,56.2976837
	C-15.5149002,125.6670074-9.262886,235.5987701,25.8001022,303.7853088
	c45.473877,88.4325562,115.6406937,60.4293823,169.4915161,148.4925537
	c59.8618774,97.8930969-4.2667847,169.4171448,67.4966431,283.4858093
	c16.5565796,26.3168335,45.6953125,71.2683105,100.4949341,91.4954224
	c92.3816528,34.098999,185.4257202-28.7409668,197.9901123-37.4981079
	c74.0918579-51.640625,66.5635376-105.8685913,136.4931641-185.9907227
	c30.1734009-34.5712891,74.3088379-73.4060669,140.4927368-106.0308533V324.8039856z"/>
</svg>
