<?xml version="1.0" encoding="utf-8"?>
<!-- Generator: Adobe Illustrator 19.0.0, SVG Export Plug-In . SVG Version: 6.00 Build 0)  -->
<svg version="1.1" id="Layer_1" xmlns="http://www.w3.org/2000/svg" xmlns:xlink="http://www.w3.org/1999/xlink" x="0px" y="0px"
	 width="300px" height="300px" viewBox="-155 247 300 300" style="enable-background:new -155 247 300 300;" xml:space="preserve">
<style type="text/css">
	.st0{fill:none;stroke:#008cff;stroke-width:8;stroke-linecap:round;stroke-linejoin:round;stroke-miterlimit:10;}
</style>
<g>
	<g>
		<line class="st0" x1="60.0701485" y1="453.6591797" x2="2.745626" y2="453.6591797"/>
		<path class="st0" d="M2.745651,436.461792v15.9689636c0,12.0340881,8.958931,21.9523315,20.5661125,23.5110474
			l-4.3986816,39.0263367C18.0442028,522.4406738,23.8850174,529,31.4078865,529
			c7.5229454,0,13.3636856-6.5593262,12.4948044-14.0318604l-4.3986816-39.0263367
			c11.6071815-1.5587158,20.5661888-11.4769592,20.5661888-23.5110474V436.461792H2.745651z"/>
		<polygon class="st0" points="59.6606865,396.1299133 3.1551619,396.1299133 10.5254574,436.1210327 52.29039,436.1210327 		"/>
		<path class="st0" d="M23.9352264,396.1299133v24.0558472V396.1299133z"/>
		<path class="st0" d="M39.6994705,396.1299133v15.9689941V396.1299133z"/>
	</g>
	<polygon class="st0" points="59.7442741,333.1105652 36.7650337,319.9378052 59.7442741,306.7650757 72.9170074,283.7858582 
		86.0897446,306.7650757 109.068985,319.9378052 86.0897446,333.1105652 72.9170074,356.0897827 	"/>
	<polygon class="st0" points="24.1893044,368.520813 10.5253811,360.6880493 24.1893044,352.8552551 32.0220795,339.1913452 
		39.8548508,352.8552551 53.5187759,360.6880493 39.8548508,368.520813 32.0220795,382.1847534 	"/>
	<g>
		<path class="st0" d="M-43.5234528,381.4750061v46.490509V381.4750061z"/>
		<path class="st0" d="M-21.0376759,341.3977051c-7.1148415-2.1671753-14.662241-3.3420105-22.4857769-3.3420105
			s-15.3709335,1.1748352-22.4857712,3.3420105"/>
		<path class="st0" d="M2.3573086,330.4527588l-0.0000184-0.0000305c-3.4369726-3.4369812-9.0094261-3.4369812-12.4464083,0
			l-33.4343338,33.4343262l-33.4343414-33.4343262c-3.4369812-3.4369812-9.0094299-3.4369812-12.4464035,0l-0.0000153,0.0000305
			c-3.4369583,3.4369812-3.4369507,9.0093994,0.0000229,12.4463806l33.4343643,33.4342957l-0.0000763,0.000061h0.0000153
			c6.8739853,6.8739624,18.0188789,6.8739624,24.8928661,0h0.0000114v-0.000061L2.35729,342.8991394
			C5.7942586,339.4621582,5.7942667,333.88974,2.3573086,330.4527588z"/>
		<path class="st0" d="M32.0220795,396.1299133c0-4.6483765,0-9.2967834,0-13.9451599"/>
		<path class="st0" d="M-119.068985,488.8725891v6.2444763c0,8.4236755,6.8287582,15.2524414,15.2524414,15.2524414H19.4311962"/>
		<path class="st0" d="M24.5085258,352.3444824c-0.0638599-0.0881348-0.1186485-0.1629028-0.1595287-0.2184448
			c-3.9907627-5.4222412-10.0813179-10.5566406-19.514782-14.1869202c-0.261961,1.8144531-1.0809076,3.5639954-2.4769332,4.960022
			l-33.4342918,33.4342957v0.000061c-6.8739624,6.8739624-18.0188522,6.8739624-24.8928909,0l0.0000763-0.000061
			l-33.4343681-33.4342957c-1.3960266-1.3960266-2.2149734-3.1455688-2.4769287-4.960022
			c-15.7889633,5.2141113-27.1878662,20.0791626-27.1878662,37.615387v95.624939"/>
		<path class="st0" d="M-15.5755739,335.9391785l1.4197178-1.4197083l-29.3425522-25.1989441
			c-0.0143967-0.0123901-0.035614-0.0123901-0.0500107,0l-29.342556,25.1989441"/>
		<path class="st0" d="M-71.4712601,335.9391785"/>
		<path class="st0" d="M-43.5234528,459.3916321v33.6781616V459.3916321z"/>
		<path class="st0" d="M-57.892086,453.7478638l-28.2479591,28.2479553L-57.892086,453.7478638z"/>
		<path class="st0" d="M-74.731163,446.0192871l-15.0940323,15.0940247L-74.731163,446.0192871z"/>
		<path class="st0" d="M-43.5595627,309.3205261v-8.8508911c0.5936852-3.319519,1.8111382-5.4711609,2.7897072-6.807312
			c0.6226807-0.8502197,1.9590836-2.1138611,4.6064339-4.6064148c3.2992935-3.1063843,3.903698-3.5168762,4.7088146-4.8111572
			c1.2404518-1.9941406,1.7205334-4.0979919,1.8160877-5.3486023c0.4303551-5.6322327-5.413105-13.9254456-13.8960762-13.8960571
			c-7.2369728,0.0250549-13.5865479,6.0976257-13.89608,13.8960571"/>
	</g>
</g>
</svg>
