<?xml version="1.0" encoding="utf-8"?>
<!-- Generator: Adobe Illustrator 19.0.0, SVG Export Plug-In . SVG Version: 6.00 Build 0)  -->
<svg version="1.1" id="Layer_1" xmlns="http://www.w3.org/2000/svg" xmlns:xlink="http://www.w3.org/1999/xlink" x="0px" y="0px"
	 width="300px" height="300px" viewBox="0 0 300 300" style="enable-background:new 0 0 300 300;" xml:space="preserve">
<style type="text/css">
	.st0{fill:none;stroke:#008CFF;stroke-width:8;stroke-linecap:round;stroke-linejoin:round;stroke-miterlimit:10;}
	.st1{fill:#008CFF;stroke:#008CFF;stroke-width:8;stroke-linecap:round;stroke-linejoin:round;stroke-miterlimit:10;}
</style>
<g id="XMLID_19_">
	<path id="XMLID_34_" class="st0" d="M244.4482727,102.8492279v123.4462585
		c0,18.8552856-15.2852478,34.1405182-34.1405487,34.1405182H89.692276c-18.8553085,0-34.1405487-15.2852325-34.1405487-34.1405182
		V102.8492279"/>
	<path id="XMLID_33_" class="st0" d="M282,130.7118988L166.5091095,45.0198174
		c-9.8040619-7.2744446-23.2141571-7.2744446-33.018219,0L18,130.7118988"/>
	<path id="XMLID_21_" class="st1" d="M94.8103638,73.7200775V60.1601677c0-6.9130859-5.6041565-12.5172424-12.5172272-12.5172424
		h-0.0000305c-6.9130707,0-12.5172272,5.6041565-12.5172272,12.5172424v32.1349831L94.8103638,73.7200775z"/>
	<path id="XMLID_29_" class="st1" d="M177.0258942,182.4877472h-0.000061C162.099884,182.4877472,150,194.5876312,150,209.5135956
		v50.9224091h54.0517273v-50.9224091C204.0517273,194.5876312,191.9518433,182.4877472,177.0258942,182.4877472z"/>
</g>
</svg>
