<?xml version="1.0" encoding="utf-8"?>
<!-- Generator: Adobe Illustrator 19.0.0, SVG Export Plug-In . SVG Version: 6.00 Build 0)  -->
<svg version="1.1" id="Layer_1" xmlns="http://www.w3.org/2000/svg" xmlns:xlink="http://www.w3.org/1999/xlink" x="0px" y="0px"
	 width="300px" height="300px" viewBox="-155 247 300 300" style="enable-background:new -155 247 300 300;" xml:space="preserve">
<style type="text/css">
	.st0{fill:none;stroke:#008cff;stroke-width:8;stroke-linecap:round;stroke-linejoin:round;stroke-miterlimit:10;}
	.st1{fill:#008cff;}
</style>
<g>
	<polyline class="st0" points="-8.3146992,371.9342651 -8.3146992,363.956543 -108.2656174,363.956543 -108.2656174,371.9342651 	
		"/>
	<line class="st0" x1="-108.2656174" y1="391.3125" x2="-108.2656174" y2="411.7106018"/>
	<polygon class="st0" points="126.8230209,371.9342651 -8.3146992,371.9342651 -8.3146992,391.3125 119.1732941,391.3125 	"/>
	<path class="st0" d="M-136.8230286,371.9342651v0.0000305c0,10.702301,8.6759338,19.3782043,19.3782272,19.3782043h9.179184
		v-19.3782349H-136.8230286z"/>
	<polyline class="st0" points="59.2539406,407.6310425 103.8751068,407.6310425 113.0101624,391.3125 	"/>
	<line class="st0" x1="-8.3146992" y1="407.6310425" x2="42.4253807" y2="407.6310425"/>
	<line class="st0" x1="-72.4412918" y1="449.1549683" x2="-8.3146992" y2="449.1549683"/>
	<line class="st0" x1="-108.2656174" y1="449.1549683" x2="-88.8876114" y2="449.1549683"/>
	<path class="st0" d="M-108.2656174,466.4934082h99.9509201H-108.2656174z"/>
	<polyline class="st0" points="-108.2656174,427.519104 -108.2656174,490.753479 -28.7534332,490.753479 -8.3146992,490.753479 
		-8.3146992,476.4165649 -8.3146992,391.3125 	"/>
	<line class="st0" x1="89.7467422" y1="407.6307678" x2="-8.3146992" y2="476.4165649"/>
	<polyline class="st0" points="-28.7534332,490.753479 -83.2778854,529 -103.1660843,529 	"/>
	<polyline class="st0" points="96.2257996,529 76.3376083,529 -3.4717238,473.0172424 	"/>
	<path class="st0" d="M-82.1203537,331.8598938c-7.2751694-1.5494995-14.4290543-8.7033997-15.9785767-15.9785767
		c-1.54953,7.275177-8.7034073,14.4290771-15.9785843,15.9785767c7.275177,1.54953,14.4290543,8.7034302,15.9785843,15.9786072
		C-96.549408,340.563324-89.3955231,333.4094238-82.1203537,331.8598938z"/>
	<path class="st0" d="M-25.9555054,283.1091614c-7.2751732-1.5494995-14.4290543-8.7033997-15.9785805-15.9785767
		c-1.5495262,7.275177-8.7034073,14.4290771-15.9785805,15.9785767c7.2751732,1.54953,14.4290543,8.7034302,15.9785805,15.9786072
		C-40.3845596,291.8125916-33.2306786,284.6586914-25.9555054,283.1091614z"/>
	<path class="st0" d="M109.7679062,327.7385559v-10.1173096c0-11.8452148-3.6970139-23.4420776-10.7978516-32.9229736
		c-0.0551605-0.0736694-0.1105499-0.1473389-0.166153-0.2210693C91.439064,274.7145386,83.2854691,268.5759888,77.6408234,265
		c-5.6446457,3.5759888-13.7982368,9.7145386-21.1630745,19.4772034c-0.0556068,0.0737305-0.1109924,0.1473999-0.1661568,0.2210693
		c-7.1008377,9.480896-10.7978477,21.0777588-10.7978477,32.9229736v36.4646606
		c0,9.8573608,7.9909897,17.8483582,17.8483772,17.8483582h28.5574036c9.8573914,0,17.848381-7.9909973,17.848381-17.8483582
		v-12.4093933"/>
	<path class="st0" d="M45.5137444,351.6636047h64.2541656H45.5137444z"/>
	<g>
		<path class="st1" d="M81.0670776,289.5187073v4.8225403c0,1.4142761-1.146492,2.560791-2.5607681,2.560791h-1.7309723
			c-1.4142685,0-2.5607605-1.1465149-2.5607605-2.560791v-4.8225403c0-1.4142761,1.146492-2.560791,2.5607605-2.560791h1.7309723
			C79.9205856,286.9579163,81.0670776,288.1044312,81.0670776,289.5187073z"/>
		<g>
			<path class="st1" d="M66.2833633,311.6747437h-4.8225708c-1.4142723,0-2.5607643-1.1464844-2.5607643-2.5607605v-1.7309875
				c0-1.4142456,1.146492-2.5607605,2.5607643-2.5607605h4.8225708c1.4142685,0,2.5607605,1.1465149,2.5607605,2.5607605v1.7309875
				C68.8441238,310.5282593,67.6976318,311.6747437,66.2833633,311.6747437z"/>
			<path class="st1" d="M66.2833633,325.4434814h-4.8225708c-1.4142723,0-2.5607643-1.1464844-2.5607643-2.5607605v-1.730957
				c0-1.4142761,1.146492-2.5607605,2.5607643-2.5607605h4.8225708c1.4142685,0,2.5607605,1.1464844,2.5607605,2.5607605v1.730957
				C68.8441238,324.2969971,67.6976318,325.4434814,66.2833633,325.4434814z"/>
			<path class="st1" d="M66.2833633,339.2122498h-4.8225708c-1.4142723,0-2.5607643-1.1464844-2.5607643-2.5607605v-1.7309875
				c0-1.4142761,1.146492-2.5607605,2.5607643-2.5607605h4.8225708c1.4142685,0,2.5607605,1.1464844,2.5607605,2.5607605v1.7309875
				C68.8441238,338.0657654,67.6976318,339.2122498,66.2833633,339.2122498z"/>
		</g>
		<g>
			<path class="st1" d="M93.8208542,311.6747437H88.998291c-1.4142761,0-2.5607681-1.1464844-2.5607681-2.5607605v-1.7309875
				c0-1.4142456,1.146492-2.5607605,2.5607681-2.5607605h4.8225632c1.4142761,0,2.5607681,1.1465149,2.5607681,2.5607605v1.7309875
				C96.3816223,310.5282593,95.2351303,311.6747437,93.8208542,311.6747437z"/>
			<path class="st1" d="M93.8208542,325.4434814H88.998291c-1.4142761,0-2.5607681-1.1464844-2.5607681-2.5607605v-1.730957
				c0-1.4142761,1.146492-2.5607605,2.5607681-2.5607605h4.8225632c1.4142761,0,2.5607681,1.1464844,2.5607681,2.5607605v1.730957
				C96.3816223,324.2969971,95.2351303,325.4434814,93.8208542,325.4434814z"/>
			<path class="st1" d="M93.8208542,339.2122498H88.998291c-1.4142761,0-2.5607681-1.1464844-2.5607681-2.5607605v-1.7309875
				c0-1.4142761,1.146492-2.5607605,2.5607681-2.5607605h4.8225632c1.4142761,0,2.5607681,1.1464844,2.5607681,2.5607605v1.7309875
				C96.3816223,338.0657654,95.2351303,339.2122498,93.8208542,339.2122498z"/>
		</g>
	</g>
</g>
</svg>
