<?xml version="1.0" encoding="utf-8"?>
<!-- Generator: Adobe Illustrator 17.0.0, SVG Export Plug-In . SVG Version: 6.00 Build 0)  -->
<!DOCTYPE svg PUBLIC "-//W3C//DTD SVG 1.1//EN" "http://www.w3.org/Graphics/SVG/1.1/DTD/svg11.dtd">
<svg version="1.1" id="Layer_1" xmlns="http://www.w3.org/2000/svg" xmlns:xlink="http://www.w3.org/1999/xlink" x="0px" y="0px"
	 width="300px" height="300px" viewBox="0 0 300 300" style="enable-background:new 0 0 300 300;" xml:space="preserve">
<style type="text/css">
	.st0{fill:none;stroke:#008CFF;stroke-width:8;stroke-linecap:round;stroke-linejoin:round;stroke-miterlimit:10;}
	.st1{fill:#008CFF;stroke:#008CFF;stroke-width:8;stroke-linecap:round;stroke-linejoin:round;stroke-miterlimit:10;}
</style>
<g id="XMLID_19_">
	<path id="XMLID_37_" class="st0" d="M250.0610657,265.8778687H49.9389343C32.2995453,265.8778687,18,251.5783081,18,233.9389343
		V98.3053589c0-17.6393738,14.2995453-31.9389343,31.9389343-31.9389343h200.1221313
		C267.7004395,66.3664246,282,80.6659851,282,98.3053589v135.6335754
		C282,251.5783081,267.7004395,265.8778687,250.0610657,265.8778687z"/>
	<path id="XMLID_40_" class="st1" d="M137.1203003,148h25.7593994c45.1188965,0,88.2232666-18.7433472,119.0770874-51.6611938
		C281.0905762,79.4733887,267.1419067,66,250.0610962,66H49.9389648c-17.0808716,0-31.029541,13.4733887-31.895752,30.3388062
		C48.8970337,129.2566528,92.0014038,148,137.1203003,148z"/>
	<path id="XMLID_35_" class="st0" d="M97.0992355,66.366394v-0.0000305c0-17.8079834,14.4362335-32.2442322,32.2442398-32.2442322
		h41.3130646c17.8079987,0,32.2442322,14.4362488,32.2442322,32.2442322v0.0000305"/>
	<path id="XMLID_32_" class="st0" d="M168,148.2366333c0,9.9411316-8.0588684,18-18,18s-18-8.0588684-18-18"/>
</g>
</svg>
