<?xml version="1.0" encoding="utf-8"?>
<!-- Generator: Adobe Illustrator 19.0.0, SVG Export Plug-In . SVG Version: 6.00 Build 0)  -->
<svg version="1.1" id="Layer_1" xmlns="http://www.w3.org/2000/svg" xmlns:xlink="http://www.w3.org/1999/xlink" x="0px" y="0px"
	 width="300px" height="300px" viewBox="0 0 300 300" style="enable-background:new 0 0 300 300;" xml:space="preserve">
<style type="text/css">
	.st0{fill:none;stroke:#008CFF;stroke-width:8;stroke-linecap:round;stroke-linejoin:round;stroke-miterlimit:10;}
	.st1{fill:#008CFF;}
</style>
<g id="XMLID_28_">
	<path id="XMLID_37_" class="st0" d="M93.1788101,125.3411713c0,0,27.6716995-13.6786804,39.4479752-25.4973984
		c28.059906-28.1612167,31.7875519-63.5291214,32.5077972-74.9598389
		c17.5467834-1.6036453,27.4562836,4.3982449,30.6777344,6.9718876C213.9957581,46.3828506,216.9197998,82,194.1456909,121
		h-29.2847595h94.410614c10.6213989,0,19.231781,8.3785706,19.231781,19s-8.6103821,19-19.231781,19h-20.9801483h24.4768219
		C273.3896484,159,282,167.8785706,282,178.5s-8.6103516,19.5-19.231781,19.5h-24.4768219h20.9801483
		c10.6213989,0,19.231781,8.3785706,19.231781,19s-8.6103821,19-19.231781,19h-20.9801483h0.72995
		C249.239624,236,256,244.4566803,256,254.6749573v0.2397461c0,9.573761-6.5232086,17.6621704-16.0556946,18.5502319
		c-8.4378052,0.7861328-17.6763763,1.443512-28.2588806,1.5911865c-28.5421143,0.3983459-28.3322601,1.2270508-54.0082703-3.4667358
		c-15.1460419-2.7687988-38.2286453-8.951355-64.593544-24.4618378"/>
	<path id="XMLID_39_" class="st1" d="M66.8735352,99H18v172h48.8735352C81.4015503,271,93,259.0029297,93,244.4749146V124.8735352
		C93,110.34552,81.4015503,99,66.8735352,99z M66.5165405,253.2617188c-7.0004883,0-12.6754761-5.6749878-12.6754761-12.6754761
		s5.6749878-12.6755371,12.6754761-12.6755371s12.6755371,5.6750488,12.6755371,12.6755371
		S73.5170288,253.2617188,66.5165405,253.2617188z"/>
</g>
</svg>
