<?xml version="1.0" encoding="utf-8"?>
<!-- Generator: Adobe Illustrator 25.4.1, SVG Export Plug-In . SVG Version: 6.00 Build 0)  -->
<svg version="1.1" id="Layer_1" xmlns="http://www.w3.org/2000/svg" xmlns:xlink="http://www.w3.org/1999/xlink" x="0px" y="0px"
	 width="300px" height="300px" viewBox="0 0 300 300" style="enable-background:new 0 0 300 300;" xml:space="preserve">
<style type="text/css">
	.st0{fill:none;stroke:#008CFF;stroke-width:8;stroke-linecap:round;stroke-linejoin:round;stroke-miterlimit:10;}
	.st1{fill:#008CFF;stroke:#008CFF;stroke-width:8;stroke-linecap:round;stroke-linejoin:round;stroke-miterlimit:10;}
</style>
<g>
	<path class="st0" d="M208.2593842,212.8705292l43.4253998-21.1704712
		c4.7970581-2.3386536,10.3061523-3.1138611,15.4468079-1.6803589c0.5072632,0.141449,1.0219727,0.3046265,1.5426636,0.4919281
		c6.8411255,2.4609528,10.3124084,7.5065765,11.3257446,9.109848c-28.5404968,18.1197052-57.0809631,36.2394257-85.62146,54.3591309
		c-5.4650116,3.4695892-11.4798126,5.9854584-17.7876129,7.4401093h-0.0000153
		c-2.8475494,0.6531982-5.5829315,1.0861511-8.1723175,1.3536682c-7.4042511,0.7649841-14.8861847-0.0335083-22.0752869-1.9634705
		l-66.5137634-17.8561096L58.901516,246.803299v-54.8143921c11.7549553-7.624939,28.3632469-15.3985291,47.026516-13.0492554
		c17.432457,2.1943512,17.6166916,10.8235931,37.8122635,13.8168793
		c20.9929657,3.1114655,36.5060577-3.8838654,51.2161102,4.3236847c2.0471191,1.1421967,6.6515656,3.7812805,10.1950989,9.1889954
		c3.6603088,5.5858917,4.3144379,11.2656708,4.4318237,14.280304c-20.6818237-0.6565704-41.3636322-1.3131409-62.0454559-1.9697113"
		/>
	<path class="st0" d="M236.2142944,199.2421112V60.2953377c0-12.8997803-10.4573364-23.3571167-23.3571777-23.3571167h-119.5
		C80.4573364,36.938221,70,47.3955574,70,60.2953377v125.4103394"/>
	<path class="st1" d="M208.1757202,174.1053467h-20.5750885c-5.4588318,0-9.8840942-4.4252625-9.8840942-9.8840942v-0.0000153
		c0-5.4588318,4.4252625-9.8840942,9.8840942-9.8840942h20.5750885c5.4588318,0,9.8840942,4.4252625,9.8840942,9.8840942v0.0000153
		C218.0598145,169.6800842,213.634552,174.1053467,208.1757202,174.1053467z"/>
	<path class="st1" d="M164.9759064,103.5046234h-23.7375183c-4.3627472,0-7.8994446-3.536705-7.8994446-7.8994446V36.938221
		h39.5364075v58.6669579C172.875351,99.9679184,169.3386383,103.5046234,164.9759064,103.5046234z"/>
	<path class="st1" d="M50.2381592,170.814682H28.6633301C23.8787231,170.814682,20,174.6933441,20,179.4780121v71.802124
		c0,4.7846222,3.8787231,8.6633453,8.6633301,8.6633453h21.5748291c4.784668,0,8.6633301-3.8787231,8.6633301-8.6633453v-71.802124
		C58.9014893,174.6933441,55.0228271,170.814682,50.2381592,170.814682z M36.9176636,254.1415863
		c-6.6000366,0-11.9503784-5.3503418-11.9503784-11.9503784s5.3503418-11.9503784,11.9503784-11.9503784
		s11.9503784,5.3503418,11.9503784,11.9503784S43.5177002,254.1415863,36.9176636,254.1415863z"/>
</g>
</svg>
