<?xml version="1.0" encoding="utf-8"?>
<!-- Generator: Adobe Illustrator 25.4.1, SVG Export Plug-In . SVG Version: 6.00 Build 0)  -->
<svg version="1.1" id="Layer_1" xmlns="http://www.w3.org/2000/svg" xmlns:xlink="http://www.w3.org/1999/xlink" x="0px" y="0px"
	 width="300px" height="300px" viewBox="0 0 300 300" style="enable-background:new 0 0 300 300;" xml:space="preserve">
<style type="text/css">
	.st0{fill:none;stroke:#008CFF;stroke-width:8;stroke-linecap:round;stroke-linejoin:round;stroke-miterlimit:10;}
	.st1{fill:#008CFF;}
</style>
<g>
	<line class="st0" x1="264.9991455" y1="252.9495392" x2="22.3716106" y2="252.9495392"/>
	<path class="st0" d="M224.5250092,175.2362061c-15.3108521,0-27.5947266,12.9592743-26.4814606,28.5073242
		c1.0002747,13.9701538,13.0278625,24.5960541,27.0337677,24.5960541h47.5283661
		c2.7739563,0,5.0227051-2.2487335,5.0227051-5.0226898v-43.0579834c0-2.7739563-2.2487488-5.0227051-5.0227051-5.0227051
		H224.5250092z"/>
	<path class="st0" d="M198.0435333,203.7435303c-1.1132355-15.5480499,11.1706085-28.5073547,26.4814758-28.5073547h40.4741364
		v-35.3722687c0-8.995575-7.2923584-16.2879868-16.2879181-16.2879868H38.6595383
		c-8.9955635,0-16.2879143,7.2924118-16.2879143,16.2879868v123.8480988C22.371624,272.7075806,29.6639748,280,38.6595383,280
		h210.0516968c8.9955597,0,16.2879181-7.2924194,16.2879181-16.2879944v-35.3723907h-39.9218292
		C211.0714111,228.3396149,199.0438385,217.7136993,198.0435333,203.7435303z"/>
	<circle class="st1" cx="222.758667" cy="201.7879639" r="10.1979942"/>
	<path class="st1" d="M117.5045929,61.0180054c-0.0001297,0.0002899-10.6088715-1.2604752-15.9124756-1.8908119
		c-4.9249954-0.5852776-9.8726654,1.5909691-12.4597778,5.8223305c-0.9308777,1.5225601-2.210289,3.0865784-3.9692841,4.4718628
		c-1.6348648,1.2878036-3.322998,2.1363068-4.9167633,2.6897125c-4.8153229,1.6721878-8.34021,5.8099899-8.9417801,10.871582
		c-1.6080704,13.5310516-3.2161331,27.0622559-4.8242035,40.5933075H52.4545631l8.8428078-74.4066162
		c0.850811-7.1584473,7.3437424-12.2719994,14.5022049-11.4212074l51.8349762,6.1603394L117.5045929,61.0180054z"/>
	<path class="st1" d="M228.2958527,123.5759964L251.495697,90.633873
		c4.1509552-5.8939972,2.7378693-14.0369263-3.1561279-18.1878815l-71.0872345-50.0639801
		c-5.8939972-4.1507912-14.0369263-2.737875-18.1878815,3.156126l-69.0441437,98.0378571h17.0350571
		c14.9143677-21.1771393,29.8285751-42.3544388,44.742775-63.5315704c2.9349976-4.1675606,8.0028534-6.1327209,13.0342102-5.3152847
		c1.6652832,0.2706108,3.553833,0.3261833,5.6043091-0.0295944c2.2060242-0.38274,4.0751648-1.1508522,5.6177979-2.0480232
		c4.2872467-2.4932365,9.6747131-2.0564041,13.7296448,0.7991867c8.3596191,5.8874207,16.7192383,11.7748451,25.0788574,17.6621056
		c4.1673889,2.9349976,6.1327209,8.0030136,5.3152771,13.0342102c-0.2705994,1.6652756-0.3263397,3.5538254,0.0294342,5.6043091
		c0.3829041,2.2060165,1.1510162,4.0751648,2.0481873,5.6177979c2.4932404,4.2872467,2.0562439,9.6747131-0.7993469,13.7296524
		c-3.3986206,4.8256836-6.7970886,9.6515274-10.1957092,14.477211H228.2958527z"/>
	<path class="st1" d="M188.9895325,123.5759964c1.385788-9.8596725-2.6423492-20.1259155-11.342453-26.2530441
		c-12.3802032-8.7190094-29.4844818-5.7508011-38.2033234,6.6293945
		c-4.1818542,5.9378967-5.6478729,12.9587402-4.7036896,19.6236496"/>
</g>
</svg>
