<?xml version="1.0" encoding="utf-8"?>
<!-- Generator: Adobe Illustrator 25.4.1, SVG Export Plug-In . SVG Version: 6.00 Build 0)  -->
<svg version="1.1" id="Layer_1" xmlns="http://www.w3.org/2000/svg" xmlns:xlink="http://www.w3.org/1999/xlink" x="0px" y="0px"
	 width="300px" height="300px" viewBox="0 0 300 300" style="enable-background:new 0 0 300 300;" xml:space="preserve">
<style type="text/css">
	.st0{fill:none;stroke:#008CFF;stroke-width:8;stroke-linecap:round;stroke-linejoin:round;stroke-miterlimit:10;}
	.st1{fill:#008CFF;stroke:#008CFF;stroke-width:8;stroke-linecap:round;stroke-linejoin:round;stroke-miterlimit:10;}
</style>
<g>
	<path class="st0" d="M264.6200867,186.07724H35.3799095v54.8450317c0,13.2055359,10.7051888,23.9107361,23.9107132,23.9107361
		h181.4187622c13.2055206,0,23.9107056-10.7052002,23.9107056-23.9107361V186.07724z"/>
	<path class="st1" d="M266.0420227,186.0772552L33.9579887,186.07724C26.2492046,186.07724,20,179.8280487,20,172.1192627
		v-0.0000305c0-7.708786,6.2492046-13.9579926,13.9579887-13.9579926h232.0840302
		c7.7087708,0,13.9579773,6.2492065,13.9579773,13.9579926v0.0000305
		C280,179.8280487,273.7507935,186.0772552,266.0420227,186.0772552z"/>
	<path class="st0" d="M262.3882446,169.4046326V67.2667847c0-17.7282219-14.3715668-32.0997849-32.0997772-32.0997849h-41.7379608"
		/>
	<path class="st0" d="M245.6824799,169.4046326V93.2969742c0-17.7282181-14.3715668-32.099781-32.0997772-32.099781h-82.1641541"/>
	<path class="st0" d="M108.4680405,141.8374329v17.5671997H61.7416267v-17.5671997
		c0-4.6861267,3.7988396-8.4849548,8.484951-8.4849548h29.7565155
		C104.6692047,133.352478,108.4680405,137.1513062,108.4680405,141.8374329z"/>
	<circle class="st0" cx="150" cy="225.4551086" r="21.1190643"/>
	<g>
		<circle class="st0" cx="163.9007416" cy="114.9932098" r="21.9246254"/>
		<path class="st0" d="M196.4263,159.4046326c0-12.4191284-14.5621948-22.4867859-32.5255585-22.4867859
			s-32.5255432,10.0676575-32.5255432,22.4867859H196.4263z"/>
	</g>
	<path class="st1" d="M162.7429199,231.9353638c-6.1152191-1.7702942-7.1379089-5.2692566-12.8672485-5.8742065
		c-7.3878174-0.7799988-10.1357269,4.5682678-16.6615143,4.4692383c-1.1391754-0.0173035-2.4375763-0.2037354-3.8776245-0.704071
		c2.0137024,9.5657349,10.498703,16.7478638,20.6634674,16.7478638c9.1275787,0,16.9017334-5.7908936,19.8514557-13.8987122
		C166.9465485,232.8499146,164.5922699,232.4707031,162.7429199,231.9353638z"/>
</g>
</svg>
