<?xml version="1.0" encoding="utf-8"?>
<!-- Generator: Adobe Illustrator 25.4.1, SVG Export Plug-In . SVG Version: 6.00 Build 0)  -->
<svg version="1.1" id="Layer_1" xmlns="http://www.w3.org/2000/svg" xmlns:xlink="http://www.w3.org/1999/xlink" x="0px" y="0px"
	 width="300px" height="300px" viewBox="0 0 300 300" style="enable-background:new 0 0 300 300;" xml:space="preserve">
<style type="text/css">
	.st0{fill:none;stroke:#008CFF;stroke-width:8;stroke-linecap:round;stroke-linejoin:round;stroke-miterlimit:10;}
	.st1{fill:#008CFF;}
</style>
<g>
	<circle class="st0" cx="150" cy="127.3415222" r="70.4496536"/>
	<path class="st0" d="M42.1584778,127.3415222C42.1584778,67.7822952,90.440773,19.5,150,19.5
		s107.8415222,48.2822952,107.8415222,107.8415222"/>
	<path class="st0" d="M21.3136826,280.5h257.3726196c0-32.9868927-21.0351562-62.1818695-53.3381195-80.1486053
		c-19.075531,19.6826019-45.7736664,31.934494-75.3481903,31.934494c-29.5744095,0-56.2725525-12.2517853-75.3480759-31.934494
		C42.3489456,218.3182373,21.3136826,247.5131073,21.3136826,280.5z"/>
	<g>
		<path class="st1" d="M60.8139038,153.8467102c-19.534523,0-35.3703842-15.8358612-35.3703842-35.3703842
			s15.8358631-35.3703842,35.3703842-35.3703842"/>
		<path class="st1" d="M239.1860962,153.8467102c19.5345154,0,35.3703918-15.8358612,35.3703918-35.3703842
			s-15.8358765-35.3703842-35.3703918-35.3703842"/>
	</g>
</g>
</svg>
