<?xml version="1.0" encoding="utf-8"?>
<!-- Generator: Adobe Illustrator 25.4.1, SVG Export Plug-In . SVG Version: 6.00 Build 0)  -->
<svg version="1.1" id="Layer_1" xmlns="http://www.w3.org/2000/svg" xmlns:xlink="http://www.w3.org/1999/xlink" x="0px" y="0px"
	 width="300px" height="300px" viewBox="0 0 300 300" style="enable-background:new 0 0 300 300;" xml:space="preserve">
<style type="text/css">
	.st0{fill:none;stroke:#008CFF;stroke-width:8;stroke-linecap:round;stroke-linejoin:round;stroke-miterlimit:10;}
	.st1{fill:#008CFF;stroke:#008CFF;stroke-width:8;stroke-linecap:round;stroke-linejoin:round;stroke-miterlimit:10;}
	.st2{fill:#008CFF;}
</style>
<g>
	<g>
		<path class="st0" d="M208.2593842,224.8242035l43.4253998-21.1704865
			c4.7970581-2.3386383,10.3061523-3.1138458,15.4468079-1.6803589c0.5072632,0.1414642,1.0219727,0.3046265,1.5426636,0.4919281
			c6.8411255,2.460968,10.3124084,7.5065765,11.3257446,9.109848c-28.5404968,18.1197205-57.0809631,36.2394257-85.62146,54.3591309
			c-5.4650116,3.4696045-11.4798126,5.9854431-17.7876129,7.4401245h-0.0000153
			c-2.8475494,0.6531677-5.5829315,1.0861511-8.1723175,1.3536682c-7.4042511,0.7649841-14.8861847-0.0335083-22.0752869-1.9634705
			l-66.5137634-17.8561096L58.901516,258.756958v-54.8143921c11.7549553-7.6249237,28.3632469-15.3985291,47.026516-13.0492401
			c17.432457,2.1943512,17.6166916,10.8235779,37.8122635,13.816864
			c20.9929657,3.1114655,36.5060577-3.8838501,51.2161102,4.3236847c2.0471191,1.1422119,6.6515656,3.7812958,10.1950989,9.1889954
			c3.6603088,5.5858917,4.3144379,11.2656708,4.4318237,14.280304c-20.6818237-0.6565704-41.3636322-1.3131409-62.0454559-1.969696"
			/>
		<path class="st1" d="M50.2381592,182.7683563H28.6633301c-4.7846069,0-8.6633301,3.8786621-8.6633301,8.6633301v71.8021088
			c0,4.7846069,3.8787231,8.6633301,8.6633301,8.6633301h21.5748291c4.784668,0,8.6633301-3.8787231,8.6633301-8.6633301
			v-71.8021088C58.9014893,186.6470184,55.0228271,182.7683563,50.2381592,182.7683563z M36.9176636,266.0952454
			c-6.6000366,0-11.9503784-5.3503418-11.9503784-11.9503632c0-6.6000366,5.3503418-11.9503784,11.9503784-11.9503784
			s11.9503784,5.3503418,11.9503784,11.9503784C48.868042,260.7449036,43.5177002,266.0952454,36.9176636,266.0952454z"/>
	</g>
	<g>
		<g>
			<path class="st2" d="M153.6565094,68.033493c-32.7304535,0-59.263649,26.533287-59.263649,59.2636566
				c0,32.7304535,26.5331955,59.2636566,59.263649,59.2636566s59.2636566-26.5332031,59.2636566-59.2636566
				C212.920166,94.5667801,186.3869781,68.033493,153.6565094,68.033493z M170.739502,158.0319214h-34.1652832
				c-1.9472656,0-3.5258179-1.5785675-3.5258179-3.5258179v-4.1158142c0-1.3284454,0.7466736-2.5441284,1.9315491-3.1447906
				v-0.0000153c4.5971832-2.3316345,7.4535522-6.6464844,7.4535522-11.2615662c0-0.7753754-0.0123901-1.4984283-0.0530243-2.2393646
				h-2.7200317c-3.3786621,0-6.11763-2.7389679-6.11763-6.1176376v-0.0000076c0-3.3786774,2.7389679-6.1176376,6.11763-6.1176376
				h0.9840393c-0.210022-1.7476959-0.3511963-3.5463562-0.3511963-5.3670425
				c0-11.5287552,7.9493561-19.5800171,19.3321228-19.5800171c4.2859192,0,8.1325226,0.9186096,10.8305054,2.5878067l0,0
				c1.3599243,0.8411255,1.9834137,2.4922028,1.5189209,4.0222778l-1.6492767,5.4328079
				c-0.6522217,2.1484375-3.1198883,3.1478653-5.0833282,2.0587997l-0.0005035-0.0002823
				c-0.8084259-0.4489746-2.6139679-1.2023163-5.6163177-1.2023163c-1.6540527,0-5.5295563,0-5.5295563,6.7635574
				c0,1.9997253,0.1742096,3.6840744,0.4207306,5.2844086h6.3042603c3.3786774,0,6.11763,2.7389603,6.11763,6.1176376v0.0000076
				c0,3.3786697-2.7389526,6.1176376-6.11763,6.1176376H155.94133c0.0426941,2.1649933-0.0881348,4.3713074-0.6335144,6.5514526
				c-0.4221344,1.6485443-1.035675,3.2089386-1.8365326,4.6743011h17.268219c1.9472504,0,3.5258179,1.5785675,3.5258179,3.5258179
				v6.0099792C174.2653198,156.4533539,172.6867523,158.0319214,170.739502,158.0319214z"/>
		</g>
		<g>
			<path class="st0" d="M153.6565094,50.2201385V24.9845543V50.2201385z"/>
			<path class="st0" d="M131.8085175,59.1268158V43.4640045V59.1268158z"/>
			<path class="st0" d="M175.5045166,59.1268158V43.4640045V59.1268158z"/>
		</g>
	</g>
</g>
</svg>
