<?xml version="1.0" encoding="utf-8"?>
<!-- Generator: Adobe Illustrator 19.0.0, SVG Export Plug-In . SVG Version: 6.00 Build 0)  -->
<svg version="1.1" id="Layer_1" xmlns="http://www.w3.org/2000/svg" xmlns:xlink="http://www.w3.org/1999/xlink" x="0px" y="0px"
	 width="300px" height="300px" viewBox="0 0 300 300" style="enable-background:new 0 0 300 300;" xml:space="preserve">
<style type="text/css">
	.st0{fill:none;stroke:#008CFF;stroke-width:8;stroke-linecap:round;stroke-linejoin:round;stroke-miterlimit:10;}
	.st1{fill:#008CFF;stroke:#008CFF;stroke-width:8;stroke-linecap:round;stroke-linejoin:round;stroke-miterlimit:10;}
</style>
<g id="XMLID_19_">
	<path id="XMLID_34_" class="st0" d="M282,94.7485352l-44-12.3200073L54.6666565,31.0952148L238,82.4285278V57.285675
		c0-12.1502686,9.8497314-21.9999695,21.9999695-21.9999695h0.000061C272.1502686,35.2857056,282,45.1354065,282,57.285675
		v176.1667175c0,19.5798035-15.8725586,35.4523926-35.4523926,35.4523926H90.2857132H53.4523849
		C33.8725739,268.9047852,18,253.032196,18,233.4523926V169.776062c0-11.9132996,7.3400726-22.5950928,18.4613571-26.8663025
		l53.8243561-20.6716614V41.0685425v227.8362427"/>
	<path id="XMLID_29_" class="st1" d="M90.2857132,268.9047852H53.4523849C33.8725739,268.9047852,18,253.032196,18,233.4523926
		V169.776062c0-11.9132996,7.3400726-22.5950928,18.4613571-26.8663025l53.8243561-20.6716614V268.9047852"/>
	<path id="XMLID_33_" class="st0" d="M182.9999695,194.5238037h0.000061c14.7538757,0,26.7142487,11.9603577,26.7142487,26.7142334
		v47.666748h-53.4285583v-47.666748C156.2857208,206.4841614,168.2460938,194.5238037,182.9999695,194.5238037z"/>
</g>
</svg>
