<?xml version="1.0" encoding="utf-8"?>
<!-- Generator: Adobe Illustrator 19.0.0, SVG Export Plug-In . SVG Version: 6.00 Build 0)  -->
<svg version="1.1" id="Layer_1" xmlns="http://www.w3.org/2000/svg" xmlns:xlink="http://www.w3.org/1999/xlink" x="0px" y="0px"
	 width="300px" height="300px" viewBox="-155 247 300 300" style="enable-background:new -155 247 300 300;" xml:space="preserve">
<style type="text/css">
	.st0{fill:none;stroke:#008cff;stroke-width:8;stroke-linecap:round;stroke-linejoin:round;stroke-miterlimit:10;}
</style>
<g>
	<g>
		<polyline class="st0" points="56.1954041,421.8991089 56.1954041,392.5656738 -66.1954041,392.5656738 -66.1954041,495.0631714 		
			"/>
		<polyline class="st0" points="-66.1954041,515.6312256 -66.1954041,526.0828857 56.1954041,526.0828857 56.1954041,479.2172546 		
			"/>
		<path class="st0" d="M-110.823143,384.0970154l20.6448212,26.9646606l23.9829178-18.4960022H56.1954041l23.9829178,18.4960022
			l37.9930191-49.6235352l-55.2763939-42.3210144c-1.1919518,1.0159607-2.7347527,1.6324463-4.4236832,1.6324463h-2.5287361
			c-3.770752,0-6.8275871-3.0568237-6.8275871-6.8275757v-5.3551025l-36.9570122-28.2952271h-34.3158569l-36.9570122,28.2952271
			v5.3551025c0,3.770752-3.0568352,6.8275757-6.8275871,6.8275757h-2.5287399c-1.6889267,0-3.2317276-0.6164856-4.4236755-1.6324463
			l-55.2763977,42.3210144l8.3553543,10.9131165"/>
		<line class="st0" x1="-59.1149406" y1="308.5668945" x2="-59.1149406" y2="296.1887512"/>
		<path class="st0" d="M-74.9523239,292.8180237c-0.2220688,0.6732483-0.3465271,1.3908081-0.3465271,2.1384583v18.9655151
			c0,2.0818176,0.9346924,3.9428101,2.4039078,5.1951294"/>
		<path class="st0" d="M62.8949471,319.1171265c1.4692116-1.2523193,2.403904-3.1133118,2.403904-5.1951294v-18.9655151
			c0-0.7476501-0.1244583-1.46521-0.3465271-2.1384583"/>
		<line class="st0" x1="49.1149406" y1="296.1887512" x2="49.1149406" y2="308.5668945"/>
		<path class="st0" d="M-137,267.9170837c18.3046265,11.0841064,39.4658737,19.3829956,62.0476761,24.9009399
			c0.8980255-2.7223206,3.4579391-4.6891479,6.4810562-4.6891479h2.5287399c3.770752,0,6.8275871,3.0568542,6.8275871,6.8276062
			v1.2322693c35.2365952,6.4413452,72.9932861,6.4413452,108.2298813,0v-1.2322693
			c0-3.770752,3.0568352-6.8276062,6.8275871-6.8276062h2.5287361c3.0231247,0,5.5830345,1.9668274,6.48106,4.6891479
			C87.5341263,287.3000793,108.6953735,279.0011902,127,267.9170837"/>
		<path class="st0" d="M-59.1149406,308.6116333c29.8868942,23.8263245,78.3429871,23.8263245,108.2298813,0"/>
		<path class="st0" d="M-52.1609192,313.5426941c26.0462894,50.7432861,68.2755508,50.7432861,94.3218384,0"/>
	</g>
	<path class="st0" d="M-87.4073486,462.8827515c-6.3858719-2.635437-13.6990738-9.9486084-16.3345032-16.3345032
		c-2.6354294,6.3858948-9.9486313,13.6990662-16.3345032,16.3345032c6.3858719,2.635437,13.6990738,9.9486389,16.3345032,16.3345032
		C-101.1064224,472.8313904-93.7932205,465.5181885-87.4073486,462.8827515z"/>
	<path class="st0" d="M69.1762466,451.6589661c-5.0747757-2.0943298-10.8864975-7.9060364-12.9808426-12.980835
		c-2.0943489,5.0747986-7.9060669,10.8865051-12.9808464,12.980835c5.0747795,2.0943604,10.8864975,7.9060669,12.9808464,12.9808655
		C58.2897491,459.565033,64.1014709,453.7533264,69.1762466,451.6589661z"/>
	<path class="st0" d="M109.9731827,482.0038147c-4.4157181-1.8223572-9.4726715-6.879303-11.2950211-11.2950134
		c-1.8223572,4.4157104-6.879303,9.4726563-11.2950211,11.2950134c4.4157181,1.8223572,9.4726639,6.879303,11.2950211,11.2950134
		C100.5005112,488.8831177,105.5574646,483.8261719,109.9731827,482.0038147z"/>
</g>
</svg>
