<?xml version="1.0" encoding="utf-8"?>
<!-- Generator: Adobe Illustrator 19.0.0, SVG Export Plug-In . SVG Version: 6.00 Build 0)  -->
<svg version="1.1" id="Layer_1" xmlns="http://www.w3.org/2000/svg" xmlns:xlink="http://www.w3.org/1999/xlink" x="0px" y="0px"
	 width="300px" height="300px" viewBox="-155 247 300 300" style="enable-background:new -155 247 300 300;" xml:space="preserve">
<style type="text/css">
	.st0{fill:none;stroke:#008cff;stroke-width:8;stroke-linecap:round;stroke-linejoin:round;stroke-miterlimit:10;}
</style>
<g>
	<path class="st0" d="M86.3516846,493.4255676H-14.7119455c-4.7848272,0-8.6636953-3.8788452-8.6636953-8.6636963V309.2381287
		c0-4.7848206,3.8788681-8.6636963,8.6636953-8.6636963H86.3516846c4.7848282,0,8.6636963,3.8788757,8.6636963,8.6636963
		v175.5237427C95.0153809,489.5466919,91.1365128,493.4255676,86.3516846,493.4255676z"/>
	<path class="st0" d="M98.8883362,265.908905H-27.2485981c-5.6897144,0-8.2808514,7.1015015-3.9281006,10.7657166
		l28.3908005,23.8998108h77.2115326l28.3908005-23.8998108C107.1691895,273.0104065,104.5780563,265.908905,98.8883362,265.908905z"
		/>
	<path class="st0" d="M42.5515327,528.0910645h56.3368034c5.6897202,0,8.2808533-7.1015015,3.9281006-10.765686
		l-28.3908005-23.8998108H-2.7858982l-28.3908005,23.8998108c-4.3527508,3.6641846-1.7616138,10.765686,3.9281006,10.765686
		h46.5968018"/>
	<g>
		<line class="st0" x1="88.0788498" y1="321.9101563" x2="-23.3756409" y2="321.9101563"/>
		<line class="st0" x1="69.5030289" y1="342.7940979" x2="-23.3756409" y2="342.7940979"/>
		<line class="st0" x1="50.92733" y1="363.677948" x2="-23.3756409" y2="363.677948"/>
		<line class="st0" x1="-23.3756409" y1="384.5618286" x2="32.3515739" y2="384.5618286"/>
		<line class="st0" x1="13.7758131" y1="405.4457092" x2="-23.3756409" y2="405.4457092"/>
		<line class="st0" x1="-23.3756409" y1="426.3295898" x2="-4.7998829" y2="426.3295898"/>
	</g>
	<g>
		<line class="st0" x1="77.0536499" y1="426.3295898" x2="95.0153809" y2="426.3295898"/>
		<line class="st0" x1="58.4778862" y1="447.2134399" x2="95.0153809" y2="447.2134399"/>
		<line class="st0" x1="95.0153809" y1="468.0973206" x2="39.9021912" y2="468.0973206"/>
	</g>
	<g>
		<path class="st0" d="M95.0153809,314.1116943L-23.3756409,447.2134399
			c-5.3244267,4.4053345-11.1527557,8.9216614-17.5012817,13.4401245
			c-5.2924194,3.7668152-10.4592552,7.1884155-15.4423103,10.2948608"/>
		<line class="st0" x1="-23.3756409" y1="477.8882751" x2="95.0153809" y2="344.7864685"/>
		<line class="st0" x1="95.0153809" y1="375.4612732" x2="-9.9112244" y2="493.4255676"/>
		<line class="st0" x1="17.3732319" y1="493.4255676" x2="95.0153809" y2="406.1360168"/>
	</g>
	<path class="st0" d="M-62.4858971,492.9108276h-23.012394c-3.4057541,0-6.1666641-2.7608948-6.1666641-6.1666565V463.731781
		c0-3.4057617,2.76091-6.166687,6.1666641-6.166687h23.012394c3.4057541,0,6.1666641,2.7609253,6.1666641,6.166687v23.0123901
		C-56.3192329,490.1499329-59.080143,492.9108276-62.4858971,492.9108276z"/>
	<polyline class="st0" points="-66.8563919,392.5307922 -73.9920654,300.5744324 -86.1743393,457.5651245 -61.8098297,457.5651245 
		-64.919014,417.497467 	"/>
	<path class="st0" d="M-115,477.8882751c4.6744385,0.2370911,9.600708,0.3417053,14.7559814,0.266571
		c8.9142532-0.1299133,17.1826019-0.7778015,24.707695-1.7158203v-5.4906006v9.2654114"/>
</g>
</svg>
