<?xml version="1.0" encoding="utf-8"?>
<!-- Generator: Adobe Illustrator 19.0.0, SVG Export Plug-In . SVG Version: 6.00 Build 0)  -->
<svg version="1.1" id="Layer_1" xmlns="http://www.w3.org/2000/svg" xmlns:xlink="http://www.w3.org/1999/xlink" x="0px" y="0px"
	 width="300px" height="300px" viewBox="0 0 300 300" style="enable-background:new 0 0 300 300;" xml:space="preserve">
<style type="text/css">
	.st0{fill:none;stroke:#008CFF;stroke-width:8;stroke-linecap:round;stroke-linejoin:round;stroke-miterlimit:10;}
	.st1{fill:#008CFF;stroke:#008CFF;stroke-width:8;stroke-linecap:round;stroke-linejoin:round;stroke-miterlimit:10;}
</style>
<g id="XMLID_59_">
	<path id="XMLID_6_" class="st0" d="M204.0331879,18.1760254c-11.2499084,21.0037537-37.3945923,35.7292786-67.8638916,35.7292786
		c-30.469101,0-56.6137848-14.7255249-67.8636932-35.7292786h-0.0002289c-11.4538803,0-20.7390823,9.285202-20.7390823,20.7390823
		v194.5083618c0,11.4538727,9.285202,20.7390747,20.7390823,20.7390747h135.727829
		c11.4538727,0,20.7390747-9.285202,20.7390747-20.7390747V38.9151077c0-11.4538803-9.285202-20.7390823-20.7390747-20.7390823
		H204.0331879z"/>
	<path id="XMLID_5_" class="st0" d="M75.2277145,254.1625366v6.9223633c0,11.4538574,9.285202,20.7390747,20.7390823,20.7390747
		h135.727829c11.4538727,0,20.73909-9.2852173,20.73909-20.7390747V66.5765457
		c0-11.4538803-9.2852173-20.7390823-20.73909-20.7390823h-6.922348"/>
	<path id="XMLID_4_" class="st0" d="M136.169281,53.905304c30.4693146,0,56.6139984-14.7255249,67.8638916-35.7292786h-24.126709
		c-12.2468567,7.2106018-27.3414917,11.5255127-43.7371674,11.5255127s-31.4901199-4.3149109-43.7369766-11.5255127H68.305603
		C79.5555115,39.1797791,105.7001877,53.905304,136.169281,53.905304z"/>
	<path id="XMLID_3_" class="st0" d="M136.169281,53.905365v81.7596893c0,9.2696228,7.5145111,16.7841339,16.7841339,16.7841339
		h0.0000153"/>
	<circle id="XMLID_2_" class="st1" cx="159.004364" cy="81.278656" r="6.0509338"/>
	<circle id="XMLID_13_" class="st1" cx="159.004364" cy="115.8554382" r="6.0509338"/>
	<path id="XMLID_1_" class="st1" d="M92.0516815,149.4152222h-0.0000381c-13.3846436,0-24.2350388-10.8504028-24.2350388-24.2350311
		V88.3295898h48.4701157v36.8506012C116.2867203,138.5648193,105.4363251,149.4152222,92.0516815,149.4152222z"/>
</g>
</svg>
