<?xml version="1.0" encoding="utf-8"?>
<!-- Generator: Adobe Illustrator 25.4.1, SVG Export Plug-In . SVG Version: 6.00 Build 0)  -->
<svg version="1.1" id="Layer_1" xmlns="http://www.w3.org/2000/svg" xmlns:xlink="http://www.w3.org/1999/xlink" x="0px" y="0px"
	 width="300px" height="300px" viewBox="0 0 300 300" style="enable-background:new 0 0 300 300;" xml:space="preserve">
<style type="text/css">
	.st0{fill:#008CFF;stroke:#008CFF;stroke-width:8;stroke-linecap:round;stroke-linejoin:round;stroke-miterlimit:10;}
	.st1{fill:none;stroke:#008CFF;stroke-width:8;stroke-linecap:round;stroke-linejoin:round;stroke-miterlimit:10;}
</style>
<g>
	<path class="st0" d="M186.7232513,36.0274734c-10.3231812-7.4661694-23.0093079-11.866766-36.7232208-11.866766
		c-13.713974,0-26.4001007,4.4005966-36.7233353,11.866766C93.8106842,50.106102,84.5832367,74.416832,88.7898102,98.069313
		c1.8889923,10.6212387,5.3619156,22.8271561,11.7162247,35.4299088
		c5.8748856,11.6518097,12.6502457,20.0873413,25.9611282,36.4826508
		c6.1725464,7.6028137,14.0257263,16.9041748,23.5328674,27.3184357
		c9.5070801-10.4142609,17.3603058-19.7156219,23.5328064-27.3184357
		c13.3108826-16.3953094,20.0862427-24.8308411,25.9611359-36.4826508
		c6.3543549-12.6027527,9.8272247-24.80867,11.716217-35.4299545
		C215.4167633,74.4167862,206.1893158,50.1060562,186.7232513,36.0274734z M150.0000458,133.1115112
		c-27.334816,0-49.4940109-22.159111-49.4940109-49.493927c0-27.3347168,22.1591949-49.4939194,49.4940109-49.4939194
		c27.3347168,0,49.493927,22.1592026,49.493927,49.4939194
		C199.4939728,110.9524002,177.3347626,133.1115112,150.0000458,133.1115112z"/>
	<g>
		<line class="st1" x1="28.1559753" y1="252.7302094" x2="210.3969879" y2="219.7594757"/>
		<polyline class="st1" points="66.8353424,177.625 137.4090576,232.8365326 210.3969879,219.7594757 		"/>
		<line class="st1" x1="224.6917725" y1="275.8392944" x2="199.6568756" y2="177.625"/>
		<path class="st1" d="M65.8169479,177.625h168.3660889c6.9610748,0,13.1595917,4.4055176,15.4482117,10.9796143
			l22.8020325,65.4991913c3.7008057,10.6305695-4.191864,21.7354889-15.4482117,21.7354889H43.0149231
			c-11.25634,0-19.1490059-11.1049194-15.4482136-21.7354889l22.8020267-65.4991913
			C52.6573524,182.0305176,58.8558769,177.625,65.8169479,177.625z"/>
		<line class="st1" x1="217.165451" y1="246.3128357" x2="269.7210388" y2="246.3128357"/>
	</g>
</g>
</svg>
