<?xml version="1.0" encoding="utf-8"?>
<!-- Generator: Adobe Illustrator 25.4.1, SVG Export Plug-In . SVG Version: 6.00 Build 0)  -->
<svg version="1.1" id="Layer_1" xmlns="http://www.w3.org/2000/svg" xmlns:xlink="http://www.w3.org/1999/xlink" x="0px" y="0px"
	 width="300px" height="300px" viewBox="0 0 300 300" style="enable-background:new 0 0 300 300;" xml:space="preserve">
<style type="text/css">
	.st0{fill:none;stroke:#008CFF;stroke-width:8;stroke-linecap:round;stroke-linejoin:round;stroke-miterlimit:10;}
	.st1{fill:#008CFF;stroke:#008CFF;stroke-width:8;stroke-linecap:round;stroke-linejoin:round;stroke-miterlimit:10;}
</style>
<g>
	<line class="st0" x1="199.467514" y1="51.356266" x2="173.5600433" y2="51.356266"/>
	<path class="st0" d="M238.8332062,280H61.1667938c-15.4113045,0-27.9046364-12.4933167-27.9046364-27.9046326V47.9046364
		C33.2621574,32.4933319,45.7554893,20,61.1667938,20h177.6664124c15.4113007,0,27.9046478,12.4933319,27.9046478,27.9046364
		v204.1907349C266.737854,267.5066833,254.2445068,280,238.8332062,280z"/>
	<line class="st0" x1="266.737854" y1="80.1423492" x2="33.2621574" y2="80.1423492"/>
	<g>
		<circle class="st0" cx="150" cy="179.6256561" r="66.1737137"/>
		<path class="st0" d="M86.9352646,159.551651c12.5486984,1.3425598,20.4358215,4.9313354,25.608551,8.7994537
			c2.6758575,2.000946,9.4965057,7.7085114,20.3559494,11.1031952c10.6742401,3.3368225,19.5447998,2.6552429,21.5895538,2.4673615
			c14.7064819-1.3514557,22.4396973-8.9748077,32.075943-14.1873627c6.3483734-3.4341583,14.9887543-6.5998535,26.7068787-7.5279999
			"/>
	</g>
	<path class="st1" d="M213.2720947,160.2062988c-11.7181396,0.9281616-20.3584595,4.093811-26.7068481,7.5280151
		c-9.6362305,5.2125244-17.3694458,12.8358765-32.0759277,14.1873169
		c-2.0447388,0.1879272-10.9152832,0.8695068-21.5895386-2.4673462c-10.859436-3.3946533-17.6801147-9.1022339-20.355957-11.1031494
		c-5.1727295-3.8681641-13.0598145-7.4569092-25.6085205-8.7994995c-2.0139771,6.3323975-3.1090088,13.0744629-3.1090088,20.0740356
		c0,36.5467529,29.6270142,66.1737061,66.1737061,66.1737061c36.5467529,0,66.1737061-29.6269531,66.1737061-66.1737061
		C216.1737061,172.8672485,215.1548462,166.3478394,213.2720947,160.2062988z"/>
	<circle class="st1" cx="228.467514" cy="51.356266" r="9.9967756"/>
</g>
</svg>
