<?xml version="1.0" encoding="utf-8"?>
<!-- Generator: Adobe Illustrator 25.4.1, SVG Export Plug-In . SVG Version: 6.00 Build 0)  -->
<svg version="1.1" id="Layer_1" xmlns="http://www.w3.org/2000/svg" xmlns:xlink="http://www.w3.org/1999/xlink" x="0px" y="0px"
	 width="300px" height="300px" viewBox="0 0 300 300" style="enable-background:new 0 0 300 300;" xml:space="preserve">
<style type="text/css">
	.st0{fill:#008CFF;stroke:#008CFF;stroke-width:8;stroke-linecap:round;stroke-linejoin:round;stroke-miterlimit:10;}
	.st1{fill:#008CFF;}
	.st2{fill:none;stroke:#008CFF;stroke-width:8;stroke-linecap:round;stroke-linejoin:round;stroke-miterlimit:10;}
</style>
<g>
	<path class="st0" d="M63.4646492,106.5226135l7.4384804-30.1073608c1.3750076-5.5653458,6.9434204-9.013443,12.5382996-7.7640076
		l169.5855103,37.8713684H63.4646492z"/>
	<path class="st0" d="M113.1119156,55.8723717l4.4433517-8.2224426c2.5599747-4.7372627,8.2773666-6.785553,13.2631683-4.7516212
		l100.6445312,41.0573654L113.1119156,55.8723717z"/>
	<g>
		<path class="st1" d="M150,146.7850189c-24.30056,0-44,19.6995087-44,44c0,24.3005676,19.69944,44,44,44s44-19.6994324,44-44
			C194,166.4845276,174.3005676,146.7850189,150,146.7850189z M162.6831818,213.6038971H137.317337
			c-1.4457397,0-2.6177216-1.1719971-2.6177216-2.6177216v-3.0557709c0-0.9862976,0.5543671-1.8888702,1.4340668-2.3348389l0,0
			c3.4131622-1.7311096,5.533844-4.9346466,5.533844-8.3610992c0-0.5756683-0.009201-1.1124878-0.0393677-1.6626129h-2.0194702
			c-2.5084686,0-4.5419922-2.0335236-4.5419922-4.5419922v-0.0000153c0-2.5084839,2.0335236-4.5420074,4.5419922-4.5420074
			h0.7305908c-0.1559296-1.2975616-0.2607269-2.6329651-0.2607269-3.984726c0-8.5594788,5.901947-14.5370941,14.3530273-14.5370941
			c3.1820679,0,6.0379486,0.6820221,8.0410461,1.9213104l0,0c1.0096741,0.6244812,1.47258,1.8503265,1.1277161,2.9863129
			l-1.2244873,4.0335693c-0.4842377,1.5950928-2.3163452,2.3371124-3.7740936,1.5285339l-0.0003662-0.0001984
			c-0.6002197-0.3333435-1.9407349-0.8926544-4.1698151-0.8926544c-1.2280426,0-4.1053925,0-4.1053925,5.0215607
			c0,1.4846954,0.1293488,2.7352295,0.3123779,3.9233856h4.6805573c2.5084839,0,4.5420074,2.0335236,4.5420074,4.5420074v0.0000153
			c0,2.5084686-2.0335236,4.5419922-4.5420074,4.5419922h-3.6227722c0.0316925,1.6073914-0.0654449,3.2454681-0.4703522,4.8641052
			c-0.3134003,1.2239532-0.7689362,2.3824615-1.3635254,3.4704132h12.8207092c1.4457245,0,2.6177216,1.1719971,2.6177216,2.6177216
			v4.4620819C165.3009033,212.4319,164.1289062,213.6038971,162.6831818,213.6038971z"/>
		<g>
			<path class="st2" d="M20,135.8102722v109.9495087c0,6.6964417,5.4285469,12.1249847,12.125,12.1249847h235.75
				c6.6964417,0,12.125-5.4285431,12.125-12.1249847V135.8102722c0-6.6964569-5.4285583-12.125-12.125-12.125H32.125
				C25.4285469,123.6852722,20,129.1138153,20,135.8102722z"/>
			<path class="st2" d="M87.3571167,155.5878143H68.9773865c-4.3387909,0-8.1279106,2.7677765-9.6359634,6.8360443
				c-0.8264313,2.2294464-2.1912575,4.6990967-4.4446945,6.9525299c-2.253437,2.2534485-4.7230873,3.6182709-6.9525375,4.4447021
				c-4.0682716,1.5080566-6.8360367,5.2971649-6.8360367,9.6359558v14.6559448c0,4.3387909,2.767765,8.1279144,6.8360367,9.6359711
				c2.2294502,0.8264313,4.6991005,2.1912537,6.9525375,4.4446869c2.253437,2.2534485,3.6182671,4.7230988,4.4446945,6.9525452
				c1.5080528,4.0682678,5.2971725,6.8360291,9.6359634,6.8360291h18.3797302"/>
			<path class="st2" d="M212.6428833,225.9822235h18.3797302c4.3387909,0,8.1279144-2.7677612,9.6359711-6.8360291
				c0.8264313-2.2294464,2.1912537-4.6990967,4.4446869-6.9525452c2.2534332-2.2534332,4.7230835-3.6182556,6.9525299-4.4446869
				c4.0682831-1.5080566,6.8360443-5.2971802,6.8360443-9.6359711v-14.6559448c0-4.3387909-2.7677612-8.1278992-6.8360443-9.6359558
				c-2.2294464-0.8264313-4.6990967-2.1912537-6.9525299-4.4447021c-2.2534332-2.2534332-3.6182556-4.7230835-4.4446869-6.9525299
				c-1.5080566-4.0682678-5.2971802-6.8360443-9.6359711-6.8360443h-18.3797302"/>
		</g>
	</g>
</g>
</svg>
