<?xml version="1.0" encoding="utf-8"?>
<!-- Generator: Adobe Illustrator 25.4.1, SVG Export Plug-In . SVG Version: 6.00 Build 0)  -->
<svg version="1.1" id="Layer_1" xmlns="http://www.w3.org/2000/svg" xmlns:xlink="http://www.w3.org/1999/xlink" x="0px" y="0px"
	 width="300px" height="300px" viewBox="0 0 300 300" style="enable-background:new 0 0 300 300;" xml:space="preserve">
<style type="text/css">
	.st0{fill:#008CFF;}
	.st1{fill:none;stroke:#008CFF;stroke-width:8;stroke-linecap:round;stroke-linejoin:round;stroke-miterlimit:10;}
</style>
<g>
	<path class="st0" d="M279.9976196,63.8015747c-0.0014038-0.329071-0.0175171-0.6580124-0.0497437-0.9858055
		c-0.0157166-0.1606979-0.0456543-0.3166618-0.0685425-0.4751205c-0.0260315-0.179882-0.046875-0.3602142-0.0822449-0.5388184
		c-0.0351562-0.1775131-0.0838928-0.349659-0.1278992-0.5237846c-0.0397034-0.1572456-0.0740356-0.3153229-0.1210327-0.4709702
		c-0.0513-0.1694565-0.1148376-0.3330956-0.1744385-0.4987831c-0.0562744-0.1569252-0.1078796-0.3150024-0.1719055-0.4696884
		c-0.0638123-0.1539192-0.1387024-0.301445-0.2095337-0.4515915c-0.0753479-0.1598663-0.1463318-0.3210106-0.2301636-0.4777451
		c-0.0761414-0.1422195-0.1629944-0.2772102-0.2454224-0.4153976c-0.0927124-0.1556473-0.1808472-0.3130188-0.2823181-0.4646378
		c-0.0991211-0.1481018-0.2097473-0.2873116-0.3161011-0.4299774c-0.0979614-0.1314087-0.1893921-0.2659531-0.294342-0.3936577
		c-0.1980286-0.2412682-0.4086914-0.4714127-0.6271973-0.6940117c-0.0228882-0.0233421-0.0419922-0.0489197-0.065155-0.0720673
		c-0.0235291-0.0235329-0.0494995-0.0429077-0.0732117-0.066185c-0.2221069-0.2179947-0.4517822-0.4282532-0.6924744-0.6259117
		c-0.1309204-0.1076202-0.2688293-0.2014313-0.4035645-0.3017006c-0.1392212-0.1035271-0.2746582-0.2114067-0.4190063-0.308094
		c-0.1564636-0.104744-0.3187561-0.1958046-0.4794006-0.2912788c-0.1330566-0.0791664-0.2629395-0.1628723-0.3997803-0.2362175
		c-0.1621704-0.0868416-0.32901-0.1605721-0.4946289-0.238266c-0.1445312-0.0679741-0.286438-0.1401711-0.4344482-0.201622
		c-0.1612244-0.0668259-0.3259583-0.1208611-0.4897156-0.179245c-0.158905-0.0568466-0.3155212-0.1179161-0.4778748-0.1671562
		c-0.1656189-0.0501328-0.3338013-0.0870934-0.5012207-0.1288528c-0.1640015-0.0409889-0.3258057-0.0871582-0.4928284-0.1203461
		c-0.1951599-0.0388184-0.3921814-0.0622864-0.5888977-0.0898476c-0.1420288-0.019886-0.2813416-0.0471916-0.4251099-0.0613251
		c-0.346405-0.0342751-0.6940613-0.0525627-1.0418091-0.052372h-32.6304779c-4.2373657,0-8.0578003,2.5527534-9.6794891,6.4678268
		c-1.6216736,3.9150734-0.7254028,8.4210091,2.2708893,11.4178123l8.9093018,8.9093094l-90.1062775,90.1062775
		l-57.2803802-57.2803879c-1.9649582-1.964447-4.6297455-3.0684204-7.4086075-3.0684204
		c-2.7788696,0-5.4436569,1.1039734-7.4086151,3.0689316l-53.1156616,53.1156616
		c-4.0910549,4.091568-4.0910549,10.7256622,0,14.817215c4.0915661,4.0905457,10.7256508,4.0905457,14.8172188,0
		l45.707058-45.7080688l57.2803879,57.280899c2.0457764,2.0452576,4.7274475,3.0684052,7.4085999,3.0684052
		c2.6811676,0,5.3628387-1.0231476,7.4086151-3.0684052l97.5148773-97.5148926l8.9093018,8.9093094
		c2.0048828,2.0043488,4.6839905,3.0689316,7.4111938,3.0689316c1.348999,0,2.7108154-0.2614136,4.0066223-0.7980499
		C277.4472351,104.5417633,280,100.7213287,280,96.483963V63.8481255C280,63.8323936,279.9977112,63.8173027,279.9976196,63.8015747
		z"/>
	<polygon class="st1" points="43.8553162,201.1479645 43.8553162,246.6289062 84.2666931,246.6289062 84.2666931,162.0839386 
		83.5925674,161.4098206 	"/>
	<polygon class="st1" points="100.0819931,246.6289062 140.4934235,246.6289062 140.4934235,218.3111877 100.0819931,177.8993683 	
		"/>
	<polygon class="st1" points="156.3087311,246.6289062 196.7200928,246.6289062 196.7200928,177.6607819 156.3087311,218.0721588 	
		"/>
	<polygon class="st1" points="212.5354614,246.6289062 252.9468384,246.6289062 252.9468384,121.4340515 212.5354614,161.8454285 	
		"/>
</g>
</svg>
