<?xml version="1.0" encoding="utf-8"?>
<!-- Generator: Adobe Illustrator 25.4.1, SVG Export Plug-In . SVG Version: 6.00 Build 0)  -->
<svg version="1.1" id="Layer_1" xmlns="http://www.w3.org/2000/svg" xmlns:xlink="http://www.w3.org/1999/xlink" x="0px" y="0px"
	 width="300px" height="300px" viewBox="0 0 300 300" style="enable-background:new 0 0 300 300;" xml:space="preserve">
<style type="text/css">
	.st0{fill:none;stroke:#008CFF;stroke-width:8;stroke-linecap:round;stroke-linejoin:round;stroke-miterlimit:10;}
	.st1{fill:#008CFF;stroke:#008CFF;stroke-width:8;stroke-linecap:round;stroke-linejoin:round;stroke-miterlimit:10;}
</style>
<g id="XMLID_36_">
	<g id="XMLID_35_">
		<path id="XMLID_33_" class="st0" d="M280.3555298,212.6345825c0-28.3959808-23.0194702-51.4154663-51.415451-51.4154663
			h-58.2725525c-6.3369446,0-11.9032135,4.7021484-12.4519196,11.015274
			c-0.6230927,7.1690369,5.0116272,13.180191,12.0505066,13.180191h55.2462921
			c14.6990814,0,26.615036,11.9159546,26.615036,26.6150208v18.1466064
			c-7.1421356-2.5332642-18.2768707-5.8973389-32.2605896-7.6618652
			c-18.2594452-2.3040771-41.2910767-5.2102966-62.9082489,6.8554077
			c-12.9396515,7.2223816-21.3461914,17.5618896-29.0345688,27.0182495
			c-7.1388779,8.7803955-12.0716019,16.9414673-15.3239059,22.9857178h144.7698669
			c12.6945801,0,22.9855347-10.2909851,22.9855347-22.9855347V212.6345825z"/>
		<path id="XMLID_32_" class="st1" d="M127.9238815,256.388092c-7.1388779,8.780426-12.0714493,16.9413757-15.3237534,22.9855652
			h144.7698669c12.6945801,0,22.9855347-10.2909851,22.9855347-22.9855347v-0.0000305H127.9238815z"/>
		<path id="XMLID_31_" class="st1" d="M219.8668518,222.5142517c0.2065887,0.0261536,0.3984222,0.0598145,0.6036987,0.0865479
			c-1.6824951-6.5664673-6.168045-12.3827515-12.7014465-16.0007019
			c-8.3284149-4.6121216-19.3978729-5.3465271-28.6314087-0.7171326
			c-8.0730896,4.0475464-13.2649841,11.4656982-14.0810547,19.660614
			C184.2163239,218.018219,203.872345,220.4959717,219.8668518,222.5142517z"/>
	</g>
	<path id="XMLID_30_" class="st0" d="M139.9888763,45.0372314v171.6094971V45.0372314z"/>
	<path id="XMLID_29_" class="st0" d="M215.2637787,133.8482056v-31.0241699l15.1656647,5.0552216
		c12.2537537,4.0845795,25.2974701-3.5721283,27.7042542-16.2624969l1.822998-9.6120834
		c2.0706482-10.9180145-4.5872803-21.5967979-15.3021393-24.5433807l-54.0261993-14.8572006l-27.2420044,31.5372009
		c-3.9111786,4.5278397-11.1119385,3.8804321-14.1527405-1.2724457l-9.2447357-15.6659698"/>
	<path id="XMLID_28_" class="st0" d="M139.9888763,57.2028809l-9.2447357,15.6659622
		c-3.0408096,5.1528854-10.2415543,5.800293-14.1527328,1.2724533l-27.242012-31.5372009L35.3231964,57.4612961
		C24.6083393,60.4078789,17.9504051,71.0866623,20.021059,82.0046768l1.8229809,9.6120834
		c2.4067936,12.6903687,15.4505157,20.347084,27.7042656,16.2624969l15.1656685-5.0552216v155.2175598
		c0,11.7813721,9.5506897,21.3320618,21.3320694,21.3320618h0.0000229"/>
	<polyline id="XMLID_27_" class="st0" points="139.9888763,45.0372314 174.4328461,20.6262817 190.6283569,42.6040955 	"/>
	<polyline id="XMLID_26_" class="st0" points="89.3493958,42.6040955 105.5449066,20.6262817 139.9888763,45.0372314 	"/>
	<path id="XMLID_25_" class="st0" d="M160.0735474,26.5465698"/>
	<path id="XMLID_24_" class="st0" d="M119.904213,26.5465698"/>
	<path id="XMLID_23_" class="st0" d="M105.8060837,142.3623657h-2.3585587c-7.7861862,0-14.0981293-6.3119507-14.0981293-14.0981445
		V105.865448h30.5548172v22.3987732C119.904213,136.050415,113.5922623,142.3623657,105.8060837,142.3623657z"/>
	<line id="XMLID_22_" class="st0" x1="105.5449066" y1="20.6262817" x2="174.4328461" y2="20.6262817"/>
</g>
</svg>
