<?xml version="1.0" encoding="utf-8"?>
<!-- Generator: Adobe Illustrator 25.4.1, SVG Export Plug-In . SVG Version: 6.00 Build 0)  -->
<svg version="1.1" id="Layer_1" xmlns="http://www.w3.org/2000/svg" xmlns:xlink="http://www.w3.org/1999/xlink" x="0px" y="0px"
	 width="300px" height="300px" viewBox="0 0 300 300" style="enable-background:new 0 0 300 300;" xml:space="preserve">
<style type="text/css">
	.st0{fill:none;stroke:#008CFF;stroke-width:8;stroke-linecap:round;stroke-linejoin:round;stroke-miterlimit:10;}
	.st1{fill:#008CFF;}
	.st2{fill:#008CFF;stroke:#008CFF;stroke-width:8;stroke-linecap:round;stroke-linejoin:round;stroke-miterlimit:10;}
</style>
<g>
	<path class="st0" d="M20,222.8787842c0,11.1502991,9.0390987,20.1893921,20.1893921,20.1893921h219.6212158
		c11.1502991,0,20.1893921-9.039093,20.1893921-20.1893921v-79.280304H20V222.8787842z"/>
	<path class="st1" d="M222.6408691,194.3968811c3.857605,0,7.3544617,1.5132446,9.9564972,3.9654388
		c2.6020355-2.4521942,6.0988464-3.9654388,9.9564209-3.9654388c8.0269775,0,14.5341339,6.5071564,14.5341339,14.5340881
		c0,8.0269775-6.5071564,14.5341187-14.5341339,14.5341187c-3.8575745,0-7.3543854-1.5132446-9.9564209-3.9654388
		c-2.6020355,2.4521942-6.0988922,3.9654388-9.9564972,3.9654388c-8.0269318,0-14.5340881-6.5071411-14.5340881-14.5341187
		C208.106781,200.9040375,214.6139374,194.3968811,222.6408691,194.3968811z"/>
	<path class="st1" d="M58.5833817,202.9605865h35.6820602c3.9757996,0,7.1988449,3.223053,7.1988449,7.1988373
		c0,3.9757996-3.2230453,7.1988525-7.1988449,7.1988525H58.5833817c-3.9757957,0-7.1988411-3.223053-7.1988411-7.1988525
		C51.3845406,206.1836395,54.6075859,202.9605865,58.5833817,202.9605865z"/>
	<path class="st0" d="M259.8106079,56.9318237H40.1893921C29.0390987,56.9318237,20,65.9709167,20,77.1212158v19.6969681h260
		V77.1212158C280,65.9709167,270.960907,56.9318237,259.8106079,56.9318237z"/>
	<rect x="20" y="96.8181839" class="st2" width="260" height="46.7802963"/>
</g>
</svg>
