<?xml version="1.0" encoding="utf-8"?>
<!-- Generator: Adobe Illustrator 25.4.1, SVG Export Plug-In . SVG Version: 6.00 Build 0)  -->
<svg version="1.1" id="Layer_1" xmlns="http://www.w3.org/2000/svg" xmlns:xlink="http://www.w3.org/1999/xlink" x="0px" y="0px"
	 width="62.9998245px" height="48.0003052px" viewBox="0 0 62.9998245 48.0003052"
	 style="enable-background:new 0 0 62.9998245 48.0003052;" xml:space="preserve">
<style type="text/css">
	.st0{fill:#CAD2D8;}
	.st1{opacity:0.5;fill:#CAD2D8;}
	.st2{fill:#008CFF;}
	.st3{opacity:0.5;fill:#008CFF;}
</style>
<g>
	<g>
		<path id="XMLID_59_" class="st0" d="M6.7232747,46.0671997c0.0618896-0.0438843,0.1099854-0.1044922,0.1387329-0.1746826
			l0.6725159-1.6440125C7.5960164,44.0982056,7.7423177,44,7.9047322,44h7.9761968
			c0.7825003,0,1.5410757,0.2698975,2.1477041,0.7641907l3.0996704,2.5257263C21.4201126,47.5275879,21.2520218,48,20.8757401,48
			H5.2546163c-0.3897705,0-0.5493469-0.5006104-0.2315063-0.7261963L6.7232747,46.0671997z"/>
		<path id="XMLID_39_" class="st0" d="M47.5594559,8c-2.7614136,0-5,2.2581787-5,5.0438232
			c0,2.7857056,2.2385864,7.0614014,5,7.0614014c2.7613525,0,5-4.2756958,5-7.0614014
			C52.5594559,10.2581787,50.3208084,8,47.5594559,8z M49.4135208,16.5266724
			c-0.786377,1.2316284-1.5123901,1.5610352-1.8540649,1.5610352c-0.3416138,0-1.067749-0.3294067-1.854126-1.5610352
			c-0.7368164-1.1539917-1.145874-2.5456543-1.145874-3.4828491c0-1.6713257,1.3432007-3.0263062,3-3.0263062
			c1.6568604,0,3,1.3549805,3,3.0263062C50.5594559,13.9810181,50.1503372,15.3726807,49.4135208,16.5266724z"/>
		<path id="XMLID_35_" class="st1" d="M45.7033157,16.52771c-0.7367859-1.1539001-1.145874-2.5457153-1.145874-3.4828186
			c0-0.5505981,0.1456909-1.066803,0.4003906-1.5115051c0.3024902,1.816925,1.6166992,5.3595276,4.4536743,4.9943237
			c-0.786377,1.2315979-1.5123901,1.5609741-1.8540649,1.5609741C47.2158279,18.0886841,46.4897232,17.7593079,45.7033157,16.52771z
			"/>
		<path id="XMLID_33_" class="st1" d="M43.2148209,36.4707947h1.055603c-1.5920105,0-2.0840149-4.1954041-2.1600037-7.367981
			v-1.7849121c-0.0136108,0.5210876-0.0155945,1.1312866,0,1.7849121v6.2538757
			C42.1104202,35.9373169,42.5904312,36.4707947,43.2148209,36.4707947z"/>
		<path class="st0" d="M45.9998245,0v7.4769897h2V2.9540405l13,5.2000122V46h-9.3355713v-7.494812
			c1.7287598,0,3.1687622-1.4525757,3.1687622-3.1964722V33.178894l0.0505371-2.0823975v-3.8245239
			c0-3.340271-2.6887207-6.0525513-6-6.0525513h-2.8312378c-3.3112183,0-6,2.7122803-6,6.0525513v3.8245239l-0.0524902,2.0823975
			v2.1298218c0,1.7438965,1.4400024,3.1964722,3.1688232,3.1964722V46h-5.1688232v0.0112305
			c-3.390564,0.0690918-6,0.4848022-6,0.9887695s2.609436,0.9196777,6,0.9887695V48h23h1h1V6.7999878L45.9998245,0z
			 M49.6485062,37.4403687V46h-4.3692627v-8.5115967c0,0.03302,0.0015869,0.0740967,0.0023804,0.1110229v-0.1121216
			c0-0.5806274-0.4799805-1.0175781-1.008667-1.0175781h-1.0557251c-0.6243286,0-1.1043091-0.5334473-1.1043091-1.1140137
			v-8.0389404c0-2.2280884,1.7755737-4.0192871,3.984314-4.0192871l2.7357178,0.0037842
			c2.2086792,0,3.9842529,1.7912598,3.9842529,4.0193481v7.9880981c0,0.6297607-0.5286865,1.1140747-1.1043091,1.1140747h-1.0556641
			C50.0816116,36.4227905,49.6485062,36.9069824,49.6485062,37.4403687z"/>
		<path class="st1" d="M46.6915359,46c-0.8582153-3.2850952-1.3820801-7.0753174-1.4099121-8.4005737V46H46.6915359z"/>
	</g>
	<g>
		<path class="st2" d="M37.4773636,36.1907959c-0.7286377-0.9208984-1.5808105-1.7416992-2.4935303-2.3395386
			c-0.2632446-0.1724243-0.5387573-0.3227539-0.8198853-0.4588623L37.214119,28H26.8889236l1.9320068,3.9035645
			l-2.4995117-0.8502808l-0.644104,1.8934326l3.1217041,1.0620117c-0.8297729,0.5819702-1.6068115,1.3353882-2.2766724,2.1820679
			c-1.4359131,1.8151855-2.522522,4.1918945-2.522522,6.3095093c0,1.0548706,0.2288818,1.9747925,0.6918945,2.7489014
			c0.463501,0.7746582,1.1243896,1.3411865,1.8903198,1.7468872c1.4923706,0.7904663,3.4492798,1.0042114,5.4177856,1.0042114
			s3.925415-0.2137451,5.4177856-1.0042114c0.7659302-0.4057007,1.4268188-0.972229,1.8903198-1.7468872
			c0.4630127-0.7741089,0.6918945-1.6940308,0.6918945-2.7489014
			C39.9998245,40.3826904,38.9132156,38.0059814,37.4773636,36.1907959z M33.7850418,30l-1.4141235,2.5h-1.0231934L30.1103592,30
			H33.7850418z M37.5915604,44.2224121c-0.2449341,0.4094849-0.6091309,0.7409668-1.1100464,1.0062866
			c-1.0410767,0.5513916-2.5841675,0.7716064-4.4816895,0.7716064c-1.8974609,0-3.4406128-0.2202148-4.4816895-0.7716064
			c-0.5009155-0.2653198-0.8651123-0.5968018-1.1099854-1.0062866c-0.2454224-0.4102173-0.4083252-0.9609375-0.4083252-1.7221069
			c0-1.5148315,0.8225098-3.4650269,2.0911255-5.0687256c0.6236572-0.7883911,1.3225708-1.4500122,2.0206909-1.9072876
			c0.7050171-0.461731,1.3505859-0.6779175,1.8881836-0.6779175s1.1832275,0.2161865,1.8881836,0.6779175
			c0.6981201,0.4572754,1.3970337,1.1188965,2.020752,1.9072876c1.2685547,1.6036987,2.0910645,3.553894,2.0910645,5.0687256
			C37.9998245,43.2614746,37.8369217,43.8121948,37.5915604,44.2224121z"/>
		<path id="XMLID_51_" class="st3" d="M28.0909195,37.4334106c-1.2685852,1.6035767-2.091095,3.5538025-2.091095,5.0686035
			c0,0.7611694,0.1629028,1.3118896,0.4082947,1.7221985c0.2449036,0.4094849,0.6091003,0.7408752,1.1100159,1.0061951
			c1.0410767,0.5513916,2.584198,0.7716064,4.4816895,0.7716064s3.4406128-0.2202148,4.4816895-0.7716064
			c0.5009155-0.2653198,0.8651123-0.5967102,1.1100159-1.0061951c-5.9266052,0.1781006-8.1972046-5.1247253-8.5917053-7.7984009
			C28.6857376,36.729187,28.3802261,37.0675964,28.0909195,37.4334106z"/>
		<path id="XMLID_50_" class="st3" d="M31.3475418,32.5h1.0231934l1.4141846-2.5h-3.6746826L31.3475418,32.5z"/>
		<path class="st2" d="M7.0460896,2.2414551c-2.5143433-0.850769-5.2039185,0.618103-6.0072632,3.2808228
			s0.0018921,7.4393921,2.5162354,8.2901001c2.5144043,0.8508301,5.7857671-2.5465698,6.5890508-5.2092896
			C10.9475183,5.9403687,9.5604944,3.0922241,7.0460896,2.2414551z M8.3231287,7.9869385
			c-0.2702637,0.895752-1.0441289,2.1000366-2.047791,2.9760742c-1.071228,0.9350586-1.8273315,1.0261841-2.1384277,0.9208984
			c-0.3110962-0.1052246-0.8771973-0.6437378-1.2380371-2.0632935c-0.3380737-1.3300171-0.3092041-2.786438-0.0389404-3.6821899
			c0.4819946-1.5975952,2.0957031-2.4789429,3.6043091-1.9685059C7.9729085,4.6803589,8.8051233,6.3893433,8.3231287,7.9869385z"/>
		<path class="st2" d="M12.0665369,21.2616577l-0.0115967-0.0179443c-0.8989258-1.3956299-1.4780884-2.4398193-1.9030151-3.227417
			c-0.0581665-0.1077881-0.1148682-0.2136841-0.1702271-0.3171387H9.981637
			c-0.3264771-0.6098022-0.6091919-1.1378784-0.9033203-1.5162964c-0.4221802-0.5431519-0.9043579-0.8435059-1.5722661-0.9754028
			c-0.5393677-0.1064453-1.2370605-0.1063843-2.1019287-0.1062012H5.3043294H3.1223226
			c-0.7867432,0-1.4858397,0.1988525-2.0305786,0.6895142c-0.5374146,0.4840088-0.7972412,1.1384277-0.9306031,1.7737427
			c-0.131958,0.6286621-0.1596069,1.3346558-0.1610718,2.0293579c-0.0007935,0.3494263,0.0053711,0.7139282,0.0114746,1.0789185
			l0.0001831,0.0111084c0.0062256,0.3720703,0.0124512,0.7473755,0.0124512,1.1303101v7.5692749
			c0,0.6884155-0.0001221,0.7797852-0.0002441,0.8839111v0.0003662l-0.0001221,0.0653076
			c-0.0001831,0.15802-0.0003052,0.5007324-0.0003052,2.0610352v11.3104858C0.0235067,45.9379883,1.5037314,48,3.6425252,48
			h1.2210693c2.1387329,0,3.619019-2.0620117,3.619019-4.2954102V32.394104c0-2.4481201,0.0371094-4.1089478,0.1044922-5.2092285
			c0.4112549,0.6203003,0.7643433,1.1799927,1.0774536,1.6818848c0.0717163,0.1149292,0.1418457,0.2276001,0.2104492,0.3379517
			l0.0012207,0.0019531c0.2828369,0.4547119,0.5396118,0.8676147,0.7739868,1.2199097
			c0.5402222,0.8118286,1.1587524,1.6370239,2.0874023,1.8585205c1.0910034,0.2603149,2.0807495-0.3088989,2.6915283-0.8348999
			c0.3244019-0.2794189,0.6041861-0.5975952,0.8110952-0.9060059c0.1032715-0.1539917,0.1987915-0.3209839,0.2719727-0.4934082
			c0.06604-0.1555786,0.1478271-0.3933105,0.1478271-0.6672974v-0.2888184L12.0665369,21.2616577z M14.2228479,29.8795776
			c-0.434082,0.3737793-0.8226318,0.4882812-1.0651245,0.430481c-0.1212769-0.0289917-0.3618774-0.173645-0.9447021-1.0495605
			c-0.2153931-0.3237915-0.4506836-0.7020264-0.7313843-1.1531982l-0.0001221-0.0001221
			c-0.0708618-0.1140747-0.1447754-0.2327881-0.2218628-0.3565063c-0.3776855-0.6052856-0.8215332-1.3078003-1.3577881-2.1027832
			l-0.0459595-0.0681763l-0.0559692-0.0592041c-0.0623779-0.0661011-0.1400146-0.1689453-0.2438354-0.3213501
			c-0.0253296-0.0370483-0.055603-0.0824585-0.088562-0.131897l-0.0004272-0.0005493
			c-0.0750732-0.1126099-0.1638794-0.2456055-0.2385254-0.3483276c-0.0907593-0.1248169-0.291748-0.3989868-0.5775146-0.5615845
			c-0.1693726-0.0963135-0.4436646-0.1970215-0.7718511-0.1234131c-0.3296509,0.0739746-0.5473633,0.286499-0.6734619,0.4622803
			c-0.2162476,0.3013916-0.3084717,0.6954956-0.3646851,1.0084229c-0.0645752,0.3594971-0.1140747,0.8247681-0.15271,1.4086914
			c-0.0775146,1.1716919-0.1174927,2.9248047-0.1174927,5.4813232v11.3104858c0,1.414917-0.8866577,2.270874-1.7072754,2.270874
			H3.6425252c-0.8206177,0-1.7072753-0.855957-1.7072753-2.270874V32.394104c0-1.560791,0.0001831-1.9020996,0.0003662-2.0585938
			l0.000061-0.0653076c0.0001221-0.1051025,0.0002441-0.1958008,0.0002441-0.8867188V21.814209
			c0-0.4037476-0.0065308-0.7964478-0.0127563-1.1661987c-0.0062256-0.37323-0.012085-0.72052-0.0113525-1.0494995
			c0.0014648-0.6690063,0.0308838-1.1915283,0.1155394-1.5948486c0.083252-0.3966064,0.1994629-0.5774536,0.3029785-0.6707764
			c0.0961914-0.0866089,0.3027954-0.2070923,0.7919922-0.2070923h2.1820068c0.9986572,0,1.5091553,0.0043945,1.8512573,0.0718994
			c0.2340698,0.0462646,0.3149414,0.1022949,0.4465942,0.2716675c0.1804199,0.2322388,0.3655396,0.5765381,0.709168,1.2156372
			v0.000061c0.0558472,0.1038208,0.1158447,0.2154541,0.1806641,0.3356323
			c0.4382935,0.8123169,1.041626,1.9002075,1.9720459,3.3458862l4.1575928,7.0897217
			C14.5217371,29.5893555,14.3853235,29.739563,14.2228479,29.8795776z"/>
		<path id="XMLID_42_" class="st3" d="M2.8984151,9.8187866C2.5603414,8.4887695,2.589211,7.0323792,2.8594747,6.1366272
			C3.002419,5.6628418,3.2448812,5.2520447,3.5546346,4.921875c0.131012,1.6897278,1.0125732,5.1062317,3.4910278,5.2547302
			c-0.2357178,0.2774963-0.4945374,0.5434875-0.770752,0.7846069c-1.071228,0.9349976-1.8273315,1.0261841-2.1384277,0.9208984
			C3.825417,11.776886,3.2592549,11.2383118,2.8984151,9.8187866z M6.570992,43.7029114
			c0,1.414978-0.8866577,2.2709045-1.7072754,2.2709045H3.6426473c-0.8206177,0-1.7072753-0.8559265-1.7072753-2.2709045V32.3925171
			c0-1.5608215,0.0001831-1.9021301,0.0003357-2.0586243l0.0000916-0.0652771
			C2.1210408,35.057312,3.3074422,44.4484863,6.570992,43.7029114z"/>
	</g>
</g>
</svg>
