<?xml version="1.0" encoding="utf-8"?>
<!-- Generator: Adobe Illustrator 25.4.1, SVG Export Plug-In . SVG Version: 6.00 Build 0)  -->
<svg version="1.1" id="Layer_1" xmlns="http://www.w3.org/2000/svg" xmlns:xlink="http://www.w3.org/1999/xlink" x="0px" y="0px"
	 width="300px" height="300px" viewBox="0 0 300 300" style="enable-background:new 0 0 300 300;" xml:space="preserve">
<style type="text/css">
	.st0{fill:none;stroke:#008CFF;stroke-width:8;stroke-linecap:round;stroke-linejoin:round;stroke-miterlimit:10;}
	.st1{fill:#008CFF;stroke:#008CFF;stroke-width:8;stroke-linecap:round;stroke-linejoin:round;stroke-miterlimit:10;}
</style>
<g>
	<path id="XMLID_8_" class="st0" d="M279.5,149.5c0-11.1110382-5.5798645-21.5626755-15.3749695-30.7137909
		c3.907196-12.8226547,3.5137024-24.663826-2.041626-34.2862091c-5.555603-9.6223831-15.6137238-15.8839264-28.671936-18.9114761
		C230.3838043,52.5302048,224.1223907,42.4722023,214.5,36.9167442c-9.6225128-5.5554924-21.4638062-5.9490967-34.2863159-2.041893
		C171.062561,25.0798664,160.6110535,19.5,149.5,19.5s-21.5626831,5.5798664-30.7138062,15.3748512
		c-12.8225174-3.9072037-24.6638031-3.5135994-34.2863235,2.041893c-9.622261,5.5554581-15.883934,15.6134605-18.9113312,28.6717796
		C52.5301971,68.6159515,42.4720688,74.8776169,36.9165993,84.5c-5.5554619,9.6223831-5.948967,21.4635544-2.0417404,34.2862091
		C25.0798664,127.9373245,19.5,138.3889618,19.5,149.5s5.5798664,21.562561,15.3748589,30.7136688
		C30.9676323,193.0362091,31.3611374,204.8776245,36.9165993,214.5
		c5.5554695,9.6223755,15.6135979,15.8839264,28.6719398,18.9114838
		c3.0273972,13.058197,9.2890701,23.1163177,18.9113312,28.6717682c9.6225204,5.555481,21.4638062,5.9491272,34.2863235,2.0419006
		C127.9373169,273.9201355,138.3889465,279.5,149.5,279.5s21.562561-5.5798645,30.7136841-15.3748474
		c12.8225098,3.9072266,24.6638031,3.5135803,34.2863159-2.0419006
		c9.6223907-5.5554504,15.8838043-15.6135712,18.9114685-28.6717682c13.0582123-3.0275574,23.116333-9.2891083,28.671936-18.9114838
		c5.5553284-9.6223755,5.948822-21.4637909,2.041626-34.2863312C273.9201355,171.062561,279.5,160.6110382,279.5,149.5z"/>
	<g id="XMLID_4_">
		<path id="XMLID_7_" class="st0" d="M207.6950684,91.3048935l-88.3902206,88.3902054L207.6950684,91.3048935z"/>
		<circle id="XMLID_6_" class="st0" cx="134.1761932" cy="107.0140533" r="18.0131569"/>
		<circle id="XMLID_5_" class="st0" cx="192.8237152" cy="163.9859467" r="18.0131588"/>
	</g>
	<path id="XMLID_3_" class="st1" d="M33.7230492,92.0608063c-2.2886963,8.0041122-1.785181,17.0868225,1.1519318,26.7254028
		C25.0798664,127.9371719,19.5,138.3888092,19.5,149.5c0,11.1109161,5.5798664,21.562561,15.3749809,30.7135468
		C30.9677601,193.0360565,31.3612652,204.8776245,36.9165993,214.5
		c5.5555954,9.6223755,15.6137238,15.8838043,28.6719398,18.9114838
		c3.0273972,13.058197,9.2890701,23.1163177,18.9114609,28.6716461c9.6223907,5.555603,21.4636765,5.9491272,34.2861938,2.0419006
		C127.937439,273.9201355,138.3890686,279.5,149.5,279.5c11.1111755,0,21.562561-5.5798645,30.7138062-15.3749695
		c12.8225098,3.9072266,24.6638031,3.5137024,34.2861938-2.0419006c6.1627808-3.5579529,10.9301147-8.9807892,14.3689728-15.838028
		c-6.5064697,0.7627411-13.1087952,1.1886292-19.8072205,1.1886292
		C121.4099731,247.4337311,48.5950241,180.372879,33.7230492,92.0608063z"/>
</g>
</svg>
