<?xml version="1.0" encoding="utf-8"?>
<!-- Generator: Adobe Illustrator 25.4.1, SVG Export Plug-In . SVG Version: 6.00 Build 0)  -->
<svg version="1.1" id="Layer_1" xmlns="http://www.w3.org/2000/svg" xmlns:xlink="http://www.w3.org/1999/xlink" x="0px" y="0px"
	 width="300px" height="300px" viewBox="0 0 300 300" style="enable-background:new 0 0 300 300;" xml:space="preserve">
<style type="text/css">
	.st0{fill:none;stroke:#008CFF;stroke-width:8;stroke-linecap:round;stroke-linejoin:round;stroke-miterlimit:10;}
	.st1{fill:#008CFF;stroke:#008CFF;stroke-width:8;stroke-linecap:round;stroke-linejoin:round;stroke-miterlimit:10;}
</style>
<g>
	<g>
		<path class="st0" d="M74.6179886,87.4956589h-0.0000229c-7.3999863,0-13.3988647-5.9988785-13.3988647-13.3988647V47.0586624
			c0-7.3999863,5.9988785-13.3988609,13.3988647-13.3988609h0.0000229c7.3999939,0,13.3988647,5.9988747,13.3988647,13.3988609
			v27.0381317C88.0168533,81.4967804,82.0179825,87.4956589,74.6179886,87.4956589z"/>
		<path class="st0" d="M225.3820343,87.4956589h-0.0000305c-7.3999786,0-13.3988647-5.9988785-13.3988647-13.3988647V47.0586624
			c0-7.3999863,5.9988861-13.3988609,13.3988647-13.3988609h0.0000305c7.3999939,0,13.3988647,5.9988747,13.3988647,13.3988609
			v27.0381317C238.780899,81.4967804,232.7820282,87.4956589,225.3820343,87.4956589z"/>
	</g>
	<path class="st0" d="M262.2635498,115.6071091H37.7364502C27.940918,115.6071091,20,107.6662521,20,97.8706589v150.7330322
		c0,9.7956085,7.940918,17.7365265,17.7364502,17.7365265h224.5270996C272.059082,266.34021,280,258.399292,280,248.6036835
		V97.8706589C280,107.6662521,272.059082,115.6071091,262.2635498,115.6071091z"/>
	<path class="st0" d="M262.2635498,59.3842049h-23.482666v14.7125893c0,7.3999634-5.9988403,13.3988647-13.3988647,13.3988647
		s-13.3988647-5.9989014-13.3988647-13.3988647V59.3842049H88.0168457v14.7125893
		c0,7.3999634-5.9988403,13.3988647-13.3988647,13.3988647s-13.3988647-5.9989014-13.3988647-13.3988647V59.3842049h-23.482666
		C27.940918,59.3842049,20,67.3250656,20,77.1206589v20.75c0,9.7955933,7.940918,17.7364502,17.7364502,17.7364502h224.5270996
		C272.059082,115.6071091,280,107.6662521,280,97.8706589v-20.75C280,67.3250656,272.059082,59.3842049,262.2635498,59.3842049z"/>
	<g>
		<rect x="54.780899" y="202.1259003" class="st1" width="26.4382038" height="64.2142868"/>
		<rect x="109.4475632" y="232.1259003" class="st1" width="26.4382038" height="34.2142868"/>
		<rect x="164.1142273" y="182.1259003" class="st1" width="26.4382038" height="84.2142868"/>
		<rect x="218.780899" y="143.1259003" class="st1" width="26.4382038" height="123.2142868"/>
	</g>
</g>
</svg>
