<?xml version="1.0" encoding="utf-8"?>
<!-- Generator: Adobe Illustrator 19.0.0, SVG Export Plug-In . SVG Version: 6.00 Build 0)  -->
<svg version="1.1" id="Layer_1" xmlns="http://www.w3.org/2000/svg" xmlns:xlink="http://www.w3.org/1999/xlink" x="0px" y="0px"
	 width="300px" height="300px" viewBox="-155 247 300 300" style="enable-background:new -155 247 300 300;" xml:space="preserve">
<style type="text/css">
	.st0{fill:none;stroke:#016ECF;stroke-width:8;stroke-linecap:round;stroke-linejoin:round;stroke-miterlimit:10;}
	.st1{fill:#016ECF;stroke:#016ECF;stroke-width:8;stroke-linecap:round;stroke-linejoin:round;stroke-miterlimit:10;}
</style>
<g id="XMLID_59_">
	<path id="XMLID_18_" class="st0" d="M49.0331841,265.1760254c-11.2499046,21.0037537-37.3945847,35.7292786-67.8638916,35.7292786
		c-30.469101,0-56.6137772-14.7255249-67.8636856-35.7292786h-20.7393112v235.9865112H69.7722855V265.1760254H49.0331841z"/>
	<polyline id="XMLID_17_" class="st0" points="-79.7722855,501.1625366 -79.7722855,528.8239746 97.4337082,528.8239746 
		97.4337082,292.8374634 69.7722855,292.8374634 	"/>
	<path id="XMLID_16_" class="st0" d="M-18.8307114,300.905304c30.4693108,0,56.6139908-14.7255249,67.8638916-35.7292786H24.9064655
		c-12.2468567,7.2106018-27.341486,11.5255127-43.737175,11.5255127s-31.4901123-4.3149109-43.736969-11.5255127H-86.694397
		C-75.4444885,286.1797791-49.2998123,300.905304-18.8307114,300.905304z"/>
	<polyline id="XMLID_15_" class="st0" points="-18.8307114,300.905365 -18.8307114,399.4491882 -2.0465667,399.4491882 	"/>
	<circle id="XMLID_14_" class="st1" cx="4.0043697" cy="328.278656" r="6.0509362"/>
	<circle id="XMLID_13_" class="st1" cx="4.0043697" cy="362.8554382" r="6.0509362"/>
	<path id="XMLID_1_" class="st1" d="M-65.1491699,395.4152222h-0.0000381c-11.6168594,0-21.0341873-9.4173279-21.0341873-21.0341797
		v-31.983551h42.0684128v31.983551C-44.1149826,385.9978943-53.5323067,395.4152222-65.1491699,395.4152222z"/>
</g>
</svg>
