<?xml version="1.0" encoding="utf-8"?>
<!-- Generator: Adobe Illustrator 19.0.0, SVG Export Plug-In . SVG Version: 6.00 Build 0)  -->
<svg version="1.1" id="Layer_1" xmlns="http://www.w3.org/2000/svg" xmlns:xlink="http://www.w3.org/1999/xlink" x="0px" y="0px"
	 width="1347.1696777px" height="903px" viewBox="368 -57 1347.1696777 903"
	 style="enable-background:new 368 -57 1347.1696777 903;" xml:space="preserve">
<style type="text/css">
	.st0{opacity:0.2;enable-background:new    ;}
	.st1{fill:url(#XMLID_2_);}
</style>
<g>
	<path class="st0" d="M750.7496948,846h6.8915405h953.5284424V-54H370.6190796
		c-5.1408081,143.3591309-2.3722534,248.4802246,5.3245239,277.7277832
		c4.5605469,17.329834,12.7776489,30.5664063,12.7776489,30.5664063
		c10.1906738,16.5134277,22.6241455,26.30896,34.7945557,35.7248535c15.1454468,11.7175293,16.1329346,9.3999023,34,22.25
		c16.8291626,12.1035156,28.6564331,20.6097412,39.3338623,35.2907715
		c7.1376953,9.8139648,13.4326782,19.3208008,19.930542,40.5305176c3.6918335,12.0505371,7.5740356,23.942749,13.5098877,35.1325684
		c12.9020386,24.3220215,31.0099487,38.9378662,36.2858887,42.8652344
		c17.5916748,13.0947266,37.2910156,18.8735352,76.6898193,30.4309082
		c16.3066406,4.7834473,19.0838013,4.8154297,26.8118896,8.668457c6.8648071,3.4226074,30.5835571,15.7126465,42.2719116,42.9321289
		c1.5330811,3.5700684,6.9384155,16.8969727,6.4161987,35.065918c-0.8300781,28.8825684-15.6202393,34.5620117-25.9143066,71.576416
		c-2.0823975,7.487793-7.2647705,28.072998-6.3267212,54.7402344c0.208252,5.920166,1.1656494,24.8535156,7.9801636,47.2841797
		c2.6412964,8.6940918,13.5935669,42.3701172,49.3997803,81.9020996
		C746.1609497,841.1794434,748.4489746,843.6046143,750.7496948,846z"/>
	
		<linearGradient id="XMLID_2_" gradientUnits="userSpaceOnUse" x1="770.4321899" y1="869.8824463" x2="1407.9685059" y2="-234.3627319">
		<stop  offset="0" style="stop-color:#7F44E4"/>
		<stop  offset="0.71" style="stop-color:#137FDC"/>
		<stop  offset="1" style="stop-color:#137FDC"/>
	</linearGradient>
	<path id="XMLID_23_" class="st1" d="M392.721283,251.2941895c10.1906738,16.5134277,22.6241455,26.30896,34.7945557,35.7248535
		c15.1454468,11.7175293,16.1329346,9.3999023,34,22.25c16.8291626,12.1035156,28.6564331,20.6097412,39.3338623,35.2907715
		c7.1377258,9.8139648,13.4326477,19.3208008,19.9305725,40.5305176
		c3.6917725,12.0505371,7.5739746,23.942749,13.5098877,35.1325684
		c12.9019775,24.3220215,31.0098877,38.9378662,36.2858887,42.8652344
		c17.5916748,13.0947266,37.2910156,18.8735352,76.6898193,30.4309082
		c16.3066406,4.7834473,19.0837402,4.8154297,26.8118896,8.668457c6.8647461,3.4226074,30.5834961,15.7126465,42.2718506,42.9321289
		c1.5330811,3.5700684,6.9384766,16.8969727,6.4162598,35.065918c-0.8300781,28.8825684-15.6202393,34.5620117-25.9143066,71.576416
		c-2.0823975,7.487793-7.2647705,28.072998-6.3267822,54.7402344c0.208252,5.920166,1.1656494,24.8535156,7.9802246,47.2841797
		c2.6412354,8.6940918,13.5935059,42.3701172,49.3997803,81.9020996c3.2004395,3.5334473,6.4501953,6.96875,9.7364502,10.3115234
		h957.5284424V-57H374.6191101c-5.1408691,143.3591309-2.3722534,248.4802246,5.3245239,277.7277832
		C384.5041809,238.0576172,392.721283,251.2941895,392.721283,251.2941895z"/>
</g>
</svg>
