<?xml version="1.0" encoding="utf-8"?>
<!-- Generator: Adobe Illustrator 19.0.0, SVG Export Plug-In . SVG Version: 6.00 Build 0)  -->
<svg version="1.1" id="Layer_1" xmlns="http://www.w3.org/2000/svg" xmlns:xlink="http://www.w3.org/1999/xlink" x="0px" y="0px"
	 width="114.9199829px" height="91.3002853px" viewBox="-82.8699951 333.4700012 114.9199829 91.3002853"
	 style="enable-background:new -82.8699951 333.4700012 114.9199829 91.3002853;" xml:space="preserve">
<g>
	<g>
		<path d="M-17.9500027,350.1300049h-1.5l3.6400003-4.6600037c0.129837-0.143219,0.1189957-0.3645325-0.0242081-0.4943848
			c-0.1432037-0.1298218-0.3645468-0.118988-0.49438,0.0242004c-0.0114326,0.0126343-0.0219307,0.026062-0.0314102,0.0401917
			l-4,5.1199951H-31.420002c-0.1933002,0-0.3500004,0.1567078-0.3500004,0.3500061l0,0
			c0,0.1932983,0.1567001,0.3499756,0.3500004,0.3499756l0,0h10.5499992l-4.5499992,5.8600159h-2
			c-2.5042515-0.1280212-4.9603119,0.7217407-6.8500023,2.3699951c-1.3336143,1.2858276-2.1031532,3.0478516-2.1399994,4.8999939
			c-0.0056076,0.1877136,0.1420021,0.3443909,0.3296967,0.3500061c0.0067673,0.0002136,0.0135384,0.0002136,0.0203056,0h4.7699986
			l-3.6400013,4.7000122c-0.1182098,0.1520081-0.0913963,0.3709717,0.0600014,0.4899902
			c0.0598526,0.046814,0.1340294,0.0715332,0.2099991,0.0700073c0.1087608,0.0039673,0.2128525-0.044342,0.2799988-0.1300049
			l4.0000019-5.1300049h15.3799982c0.1932945-0.0016174,0.3486786-0.1596069,0.3470612-0.3529053
			c-0.0001869-0.0225525-0.002552-0.0450134-0.007061-0.0670776l-2.9499998-13.5200195
			C-17.6470795,350.2420959-17.7877979,350.1303406-17.9500027,350.1300049z M-35.7400055,363.6099854
			c0.2000008-3.1499939,2.7999992-6.2199707,8.2800026-6.2199707h1.5l-4.8299999,6.2199707H-35.7400055z M-16.8000031,357.3900146
			l1.369998,6.2199707h-14.4700003l4.8199997-6.2199707H-16.8000031z M-24.5400028,356.6900024l4.5500011-5.8600159h1.7600002
			l1.2800007,5.8600159H-24.5400028z"/>
		<path d="M-25.4100018,333.4700012c-13.1278095,0-23.7700024,10.6421814-23.7700024,23.769989
			s10.6421928,23.7700195,23.7700024,23.7700195S-1.640004,370.3677979-1.640004,357.2399902c0-0.0033264,0-0.0066528,0-0.0099792
			C-1.6565446,344.1106567-12.2906656,333.4810181-25.4100018,333.4700012z M-25.4100018,380.2999878
			c-12.741209,0-23.0699978-10.3287659-23.0699978-23.0699768s10.3287888-23.0700073,23.0699997-23.0700073
			S-2.3400011,344.4888-2.3400011,357.230011C-2.3565302,369.9643555-12.6756449,380.2834778-25.4100018,380.2999878z"/>
	</g>
	<g>
		<path d="M-67.9049988,388.1300049h0.6899948v14.1799927h-0.6899948V388.1300049z"/>
		<path d="M-49.5649986,388.1300049h0.6900024v6.7200012h9.6999969v-6.7200012h0.6900024v14.1799927h-0.6900024v-6.8399963
			h-9.6999969v6.8299866h-0.6900024V388.1300049z"/>
		<path d="M-23.8950005,388.0299988h0.6500015l6.7300034,14.2799988h-0.75l-1.9300003-4.1300049h-8.7699966l-1.9400024,4.1300049
			h-0.7099991L-23.8950005,388.0299988z M-19.4949989,397.5499878l-4.1200027-8.7099915l-4,8.7099915H-19.4949989z"/>
		<path d="M-6.1550026,388.7600098h-5v-0.6300049h10.7999954v0.6300049h-5.0699997v13.5499878h-0.6800003L-6.1550026,388.7600098z"
			/>
		<path d="M6.9949989,388.1300049h10v0.6300049H7.6949959v6.0899963h8.4100037v0.6199951H7.6850014v6.2000122h9.3999939v0.6299744
			H6.9949989V388.1300049z"/>
	</g>
	<g>
		<path d="M-82.8499908,410.1300049h0.6699982v14.1799927h-0.6900024L-82.8499908,410.1300049z"/>
		<path d="M-72.0499878,410.1300049h5.8699951c1.4560547-0.0844116,2.8886414,0.3955078,4,1.3399963
			c0.6663361,0.7149963,1.0254211,1.6629639,1,2.6399841c0,2.3900146-1.8500061,3.7900085-4.4600067,4L-60.9199982,424.25
			h-0.8699951l-4.6199951-6.0599976h-5V424.25h-0.6900024L-72.0499878,410.1300049z M-66.3699951,417.6199951
			c2.9100037,0,4.5800018-1.4199829,4.5800018-3.4199829c0-2.1300049-1.6499939-3.4000244-4.4400024-3.4000244h-5.1300049v6.8600159
			L-66.3699951,417.6199951z"/>
		<path d="M-31.3399963,410.1300049h0.6199951l10.3800049,13v-13h0.6699982v14.1799927h-0.5099945l-10.5-13.1099854v13.1099854
			h-0.6600037V410.1300049z"/>
		<path d="M-10.3699951,410.1300049h0.6900024v14.1799927h-0.6900024V410.1300049z"/>
		<path d="M-0.3799896,410.1300049h0.6300049l10.3700104,13v-13h0.6700134v14.1799927h-0.5400085L0.2900238,411.2000122v13.1099854
			h-0.6699982L-0.3799896,410.1300049z"/>
		<path d="M19.4200134,417.2600098c-0.1438293-3.9075317,2.9072876-7.191803,6.8148193-7.3356323
			c0.0617065-0.0022583,0.1234436-0.0037231,0.1851807-0.004364c1.8428345-0.0509949,3.6341553,0.6117859,5,1.8499756
			l-0.4500122,0.5200195c-1.2366638-1.1717529-2.8763733-1.8233337-4.5799866-1.8200073
			c-3.5392456,0.0794067-6.3439941,3.0129395-6.2645874,6.5521851c0.0010376,0.0459595,0.0025635,0.0918884,0.0045776,0.1378174
			c0,3.6600037,2.3699951,6.7000122,6.3599854,6.7000122c1.7780457-0.0299683,3.4912109-0.6728516,4.8500061-1.8200073v-4.2799988
			h-5v-0.6600037h5.7099915v5.2799988c-1.5083618,1.3874207-3.4806213,2.1613159-5.5299988,2.1700134
			c-4.5100098,0-7.1000061-3.3200073-7.1000061-7.2900085H19.4200134z"/>
		<path d="M-46.519989,409.8800049c-3.9592133-0.0726929-7.2277069,3.0779724-7.3003845,7.0372009
			c-0.0017395,0.0942383-0.0016022,0.1885376,0.0003815,0.2828064c-0.1492157,4.0289001,2.9958954,7.4159546,7.0248108,7.5651855
			c4.0289154,0.1492004,7.4159698-2.9959106,7.5651855-7.0248108c0.0066681-0.1800842,0.0066681-0.360321,0-0.5403748
			c0.089035-3.9533691-3.0436096-7.2303772-6.9969788-7.319397
			C-46.3246307,409.878418-46.4223175,409.8782043-46.519989,409.8800049z M-53.0899963,417.2200012
			c-0.0473175-3.633728,2.8600464-6.6177979,6.4937744-6.6651001c1.3946991-0.018158,2.7590942,0.4073486,3.896225,1.2150879
			l-8.1900024,10.5C-52.3028259,420.9723511-53.1018066,419.1383057-53.0899963,417.2200012z M-39.9599915,417.2200012
			c0.0365448,3.6393738-2.8841248,6.6192932-6.5234985,6.6558533c-1.3834534,0.0138855-2.7362061-0.4079895-3.8665009-1.2058411
			l8.1699982-10.5c1.4128265,1.2976379,2.2118073,3.1316833,2.1999969,5.0499878H-39.9599915z"/>
	</g>
</g>
</svg>
